<?xml version="1.0" encoding="UTF-8"?>
<svg width="11px" height="12px" viewBox="0 0 11 12" version="1.1" xmlns="http://www.w3.org/2000/svg" xmlns:xlink="http://www.w3.org/1999/xlink">
    <!-- Generator: Sketch 63.1 (92452) - https://sketch.com -->
    <title>Controls/navigation/arrow</title>
    <desc>Created with Sketch.</desc>
    <g id="💰-Reimbursements/Non-Payments" stroke="none" stroke-width="1" fill="none" fill-rule="evenodd">
        <g id="✅-Reimbursements/Non-Payments/Top-Claims-Table-Row-Hover_1280px" transform="translate(-871.000000, -406.000000)" fill="#757588">
            <g id="Table" transform="translate(296.000000, 384.000000)">
                <g id="Header" transform="translate(0.000000, 16.000000)">
                    <g id="Controls/Sort-Arrow" transform="translate(581.000000, 12.000000) scale(1, -1) translate(-581.000000, -12.000000) translate(573.000000, 4.000000)">
                        <path d="M7.06166667,3.33333333 L7.06166667,10.78 L3.80833333,7.52666667 C3.54833333,7.26666667 3.12166667,7.26666667 2.86166667,7.52666667 C2.60166667,7.78666667 2.60166667,8.20666667 2.86166667,8.46666667 L7.255,12.86 C7.515,13.12 7.935,13.12 8.195,12.86 L12.5883333,8.46666667 C12.8483333,8.20666667 12.8483333,7.78666667 12.5883333,7.52666667 C12.3283333,7.26666667 11.9083333,7.26666667 11.6483333,7.52666667 L8.395,10.78 L8.395,3.33333333 C8.395,2.96666667 8.095,2.66666667 7.72833333,2.66666667 C7.36166667,2.66666667 7.06166667,2.96666667 7.06166667,3.33333333 Z" id="Brand-(Core-Colors)/medium-gray"></path>
                    </g>
                </g>
            </g>
        </g>
    </g>
</svg>