<?xml version="1.0" encoding="UTF-8"?>
<svg width="16px" height="16px" viewBox="0 0 16 16" version="1.1" xmlns="http://www.w3.org/2000/svg" xmlns:xlink="http://www.w3.org/1999/xlink">
    <title>icon/content/calendar (date) 16x16</title>
    <g id="icon/content/calendar-(date)-16x16" stroke="none" stroke-width="1" fill="none" fill-rule="evenodd">
        <g id="date_range-24px">
            <polygon id="Path" points="0 0 16 0 16 16 0 16"></polygon>
            <path d="M12.6666667,2.66666667 L12,2.66666667 L12,2 C12,1.63333333 11.7,1.33333333 11.3333333,1.33333333 C10.9666667,1.33333333 10.6666667,1.63333333 10.6666667,2 L10.6666667,2.66666667 L5.33333333,2.66666667 L5.33333333,2 C5.33333333,1.63333333 5.03333333,1.33333333 4.66666667,1.33333333 C4.3,1.33333333 4,1.63333333 4,2 L4,2.66666667 L3.33333333,2.66666667 C2.59333333,2.66666667 2.00666667,3.26666667 2.00666667,4 L2,13.3333333 C2,14.0666667 2.59333333,14.6666667 3.33333333,14.6666667 L12.6666667,14.6666667 C13.4,14.6666667 14,14.0666667 14,13.3333333 L14,4 C14,3.26666667 13.4,2.66666667 12.6666667,2.66666667 Z M12.6666667,12.6666667 C12.6666667,13.0333333 12.3666667,13.3333333 12,13.3333333 L4,13.3333333 C3.63333333,13.3333333 3.33333333,13.0333333 3.33333333,12.6666667 L3.33333333,6 L12.6666667,6 L12.6666667,12.6666667 Z M4.66666667,7.33333333 L6,7.33333333 L6,8.66666667 L4.66666667,8.66666667 L4.66666667,7.33333333 Z M7.33333333,7.33333333 L8.66666667,7.33333333 L8.66666667,8.66666667 L7.33333333,8.66666667 L7.33333333,7.33333333 Z M10,7.33333333 L11.3333333,7.33333333 L11.3333333,8.66666667 L10,8.66666667 L10,7.33333333 Z" id="Shape" fill="#196ECF" fill-rule="nonzero"></path>
        </g>
    </g>
</svg>