<?xml version="1.0" encoding="UTF-8"?>
<svg width="120px" height="120px" viewBox="0 0 120 120" version="1.1" xmlns="http://www.w3.org/2000/svg" xmlns:xlink="http://www.w3.org/1999/xlink">
    <!-- Generator: Sketch 59.1 (86144) - https://sketch.com -->
    <title>PA-Convo</title>
    <desc>Created with Sketch.</desc>
    <g id="Executive-View" stroke="none" stroke-width="1" fill="none" fill-rule="evenodd">
        <g id="PriorAuth" transform="translate(-108.000000, -125.000000)">
            <rect fill="#FFFFFF" x="0" y="0" width="677" height="320"></rect>
            <path d="M168.5,148 C145.1,148 126,163.541444 126,182.592246 C126,193.220588 132.1,203.347594 142.3,209.864973 L138.7,217.385027 C138,218.78877 138.3,220.493316 139.3,221.696524 C140.1,222.498663 141.1,223 142.2,223 C142.6,223 143.1,222.899733 143.5,222.799465 L160.8,216.582888 C163.3,216.983957 165.9,217.184492 168.5,217.184492 C191.9,217.184492 211,201.643048 211,182.592246 C211,163.541444 191.9,148 168.5,148 Z M168.5,153.915775 C188.6,153.915775 205,166.75 205,182.491979 C205,198.233957 188.6,211.168449 168.5,211.168449 C166,211.168449 163.6,210.967914 161.2,210.566845 C160.6,210.466578 159.9,210.566845 159.3,210.76738 L146.3,215.379679 L148.5,210.667112 C149.4,208.862299 148.7,206.55615 146.9,205.553476 C137.5,200.139037 132,191.516043 132,182.491979 C132,166.75 148.4,153.915775 168.5,153.915775 Z M184.764969,167.773804 L159.992851,192.244626 L151.235031,183.593325 C150.25916,182.629323 148.707775,182.629323 147.731903,183.593325 C146.756032,184.557327 146.756032,186.089843 147.731903,187.053845 L158.216265,197.410688 C159.192136,198.37469 160.768543,198.37469 161.744415,197.410688 L188.268097,171.234324 C189.243968,170.270322 189.243968,168.737806 188.268097,167.773804 C187.292225,166.809802 185.74084,166.809802 184.764969,167.773804 Z" id="Shape" fill="#000000" fill-rule="nonzero"></path>
        </g>
    </g>
</svg>