
<svg width="24" height="24" viewBox="0 0 85 75"  xmlns="http://www.w3.org/2000/svg" >
    <!-- Generator: Sketch 59.1 (86144) - https://sketch.com -->
    <path d="M0 0h24v24H0z" fill="none"/>
        <path d="M42.5,0 C19.1,0 0,15.541444 0,34.592246 C0,45.220588 6.1,55.347594 16.3,61.864973 L12.7,69.385027 C12,70.78877 12.3,72.493316 13.3,73.696524 C14.1,74.498663 15.1,75 16.2,75 C16.6,75 17.1,74.899733 17.5,74.799465 L34.8,68.582888 C37.3,68.983957 39.9,69.184492 42.5,69.184492 C65.9,69.184492 85,53.643048 85,34.592246 C85,15.541444 65.9,0 42.5,0 Z M42.5,5.915775 C62.6,5.915775 79,18.75 79,34.491979 C79,50.233957 62.6,63.168449 42.5,63.168449 C40,63.168449 37.6,62.967914 35.2,62.566845 C34.6,62.466578 33.9,62.566845 33.3,62.76738 L20.3,67.379679 L22.5,62.667112 C23.4,60.862299 22.7,58.55615 20.9,57.553476 C11.5,52.139037 6,43.516043 6,34.491979 C6,18.75 22.4,5.915775 42.5,5.915775 Z M58.764969,19.773804 L33.992851,44.244626 L25.235031,35.593325 C24.25916,34.629323 22.707775,34.629323 21.731903,35.593325 C20.756032,36.557327 20.756032,38.089843 21.731903,39.053845 L32.216265,49.410688 C33.192136,50.37469 34.768543,50.37469 35.744415,49.410688 L62.268097,23.234324 C63.243968,22.270322 63.243968,20.737806 62.268097,19.773804 C61.292225,18.809802 59.74084,18.809802 58.764969,19.773804 Z"  />
    
</svg>