<svg width="24" height="24" viewBox="0 0 24 24" xmlns="http://www.w3.org/2000/svg">
    <!-- Generator: Sketch 59.1 (86144) - https://sketch.com -->
    <path d="M0 0h24v24H0z" fill="none"/>
        <path d="M11.9999881,12 C14.7617079,12 17,9.76170787 17,6.99998808 C17,4.23826828 14.7617079,2 11.9999881,2 C9.23826828,2 7,4.23826828 7,6.99998808 C7,9.76170787 9.23826828,12 11.9999881,12 Z M7.06250224,19 C7.06250224,19.5195224 7.48047762,19.9374978 8,19.9374978 C8.51952238,19.9374978 8.93749776,19.5195224 8.93749776,19 C8.93749776,18.4804776 8.51952238,18.0625022 8,18.0625022 C7.48047762,18.0625022 7.06250224,18.4804776 7.06250224,19 Z M15.8571429,13 C18.717865,13.1410024 21,15.4897317 21,18.3903533 L21,20.1951766 C21,21.1902589 20.1924264,22 19.2000078,22 L4.79999215,22 C3.80757359,22 3,21.1902589 3,20.1951766 L3,18.3903533 C3,15.7072547 4.94866071,13.4995672 7.50400216,13.0684948 L7.50400216,16.307538 C6.57589286,16.5854906 5.89685931,17.4395704 5.89685931,18.4588087 C5.89685931,19.7036746 6.90536499,20.7148477 8.14685931,20.7148477 C9.38839286,20.7148477 10.3968593,19.7036746 10.3968593,18.4588087 C10.3968593,17.4395704 9.71786499,16.5854906 8.78971645,16.307538 L8.78971645,13.0201432 L9.24826322,13.1007259 L9.24826322,13.1007259 L9.6977757,13.2296404 C10.42099,13.4834369 11.1964286,13.6244394 12.0040022,13.6244394 C12.6097118,13.6244394 13.1973234,13.5451255 13.7583784,13.3983982 L14.5754307,13.1531198 L14.5754307,13.1531198 L14.5754307,14.9740341 C13.1089129,15.2761822 12.0040022,16.5774648 12.0040022,18.1325045 L12.0040022,19.8970415 C12.0040022,20.223385 12.2410714,20.4932725 12.5584978,20.5376111 L13.8120379,20.7068219 C13.9848371,20.7390432 14.1535557,20.6262491 14.1897321,20.4529861 L14.31427,19.8205209 C14.3464443,19.6472578 14.2339129,19.4780864 14.0611529,19.4418129 L13.2857388,19.2846801 L13.2857388,18.2090644 C13.2857388,15.5098749 17.1428571,15.6025258 17.1428571,18.1325045 L17.1428571,19.2806672 L16.3674186,19.4378 C16.1906172,19.4700212 16.078125,19.6432449 16.1143014,19.8164686 L16.2388393,20.4489732 C16.2750157,20.6262491 16.4437343,20.7390432 16.6165336,20.7027697 L17.9102522,20.4449603 C18.2115914,20.3845306 18.4285714,20.1186167 18.4285714,19.8124557 L18.4285714,18.1325045 C18.4285714,16.5774648 17.3236607,15.2721693 15.8571429,14.9740341 L15.8571429,13 Z" />
   
</svg>