<?xml version="1.0" encoding="UTF-8"?>
<svg width="24px" height="20px" viewBox="0 0 24 20" version="1.1" xmlns="http://www.w3.org/2000/svg" xmlns:xlink="http://www.w3.org/1999/xlink">
    <!-- Generator: Sketch 63.1 (92452) - https://sketch.com -->
    <title>icon/main menu/home/idle</title>
    <desc>Created with Sketch.</desc>
    <g id="Symbols" stroke="none" stroke-width="1" fill="none" fill-rule="evenodd">
        <g id="icon/main-menu/home/idle" transform="translate(0.000000, -2.000000)" fill="#757588">
            <g id="icon/content/performance">
                <g id="speed-24px" transform="translate(0.000000, 2.000000)">
                    <path d="M22.056,5.484 L20.58,7.704 C22.02588,10.5877716 21.9267009,14.0049418 20.316,16.8 L3.684,16.8 C1.56779603,13.1288292 2.10886079,8.50441685 5.01537412,5.42091318 C7.92188744,2.33740951 12.5062856,1.52424693 16.296,3.42 L18.516,1.944 C13.8645693,-1.03867581 7.7776738,-0.45953216 3.77219129,3.34681415 C-0.233291227,7.15316046 -1.12181086,13.2026429 1.62,18 C2.04612551,18.7381069 2.83173346,19.1948557 3.684,19.200019 L20.304,19.200019 C21.1648434,19.2034176 21.9615817,18.7455221 22.392,18 C24.6463726,14.094804 24.5212168,9.25544799 22.068,5.472 L22.056,5.484 Z M10.308,13.692 C10.7581638,14.1426649 11.3690178,14.395888 12.006,14.395888 C12.6429822,14.395888 13.2538362,14.1426649 13.704,13.692 L20.496,3.504 L10.308,10.296 C9.8573351,10.7461638 9.60411202,11.3570178 9.60411202,11.994 C9.60411202,12.6309822 9.8573351,13.2418362 10.308,13.692 L10.308,13.692 Z" id="Shape"></path>
                </g>
            </g>
        </g>
    </g>
</svg>