<?xml version="1.0" encoding="UTF-8"?>
<svg width="24px" height="24px" viewBox="0 0 24 24" version="1.1" xmlns="http://www.w3.org/2000/svg" xmlns:xlink="http://www.w3.org/1999/xlink">
    <!-- Generator: Sketch 59.1 (86144) - https://sketch.com -->
    <title>Group 13</title>
    <desc>Created with Sketch.</desc>
    <g id="Getting-Reimbursed" stroke="none" stroke-width="1" fill="none" fill-rule="evenodd">
        <g id="Payment-Integrity-Records-Received-Rate-1280px-Full-size-Card-2-Tabs" transform="translate(-497.000000, -988.000000)">
            <g id="Group-13" transform="translate(497.000000, 988.000000)">
                <circle id="Oval" fill="#FFE6F0" cx="12" cy="12" r="12"></circle>
                <g id="icon/action/close" transform="translate(6.750000, 6.750000)" fill="#B10C00">
                    <g id="round-clear-24px">
                        <path d="M9.975,0.5325 C9.6825,0.24 9.21,0.24 8.9175,0.5325 L5.25,4.1925 L1.5825,0.525 C1.29,0.2325 0.8175,0.2325 0.525,0.525 C0.2325,0.8175 0.2325,1.29 0.525,1.5825 L4.1925,5.25 L0.525,8.9175 C0.2325,9.21 0.2325,9.6825 0.525,9.975 C0.8175,10.2675 1.29,10.2675 1.5825,9.975 L5.25,6.3075 L8.9175,9.975 C9.21,10.2675 9.6825,10.2675 9.975,9.975 C10.2675,9.6825 10.2675,9.21 9.975,8.9175 L6.3075,5.25 L9.975,1.5825 C10.26,1.2975 10.26,0.8175 9.975,0.5325 Z" id="Path"></path>
                    </g>
                </g>
            </g>
        </g>
    </g>
</svg>