<?xml version="1.0" encoding="UTF-8"?>
<svg width="42px" height="42px" viewBox="0 0 42 42" version="1.1" xmlns="http://www.w3.org/2000/svg" xmlns:xlink="http://www.w3.org/1999/xlink">
    <!-- Generator: Sketch 59.1 (86144) - https://sketch.com -->
    <desc>Created with Sketch.</desc>
    <g id="Visual-Comps-Workflows" stroke="none" stroke-width="1" fill="none" fill-rule="evenodd">
        <g id="External_TIN-Details_Tooltip" transform="translate(-287.000000, -103.000000)">
            <g id="Group" transform="translate(288.000000, 104.000000)">
                <circle id="Oval" stroke="#196ECF" stroke-width="2" cx="20" cy="20" r="20"></circle>
                <g id="icon/navigation/back" transform="translate(8.000000, 8.000000)">
                    <g transform="translate(12.000000, 12.000000) scale(-1, 1) translate(-12.000000, -12.000000) " id="Path">
                        <polygon opacity="0.87" points="24 24 0 24 0 0 24 0"></polygon>
                        <path d="M7.38,21.01 C7.87,21.5 8.66,21.5 9.15,21.01 L17.46,12.7 C17.85,12.31 17.85,11.68 17.46,11.29 L9.15,2.98 C8.66,2.49 7.87,2.49 7.38,2.98 C6.89,3.47 6.89,4.26 7.38,4.75 L14.62,12 L7.37,19.25 C6.89,19.73 6.89,20.53 7.38,21.01 Z" fill="#196ECF" fill-rule="nonzero"></path>
                    </g>
                </g>
            </g>
        </g>
    </g>
</svg>