<?xml version="1.0" encoding="UTF-8"?>
<svg width="114px" height="68px" viewBox="0 0 114 68" version="1.1" xmlns="http://www.w3.org/2000/svg" xmlns:xlink="http://www.w3.org/1999/xlink">
    <!-- Generator: Sketch 53.2 (72643) - https://sketchapp.com -->
    <title>Artboard</title>
    <desc>Created with Sketch.</desc>
    <g id="Artboard" stroke="none" stroke-width="1" fill="none" fill-rule="evenodd">
        <g id="icon/trend/up" transform="translate(-59.000000, -80.000000)">
            <circle id="Oval" fill-rule="nonzero" cx="115" cy="115" r="115"></circle>
            <g id="round-trending_up-24px" stroke-width="1" fill-rule="evenodd" transform="translate(115.000000, 115.000000) scale(1, -1) translate(-115.000000, -115.000000) translate(46.000000, 46.000000)">
                <polygon id="Path" points="0 0 138 0 138 138 0 138"></polygon>
                <path d="M105.1675,47.6675 L77.1075,75.7275 L58.19,56.81 C55.9475,54.5675 52.325,54.5675 50.0825,56.81 L15.5825,91.3675 C13.34,93.61 13.34,97.2325 15.5825,99.475 C17.825,101.7175 21.4475,101.7175 23.69,99.475 L54.1075,69 L73.025,87.9175 C75.2675,90.16 78.89,90.16 81.1325,87.9175 L113.275,55.8325 L121.555,64.1125 C123.3375,65.895 126.4425,64.63 126.4425,62.1 L126.4425,37.375 C126.5,35.765 125.235,34.5 123.625,34.5 L98.9575,34.5 C96.37,34.5 95.105,37.605 96.8875,39.3875 L105.1675,47.6675 Z" id="Path" fill="#E91B18"></path>
            </g>
        </g>
    </g>
</svg>