<?xml version="1.0" encoding="UTF-8"?>
<svg xmlns="http://www.w3.org/2000/svg" xmlns:xlink="http://www.w3.org/1999/xlink" version="1.2" >
<font id="UHCSans-SemiBoldItalic">
<font-face  font-family="UHC Sans" units-per-em="2048" ascent="1682" descent="-366" font-style="italic" font-weight="600" font-stretch="normal" slope="-12" cap-height="1365" x-height="990" underline-position="-203" underline-thickness="146" />
<missing-glyph  horiz-adv-x="512" d="M51 0 L51 1365 L461 1365 L461 0 L51 0 Z M410 51 L410 1314 L102 1314 L102 51 L410 51 Z " />
<glyph glyph-name="space" unicode="&#x20;" horiz-adv-x="512" d="" />
<glyph glyph-name="exclam" unicode="&#x21;" horiz-adv-x="615" d="M248 254 Q303 254 341.5 213.5 Q380 173 380 115 Q380 61 341 22.5 Q302 -16 247 -16 Q192 -16 154 23.5 Q116 63 116 120 Q116 174 155 214 Q194 254 248 254 Z M630 1365 L546 969 L359 374 L249 374 L313 969 L398 1365 L630 1365 Z " />
<glyph glyph-name="quotedbl" unicode="&#x22;" horiz-adv-x="803" d="M382 818 L202 818 L276 1365 L540 1365 L382 818 Z M744 818 L564 818 L638 1365 L902 1365 L744 818 Z " />
<glyph glyph-name="numbersign" unicode="&#x23;" horiz-adv-x="1106" d="M70 545 L271 545 L329 838 L156 838 L156 978 L358 978 L434 1367 L589 1367 L512 978 L787 978 L864 1367 L1020 1367 L941 978 L1112 978 L1112 838 L912 838 L855 545 L1027 545 L1027 403 L826 403 L746 0 L591 0 L671 403 L398 403 L317 0 L161 0 L243 403 L70 403 L70 545 Z M426 545 L700 545 L757 838 L484 838 L426 545 Z " />
<glyph glyph-name="dollar" unicode="&#x24;" horiz-adv-x="1106" d="M801 1535 L769 1378 Q895 1356 959 1311 Q1091 1216 1091 1042 Q1091 1028 1089 995 L893 995 Q895 1015 895 1029 Q895 1109 853.5 1158 Q812 1207 735 1216 L646 788 Q990 699 990 444 Q990 354 956.5 265 Q923 176 866 114 Q737 -25 509 -25 Q495 -25 477 -25 L440 -202 L344 -202 L381 -25 Q287 -4 238.5 16.5 Q190 37 151 73 Q32 181 32 366 Q32 386 34 426 L240 426 Q238 399 238 376 Q238 275 279 221.5 Q320 168 416 143 L515 619 Q505 624 397 665 Q303 701 250.5 780 Q198 859 198 964 Q198 1138 309 1254 Q368 1316 455.5 1350.5 Q543 1385 641 1385 Q649 1385 674 1384 L706 1535 L801 1535 Z M556 814 L641 1225 Q538 1223 469 1156 Q400 1089 400 991 Q400 898 471 852 L556 814 Z M606 594 L510 136 Q528 133 533 133 Q579 133 642.5 168.5 Q706 204 735 245 Q778 307 778 393 Q778 470 738 517 Q698 564 606 594 Z " />
<glyph glyph-name="percent" unicode="&#x25;" horiz-adv-x="1672" d="M518 1367 Q649 1367 722.5 1290.5 Q796 1214 796 1077 Q796 935 725 811 Q618 626 415 626 Q289 626 216.5 705 Q144 784 144 921 Q144 1109 247 1238 Q349 1367 518 1367 Z M517 1242 Q397 1242 340 1085 Q307 994 307 898 Q307 827 338.5 789 Q370 751 429 751 Q484 751 533 800 Q633 899 633 1075 Q633 1242 517 1242 Z M418 -42 L253 -42 L1347 1382 L1511 1382 L418 -42 Z M1335 714 Q1467 714 1540 638 Q1613 562 1613 426 Q1613 280 1543 159 Q1435 -27 1235 -27 Q1108 -27 1035 52 Q962 131 962 267 Q962 460 1064 586 Q1168 714 1335 714 Z M1335 590 Q1215 590 1157 432 Q1125 346 1125 244 Q1125 173 1156 135.5 Q1187 98 1244 98 Q1304 98 1351 147 Q1450 250 1450 420 Q1450 590 1335 590 Z " />
<glyph glyph-name="ampersand" unicode="&#x26;" horiz-adv-x="1257" d="M1179 651 Q1161 551 1103.5 442.5 Q1046 334 972 261 L1141 0 L899 0 L823 126 Q731 43 645.5 8.5 Q560 -26 448 -26 Q276 -26 169 70 Q50 176 50 341 Q50 448 100.5 530 Q151 612 263 686 Q338 737 420 773 Q365 865 344.5 922.5 Q324 980 324 1044 Q324 1190 422 1282 Q520 1374 676 1374 Q825 1374 918 1292 Q1008 1213 1008 1088 Q1008 956 900 853 Q829 786 689 713 L867 422 Q942 509 979 651 L1179 651 Z M601 851 Q821 960 821 1084 Q821 1142 781.5 1177.5 Q742 1213 678 1213 Q609 1213 564 1168.5 Q519 1124 519 1055 Q519 986 601 851 Z M518 628 Q421 577 372 540 Q259 455 259 347 Q259 263 316 208.5 Q373 154 462 154 Q608 154 725 281 L518 628 Z " />
<glyph glyph-name="quotesingle" unicode="&#x27;" horiz-adv-x="441" d="M382 818 L202 818 L276 1365 L540 1365 L382 818 Z " />
<glyph glyph-name="parenleft" unicode="&#x28;" horiz-adv-x="628" d="M720 1365 Q541 1154 414 872 Q276 567 276 212 Q276 68 300.5 -93 Q325 -254 363 -366 L206 -366 Q142 -217 105 -41 Q68 135 68 291 Q68 659 264 994 Q391 1211 536 1365 L720 1365 Z " />
<glyph glyph-name="parenright" unicode="&#x29;" horiz-adv-x="628" d="M-84 -366 Q95 -155 222 127 Q360 432 360 787 Q360 932 336 1092 Q312 1252 273 1365 L430 1365 Q568 1036 568 708 Q568 340 372 5 Q244 -212 100 -366 L-84 -366 Z " />
<glyph glyph-name="asterisk" unicode="&#x2a;" horiz-adv-x="1106" d="M799 1365 L750 1137 L973 1170 L990 1047 L775 1018 L875 820 L760 762 L662 965 L505 789 L414 877 L573 1047 L377 1143 L435 1255 L630 1154 L669 1365 L799 1365 Z " />
<glyph glyph-name="plus" unicode="&#x2b;" horiz-adv-x="1106" d="M135 745 L514 745 L514 1118 L671 1118 L671 745 L1050 745 L1050 588 L671 588 L671 216 L514 216 L514 588 L135 588 L135 745 Z " />
<glyph glyph-name="comma" unicode="&#x2c;" horiz-adv-x="539" d="M18 -153 Q79 -146 128.5 -105.5 Q178 -65 197 -7 L185 -8 L180 -8 L173 -8 Q120 -8 81 31 Q42 70 42 123 Q42 181 81 221.5 Q120 262 177 262 Q243 262 285 209.5 Q327 157 327 75 Q327 -39 233 -143 Q183 -198 127.5 -226.5 Q72 -255 -6 -266 L18 -153 Z " />
<glyph glyph-name="hyphen" unicode="&#x2d;" horiz-adv-x="519" d="M546 607 L504 410 L-15 410 L27 607 L546 607 Z " />
<glyph glyph-name="period" unicode="&#x2e;" horiz-adv-x="539" d="M195 263 Q250 263 288.5 222.5 Q327 182 327 124 Q327 70 288 31.5 Q249 -7 194 -7 Q139 -7 101 32.5 Q63 72 63 129 Q63 183 102 223 Q141 263 195 263 Z " />
<glyph glyph-name="slash" unicode="&#x2f;" horiz-adv-x="807" d="M916 1365 L-33 -366 L-225 -366 L724 1365 L916 1365 Z " />
<glyph glyph-name="zero" unicode="0" horiz-adv-x="1106" d="M698 1386 Q908 1386 1012 1237 Q1098 1114 1098 899 Q1098 733 1051.5 556 Q1005 379 929 253 Q760 -24 488 -24 Q289 -24 190 113 Q87 255 87 479 Q87 647 137 826.5 Q187 1006 270 1136 Q429 1386 698 1386 Z M674 1206 Q519 1206 416 977 Q367 870 335 717 Q303 564 303 442 Q303 156 510 156 Q639 156 721 290 Q791 403 837 583 Q883 763 883 920 Q883 1071 830 1138 Q801 1174 734 1195 Q697 1206 674 1206 Z " />
<glyph glyph-name="one" unicode="1" horiz-adv-x="1106" d="M952 1398 L665 0 L435 0 L643 1011 Q508 985 360 985 Q335 985 302 986 L336 1152 Q653 1157 779 1398 L952 1398 Z " />
<glyph glyph-name="two" unicode="2" horiz-adv-x="1106" d="M993 188 L953 0 L17 0 Q27 161 121 296 Q181 380 258.5 439 Q336 498 565 632 Q744 738 810 809 Q881 887 881 995 Q881 1102 810 1157 Q752 1201 665 1201 Q547 1201 472.5 1120 Q398 1039 385 896 L178 896 Q198 1122 322 1248 Q461 1388 680 1388 Q881 1388 996 1276 Q1103 1172 1103 1006 Q1103 804 944 661 Q888 611 838.5 578 Q789 545 549 396 Q367 284 305 183 Q396 188 489 188 L993 188 Z " />
<glyph glyph-name="three" unicode="3" horiz-adv-x="1106" d="M254 453 Q252 429 252 409 Q252 314 293 254 Q356 162 500 162 Q652 162 731 270 Q784 344 784 439 Q784 641 542 641 Q514 641 471 638 L506 804 Q636 802 691 815 Q796 840 838 924 Q862 972 862 1026 Q862 1110 805.5 1158 Q749 1206 651 1206 Q543 1206 475 1141 Q407 1076 384 950 L178 950 Q198 1100 281 1211 Q412 1386 669 1386 Q862 1386 974 1284 Q1078 1190 1078 1047 Q1078 927 1014 843.5 Q950 760 830 725 Q915 694 962 621.5 Q1009 549 1009 447 Q1009 365 978 282.5 Q947 200 894 139 Q825 61 718.5 18 Q612 -25 487 -25 Q318 -25 205 54 Q41 167 41 382 Q41 415 45 453 L254 453 Z " />
<glyph glyph-name="four" unicode="4" horiz-adv-x="1106" d="M1054 503 L1016 326 L835 326 L768 0 L553 0 L620 326 L16 326 L58 524 L851 1398 L1056 1398 L872 503 L1054 503 Z M658 503 L731 857 Q750 951 786 1105 Q733 1035 608 895 L331 585 Q330 583 246 499 Q315 503 352 503 L658 503 Z " />
<glyph glyph-name="five" unicode="5" horiz-adv-x="1106" d="M1088 1365 L1048 1177 L488 1177 L387 846 Q492 923 632 923 Q810 923 917 805 Q1021 691 1021 512 Q1021 303 883 145 Q737 -23 484 -23 Q272 -23 157 88 Q44 195 44 366 Q44 373 44 388 L258 388 Q271 157 493 157 Q668 157 749 305 Q797 394 797 498 Q797 607 741 675 Q677 751 556 751 Q399 751 319 622 L127 628 L348 1365 L1088 1365 Z " />
<glyph glyph-name="six" unicode="6" horiz-adv-x="1106" d="M1132 1022 L918 1022 Q905 1214 727 1214 Q478 1214 356 765 Q477 899 651 899 Q804 899 909 810 Q1042 696 1042 491 Q1042 339 968 213 Q883 68 734 11 Q644 -24 545 -24 Q323 -24 204 129 Q101 261 101 482 Q101 611 134.5 760.5 Q168 910 224 1027 Q394 1387 740 1387 Q920 1387 1025.5 1289 Q1131 1191 1132 1022 Z M590 730 Q454 730 377 622 Q317 536 317 413 Q317 345 342 286 Q398 152 552 152 Q697 152 774 285 Q823 370 823 478 Q823 559 792 619 Q735 730 590 730 Z " />
<glyph glyph-name="seven" unicode="7" horiz-adv-x="1106" d="M1172 1365 L1133 1181 Q906 957 724.5 642.5 Q543 328 453 0 L208 0 Q294 326 519 684 Q603 818 670 902.5 Q737 987 900 1167 Q859 1163 747 1163 L215 1163 L258 1365 L1172 1365 Z " />
<glyph glyph-name="eight" unicode="8" horiz-adv-x="1106" d="M820 726 Q887 701 933 651 Q1020 557 1020 418 Q1020 289 944 177 Q808 -24 515 -24 Q341 -24 220 52 Q140 102 95 189 Q50 276 50 379 Q50 523 139 623 Q228 723 379 747 Q214 836 214 1013 Q214 1189 354 1297 Q471 1387 647 1387 Q882 1387 997 1249 Q1070 1162 1070 1043 Q1070 924 1000.5 836 Q931 748 820 726 Z M649 1219 Q541 1219 479 1159.5 Q417 1100 417 997 Q417 908 475.5 856.5 Q534 805 634 805 Q722 805 780 847 Q861 907 861 1022 Q861 1115 804.5 1167 Q748 1219 649 1219 Z M553 648 Q410 648 334 559 Q272 487 272 378 Q272 289 320 227 Q385 143 520 143 Q630 143 701 201 Q798 280 798 421 Q798 518 745 577 Q680 648 553 648 Z " />
<glyph glyph-name="nine" unicode="9" horiz-adv-x="1106" d="M65 340 L269 340 Q286 148 472 148 Q614 148 696 253.5 Q778 359 830 608 Q714 464 530 464 Q417 464 329 514 Q237 566 190 661 Q143 757 143 869 Q143 1074 268 1220 Q411 1386 647 1386 Q852 1386 964.5 1255 Q1077 1124 1077 886 Q1077 696 1029 515.5 Q981 335 897 208 Q743 -25 475 -25 Q286 -25 177 72.5 Q68 170 65 340 Z M640 1209 Q516 1209 436 1109 Q358 1013 358 877 Q358 780 402 717 Q462 632 584 632 Q705 632 782.5 723.5 Q860 815 860 958 Q860 1074 801 1141.5 Q742 1209 640 1209 Z " />
<glyph glyph-name="colon" unicode="&#x3a;" horiz-adv-x="573" d="M229 263 Q284 263 322.5 222.5 Q361 182 361 124 Q361 70 322 31.5 Q283 -7 228 -7 Q173 -7 135 32.5 Q97 72 97 129 Q97 183 136 223 Q175 263 229 263 Z M382 981 Q437 981 475.5 940.5 Q514 900 514 842 Q514 788 475 749.5 Q436 711 381 711 Q326 711 288 750.5 Q250 790 250 847 Q250 902 289 941.5 Q328 981 382 981 Z " />
<glyph glyph-name="semicolon" unicode="&#x3b;" horiz-adv-x="574" d="M56 -153 Q117 -146 166.5 -105.5 Q216 -65 235 -7 L223 -8 L218 -8 L211 -8 Q158 -8 119 31 Q80 70 80 123 Q80 181 119 221.5 Q158 262 215 262 Q281 262 323 209.5 Q365 157 365 75 Q365 -39 271 -143 Q221 -198 165.5 -226.5 Q110 -255 32 -266 L56 -153 Z M382 981 Q437 981 475.5 940.5 Q514 900 514 842 Q514 788 475 749.5 Q436 711 381 711 Q326 711 288 750.5 Q250 790 250 847 Q250 902 289 941.5 Q328 981 382 981 Z " />
<glyph glyph-name="less" unicode="&#x3c;" horiz-adv-x="1024" d="M998 1233 L998 996 L363 688 L997 379 L998 144 L111 588 L111 789 L998 1233 Z " />
<glyph glyph-name="equal" unicode="&#x3d;" horiz-adv-x="1106" d="M135 898 L1050 898 L1050 745 L135 745 L135 898 Z M135 589 L1050 589 L1050 436 L135 436 L135 589 Z " />
<glyph glyph-name="greater" unicode="&#x3e;" horiz-adv-x="1024" d="M112 144 L112 381 L747 689 L113 998 L112 1233 L999 789 L999 588 L112 144 Z " />
<glyph glyph-name="question" unicode="&#x3f;" horiz-adv-x="1066" d="M454 254 Q509 254 547.5 213.5 Q586 173 586 115 Q586 61 547 22.5 Q508 -16 453 -16 Q398 -16 360 23.5 Q322 63 322 120 Q322 175 361 214.5 Q400 254 454 254 Z M613 383 L408 383 Q428 522 483 607 Q516 657 556 690.5 Q596 724 712 797 Q873 899 873 1028 Q873 1109 824 1154 Q770 1204 677 1204 Q542 1204 468 1096 Q430 1041 412 935 L196 935 Q211 1074 275 1176 Q410 1388 690 1388 Q874 1388 983 1301 Q1101 1207 1101 1050 Q1101 921 1027 825 Q971 751 793 637 Q703 579 672 535.5 Q641 492 613 383 Z " />
<glyph glyph-name="at" unicode="&#x40;" horiz-adv-x="1751" d="M1045 223 Q938 128 777 128 Q637 128 555.5 201.5 Q474 275 474 402 Q474 504 534 580 Q587 648 683.5 677 Q780 706 984 717 Q1073 721 1103 744.5 Q1133 768 1133 833 Q1133 866 1126 882 Q1119 898 1099 910 Q1064 930 994 930 Q892 930 839.5 891.5 Q787 853 773 768 L588 768 Q601 878 651 948 Q759 1099 989 1099 Q1121 1099 1211 1047 Q1319 985 1319 868 Q1319 811 1300 725 L1228 399 Q1213 330 1211 307 Q1239 299 1267 299 Q1444 299 1527 446 Q1589 553 1589 683 Q1589 818 1521 933 Q1401 1135 1153 1190 Q1060 1211 963 1211 Q764 1211 599 1122 Q434 1033 335 858 Q250 708 250 534 Q250 401 300 284 Q432 -27 883 -27 Q1110 -27 1324 52 L1384 -111 Q1242 -162 1130 -182 Q1018 -202 878 -202 Q453 -202 238 52 Q143 165 101 327 Q75 429 75 533 Q75 865 307 1115 Q454 1273 674 1342 Q814 1386 967 1386 Q1259 1386 1472 1241 Q1655 1116 1731 911 Q1773 797 1773 677 Q1773 459 1649 301 Q1514 130 1263 130 Q1168 130 1116 152.5 Q1064 175 1045 223 Z M1080 572 Q1018 561 952 557 Q789 548 724.5 515.5 Q660 483 660 410 Q660 297 805 297 Q1015 297 1066 511 L1080 572 Z " />
<glyph glyph-name="A" unicode="A" horiz-adv-x="1320" d="M976 1365 L1212 0 L969 0 L914 362 L373 362 L164 0 L-97 0 L721 1365 L976 1365 Z M804 1141 Q721 977 603 771 L472 542 L889 542 L846 822 Q812 1055 804 1141 Z " />
<glyph glyph-name="B" unicode="B" horiz-adv-x="1335" d="M329 1365 L806 1365 Q952 1365 1020.5 1356 Q1089 1347 1145 1319 Q1302 1242 1302 1049 Q1302 920 1232.5 831.5 Q1163 743 1043 718 Q1109 698 1153 659 Q1244 576 1244 441 Q1244 300 1161 183 Q1059 41 870 12 Q796 0 630 0 L39 0 L329 1365 Z M525 1174 L444 793 L743 793 Q839 793 888.5 802.5 Q938 812 972 836 Q1060 899 1060 1016 Q1060 1117 972 1155 Q928 1174 792 1174 L525 1174 Z M408 622 L316 191 L618 191 Q814 191 885 229 Q939 259 971.5 315 Q1004 371 1004 436 Q1004 551 911 598 Q879 613 840 617.5 Q801 622 691 622 L408 622 Z " />
<glyph glyph-name="C" unicode="C" horiz-adv-x="1386" d="M1325 477 Q1287 300 1177 172 Q1002 -30 691 -30 Q416 -30 266 134 Q119 295 119 568 Q119 724 170.5 878 Q222 1032 311 1142 Q517 1396 864 1396 Q1118 1396 1265 1251 Q1390 1128 1390 939 Q1390 931 1389 909 L1157 909 Q1152 1059 1075.5 1131 Q999 1203 843 1203 Q650 1203 521 1052 Q444 963 399 832.5 Q354 702 354 569 Q354 385 437 283 Q534 164 701 164 Q890 164 997 298 Q1056 371 1084 477 L1325 477 Z " />
<glyph glyph-name="D" unicode="D" horiz-adv-x="1384" d="M329 1365 L663 1365 Q897 1365 979 1346 Q1184 1300 1282 1125 Q1356 992 1356 814 Q1356 658 1303 506.5 Q1250 355 1156 245 Q1026 92 847 37 Q727 0 485 0 L39 0 L329 1365 Z M523 1164 L318 201 L516 201 Q714 201 802 238 Q990 319 1076 559 Q1119 680 1119 803 Q1119 1045 961 1125 Q886 1164 716 1164 L523 1164 Z " />
<glyph glyph-name="E" unicode="E" horiz-adv-x="1227" d="M1320 1365 L1278 1164 L523 1164 L445 799 L1148 799 L1108 608 L404 608 L318 201 L1085 201 L1043 0 L39 0 L329 1365 L1320 1365 Z " />
<glyph glyph-name="F" unicode="F" horiz-adv-x="1119" d="M1266 1365 L1223 1164 L523 1164 L442 786 L1057 786 L1016 595 L402 595 L275 0 L39 0 L329 1365 L1266 1365 Z " />
<glyph glyph-name="G" unicode="G" horiz-adv-x="1468" d="M1401 732 L1246 3 L1094 3 L1093 85 Q1092 121 1092 145 Q939 -31 676 -31 Q413 -31 265.5 125.5 Q118 282 118 560 Q118 788 209 980 Q305 1181 478.5 1288.5 Q652 1396 881 1396 Q1148 1396 1294 1254 Q1419 1132 1424 933 L1191 933 Q1181 1042 1135 1098 Q1053 1201 871 1201 Q643 1201 500 1023 Q434 941 395 814.5 Q356 688 356 558 Q356 362 464 255 Q556 164 719 164 Q945 164 1062 336 Q1114 413 1150 548 L775 548 L814 732 L1401 732 Z " />
<glyph glyph-name="H" unicode="H" horiz-adv-x="1396" d="M1442 1365 L1152 0 L915 0 L1046 614 L406 614 L275 0 L39 0 L329 1365 L565 1365 L448 815 L1089 815 L1206 1365 L1442 1365 Z " />
<glyph glyph-name="I" unicode="I" horiz-adv-x="519" d="M565 1365 L275 0 L39 0 L329 1365 L565 1365 Z " />
<glyph glyph-name="J" unicode="J" horiz-adv-x="991" d="M1058 1365 L871 485 Q837 327 812 253.5 Q787 180 748 126 Q635 -32 386 -32 Q177 -32 78 77 Q-1 164 -1 300 Q-1 391 20 479 L244 479 Q222 365 222 324 Q222 164 395 164 Q497 164 554 235 Q592 282 628 451 L822 1365 L1058 1365 Z " />
<glyph glyph-name="K" unicode="K" horiz-adv-x="1313" d="M1460 1365 L802 804 L1232 0 L962 0 L619 654 L370 447 L275 0 L39 0 L329 1365 L565 1365 L431 733 Q469 771 642 927 L1140 1365 L1460 1365 Z " />
<glyph glyph-name="L" unicode="L" horiz-adv-x="1124" d="M565 1365 L318 201 L1018 201 L976 0 L39 0 L329 1365 L565 1365 Z " />
<glyph glyph-name="M" unicode="M" horiz-adv-x="1707" d="M1753 1365 L1463 0 L1231 0 L1358 597 Q1410 841 1503 1171 Q1425 1002 1287 760 L853 0 L658 0 L538 795 Q507 1001 498 1171 Q488 1058 394 580 L271 0 L39 0 L329 1365 L664 1365 L771 617 Q802 396 802 293 Q802 274 802 250 Q907 490 971 601 L1410 1365 L1753 1365 Z " />
<glyph glyph-name="N" unicode="N" horiz-adv-x="1414" d="M1460 1365 L1169 0 L917 0 L579 815 Q515 970 486 1076 Q470 937 422 710 L271 0 L39 0 L329 1365 L581 1365 L916 553 Q974 413 1014 283 Q1046 513 1088 710 L1228 1365 L1460 1365 Z " />
<glyph glyph-name="O" unicode="O" horiz-adv-x="1487" d="M870 1397 Q1083 1397 1233 1293 Q1455 1138 1455 814 Q1455 646 1403 491.5 Q1351 337 1254 219 Q1125 61 949 6 Q834 -31 703 -31 Q381 -31 226 191 Q119 344 119 574 Q119 776 197 955 Q303 1199 510 1309 Q675 1397 870 1397 Z M861 1202 Q657 1202 524 1055 Q446 969 401 839 Q356 709 356 569 Q356 380 453 271.5 Q550 163 720 163 Q917 163 1050 316 Q1137 416 1180 560 Q1218 689 1218 808 Q1218 992 1123 1097 Q1028 1202 861 1202 Z " />
<glyph glyph-name="P" unicode="P" horiz-adv-x="1256" d="M329 1365 L823 1365 Q1037 1365 1130 1311 Q1296 1215 1296 996 Q1296 837 1211 714 Q1137 608 1028 567.5 Q919 527 703 527 L387 527 L275 0 L39 0 L329 1365 Z M525 1174 L428 718 L706 718 Q816 718 869 728 Q922 738 959 766 Q1004 799 1030 855 Q1056 911 1056 974 Q1056 1086 983 1137 Q931 1174 762 1174 L525 1174 Z " />
<glyph glyph-name="Q" unicode="Q" horiz-adv-x="1509" d="M1337 -22 L1204 -141 L1024 45 Q885 -30 698 -30 Q433 -30 280 129 Q120 297 120 569 Q120 818 229 1018 Q335 1214 529 1313 Q690 1395 875 1395 Q1127 1395 1286 1250 Q1458 1092 1458 804 Q1458 608 1383 434 Q1308 260 1175 146 L1337 -22 Z M891 446 L1028 304 Q1217 514 1217 804 Q1217 956 1152 1059 Q1061 1201 864 1201 Q728 1201 617 1128 Q476 1037 407 852 Q357 717 357 571 Q357 397 435 294 Q533 164 712 164 Q796 164 881 199 L759 325 L891 446 Z " />
<glyph glyph-name="R" unicode="R" horiz-adv-x="1374" d="M326 1365 L864 1365 Q1080 1365 1172 1317 Q1336 1231 1336 1021 Q1336 872 1254 771 Q1172 670 1029 644 Q1106 611 1137 558 Q1168 505 1168 406 Q1168 362 1157 217 Q1153 154 1153 111 Q1153 46 1175 0 L933 0 Q918 35 918 101 Q918 134 928 231 Q938 336 938 391 Q938 491 889 526.5 Q840 562 702 562 L392 562 L272 0 L36 0 L326 1365 Z M522 1174 L430 741 L754 741 Q849 741 905 751.5 Q961 762 997 786 Q1043 818 1070 872 Q1097 926 1097 989 Q1097 1092 1022 1141 Q970 1174 828 1174 L522 1174 Z " />
<glyph glyph-name="S" unicode="S" horiz-adv-x="1225" d="M1202 964 L973 964 Q973 1087 908.5 1144 Q844 1201 705 1201 Q608 1201 535 1168 Q482 1145 451.5 1100.5 Q421 1056 421 1003 Q421 916 500 870 Q552 840 691 803 Q832 766 899 739 Q966 712 1010 675 Q1128 574 1128 408 Q1128 208 970 86 Q826 -27 569 -27 Q270 -27 135 127 Q36 240 36 427 Q36 435 36 453 L271 453 Q270 315 327 251 Q402 166 584 166 Q722 166 801 224 Q892 291 892 393 Q892 473 840 516.5 Q788 560 650 596 Q389 665 306 733 Q188 829 188 989 Q188 1169 330 1283 Q464 1392 702 1392 Q972 1392 1101 1264 Q1203 1161 1203 996 Q1203 986 1202 964 Z " />
<glyph glyph-name="T" unicode="T" horiz-adv-x="1186" d="M1342 1365 L1300 1164 L861 1164 L614 0 L378 0 L625 1164 L176 1164 L219 1365 L1342 1365 Z " />
<glyph glyph-name="U" unicode="U" horiz-adv-x="1375" d="M1441 1365 L1268 552 Q1233 385 1201 302.5 Q1169 220 1115 154 Q964 -32 643 -32 Q422 -32 289 54 Q114 167 114 373 Q114 451 142 581 L309 1365 L545 1365 L378 581 Q351 454 351 400 Q351 281 433 221 Q512 164 646 164 Q861 164 948 300 Q973 339 994.5 408 Q1016 477 1042 600 L1205 1365 L1441 1365 Z " />
<glyph glyph-name="V" unicode="V" horiz-adv-x="1210" d="M1392 1365 L643 0 L372 0 L193 1365 L437 1365 L516 678 Q547 415 551 225 Q670 491 730 603 L1138 1365 L1392 1365 Z " />
<glyph glyph-name="W" unicode="W" horiz-adv-x="1790" d="M1966 1365 L1333 0 L1088 0 L1040 728 Q1036 792 1032 1055 L1031 1107 Q930 844 845 661 L541 0 L292 0 L200 1365 L438 1365 L464 728 Q472 520 472 377 Q472 328 468 247 Q526 417 672 735 L960 1365 L1203 1365 L1240 787 Q1257 526 1257 314 Q1257 301 1256 256 Q1353 518 1469 787 L1720 1365 L1966 1365 Z " />
<glyph glyph-name="X" unicode="X" horiz-adv-x="1214" d="M1338 1365 L774 698 L1117 0 L857 0 L750 228 Q658 424 612 538 Q565 470 492 381 L182 0 L-108 0 L504 718 L182 1365 L440 1365 L561 1106 Q596 1030 662 866 Q677 885 764 995 L873 1135 L1057 1365 L1338 1365 Z " />
<glyph glyph-name="Y" unicode="Y" horiz-adv-x="1186" d="M1403 1365 L737 530 L624 0 L388 0 L503 544 L159 1365 L410 1365 L574 942 L595 882 Q640 761 648 736 Q709 830 775 917 L1119 1365 L1403 1365 Z " />
<glyph glyph-name="Z" unicode="Z" horiz-adv-x="1220" d="M1305 1365 L1262 1166 L431 335 Q346 250 277 194 Q376 201 495 201 L1113 201 L1070 0 L-52 0 L-9 201 L790 1003 Q878 1091 969 1165 L812 1164 L222 1164 L264 1365 L1305 1365 Z " />
<glyph glyph-name="bracketleft" unicode="&#x5b;" horiz-adv-x="628" d="M755 1365 L721 1205 L498 1205 L198 -206 L421 -206 L387 -366 L-41 -366 L327 1365 L755 1365 Z " />
<glyph glyph-name="backslash" unicode="&#x5c;" horiz-adv-x="793" d="M267 1365 L445 1365 L657 -366 L479 -366 L267 1365 Z " />
<glyph glyph-name="bracketright" unicode="&#x5d;" horiz-adv-x="628" d="M-120 -366 L-86 -206 L137 -206 L437 1205 L214 1205 L248 1365 L676 1365 L308 -366 L-120 -366 Z " />
<glyph glyph-name="asciicircum" unicode="&#x5e;" horiz-adv-x="1024" d="M303 740 L89 740 L421 1371 L687 1371 L1020 740 L804 740 L554 1209 L303 740 Z " />
<glyph glyph-name="underscore" unicode="&#x5f;" horiz-adv-x="1024" d="M43 -130 L1067 -130 L1067 -276 L43 -276 L43 -130 Z " />
<glyph glyph-name="grave" unicode="&#x60;" horiz-adv-x="1024" d="M911 1126 L772 1126 L545 1410 L772 1410 L911 1126 Z " />
<glyph glyph-name="a" unicode="a" horiz-adv-x="1103" d="M988 157 L953 0 Q852 -27 788 -27 Q733 -27 696 7 Q652 47 652 97 L652 99 Q576 33 501 5 Q415 -27 322 -27 Q179 -27 94.5 46 Q10 119 10 243 Q10 394 113 475 Q224 562 424 578 L640 595 Q759 604 759 726 Q759 844 589 844 Q482 844 427 809 Q372 774 345 689 L138 689 Q160 783 190 833 Q301 1017 609 1017 Q802 1017 889 959.5 Q976 902 976 774 Q976 724 958 637 L879 262 Q877 253 872 231 Q866 207 866 189 Q866 145 913 145 Q928 145 988 157 Z M715 486 L711 490 Q682 464 646.5 456 Q611 448 477 437 Q228 416 228 278 Q228 146 408 146 Q538 146 614 228 Q653 271 674.5 326 Q696 381 715 486 Z " />
<glyph glyph-name="b" unicode="b" horiz-adv-x="1167" d="M531 1365 L427 873 Q550 1017 733 1017 Q872 1017 968 939 Q1104 828 1104 602 Q1104 466 1058 340.5 Q1012 215 929 123 Q792 -28 585 -28 Q469 -28 392 14 Q343 41 307.5 85 Q272 129 267 170 L231 0 L26 0 L316 1365 L531 1365 Z M660 846 Q578 846 508.5 801 Q439 756 395 674 Q369 624 347 531.5 Q325 439 325 375 Q325 299 361 241 Q423 142 554 142 Q639 142 711 190.5 Q783 239 828 328 Q891 450 891 587 Q891 713 831.5 779.5 Q772 846 660 846 Z " />
<glyph glyph-name="c" unicode="c" horiz-adv-x="1053" d="M972 341 Q937 210 854 118 Q723 -28 494 -28 Q270 -28 160 103 Q65 217 65 399 Q65 532 113.5 658 Q162 784 245 865 Q401 1017 626 1017 Q873 1017 974 856 Q1023 779 1024 661 L811 661 Q812 750 761 798.5 Q710 847 615 847 Q518 847 442 791 Q367 736 323 631 Q279 526 279 399 Q279 246 363 186 Q422 143 508 143 Q595 143 659 194.5 Q723 246 754 341 L972 341 Z " />
<glyph glyph-name="d" unicode="d" horiz-adv-x="1168" d="M1228 1365 L938 0 L733 0 L762 138 Q715 58 632 15 Q549 -28 441 -28 Q291 -28 201 43 Q64 152 64 372 Q64 596 179 776 Q333 1017 603 1017 Q836 1017 903 847 L1013 1365 L1228 1365 Z M626 833 Q456 833 361 684 Q281 560 281 384 Q281 256 350 194 Q408 143 502 143 Q668 143 765 305 Q800 363 823 450.5 Q846 538 846 612 Q846 723 775 784 Q717 833 626 833 Z " />
<glyph glyph-name="e" unicode="e" horiz-adv-x="1088" d="M972 306 Q944 201 867 117 Q735 -27 500 -27 Q269 -27 156 113 Q63 228 63 404 Q63 625 178 789 Q254 898 367.5 957.5 Q481 1017 612 1017 Q780 1017 889 929 Q1028 816 1028 591 Q1028 525 1014 438 L278 438 Q274 406 274 381 Q274 279 323 218 Q387 136 510 136 Q689 136 755 306 L972 306 Z M302 585 L820 585 Q821 607 821 616 Q821 714 780 773 Q723 853 604 853 Q495 853 415 782 Q335 711 302 585 Z " />
<glyph glyph-name="f" unicode="f" horiz-adv-x="608" d="M682 990 L648 830 L455 830 L279 0 L64 0 L240 830 L78 830 L112 990 L274 990 L283 1028 Q322 1208 362 1265 Q445 1379 621 1379 Q686 1379 782 1364 L747 1197 Q698 1207 662 1207 Q585 1207 553 1173 Q521 1139 499 1035 L489 990 L682 990 Z " />
<glyph glyph-name="g" unicode="g" horiz-adv-x="1155" d="M1136 990 L959 159 Q928 11 899.5 -70.5 Q871 -152 834 -205 Q702 -389 409 -389 Q211 -389 100 -300 Q52 -262 24 -206 Q-4 -150 -4 -93 Q-4 -87 -3 -75 L216 -75 Q217 -152 272.5 -194 Q328 -236 426 -236 Q552 -236 621 -166 Q690 -96 724 65 L742 152 Q706 88 624 48.5 Q542 9 445 9 Q314 9 218 81 Q73 190 73 407 Q73 525 113.5 644 Q154 763 222 847 Q362 1017 583 1017 Q698 1017 779 966 Q860 915 895 821 L931 990 L1136 990 Z M606 848 Q445 848 356 688 Q285 561 285 420 Q285 292 360 228 Q418 179 508 179 Q613 179 693 254 Q755 312 791.5 409 Q828 506 828 612 Q828 722 768.5 785 Q709 848 606 848 Z " />
<glyph glyph-name="h" unicode="h" horiz-adv-x="1126" d="M531 1365 L421 847 Q572 1018 765 1018 Q894 1018 972.5 948 Q1051 878 1051 763 Q1051 694 1030 595 L903 0 L688 0 L809 568 Q827 653 827 702 Q827 782 774 814 Q731 841 672 841 Q604 841 538.5 806 Q473 771 429 712 Q377 642 351 516 L241 0 L26 0 L316 1365 L531 1365 Z " />
<glyph glyph-name="i" unicode="i" horiz-adv-x="471" d="M451 990 L241 0 L26 0 L236 990 L451 990 Z M399 1392 Q454 1392 492.5 1351.5 Q531 1311 531 1253 Q531 1199 492 1160.5 Q453 1122 398 1122 Q343 1122 305 1161.5 Q267 1201 267 1258 Q267 1312 306 1352 Q345 1392 399 1392 Z " />
<glyph glyph-name="j" unicode="j" horiz-adv-x="454" d="M433 990 L229 29 Q197 -124 184 -173.5 Q171 -223 156 -249 Q117 -319 56.5 -349.5 Q-4 -380 -105 -380 Q-162 -380 -218 -370 L-180 -193 Q-149 -201 -119 -201 Q-55 -201 -33 -155 Q-21 -130 14 29 L218 990 L433 990 Z M381 1392 Q436 1392 474.5 1351.5 Q513 1311 513 1253 Q513 1199 474 1160.5 Q435 1122 380 1122 Q325 1122 287 1161.5 Q249 1201 249 1258 Q249 1313 288 1352.5 Q327 1392 381 1392 Z " />
<glyph glyph-name="k" unicode="k" horiz-adv-x="1009" d="M531 1365 L366 587 Q404 623 439 654 L819 989 L1097 989 L658 618 L905 0 L665 0 L488 483 L313 337 L241 0 L26 0 L316 1365 L531 1365 Z " />
<glyph glyph-name="l" unicode="l" horiz-adv-x="471" d="M531 1365 L241 0 L26 0 L316 1365 L531 1365 Z " />
<glyph glyph-name="m" unicode="m" horiz-adv-x="1698" d="M441 990 L410 843 Q462 921 557 969.5 Q652 1018 752 1018 Q961 1018 999 839 Q1150 1018 1348 1018 Q1428 1018 1493 988 Q1557 959 1591 907 Q1627 852 1627 788 Q1627 714 1599 582 L1475 0 L1261 0 L1383 572 Q1405 678 1405 724 Q1405 780 1368 811 Q1331 842 1264 842 Q1155 842 1068 748 Q1027 703 1007.5 655.5 Q988 608 965 500 L858 0 L643 0 L765 572 Q789 694 789 726 Q789 780 754 811 Q719 842 658 842 Q547 842 456 748 Q416 706 393 657 Q370 608 353 525 L241 0 L26 0 L236 990 L441 990 Z " />
<glyph glyph-name="n" unicode="n" horiz-adv-x="1126" d="M441 990 L409 840 Q473 925 564 971 Q655 1017 761 1017 Q868 1017 948 966 Q1053 900 1053 768 Q1053 708 1030 597 L903 0 L688 0 L814 594 Q829 665 829 715 Q829 841 672 841 Q536 841 443 730 Q381 657 352 524 L241 0 L26 0 L236 990 L441 990 Z " />
<glyph glyph-name="o" unicode="o" horiz-adv-x="1128" d="M633 1019 Q840 1019 953.5 908.5 Q1067 798 1067 597 Q1067 477 1026.5 360 Q986 243 915 155 Q766 -29 510 -29 Q240 -29 133 148 Q68 256 68 403 Q68 547 125 681 Q193 841 326.5 930 Q460 1019 633 1019 Z M620 848 Q482 848 388 732 Q339 672 309 582 Q279 492 279 405 Q279 280 343 210.5 Q407 141 521 141 Q668 141 763 278 Q805 338 830 424.5 Q855 511 855 594 Q855 713 792.5 780.5 Q730 848 620 848 Z " />
<glyph glyph-name="p" unicode="p" horiz-adv-x="1167" d="M441 990 L413 859 Q455 930 544 974.5 Q633 1019 733 1019 Q890 1019 993 916 Q1103 807 1103 597 Q1103 383 998 209 Q856 -28 585 -28 Q467 -28 386 19 Q305 66 273 154 L163 -366 L-52 -366 L236 990 L441 990 Z M663 847 Q522 847 429 726 Q389 674 357.5 568 Q326 462 326 377 Q326 271 390.5 207 Q455 143 562 143 Q669 143 746 214 Q812 275 851 377 Q890 479 890 590 Q890 726 819 791 Q760 847 663 847 Z " />
<glyph glyph-name="q" unicode="q" horiz-adv-x="1167" d="M1148 990 L860 -366 L645 -366 L748 123 Q680 43 605 7.5 Q530 -28 430 -28 Q253 -28 159 80 Q64 190 64 371 Q64 492 104 614.5 Q144 737 212 823 Q364 1018 607 1018 Q721 1018 793 975 Q865 932 910 837 L943 990 L1148 990 Z M624 846 Q485 846 392 733 Q342 674 311.5 576.5 Q281 479 281 382 Q281 265 337.5 202.5 Q394 140 500 140 Q642 140 735 258 Q783 321 814.5 421.5 Q846 522 846 616 Q846 722 786.5 784 Q727 846 624 846 Z " />
<glyph glyph-name="r" unicode="r" horiz-adv-x="702" d="M821 1010 L776 797 Q722 806 687 806 Q548 806 451 701 Q409 656 381.5 594.5 Q354 533 334 440 L241 0 L26 0 L236 990 L441 990 L399 793 Q524 1016 745 1016 Q780 1016 821 1010 Z " />
<glyph glyph-name="s" unicode="s" horiz-adv-x="957" d="M907 700 L701 700 Q702 787 657 824.5 Q612 862 508 862 Q424 862 379 831 Q332 798 332 743 Q332 680 411 643 Q451 624 601 574 Q851 489 851 303 Q851 230 817 164.5 Q783 99 722 54 Q612 -27 418 -27 Q234 -27 123 51 Q4 136 4 292 Q4 301 5 317 L211 317 Q209 137 436 137 Q532 137 585 176 Q637 214 637 273 Q637 321 601 352.5 Q565 384 473 416 Q330 466 284.5 486 Q239 506 204 534 Q119 603 119 719 Q119 855 229.5 936.5 Q340 1018 525 1018 Q719 1018 821 927 Q907 850 907 722 Q907 710 907 700 Z " />
<glyph glyph-name="t" unicode="t" horiz-adv-x="646" d="M681 990 L647 830 L447 830 L344 343 Q331 284 331 264 Q331 205 349 184.5 Q367 164 419 164 Q460 164 525 174 L488 2 Q423 -10 346 -10 Q274 -10 233 -1 Q192 8 162 31 Q100 78 100 166 Q100 209 127 336 L232 830 L63 830 L97 990 L266 990 L329 1285 L549 1285 L486 990 L681 990 Z " />
<glyph glyph-name="u" unicode="u" horiz-adv-x="1113" d="M1093 990 L883 0 L678 0 L709 147 Q658 65 569.5 19 Q481 -27 375 -27 Q265 -27 184 24 Q80 90 80 228 Q80 290 102 392 L229 990 L444 990 L333 466 Q302 317 302 275 Q302 149 464 149 Q577 149 656 231.5 Q735 314 767 466 L878 990 L1093 990 Z " />
<glyph glyph-name="v" unicode="v" horiz-adv-x="916" d="M1028 990 L483 0 L239 0 L103 990 L329 990 L382 527 Q395 408 401 201 Q449 328 529 481 L797 990 L1028 990 Z " />
<glyph glyph-name="w" unicode="w" horiz-adv-x="1463" d="M1570 990 L1057 0 L828 0 L792 546 Q786 625 786 748 Q715 575 707 557 L453 0 L223 0 L110 990 L333 990 L361 652 Q385 375 385 267 Q385 245 385 221 Q418 321 471 440 L719 990 L948 990 L980 520 Q990 377 990 294 Q990 273 989 228 Q1037 362 1159 617 L1338 990 L1570 990 Z " />
<glyph glyph-name="x" unicode="x" horiz-adv-x="920" d="M1000 990 L582 513 L833 0 L596 0 L489 244 Q462 305 436 370 Q399 321 360 273 L136 0 L-118 0 L344 527 L121 990 L358 990 L453 760 Q475 707 490 663 Q524 712 560 757 L748 990 L1000 990 Z " />
<glyph glyph-name="y" unicode="y" horiz-adv-x="933" d="M1045 990 L556 104 Q413 -156 351 -238 Q295 -313 224.5 -347 Q154 -381 56 -381 Q-11 -381 -78 -365 L-40 -186 Q18 -202 67 -202 Q133 -202 176 -142 Q193 -119 221 -58 Q272 51 270 61 L103 990 L330 990 L386 608 Q421 374 434 223 Q492 370 581 543 L812 990 L1045 990 Z " />
<glyph glyph-name="z" unicode="z" horiz-adv-x="922" d="M958 990 L925 831 L402 302 Q331 230 249 163 Q342 171 508 171 L835 171 L798 0 L-55 0 L-20 163 L501 688 Q572 758 649 822 Q575 819 410 819 L130 819 L167 990 L958 990 Z " />
<glyph glyph-name="braceleft" unicode="&#x7b;" horiz-adv-x="623" d="M223 499 Q266 471 282.5 439.5 Q299 408 299 357 Q299 314 287 255 L236 19 Q220 -58 220 -99 Q220 -204 362 -204 L387 -204 L353 -366 L347 -366 Q214 -365 172.5 -361 Q131 -357 98 -343 Q6 -303 6 -184 Q6 -133 20 -66 L81 221 Q93 276 93 314 Q93 394 7 419 L42 581 Q108 599 144.5 644 Q181 689 199 776 L265 1084 Q298 1241 391 1307 Q443 1344 497 1353.5 Q551 1363 715 1365 L720 1365 L686 1203 L660 1202 Q557 1198 512 1151.5 Q467 1105 440 975 L389 738 Q369 641 332.5 589 Q296 537 223 499 Z " />
<glyph glyph-name="bar" unicode="&#x7c;" horiz-adv-x="1024" d="M435 1365 L674 1365 L674 -341 L435 -341 L435 1365 Z " />
<glyph glyph-name="braceright" unicode="&#x7d;" horiz-adv-x="623" d="M407 499 Q365 528 348.5 559.5 Q332 591 332 642 Q332 688 344 744 L394 980 Q410 1055 410 1098 Q410 1203 269 1203 L243 1203 L278 1365 L284 1365 Q417 1364 458 1360 Q499 1356 532 1342 Q624 1302 624 1183 Q624 1130 610 1065 L549 779 Q538 726 538 685 Q538 605 623 580 L589 418 Q522 400 486 355 Q450 310 431 223 L366 -85 Q332 -242 239 -308 Q187 -345 133 -354.5 Q79 -364 -85 -366 L-90 -366 L-55 -204 L-30 -203 Q73 -199 118 -152.5 Q163 -106 191 24 L241 261 Q262 358 298 410 Q334 462 407 499 Z " />
<glyph glyph-name="asciitilde" unicode="&#x7e;" horiz-adv-x="1365" d="M353 1158 L234 1255 Q343 1511 526 1511 Q599 1511 760 1436 Q845 1397 874 1387 Q903 1377 932 1377 Q1024 1377 1100 1516 L1220 1419 Q1160 1278 1081 1220 Q1008 1166 907 1166 Q868 1166 830.5 1179 Q793 1192 675 1248 Q569 1297 516 1297 Q470 1297 432.5 1265 Q395 1233 353 1158 Z " />
<glyph glyph-name="nbspace" unicode="&#xa0;" horiz-adv-x="512" d="" />
<glyph glyph-name="exclamdown" unicode="&#xa1;" horiz-adv-x="615" d="M367 1005 Q422 1005 460.5 964.5 Q499 924 499 866 Q499 812 460 773.5 Q421 735 366 735 Q311 735 273 774.5 Q235 814 235 871 Q235 926 274 965.5 Q313 1005 367 1005 Z M-10 -375 L74 21 L260 615 L371 615 L306 21 L222 -375 L-10 -375 Z " />
<glyph glyph-name="cent" unicode="&#xa2;" horiz-adv-x="1106" d="M1093 844 L882 844 Q882 852 882 856 Q882 931 843.5 974.5 Q805 1018 727 1032 L577 326 Q760 338 823 529 L1041 529 Q1024 458 979 386.5 Q934 315 874 264 Q744 155 540 154 L499 -37 L411 -37 L453 160 Q306 184 222 275 Q116 389 116 572 Q116 870 313 1056 Q385 1123 480.5 1161 Q576 1199 673 1198 L710 1371 L799 1371 L762 1198 Q1095 1150 1093 844 Z M638 1031 Q525 1017 448 927 Q396 866 363 769 Q330 672 330 580 Q330 478 368.5 418.5 Q407 359 489 333 L638 1031 Z " />
<glyph glyph-name="sterling" unicode="&#xa3;" horiz-adv-x="1106" d="M755 738 L730 618 L489 618 Q499 570 499 528 Q499 424 454.5 348.5 Q410 273 287 171 Q400 218 472 218 Q521 218 599 194 Q722 157 767 157 Q813 157 842.5 169.5 Q872 182 955 235 L1023 61 Q884 -36 746 -36 Q675 -36 525 13 Q409 50 341 50 Q290 50 249 34.5 Q208 19 119 -33 L50 135 Q112 181 155 222 Q288 348 288 492 Q288 547 272 618 L102 618 L127 738 L249 738 Q207 859 207 959 Q207 1092 295 1208 Q429 1386 682 1386 Q879 1386 997.5 1272 Q1116 1158 1116 969 Q1116 950 1114 923 L902 923 Q903 949 903 955 Q903 1070 851 1131 Q792 1201 681 1201 Q547 1201 474 1092 Q432 1029 432 949 Q432 845 470 738 L755 738 Z " />
<glyph glyph-name="currency" unicode="&#xa4;" horiz-adv-x="1436" d="M113 222 L310 421 Q222 552 222 699 Q222 770 242 830 Q262 890 314 977 L111 1178 L236 1302 L440 1099 Q530 1152 587.5 1170.5 Q645 1189 719 1189 Q793 1189 847.5 1171.5 Q902 1154 994 1100 L1197 1301 L1321 1177 L1122 979 Q1215 836 1215 695 Q1215 625 1196.5 567 Q1178 509 1127 421 L1326 223 L1203 98 L1005 296 Q871 203 730 203 Q594 203 434 295 L237 99 L113 222 Z M722 989 Q600 989 515 904 Q431 819 431 698 Q431 579 515 494 Q600 409 719 409 Q838 409 923 494 Q1007 579 1007 699 Q1007 821 923 904 Q836 989 722 989 Z " />
<glyph glyph-name="yen" unicode="&#xa5;" horiz-adv-x="1106" d="M434 459 L141 459 L167 579 L441 579 L375 792 L147 792 L173 912 L337 912 L198 1365 L428 1365 L540 947 Q567 845 587 736 Q600 760 664 862 L695 915 L974 1365 L1237 1365 L929 912 L1107 912 L1081 792 L846 792 L702 579 L972 579 L947 459 L653 459 L558 0 L339 0 L434 459 Z " />
<glyph glyph-name="brokenbar" unicode="&#xa6;" horiz-adv-x="1024" d="M435 1365 L674 1365 L674 662 L435 662 L435 1365 Z M435 314 L674 314 L674 -341 L435 -341 L435 314 Z " />
<glyph glyph-name="section" unicode="&#xa7;" horiz-adv-x="1106" d="M1058 1028 L859 1028 Q859 1039 859 1046 Q859 1122 815.5 1166 Q772 1210 696 1210 Q623 1210 578 1171 Q533 1132 533 1070 Q533 1013 574 961 Q615 909 741 807 Q902 676 962.5 592.5 Q1023 509 1023 417 Q1023 299 948 215.5 Q873 132 752 113 Q808 42 808 -53 Q808 -194 695 -285 Q588 -373 422 -373 Q250 -373 146 -279.5 Q42 -186 42 -31 Q42 -22 43 -5 L243 -5 Q242 -202 432 -202 Q511 -202 555 -163 Q600 -122 600 -61 Q600 -6 555 48.5 Q510 103 341 252 Q194 382 146 454.5 Q98 527 98 619 Q98 734 171.5 814.5 Q245 895 368 915 Q320 991 320 1069 Q320 1181 404 1270 Q508 1378 698 1378 Q870 1378 967 1290 Q1059 1206 1059 1065 Q1059 1053 1058 1028 Z M697 581 L481 786 Q475 792 456 792 Q392 792 344 746.5 Q296 701 296 640 Q296 597 324.5 553 Q353 509 423 443 L642 233 Q645 230 649 230 Q650 230 651 230 Q653 230 661 231 Q731 236 773 272 Q823 317 823 380 Q823 428 797 469.5 Q771 511 697 581 Z " />
<glyph glyph-name="dieresis" unicode="&#xa8;" horiz-adv-x="1024" d="M480 1402 Q535 1402 573.5 1361.5 Q612 1321 612 1263 Q612 1209 573 1170.5 Q534 1132 479 1132 Q424 1132 386 1171.5 Q348 1211 348 1268 Q348 1322 387 1362 Q426 1402 480 1402 Z M849 1402 Q904 1402 942.5 1361.5 Q981 1321 981 1263 Q981 1209 942 1170.5 Q903 1132 848 1132 Q793 1132 755 1171.5 Q717 1211 717 1268 Q717 1322 756 1362 Q795 1402 849 1402 Z " />
<glyph glyph-name="copyright" unicode="&#xa9;" horiz-adv-x="1587" d="M1207 602 Q1198 451 1098.5 362 Q999 273 840 273 Q648 273 540 403 Q448 514 448 683 Q448 864 559.5 978.5 Q671 1093 847 1093 Q994 1093 1093 1014.5 Q1192 936 1201 812 L1041 812 Q1026 884 975 922.5 Q924 961 844 961 Q720 961 659 864 Q611 787 611 683 Q611 555 673.5 480 Q736 405 844 405 Q1021 405 1046 602 L1207 602 Z M846 1398 Q1037 1398 1208 1292 Q1379 1187 1470 1008 Q1548 854 1548 682 Q1548 481 1443 309 Q1339 137 1161 46 Q1008 -33 837 -33 Q637 -33 465 72 Q293 177 201 357 Q123 510 123 681 Q123 885 228 1058 Q331 1227 514 1321 Q666 1398 846 1398 Z M844 1281 Q595 1281 423 1107 Q340 1024 295 912 Q250 801 250 681 Q250 514 337 369 Q424 225 572 149 Q697 84 837 84 Q1079 84 1250 259 Q1421 435 1421 682 Q1421 851 1335 996 Q1251 1137 1102 1216 Q978 1281 844 1281 Z " />
<glyph glyph-name="ordfeminine" unicode="&#xaa;" horiz-adv-x="737" d="M700 608 L91 608 L110 699 L719 699 L700 608 Z M231 1192 Q267 1380 494 1380 Q596 1380 655 1342.5 Q714 1305 714 1241 Q714 1207 701 1148 L667 987 Q657 936 657 928 Q657 910 676 910 Q678 910 728 921 L707 821 Q649 808 620 808 Q577 808 557 820.5 Q537 833 526 868 Q479 832 439 818 Q399 804 344 804 Q263 804 213.5 846.5 Q164 889 164 958 Q164 1070 271 1113 Q311 1129 345 1134.5 Q379 1140 481 1147 Q542 1152 561.5 1165.5 Q581 1179 581 1217 Q581 1278 486 1278 Q379 1278 360 1192 L231 1192 Z M555 1078 Q526 1067 511.5 1064.5 Q497 1062 408 1054 Q299 1045 299 973 Q299 900 391 900 Q452 900 488.5 930.5 Q525 961 541 1026 L555 1078 Z " />
<glyph glyph-name="guillemotleft" unicode="&#xab;" horiz-adv-x="878" d="M464 849 L422 649 L203 516 L358 347 L319 166 L81 431 L126 643 L464 849 Z M838 850 L795 648 L577 517 L731 347 L693 167 L455 432 L499 642 L838 850 Z " />
<glyph glyph-name="logicalnot" unicode="&#xac;" horiz-adv-x="1024" d="M766 0 L766 374 L111 374 L111 582 L998 582 L998 0 L766 0 Z " />
<glyph glyph-name="uni00AD" unicode="&#xad;" horiz-adv-x="519" d="M546 607 L504 410 L-15 410 L27 607 L546 607 Z " />
<glyph glyph-name="registered" unicode="&#xae;" horiz-adv-x="1076" d="M641 1413 Q838 1413 965 1270 Q1075 1146 1075 973 Q1075 773 935 645 Q812 532 641 532 Q456 532 330 659 Q206 785 206 977 Q206 1061 236 1138 Q302 1311 475 1381 Q555 1413 641 1413 Z M641 1313 Q499 1313 406 1216 Q313 1119 313 972 Q313 814 416 717 Q508 631 641 631 Q784 631 876 728 Q968 825 968 974 Q968 1130 865 1228 Q774 1313 641 1313 Z M767 963 Q807 947 819 921 Q832 892 835 822 Q838 759 858 731 L730 731 Q720 761 718 808 Q716 866 703.5 886 Q691 906 658 906 L573 906 L573 731 L456 731 L456 1216 L693 1216 Q762 1216 801.5 1180 Q841 1144 841 1082 Q841 1035 824.5 1008.5 Q808 982 767 963 Z M573 1119 L573 996 L669 996 Q694 996 710 1015 Q726 1034 726 1064 Q726 1119 664 1119 L573 1119 Z " />
<glyph glyph-name="overscore" unicode="&#xaf;" horiz-adv-x="1024" d="M993 1326 L967 1203 L366 1203 L393 1326 L993 1326 Z " />
<glyph glyph-name="degree" unicode="&#xb0;" horiz-adv-x="863" d="M553 1371 Q686 1371 780 1272 Q866 1183 866 1053 Q866 924 772 832 Q681 742 553 742 Q413 742 320 845 Q238 934 238 1056 Q238 1204 345 1294 Q437 1371 553 1371 Z M550 1262 Q474 1262 417 1208 Q350 1144 350 1057 Q350 981 399 922 Q459 851 552 851 Q634 851 694 911 Q754 971 754 1052 Q754 1139 697 1198 Q635 1262 550 1262 Z " />
<glyph glyph-name="plusminus" unicode="&#xb1;" horiz-adv-x="1106" d="M135 745 L514 745 L514 1118 L671 1118 L671 745 L1050 745 L1050 588 L671 588 L671 229 L514 229 L514 588 L135 588 L135 745 Z M135 157 L1050 157 L1050 0 L135 0 L135 157 Z " />
<glyph glyph-name="twosuperior" unicode="&#xb2;" horiz-adv-x="731" d="M729 671 L703 547 L100 547 Q104 645 165 727 Q203 776 251.5 810.5 Q300 845 444 923 Q557 983 596.5 1024.5 Q636 1066 636 1122 Q636 1175 600 1206 Q564 1237 503 1237 Q353 1237 338 1063 L194 1063 Q206 1205 290 1283 Q374 1361 515 1361 Q645 1361 719 1296 Q790 1232 790 1132 Q790 1014 689 931 Q654 902 623 883 Q592 864 441 778 Q338 719 300 669 Q349 671 405 671 L729 671 Z " />
<glyph glyph-name="threesuperior" unicode="&#xb3;" horiz-adv-x="731" d="M260 821 Q259 806 259 794 Q259 655 411 655 Q486 655 533 696 Q580 737 580 803 Q580 916 432 916 Q411 916 380 914 L404 1025 Q425 1024 443 1024 Q624 1024 624 1142 Q624 1187 589 1213.5 Q554 1240 495 1240 Q362 1240 336 1095 L193 1095 Q209 1221 292 1290.5 Q375 1360 509 1360 Q630 1360 704 1300 Q774 1243 774 1156 Q774 1025 636 972 Q736 917 736 809 Q736 688 642 609.5 Q548 531 403 531 Q272 531 192.5 598 Q113 665 113 776 Q113 793 115 821 L260 821 Z " />
<glyph glyph-name="acute" unicode="&#xb4;" horiz-adv-x="1024" d="M961 1410 L677 1126 L533 1126 L715 1410 L961 1410 Z " />
<glyph glyph-name="mu" unicode="&#xb5;" horiz-adv-x="1114" d="M-51 -344 L231 983 L434 983 L320 448 Q302 363 302 324 Q302 249 352 198 Q402 147 475 147 Q602 147 685 260 Q752 350 776 462 L887 983 L1089 983 L880 0 L678 0 L712 163 Q601 -23 437 -23 Q364 -23 320 9 Q276 41 249 114 L151 -344 L-51 -344 Z " />
<glyph glyph-name="paragraph" unicode="&#xb6;" horiz-adv-x="1106" d="M264 -366 L480 650 Q465 650 452 650 Q323 650 248 721.5 Q173 793 173 916 Q173 1011 216.5 1105.5 Q260 1200 332 1261 Q399 1317 481.5 1341 Q564 1365 689 1365 L1186 1365 L1158 1235 L1068 1235 L728 -366 L577 -366 L917 1235 L756 1235 L415 -366 L264 -366 Z " />
<glyph glyph-name="periodcentered" unicode="&#xb7;" horiz-adv-x="539" d="M275 642 Q330 642 368.5 601.5 Q407 561 407 503 Q407 449 368 410.5 Q329 372 274 372 Q219 372 181 411.5 Q143 451 143 508 Q143 563 182 602.5 Q221 642 275 642 Z " />
<glyph glyph-name="cedilla" unicode="&#xb8;" horiz-adv-x="1024" d="M516 0 L415 -109 Q449 -103 473 -103 Q545 -103 590.5 -142 Q636 -181 636 -242 Q636 -316 570.5 -364 Q505 -412 405 -412 Q319 -412 203 -366 L242 -292 Q318 -325 383 -325 Q426 -325 455 -304 Q484 -283 484 -251 Q484 -219 459.5 -199.5 Q435 -180 396 -180 Q361 -180 325 -193 L290 -153 L425 0 L516 0 Z " />
<glyph glyph-name="onesuperior" unicode="&#xb9;" horiz-adv-x="731" d="M693 1356 L521 546 L363 546 L485 1120 Q398 1106 312 1106 Q294 1106 271 1107 L294 1215 Q494 1218 573 1356 L693 1356 Z " />
<glyph glyph-name="ordmasculine" unicode="&#xba;" horiz-adv-x="737" d="M700 608 L91 608 L110 699 L719 699 L700 608 Z M516 1381 Q635 1381 700.5 1319 Q766 1257 766 1145 Q766 996 676 899.5 Q586 803 448 803 Q327 803 260.5 866.5 Q194 930 194 1044 Q194 1189 285.5 1285 Q377 1381 516 1381 Z M506 1275 Q432 1275 383 1216 Q326 1147 326 1047 Q326 982 360.5 945 Q395 908 457 908 Q534 908 585 978 Q633 1045 633 1141 Q633 1204 599.5 1239.5 Q566 1275 506 1275 Z " />
<glyph glyph-name="guillemotright" unicode="&#xbb;" horiz-adv-x="881" d="M197 848 L436 585 L391 374 L52 166 L95 368 L312 500 L159 669 L197 848 Z M570 849 L811 585 L762 374 L425 167 L468 368 L686 501 L532 669 L570 849 Z " />
<glyph glyph-name="onequarter" unicode="&#xbc;" horiz-adv-x="1780" d="M693 1356 L521 546 L363 546 L485 1120 Q398 1106 312 1106 Q294 1106 271 1107 L294 1215 Q494 1218 573 1356 L693 1356 Z M1374 1347 L628 0 L487 0 L1237 1347 L1374 1347 Z M1698 305 L1673 187 L1558 187 L1519 0 L1370 0 L1410 187 L1029 187 L1056 313 L1553 813 L1691 813 L1583 305 L1698 305 Z M1442 298 L1513 631 L1188 298 L1442 298 Z " />
<glyph glyph-name="onehalf" unicode="&#xbd;" horiz-adv-x="1779" d="M693 1356 L521 546 L363 546 L485 1120 Q398 1106 312 1106 Q294 1106 271 1107 L294 1215 Q494 1218 573 1356 L693 1356 Z M1374 1347 L628 0 L487 0 L1237 1347 L1374 1347 Z M1662 124 L1636 0 L1033 0 Q1037 98 1098 180 Q1136 230 1183 263 Q1230 296 1377 376 Q1490 437 1529.5 478.5 Q1569 520 1569 576 Q1569 629 1533 660 Q1497 691 1436 691 Q1286 691 1271 517 L1127 517 Q1139 659 1223 737 Q1307 815 1448 815 Q1578 815 1652 750 Q1723 686 1723 586 Q1723 468 1622 385 Q1587 356 1556 336.5 Q1525 317 1374 231 Q1271 172 1233 122 Q1282 124 1338 124 L1662 124 Z " />
<glyph glyph-name="threequarters" unicode="&#xbe;" horiz-adv-x="1779" d="M260 821 Q259 806 259 794 Q259 655 411 655 Q486 655 533 696 Q580 737 580 803 Q580 916 432 916 Q411 916 380 914 L404 1025 Q425 1024 443 1024 Q624 1024 624 1142 Q624 1187 589 1213.5 Q554 1240 495 1240 Q362 1240 336 1095 L193 1095 Q209 1221 292 1290.5 Q375 1360 509 1360 Q630 1360 704 1300 Q774 1243 774 1156 Q774 1025 636 972 Q736 917 736 809 Q736 688 642 609.5 Q548 531 403 531 Q272 531 192.5 598 Q113 665 113 776 Q113 793 115 821 L260 821 Z M1374 1347 L628 0 L487 0 L1237 1347 L1374 1347 Z M1697 305 L1672 187 L1558 187 L1518 0 L1370 0 L1409 187 L1029 187 L1055 313 L1552 813 L1691 813 L1583 305 L1697 305 Z M1442 298 L1513 631 L1187 298 L1442 298 Z " />
<glyph glyph-name="questiondown" unicode="&#xbf;" horiz-adv-x="1066" d="M613 1005 Q668 1005 706.5 964.5 Q745 924 745 866 Q745 812 706 773.5 Q667 735 612 735 Q557 735 519 774.5 Q481 814 481 871 Q481 926 520 965.5 Q559 1005 613 1005 Z M458 607 L664 607 Q643 469 588 383 Q556 333 516.5 300 Q477 267 359 193 Q198 91 198 -39 Q198 -118 247 -164 Q301 -214 394 -214 Q503 -214 570.5 -146 Q638 -78 659 55 L875 55 Q860 -85 796 -186 Q661 -398 381 -398 Q197 -398 88 -311 Q-30 -217 -30 -60 Q-30 69 44 165 Q99 238 278 353 Q369 412 399.5 455 Q430 498 458 607 Z " />
<glyph glyph-name="Agrave" unicode="&#xc0;" horiz-adv-x="1320" d="M976 1365 L1212 0 L969 0 L914 362 L373 362 L164 0 L-97 0 L721 1365 L976 1365 Z M804 1141 Q721 977 603 771 L472 542 L889 542 L846 822 Q812 1055 804 1141 Z M962 1475 L819 1475 L578 1744 L818 1744 L962 1475 Z " />
<glyph glyph-name="Aacute" unicode="&#xc1;" horiz-adv-x="1320" d="M976 1365 L1212 0 L969 0 L914 362 L373 362 L164 0 L-97 0 L721 1365 L976 1365 Z M804 1141 Q721 977 603 771 L472 542 L889 542 L846 822 Q812 1055 804 1141 Z M1204 1745 L915 1475 L759 1475 L941 1745 L1204 1745 Z " />
<glyph glyph-name="Acircumflex" unicode="&#xc2;" horiz-adv-x="1320" d="M976 1365 L1212 0 L969 0 L914 362 L373 362 L164 0 L-97 0 L721 1365 L976 1365 Z M804 1141 Q721 977 603 771 L472 542 L889 542 L846 822 Q812 1055 804 1141 Z M1161 1475 L986 1475 L890 1644 L720 1475 L536 1475 L804 1745 L1007 1745 L1161 1475 Z " />
<glyph glyph-name="Atilde" unicode="&#xc3;" horiz-adv-x="1320" d="M976 1365 L1212 0 L969 0 L914 362 L373 362 L164 0 L-97 0 L721 1365 L976 1365 Z M804 1141 Q721 977 603 771 L472 542 L889 542 L846 822 Q812 1055 804 1141 Z M1214 1719 Q1187 1612 1135 1553 Q1083 1494 1016 1494 Q984 1494 955.5 1503 Q927 1512 820 1556 Q758 1581 731 1581 Q684 1581 646 1496 L531 1496 Q558 1602 611.5 1660 Q665 1718 736 1718 Q770 1718 797.5 1708.5 Q825 1699 943 1649 Q987 1630 1012 1630 Q1068 1630 1099 1719 L1214 1719 Z " />
<glyph glyph-name="Adieresis" unicode="&#xc4;" horiz-adv-x="1320" d="M976 1365 L1212 0 L969 0 L914 362 L373 362 L164 0 L-97 0 L721 1365 L976 1365 Z M804 1141 Q721 977 603 771 L472 542 L889 542 L846 822 Q812 1055 804 1141 Z M665 1745 Q720 1745 758.5 1704.5 Q797 1664 797 1606 Q797 1552 758 1513.5 Q719 1475 664 1475 Q609 1475 571 1514.5 Q533 1554 533 1611 Q533 1665 572 1705 Q611 1745 665 1745 Z M1089 1745 Q1144 1745 1182.5 1704.5 Q1221 1664 1221 1606 Q1221 1552 1182 1513.5 Q1143 1475 1088 1475 Q1033 1475 995 1514.5 Q957 1554 957 1611 Q957 1665 996 1705 Q1035 1745 1089 1745 Z " />
<glyph glyph-name="Aring" unicode="&#xc5;" horiz-adv-x="1320" d="M976 1365 L1212 0 L969 0 L914 362 L373 362 L164 0 L-97 0 L721 1365 L976 1365 Z M804 1141 Q721 977 603 771 L472 542 L889 542 L846 822 Q812 1055 804 1141 Z M889 1877 Q979 1877 1043 1807 Q1097 1747 1097 1666 Q1097 1571 1027 1508 Q967 1454 885 1454 Q791 1454 728 1524 Q674 1584 674 1667 Q674 1758 744 1823 Q804 1877 889 1877 Z M887 1769 Q843 1769 812.5 1739 Q782 1709 782 1666 Q782 1623 812 1592.5 Q842 1562 885 1562 Q928 1562 958.5 1592.5 Q989 1623 989 1665 Q989 1708 959 1738.5 Q929 1769 887 1769 Z " />
<glyph glyph-name="AE" unicode="&#xc6;" horiz-adv-x="1858" d="M1951 1365 L1908 1164 L1254 1164 L1176 799 L1790 799 L1749 608 L1136 608 L1049 201 L1717 201 L1674 0 L770 0 L845 350 L404 350 L160 0 L-118 0 L863 1365 L1951 1365 Z M1019 1168 L969 1168 L527 530 L883 530 L1019 1168 Z " />
<glyph glyph-name="Ccedilla" unicode="&#xc7;" horiz-adv-x="1386" d="M1389 913 L1155 913 Q1156 930 1156 935 Q1156 1058 1062 1137 Q984 1201 855 1201 Q620 1201 482 1006 Q422 922 387.5 804 Q353 686 353 565 Q353 379 439 277 Q536 161 698 161 Q843 161 942 243 Q1041 325 1083 480 L1322 480 Q1289 305 1173 174 Q993 -30 696 -30 Q687 -30 667 -30 L605 -106 Q645 -100 667 -100 Q736 -100 780.5 -138.5 Q825 -177 825 -237 Q825 -311 761.5 -359 Q698 -407 600 -407 Q500 -407 389 -362 L428 -289 Q511 -321 575 -321 Q619 -321 647 -300.5 Q675 -280 675 -246 Q675 -215 650 -195.5 Q625 -176 586 -176 Q556 -176 515 -189 L479 -149 L582 -23 Q390 6 277 123 Q119 285 119 566 Q119 786 207 977 Q296 1171 470 1282 Q648 1395 867 1395 Q1103 1395 1245 1267 Q1390 1137 1390 941 Q1390 934 1389 913 Z " />
<glyph glyph-name="Egrave" unicode="&#xc8;" horiz-adv-x="1227" d="M1320 1365 L1278 1164 L523 1164 L445 799 L1148 799 L1108 608 L404 608 L318 201 L1085 201 L1043 0 L39 0 L329 1365 L1320 1365 Z M974 1475 L830 1475 L590 1744 L830 1744 L974 1475 Z " />
<glyph glyph-name="Eacute" unicode="&#xc9;" horiz-adv-x="1227" d="M1320 1365 L1278 1164 L523 1164 L445 799 L1148 799 L1108 608 L404 608 L318 201 L1085 201 L1043 0 L39 0 L329 1365 L1320 1365 Z M1144 1745 L854 1475 L699 1475 L881 1745 L1144 1745 Z " />
<glyph glyph-name="Ecircumflex" unicode="&#xca;" horiz-adv-x="1227" d="M1320 1365 L1278 1164 L523 1164 L445 799 L1148 799 L1108 608 L404 608 L318 201 L1085 201 L1043 0 L39 0 L329 1365 L1320 1365 Z M1143 1475 L968 1475 L871 1644 L702 1475 L517 1475 L786 1745 L989 1745 L1143 1475 Z " />
<glyph glyph-name="Edieresis" unicode="&#xcb;" horiz-adv-x="1227" d="M1320 1365 L1278 1164 L523 1164 L445 799 L1148 799 L1108 608 L404 608 L318 201 L1085 201 L1043 0 L39 0 L329 1365 L1320 1365 Z M639 1745 Q694 1745 732.5 1704.5 Q771 1664 771 1606 Q771 1552 732 1513.5 Q693 1475 638 1475 Q583 1475 545 1514.5 Q507 1554 507 1611 Q507 1665 546 1705 Q585 1745 639 1745 Z M1063 1745 Q1118 1745 1156.5 1704.5 Q1195 1664 1195 1606 Q1195 1552 1156 1513.5 Q1117 1475 1062 1475 Q1007 1475 969 1514.5 Q931 1554 931 1611 Q931 1665 970 1705 Q1009 1745 1063 1745 Z " />
<glyph glyph-name="Igrave" unicode="&#xcc;" horiz-adv-x="519" d="M565 1365 L275 0 L39 0 L329 1365 L565 1365 Z M575 1475 L432 1475 L205 1744 L431 1744 L575 1475 Z " />
<glyph glyph-name="Iacute" unicode="&#xcd;" horiz-adv-x="519" d="M565 1365 L275 0 L39 0 L329 1365 L565 1365 Z M783 1745 L507 1475 L352 1475 L534 1745 L783 1745 Z " />
<glyph glyph-name="Icircumflex" unicode="&#xce;" horiz-adv-x="519" d="M565 1365 L275 0 L39 0 L329 1365 L565 1365 Z M742 1475 L570 1475 L507 1644 L372 1475 L187 1475 L429 1745 L618 1745 L742 1475 Z " />
<glyph glyph-name="Idieresis" unicode="&#xcf;" horiz-adv-x="519" d="M565 1365 L275 0 L39 0 L329 1365 L565 1365 Z M344 1745 Q399 1745 437.5 1704.5 Q476 1664 476 1606 Q476 1552 437 1513.5 Q398 1475 343 1475 Q288 1475 250 1514.5 Q212 1554 212 1611 Q212 1665 251 1705 Q290 1745 344 1745 Z M638 1745 Q693 1745 731.5 1704.5 Q770 1664 770 1606 Q770 1552 731 1513.5 Q692 1475 637 1475 Q582 1475 544 1514.5 Q506 1554 506 1611 Q506 1665 545 1705 Q584 1745 638 1745 Z " />
<glyph glyph-name="Eth" unicode="&#xd0;" horiz-adv-x="1384" d="M329 1365 L663 1365 Q897 1365 979 1346 Q1184 1300 1281 1125 Q1356 992 1356 815 Q1356 659 1302.5 507 Q1249 355 1156 245 Q1026 92 847 37 Q726 0 485 0 L39 0 L175 642 L32 642 L65 799 L209 799 L329 1365 Z M445 799 L761 799 L728 642 L412 642 L318 201 L516 201 Q714 201 802 238 Q990 319 1076 559 Q1119 680 1119 804 Q1119 1045 961 1125 Q885 1164 716 1164 L523 1164 L445 799 Z " />
<glyph glyph-name="Ntilde" unicode="&#xd1;" horiz-adv-x="1414" d="M1460 1365 L1169 0 L917 0 L579 815 Q515 970 486 1076 Q470 937 422 710 L271 0 L39 0 L329 1365 L581 1365 L916 553 Q974 413 1014 283 Q1046 513 1088 710 L1228 1365 L1460 1365 Z M1274 1719 Q1247 1612 1195.5 1553 Q1144 1494 1076 1494 Q1045 1494 1016 1503 Q987 1512 880 1556 Q818 1581 791 1581 Q745 1581 707 1496 L591 1496 Q618 1602 671.5 1660 Q725 1718 796 1718 Q830 1718 858 1708.5 Q886 1699 1003 1649 Q1047 1630 1073 1630 Q1128 1630 1159 1719 L1274 1719 Z " />
<glyph glyph-name="Ograve" unicode="&#xd2;" horiz-adv-x="1487" d="M870 1397 Q1083 1397 1233 1293 Q1455 1138 1455 814 Q1455 646 1403 491.5 Q1351 337 1254 219 Q1125 61 949 6 Q834 -31 703 -31 Q381 -31 226 191 Q119 344 119 574 Q119 776 197 955 Q303 1199 510 1309 Q675 1397 870 1397 Z M861 1202 Q657 1202 524 1055 Q446 969 401 839 Q356 709 356 569 Q356 380 453 271.5 Q550 163 720 163 Q917 163 1050 316 Q1137 416 1180 560 Q1218 689 1218 808 Q1218 992 1123 1097 Q1028 1202 861 1202 Z M975 1473 L835 1473 L609 1747 L836 1747 L975 1473 Z " />
<glyph glyph-name="Oacute" unicode="&#xd3;" horiz-adv-x="1487" d="M870 1397 Q1083 1397 1233 1293 Q1455 1138 1455 814 Q1455 646 1403 491.5 Q1351 337 1254 219 Q1125 61 949 6 Q834 -31 703 -31 Q381 -31 226 191 Q119 344 119 574 Q119 776 197 955 Q303 1199 510 1309 Q675 1397 870 1397 Z M861 1202 Q657 1202 524 1055 Q446 969 401 839 Q356 709 356 569 Q356 380 453 271.5 Q550 163 720 163 Q917 163 1050 316 Q1137 416 1180 560 Q1218 689 1218 808 Q1218 992 1123 1097 Q1028 1202 861 1202 Z M1246 1745 L957 1475 L802 1475 L983 1745 L1246 1745 Z " />
<glyph glyph-name="Ocircumflex" unicode="&#xd4;" horiz-adv-x="1487" d="M870 1397 Q1083 1397 1233 1293 Q1455 1138 1455 814 Q1455 646 1403 491.5 Q1351 337 1254 219 Q1125 61 949 6 Q834 -31 703 -31 Q381 -31 226 191 Q119 344 119 574 Q119 776 197 955 Q303 1199 510 1309 Q675 1397 870 1397 Z M861 1202 Q657 1202 524 1055 Q446 969 401 839 Q356 709 356 569 Q356 380 453 271.5 Q550 163 720 163 Q917 163 1050 316 Q1137 416 1180 560 Q1218 689 1218 808 Q1218 992 1123 1097 Q1028 1202 861 1202 Z M1240 1475 L1065 1475 L968 1644 L799 1475 L614 1475 L883 1745 L1086 1745 L1240 1475 Z " />
<glyph glyph-name="Otilde" unicode="&#xd5;" horiz-adv-x="1487" d="M870 1397 Q1083 1397 1233 1293 Q1455 1138 1455 814 Q1455 646 1403 491.5 Q1351 337 1254 219 Q1125 61 949 6 Q834 -31 703 -31 Q381 -31 226 191 Q119 344 119 574 Q119 776 197 955 Q303 1199 510 1309 Q675 1397 870 1397 Z M861 1202 Q657 1202 524 1055 Q446 969 401 839 Q356 709 356 569 Q356 380 453 271.5 Q550 163 720 163 Q917 163 1050 316 Q1137 416 1180 560 Q1218 689 1218 808 Q1218 992 1123 1097 Q1028 1202 861 1202 Z M1297 1719 Q1270 1612 1218 1553 Q1166 1494 1099 1494 Q1067 1494 1038.5 1503 Q1010 1512 903 1556 Q841 1581 814 1581 Q767 1581 729 1496 L614 1496 Q641 1602 694.5 1660 Q748 1718 819 1718 Q853 1718 880.5 1708.5 Q908 1699 1026 1649 Q1070 1630 1095 1630 Q1151 1630 1182 1719 L1297 1719 Z " />
<glyph glyph-name="Odieresis" unicode="&#xd6;" horiz-adv-x="1487" d="M870 1397 Q1083 1397 1233 1293 Q1455 1138 1455 814 Q1455 646 1403 491.5 Q1351 337 1254 219 Q1125 61 949 6 Q834 -31 703 -31 Q381 -31 226 191 Q119 344 119 574 Q119 776 197 955 Q303 1199 510 1309 Q675 1397 870 1397 Z M861 1202 Q657 1202 524 1055 Q446 969 401 839 Q356 709 356 569 Q356 380 453 271.5 Q550 163 720 163 Q917 163 1050 316 Q1137 416 1180 560 Q1218 689 1218 808 Q1218 992 1123 1097 Q1028 1202 861 1202 Z M742 1745 Q797 1745 835.5 1704.5 Q874 1664 874 1606 Q874 1552 834.5 1513.5 Q795 1475 741 1475 Q686 1475 648 1514.5 Q610 1554 610 1611 Q610 1665 649 1705 Q688 1745 742 1745 Z M1165 1745 Q1220 1745 1258.5 1704.5 Q1297 1664 1297 1606 Q1297 1552 1257.5 1513.5 Q1218 1475 1164 1475 Q1109 1475 1071 1514.5 Q1033 1554 1033 1611 Q1033 1665 1072 1705 Q1111 1745 1165 1745 Z " />
<glyph glyph-name="multiply" unicode="&#xd7;" horiz-adv-x="1106" d="M184 370 L481 667 L188 960 L299 1071 L592 778 L889 1075 L1000 964 L703 667 L995 374 L884 263 L592 556 L295 259 L184 370 Z " />
<glyph glyph-name="Oslash" unicode="&#xd8;" horiz-adv-x="1487" d="M1567 1330 L1376 1149 Q1461 1019 1461 816 Q1461 649 1406 491.5 Q1351 334 1252 219 Q1038 -30 699 -30 Q429 -30 286 124 L97 -64 L19 35 L207 222 Q119 372 119 581 Q119 766 192 944 Q285 1171 488 1292 Q660 1395 877 1395 Q1145 1395 1295 1250 L1480 1422 L1567 1330 Z M1129 1095 Q1025 1201 864 1201 Q666 1201 531 1061 Q450 978 404 851.5 Q358 725 358 586 Q358 482 391 395 L1129 1095 Z M1188 979 L448 277 Q490 224 564 194 Q638 164 725 164 Q896 164 1030 290 Q1112 368 1166 502 Q1224 646 1224 791 Q1224 891 1188 979 Z " />
<glyph glyph-name="Ugrave" unicode="&#xd9;" horiz-adv-x="1375" d="M1441 1365 L1268 552 Q1233 385 1201 302.5 Q1169 220 1115 154 Q964 -32 643 -32 Q422 -32 289 54 Q114 167 114 373 Q114 451 142 581 L309 1365 L545 1365 L378 581 Q351 454 351 400 Q351 281 433 221 Q512 164 646 164 Q861 164 948 300 Q973 339 994.5 408 Q1016 477 1042 600 L1205 1365 L1441 1365 Z M1030 1475 L887 1475 L646 1744 L886 1744 L1030 1475 Z " />
<glyph glyph-name="Uacute" unicode="&#xda;" horiz-adv-x="1375" d="M1441 1365 L1268 552 Q1233 385 1201 302.5 Q1169 220 1115 154 Q964 -32 643 -32 Q422 -32 289 54 Q114 167 114 373 Q114 451 142 581 L309 1365 L545 1365 L378 581 Q351 454 351 400 Q351 281 433 221 Q512 164 646 164 Q861 164 948 300 Q973 339 994.5 408 Q1016 477 1042 600 L1205 1365 L1441 1365 Z M1210 1745 L921 1475 L766 1475 L948 1745 L1210 1745 Z " />
<glyph glyph-name="Ucircumflex" unicode="&#xdb;" horiz-adv-x="1375" d="M1441 1365 L1268 552 Q1233 385 1201 302.5 Q1169 220 1115 154 Q964 -32 643 -32 Q422 -32 289 54 Q114 167 114 373 Q114 451 142 581 L309 1365 L545 1365 L378 581 Q351 454 351 400 Q351 281 433 221 Q512 164 646 164 Q861 164 948 300 Q973 339 994.5 408 Q1016 477 1042 600 L1205 1365 L1441 1365 Z M1209 1475 L1034 1475 L937 1644 L768 1475 L584 1475 L852 1745 L1055 1745 L1209 1475 Z " />
<glyph glyph-name="Udieresis" unicode="&#xdc;" horiz-adv-x="1375" d="M1441 1365 L1268 552 Q1233 385 1201 302.5 Q1169 220 1115 154 Q964 -32 643 -32 Q422 -32 289 54 Q114 167 114 373 Q114 451 142 581 L309 1365 L545 1365 L378 581 Q351 454 351 400 Q351 281 433 221 Q512 164 646 164 Q861 164 948 300 Q973 339 994.5 408 Q1016 477 1042 600 L1205 1365 L1441 1365 Z M706 1745 Q761 1745 799.5 1704.5 Q838 1664 838 1606 Q838 1552 798.5 1513.5 Q759 1475 705 1475 Q650 1475 612 1514.5 Q574 1554 574 1611 Q574 1665 613 1705 Q652 1745 706 1745 Z M1130 1745 Q1185 1745 1223.5 1704.5 Q1262 1664 1262 1606 Q1262 1552 1223 1513.5 Q1184 1475 1129 1475 Q1074 1475 1036 1514.5 Q998 1554 998 1611 Q998 1666 1037 1705.5 Q1076 1745 1130 1745 Z " />
<glyph glyph-name="Yacute" unicode="&#xdd;" horiz-adv-x="1186" d="M1403 1365 L737 530 L624 0 L388 0 L503 544 L159 1365 L410 1365 L574 942 L595 882 Q640 761 648 736 Q709 830 775 917 L1119 1365 L1403 1365 Z M1110 1745 L820 1475 L665 1475 L847 1745 L1110 1745 Z " />
<glyph glyph-name="Thorn" unicode="&#xde;" horiz-adv-x="1263" d="M329 1365 L565 1365 L522 1161 L780 1161 Q994 1161 1086 1107 Q1253 1011 1253 792 Q1253 632 1168 509 Q1094 403 984.5 362.5 Q875 322 660 322 L344 322 L275 0 L39 0 L329 1365 Z M478 956 L381 499 L659 499 Q770 499 823 509 Q876 519 913 547 Q958 580 984 636.5 Q1010 693 1010 756 Q1010 867 937 919 Q885 956 716 956 L478 956 Z " />
<glyph glyph-name="germandbls" unicode="&#xdf;" horiz-adv-x="1096" d="M408 158 Q449 151 482 151 Q626 151 710 241 Q795 333 795 472 Q795 675 551 675 Q542 675 517 674 L549 824 Q570 822 588 822 Q728 822 799 899 Q859 964 859 1059 Q859 1127 812 1169 Q765 1211 688 1211 Q629 1211 579.5 1187 Q530 1163 503 1122 Q468 1068 434 906 L241 0 L26 0 L223 927 Q255 1075 282.5 1141 Q310 1207 363 1262 Q482 1384 695 1384 Q871 1384 973 1303 Q1076 1221 1076 1079 Q1076 958 1003.5 873 Q931 788 801 756 Q902 734 959 659.5 Q1016 585 1016 474 Q1016 276 879 129 Q738 -22 502 -22 Q444 -22 371 -12 L408 158 Z " />
<glyph glyph-name="agrave" unicode="&#xe0;" horiz-adv-x="1103" d="M779 1126 L640 1126 L413 1410 L641 1410 L779 1126 Z M988 157 L953 0 Q852 -27 788 -27 Q733 -27 696 7 Q652 47 652 97 L652 99 Q576 33 501 5 Q415 -27 322 -27 Q179 -27 94.5 46 Q10 119 10 243 Q10 394 113 475 Q224 562 424 578 L640 595 Q759 604 759 726 Q759 844 589 844 Q482 844 427 809 Q372 774 345 689 L138 689 Q160 783 190 833 Q301 1017 609 1017 Q802 1017 889 959.5 Q976 902 976 774 Q976 724 958 637 L879 262 Q877 253 872 231 Q866 207 866 189 Q866 145 913 145 Q928 145 988 157 Z M715 486 L711 490 Q682 464 646.5 456 Q611 448 477 437 Q228 416 228 278 Q228 146 408 146 Q538 146 614 228 Q653 271 674.5 326 Q696 381 715 486 Z " />
<glyph glyph-name="aacute" unicode="&#xe1;" horiz-adv-x="1103" d="M954 1410 L670 1126 L525 1126 L707 1410 L954 1410 Z M988 157 L953 0 Q852 -27 788 -27 Q733 -27 696 7 Q652 47 652 97 L652 99 Q576 33 501 5 Q415 -27 322 -27 Q179 -27 94.5 46 Q10 119 10 243 Q10 394 113 475 Q224 562 424 578 L640 595 Q759 604 759 726 Q759 844 589 844 Q482 844 427 809 Q372 774 345 689 L138 689 Q160 783 190 833 Q301 1017 609 1017 Q802 1017 889 959.5 Q976 902 976 774 Q976 724 958 637 L879 262 Q877 253 872 231 Q866 207 866 189 Q866 145 913 145 Q928 145 988 157 Z M715 486 L711 490 Q682 464 646.5 456 Q611 448 477 437 Q228 416 228 278 Q228 146 408 146 Q538 146 614 228 Q653 271 674.5 326 Q696 381 715 486 Z " />
<glyph glyph-name="acircumflex" unicode="&#xe2;" horiz-adv-x="1103" d="M949 1126 L777 1126 L703 1305 L543 1126 L362 1126 L629 1410 L805 1410 L949 1126 Z M988 157 L953 0 Q852 -27 788 -27 Q733 -27 696 7 Q652 47 652 97 L652 99 Q576 33 501 5 Q415 -27 322 -27 Q179 -27 94.5 46 Q10 119 10 243 Q10 394 113 475 Q224 562 424 578 L640 595 Q759 604 759 726 Q759 844 589 844 Q482 844 427 809 Q372 774 345 689 L138 689 Q160 783 190 833 Q301 1017 609 1017 Q802 1017 889 959.5 Q976 902 976 774 Q976 724 958 637 L879 262 Q877 253 872 231 Q866 207 866 189 Q866 145 913 145 Q928 145 988 157 Z M715 486 L711 490 Q682 464 646.5 456 Q611 448 477 437 Q228 416 228 278 Q228 146 408 146 Q538 146 614 228 Q653 271 674.5 326 Q696 381 715 486 Z " />
<glyph glyph-name="atilde" unicode="&#xe3;" horiz-adv-x="1103" d="M993 1377 Q969 1271 920 1211.5 Q871 1152 807 1152 Q777 1152 750.5 1161 Q724 1170 623 1214 Q565 1239 540 1239 Q498 1239 463 1154 L351 1154 Q377 1260 427.5 1318 Q478 1376 544 1376 Q576 1376 602 1366.5 Q628 1357 738 1307 Q780 1288 804 1288 Q855 1288 882 1377 L993 1377 Z M988 157 L953 0 Q852 -27 788 -27 Q733 -27 696 7 Q652 47 652 97 L652 99 Q576 33 501 5 Q415 -27 322 -27 Q179 -27 94.5 46 Q10 119 10 243 Q10 394 113 475 Q224 562 424 578 L640 595 Q759 604 759 726 Q759 844 589 844 Q482 844 427 809 Q372 774 345 689 L138 689 Q160 783 190 833 Q301 1017 609 1017 Q802 1017 889 959.5 Q976 902 976 774 Q976 724 958 637 L879 262 Q877 253 872 231 Q866 207 866 189 Q866 145 913 145 Q928 145 988 157 Z M715 486 L711 490 Q682 464 646.5 456 Q611 448 477 437 Q228 416 228 278 Q228 146 408 146 Q538 146 614 228 Q653 271 674.5 326 Q696 381 715 486 Z " />
<glyph glyph-name="adieresis" unicode="&#xe4;" horiz-adv-x="1103" d="M486 1402 Q541 1402 579.5 1361.5 Q618 1321 618 1263 Q618 1209 579 1170.5 Q540 1132 485 1132 Q430 1132 392 1171.5 Q354 1211 354 1268 Q354 1323 393 1362.5 Q432 1402 486 1402 Z M855 1402 Q910 1402 948.5 1361.5 Q987 1321 987 1263 Q987 1209 948 1170.5 Q909 1132 854 1132 Q799 1132 761 1171.5 Q723 1211 723 1268 Q723 1322 762 1362 Q801 1402 855 1402 Z M988 157 L953 0 Q852 -27 788 -27 Q733 -27 696 7 Q652 47 652 97 L652 99 Q576 33 501 5 Q415 -27 322 -27 Q179 -27 94.5 46 Q10 119 10 243 Q10 394 113 475 Q224 562 424 578 L640 595 Q759 604 759 726 Q759 844 589 844 Q482 844 427 809 Q372 774 345 689 L138 689 Q160 783 190 833 Q301 1017 609 1017 Q802 1017 889 959.5 Q976 902 976 774 Q976 724 958 637 L879 262 Q877 253 872 231 Q866 207 866 189 Q866 145 913 145 Q928 145 988 157 Z M715 486 L711 490 Q682 464 646.5 456 Q611 448 477 437 Q228 416 228 278 Q228 146 408 146 Q538 146 614 228 Q653 271 674.5 326 Q696 381 715 486 Z " />
<glyph glyph-name="aring" unicode="&#xe5;" horiz-adv-x="1103" d="M679 1502 Q767 1502 828 1434 Q881 1376 881 1297 Q881 1206 813 1145 Q755 1092 676 1092 Q585 1092 524 1160 Q471 1218 471 1299 Q471 1387 539 1449 Q597 1502 679 1502 Z M678 1394 Q637 1394 608 1366 Q579 1338 579 1298 Q579 1257 607.5 1228.5 Q636 1200 676 1200 Q716 1200 744.5 1228.5 Q773 1257 773 1297 Q773 1336 744.5 1365 Q716 1394 678 1394 Z M988 157 L953 0 Q852 -27 788 -27 Q733 -27 696 7 Q652 47 652 97 L652 99 Q576 33 501 5 Q415 -27 322 -27 Q179 -27 94.5 46 Q10 119 10 243 Q10 394 113 475 Q224 562 424 578 L640 595 Q759 604 759 726 Q759 844 589 844 Q482 844 427 809 Q372 774 345 689 L138 689 Q160 783 190 833 Q301 1017 609 1017 Q802 1017 889 959.5 Q976 902 976 774 Q976 724 958 637 L879 262 Q877 253 872 231 Q866 207 866 189 Q866 145 913 145 Q928 145 988 157 Z M715 486 L711 490 Q682 464 646.5 456 Q611 448 477 437 Q228 416 228 278 Q228 146 408 146 Q538 146 614 228 Q653 271 674.5 326 Q696 381 715 486 Z " />
<glyph glyph-name="ae" unicode="&#xe6;" horiz-adv-x="1695" d="M749 169 Q673 89 609 51 Q476 -27 323 -27 Q179 -27 94.5 46 Q10 119 10 243 Q10 394 113 475 Q224 562 424 578 L640 595 Q759 604 759 726 Q759 844 589 844 Q482 844 427 809 Q372 774 345 689 L138 689 Q160 783 190 833 Q301 1017 608 1017 Q745 1017 828 988 Q911 959 948 898 Q1060 1017 1253 1017 Q1449 1017 1555 890 Q1643 786 1643 619 Q1643 537 1621 438 L905 438 Q896 387 896 347 Q896 260 940 208 Q1000 136 1118 136 Q1204 136 1273.5 182.5 Q1343 229 1372 307 L1588 307 Q1548 194 1460 109 Q1320 -27 1100 -27 Q816 -27 749 169 Z M932 584 L1434 584 Q1437 615 1437 637 Q1437 724 1394 781 Q1338 854 1227 854 Q1116 854 1037.5 782.5 Q959 711 932 584 Z M715 486 L711 490 Q682 464 646.5 456 Q611 448 477 437 Q228 416 228 278 Q228 146 408 146 Q538 146 614 228 Q653 271 674.5 326 Q696 381 715 486 Z " />
<glyph glyph-name="ccedilla" unicode="&#xe7;" horiz-adv-x="1053" d="M498 -29 L432 -109 Q465 -103 489 -103 Q528 -103 563 -116 Q653 -150 653 -242 Q653 -316 587.5 -364 Q522 -412 422 -412 Q336 -412 219 -367 L259 -292 Q334 -325 400 -325 Q443 -325 472 -304 Q501 -283 501 -251 Q501 -219 476.5 -199.5 Q452 -180 413 -180 Q378 -180 342 -194 L306 -154 L412 -23 Q287 -7 206 58 Q65 172 65 399 Q65 532 113.5 657.5 Q162 783 245 865 Q401 1017 626 1017 Q873 1017 974 856 Q1023 779 1024 661 L811 661 Q812 750 761 798.5 Q710 847 615 847 Q518 847 442 791 Q367 736 323 630.5 Q279 525 279 399 Q279 245 363 185 Q422 142 508 142 Q595 142 659 193.5 Q723 245 754 341 L972 341 Q925 167 803 69 Q680 -29 498 -29 Z " />
<glyph glyph-name="egrave" unicode="&#xe8;" horiz-adv-x="1088" d="M972 306 Q944 201 867 117 Q735 -27 500 -27 Q269 -27 156 113 Q63 228 63 404 Q63 625 178 789 Q254 898 367.5 957.5 Q481 1017 612 1017 Q780 1017 889 929 Q1028 816 1028 591 Q1028 525 1014 438 L278 438 Q274 406 274 381 Q274 279 323 218 Q387 136 510 136 Q689 136 755 306 L972 306 Z M302 585 L820 585 Q821 607 821 616 Q821 714 780 773 Q723 853 604 853 Q495 853 415 782 Q335 711 302 585 Z M785 1126 L646 1126 L419 1410 L646 1410 L785 1126 Z " />
<glyph glyph-name="eacute" unicode="&#xe9;" horiz-adv-x="1088" d="M972 306 Q944 201 867 117 Q735 -27 500 -27 Q269 -27 156 113 Q63 228 63 404 Q63 625 178 789 Q254 898 367.5 957.5 Q481 1017 612 1017 Q780 1017 889 929 Q1028 816 1028 591 Q1028 525 1014 438 L278 438 Q274 406 274 381 Q274 279 323 218 Q387 136 510 136 Q689 136 755 306 L972 306 Z M302 585 L820 585 Q821 607 821 616 Q821 714 780 773 Q723 853 604 853 Q495 853 415 782 Q335 711 302 585 Z M973 1410 L689 1126 L545 1126 L726 1410 L973 1410 Z " />
<glyph glyph-name="ecircumflex" unicode="&#xea;" horiz-adv-x="1088" d="M972 306 Q944 201 867 117 Q735 -27 500 -27 Q269 -27 156 113 Q63 228 63 404 Q63 625 178 789 Q254 898 367.5 957.5 Q481 1017 612 1017 Q780 1017 889 929 Q1028 816 1028 591 Q1028 525 1014 438 L278 438 Q274 406 274 381 Q274 279 323 218 Q387 136 510 136 Q689 136 755 306 L972 306 Z M302 585 L820 585 Q821 607 821 616 Q821 714 780 773 Q723 853 604 853 Q495 853 415 782 Q335 711 302 585 Z M948 1126 L776 1126 L702 1305 L543 1126 L361 1126 L628 1410 L804 1410 L948 1126 Z " />
<glyph glyph-name="edieresis" unicode="&#xeb;" horiz-adv-x="1088" d="M972 306 Q944 201 867 117 Q735 -27 500 -27 Q269 -27 156 113 Q63 228 63 404 Q63 625 178 789 Q254 898 367.5 957.5 Q481 1017 612 1017 Q780 1017 889 929 Q1028 816 1028 591 Q1028 525 1014 438 L278 438 Q274 406 274 381 Q274 279 323 218 Q387 136 510 136 Q689 136 755 306 L972 306 Z M302 585 L820 585 Q821 607 821 616 Q821 714 780 773 Q723 853 604 853 Q495 853 415 782 Q335 711 302 585 Z M498 1402 Q553 1402 591.5 1361.5 Q630 1321 630 1263 Q630 1209 591 1170.5 Q552 1132 497 1132 Q442 1132 404 1171.5 Q366 1211 366 1268 Q366 1322 405 1362 Q444 1402 498 1402 Z M867 1402 Q922 1402 960.5 1361.5 Q999 1321 999 1263 Q999 1209 960 1170.5 Q921 1132 866 1132 Q811 1132 773 1171.5 Q735 1211 735 1268 Q735 1322 774 1362 Q813 1402 867 1402 Z " />
<glyph glyph-name="igrave" unicode="&#xec;" horiz-adv-x="471" d="M451 990 L241 0 L26 0 L236 990 L451 990 Z M477 1126 L338 1126 L125 1410 L338 1410 L477 1126 Z " />
<glyph glyph-name="iacute" unicode="&#xed;" horiz-adv-x="471" d="M451 990 L241 0 L26 0 L236 990 L451 990 Z M679 1410 L408 1126 L264 1126 L446 1410 L679 1410 Z " />
<glyph glyph-name="icircumflex" unicode="&#xee;" horiz-adv-x="471" d="M451 990 L241 0 L26 0 L236 990 L451 990 Z M628 1126 L456 1126 L409 1302 L277 1126 L95 1126 L339 1410 L507 1410 L628 1126 Z " />
<glyph glyph-name="idieresis" unicode="&#xef;" horiz-adv-x="471" d="M451 990 L241 0 L26 0 L236 990 L451 990 Z M227 1402 Q282 1402 320.5 1361.5 Q359 1321 359 1263 Q359 1209 320 1170.5 Q281 1132 226 1132 Q171 1132 133 1171.5 Q95 1211 95 1268 Q95 1322 134 1362 Q173 1402 227 1402 Z M526 1402 Q581 1402 619.5 1361.5 Q658 1321 658 1263 Q658 1209 619 1170.5 Q580 1132 525 1132 Q470 1132 432 1171.5 Q394 1211 394 1268 Q394 1322 433 1362 Q472 1402 526 1402 Z " />
<glyph glyph-name="eth" unicode="&#xf0;" horiz-adv-x="1113" d="M522 1193 L675 1248 L628 1371 L769 1414 L822 1298 L973 1352 L1011 1257 L865 1201 L967 960 Q1057 751 1057 602 Q1057 431 980 275 Q832 -27 494 -27 Q268 -27 157 103 Q59 218 59 400 Q59 583 150 745 Q238 902 396 972 Q499 1017 606 1017 Q684 1017 765 990 L711 1148 L560 1093 L522 1193 Z M607 847 Q469 847 374 726 Q270 594 270 407 Q270 258 348 193 Q410 142 506 142 Q657 142 747 267 Q790 327 817.5 420 Q845 513 845 601 Q845 761 735 817 Q678 847 607 847 Z " />
<glyph glyph-name="ntilde" unicode="&#xf1;" horiz-adv-x="1126" d="M441 990 L409 840 Q473 925 564 971 Q655 1017 761 1017 Q868 1017 948 966 Q1053 900 1053 768 Q1053 708 1030 597 L903 0 L688 0 L814 594 Q829 665 829 715 Q829 841 672 841 Q536 841 443 730 Q381 657 352 524 L241 0 L26 0 L236 990 L441 990 Z M1045 1377 Q1021 1271 972 1211.5 Q923 1152 860 1152 Q830 1152 803 1161 Q776 1170 676 1214 Q617 1239 592 1239 Q550 1239 516 1154 L404 1154 Q429 1260 479.5 1318 Q530 1376 597 1376 Q628 1376 654 1366.5 Q680 1357 791 1307 Q832 1288 857 1288 Q907 1288 934 1377 L1045 1377 Z " />
<glyph glyph-name="ograve" unicode="&#xf2;" horiz-adv-x="1128" d="M633 1019 Q840 1019 953.5 908.5 Q1067 798 1067 597 Q1067 477 1026.5 360 Q986 243 915 155 Q766 -29 510 -29 Q240 -29 133 148 Q68 256 68 403 Q68 547 125 681 Q193 841 326.5 930 Q460 1019 633 1019 Z M620 848 Q482 848 388 732 Q339 672 309 582 Q279 492 279 405 Q279 280 343 210.5 Q407 141 521 141 Q668 141 763 278 Q805 338 830 424.5 Q855 511 855 594 Q855 713 792.5 780.5 Q730 848 620 848 Z M825 1126 L686 1126 L459 1410 L686 1410 L825 1126 Z " />
<glyph glyph-name="oacute" unicode="&#xf3;" horiz-adv-x="1128" d="M633 1019 Q840 1019 953.5 908.5 Q1067 798 1067 597 Q1067 477 1026.5 360 Q986 243 915 155 Q766 -29 510 -29 Q240 -29 133 148 Q68 256 68 403 Q68 547 125 681 Q193 841 326.5 930 Q460 1019 633 1019 Z M620 848 Q482 848 388 732 Q339 672 309 582 Q279 492 279 405 Q279 280 343 210.5 Q407 141 521 141 Q668 141 763 278 Q805 338 830 424.5 Q855 511 855 594 Q855 713 792.5 780.5 Q730 848 620 848 Z M1000 1410 L715 1126 L571 1126 L753 1410 L1000 1410 Z " />
<glyph glyph-name="ocircumflex" unicode="&#xf4;" horiz-adv-x="1128" d="M633 1019 Q840 1019 953.5 908.5 Q1067 798 1067 597 Q1067 477 1026.5 360 Q986 243 915 155 Q766 -29 510 -29 Q240 -29 133 148 Q68 256 68 403 Q68 547 125 681 Q193 841 326.5 930 Q460 1019 633 1019 Z M620 848 Q482 848 388 732 Q339 672 309 582 Q279 492 279 405 Q279 280 343 210.5 Q407 141 521 141 Q668 141 763 278 Q805 338 830 424.5 Q855 511 855 594 Q855 713 792.5 780.5 Q730 848 620 848 Z M985 1126 L813 1126 L739 1305 L579 1126 L397 1126 L665 1410 L841 1410 L985 1126 Z " />
<glyph glyph-name="otilde" unicode="&#xf5;" horiz-adv-x="1128" d="M633 1019 Q840 1019 953.5 908.5 Q1067 798 1067 597 Q1067 477 1026.5 360 Q986 243 915 155 Q766 -29 510 -29 Q240 -29 133 148 Q68 256 68 403 Q68 547 125 681 Q193 841 326.5 930 Q460 1019 633 1019 Z M620 848 Q482 848 388 732 Q339 672 309 582 Q279 492 279 405 Q279 280 343 210.5 Q407 141 521 141 Q668 141 763 278 Q805 338 830 424.5 Q855 511 855 594 Q855 713 792.5 780.5 Q730 848 620 848 Z M1046 1377 Q1022 1271 973 1211.5 Q924 1152 860 1152 Q830 1152 803 1161 Q776 1170 676 1214 Q618 1239 593 1239 Q551 1239 516 1154 L404 1154 Q429 1260 479.5 1318 Q530 1376 597 1376 Q628 1376 654 1366.5 Q680 1357 791 1307 Q832 1288 857 1288 Q908 1288 934 1377 L1046 1377 Z " />
<glyph glyph-name="odieresis" unicode="&#xf6;" horiz-adv-x="1128" d="M633 1019 Q840 1019 953.5 908.5 Q1067 798 1067 597 Q1067 477 1026.5 360 Q986 243 915 155 Q766 -29 510 -29 Q240 -29 133 148 Q68 256 68 403 Q68 547 125 681 Q193 841 326.5 930 Q460 1019 633 1019 Z M620 848 Q482 848 388 732 Q339 672 309 582 Q279 492 279 405 Q279 280 343 210.5 Q407 141 521 141 Q668 141 763 278 Q805 338 830 424.5 Q855 511 855 594 Q855 713 792.5 780.5 Q730 848 620 848 Z M525 1402 Q580 1402 618.5 1361.5 Q657 1321 657 1263 Q657 1209 617.5 1170.5 Q578 1132 524 1132 Q469 1132 431 1171.5 Q393 1211 393 1268 Q393 1322 432 1362 Q471 1402 525 1402 Z M894 1402 Q949 1402 987.5 1361.5 Q1026 1321 1026 1263 Q1026 1209 986.5 1170.5 Q947 1132 893 1132 Q838 1132 800 1171.5 Q762 1211 762 1268 Q762 1322 801 1362 Q840 1402 894 1402 Z " />
<glyph glyph-name="divide" unicode="&#xf7;" horiz-adv-x="1106" d="M594 1130 Q646 1130 683 1092.5 Q720 1055 720 1003 Q720 950 682.5 912.5 Q645 875 593 875 Q540 875 502.5 912.5 Q465 950 465 1003 Q465 1056 503 1093 Q541 1130 594 1130 Z M594 459 Q646 459 683 421.5 Q720 384 720 332 Q720 279 682.5 241.5 Q645 204 592 204 Q539 204 501.5 241.5 Q464 279 464 332 Q464 385 502 422 Q540 459 594 459 Z M135 746 L1050 746 L1050 589 L135 589 L135 746 Z " />
<glyph glyph-name="oslash" unicode="&#xf8;" horiz-adv-x="1128" d="M1151 952 L1016 829 Q1069 735 1069 600 Q1069 466 1024 341.5 Q979 217 898 129 Q752 -30 512 -30 Q309 -30 195 77 L57 -52 L-6 31 L129 161 Q76 258 76 401 Q76 543 127.5 669 Q179 795 271 879 Q423 1017 637 1017 Q836 1017 952 908 L1085 1028 L1151 952 Z M808 777 Q742 853 624 853 Q459 853 358 682 Q285 559 285 398 Q285 355 295 312 L808 777 Z M851 676 L339 209 Q409 136 518 136 Q683 136 784 303 Q817 358 838.5 440 Q860 522 860 595 Q860 628 851 676 Z " />
<glyph glyph-name="ugrave" unicode="&#xf9;" horiz-adv-x="1113" d="M1093 990 L883 0 L678 0 L709 147 Q658 65 569.5 19 Q481 -27 375 -27 Q265 -27 184 24 Q80 90 80 228 Q80 290 102 392 L229 990 L444 990 L333 466 Q302 317 302 275 Q302 149 464 149 Q577 149 656 231.5 Q735 314 767 466 L878 990 L1093 990 Z M811 1126 L672 1126 L445 1410 L672 1410 L811 1126 Z " />
<glyph glyph-name="uacute" unicode="&#xfa;" horiz-adv-x="1113" d="M1093 990 L883 0 L678 0 L709 147 Q658 65 569.5 19 Q481 -27 375 -27 Q265 -27 184 24 Q80 90 80 228 Q80 290 102 392 L229 990 L444 990 L333 466 Q302 317 302 275 Q302 149 464 149 Q577 149 656 231.5 Q735 314 767 466 L878 990 L1093 990 Z M999 1410 L715 1126 L571 1126 L753 1410 L999 1410 Z " />
<glyph glyph-name="ucircumflex" unicode="&#xfb;" horiz-adv-x="1113" d="M1093 990 L883 0 L678 0 L709 147 Q658 65 569.5 19 Q481 -27 375 -27 Q265 -27 184 24 Q80 90 80 228 Q80 290 102 392 L229 990 L444 990 L333 466 Q302 317 302 275 Q302 149 464 149 Q577 149 656 231.5 Q735 314 767 466 L878 990 L1093 990 Z M976 1126 L804 1126 L730 1305 L570 1126 L389 1126 L656 1410 L832 1410 L976 1126 Z " />
<glyph glyph-name="udieresis" unicode="&#xfc;" horiz-adv-x="1113" d="M1093 990 L883 0 L678 0 L709 147 Q658 65 569.5 19 Q481 -27 375 -27 Q265 -27 184 24 Q80 90 80 228 Q80 290 102 392 L229 990 L444 990 L333 466 Q302 317 302 275 Q302 149 464 149 Q577 149 656 231.5 Q735 314 767 466 L878 990 L1093 990 Z M525 1402 Q580 1402 618.5 1361.5 Q657 1321 657 1263 Q657 1209 618 1170.5 Q579 1132 524 1132 Q469 1132 431 1171.5 Q393 1211 393 1268 Q393 1322 432 1362 Q471 1402 525 1402 Z M894 1402 Q949 1402 987.5 1361.5 Q1026 1321 1026 1263 Q1026 1209 987 1170.5 Q948 1132 893 1132 Q838 1132 800 1171.5 Q762 1211 762 1268 Q762 1322 801 1362 Q840 1402 894 1402 Z " />
<glyph glyph-name="yacute" unicode="&#xfd;" horiz-adv-x="933" d="M1045 990 L556 104 Q413 -156 351 -238 Q295 -313 224.5 -347 Q154 -381 56 -381 Q-11 -381 -78 -365 L-40 -186 Q18 -202 67 -202 Q133 -202 176 -142 Q193 -119 221 -58 Q272 51 270 61 L103 990 L330 990 L386 608 Q421 374 434 223 Q492 370 581 543 L812 990 L1045 990 Z M902 1410 L618 1126 L474 1126 L656 1410 L902 1410 Z " />
<glyph glyph-name="thorn" unicode="&#xfe;" horiz-adv-x="1167" d="M531 1365 L426 870 Q540 1019 733 1019 Q890 1019 993 916 Q1103 807 1103 596 Q1103 383 998 209 Q856 -28 585 -28 Q467 -28 386 19 Q305 66 273 154 L163 -366 L-52 -366 L316 1365 L531 1365 Z M663 847 Q522 847 429 726 Q389 674 357.5 568 Q326 462 326 377 Q326 271 390.5 207 Q455 143 562 143 Q669 143 746 214 Q812 275 851 377 Q890 479 890 589 Q890 726 819 791 Q759 847 663 847 Z " />
<glyph glyph-name="ydieresis" unicode="&#xff;" horiz-adv-x="933" d="M1045 990 L556 104 Q413 -156 351 -238 Q295 -313 224.5 -347 Q154 -381 56 -381 Q-11 -381 -78 -365 L-40 -186 Q18 -202 67 -202 Q133 -202 176 -142 Q193 -119 221 -58 Q272 51 270 61 L103 990 L330 990 L386 608 Q421 374 434 223 Q492 370 581 543 L812 990 L1045 990 Z M434 1402 Q489 1402 527.5 1361.5 Q566 1321 566 1263 Q566 1209 527 1170.5 Q488 1132 433 1132 Q378 1132 340 1171.5 Q302 1211 302 1268 Q302 1322 341 1362 Q380 1402 434 1402 Z M803 1402 Q858 1402 896.5 1361.5 Q935 1321 935 1263 Q935 1209 896 1170.5 Q857 1132 802 1132 Q747 1132 709 1171.5 Q671 1211 671 1268 Q671 1322 710 1362 Q749 1402 803 1402 Z " />
<glyph glyph-name="Amacron" unicode="&#x100;" horiz-adv-x="1320" d="M976 1365 L1212 0 L969 0 L914 362 L373 362 L164 0 L-97 0 L721 1365 L976 1365 Z M804 1141 Q721 977 603 771 L472 542 L889 542 L846 822 Q812 1055 804 1141 Z M1218 1665 L1191 1539 L529 1539 L556 1665 L1218 1665 Z " />
<glyph glyph-name="amacron" unicode="&#x101;" horiz-adv-x="1103" d="M992 1326 L966 1203 L365 1203 L392 1326 L992 1326 Z M988 157 L953 0 Q852 -27 788 -27 Q733 -27 696 7 Q652 47 652 97 L652 99 Q576 33 501 5 Q415 -27 322 -27 Q179 -27 94.5 46 Q10 119 10 243 Q10 394 113 475 Q224 562 424 578 L640 595 Q759 604 759 726 Q759 844 589 844 Q482 844 427 809 Q372 774 345 689 L138 689 Q160 783 190 833 Q301 1017 609 1017 Q802 1017 889 959.5 Q976 902 976 774 Q976 724 958 637 L879 262 Q877 253 872 231 Q866 207 866 189 Q866 145 913 145 Q928 145 988 157 Z M715 486 L711 490 Q682 464 646.5 456 Q611 448 477 437 Q228 416 228 278 Q228 146 408 146 Q538 146 614 228 Q653 271 674.5 326 Q696 381 715 486 Z " />
<glyph glyph-name="Abreve" unicode="&#x102;" horiz-adv-x="1320" d="M976 1365 L1212 0 L969 0 L914 362 L373 362 L164 0 L-97 0 L721 1365 L976 1365 Z M804 1141 Q721 977 603 771 L472 542 L889 542 L846 822 Q812 1055 804 1141 Z M1204 1744 Q1147 1471 864 1471 Q727 1471 658 1540 Q594 1603 594 1706 Q594 1717 596 1744 L734 1744 Q739 1669 773.5 1635.5 Q808 1602 878 1602 Q1021 1602 1065 1744 L1204 1744 Z " />
<glyph glyph-name="abreve" unicode="&#x103;" horiz-adv-x="1103" d="M978 1410 Q920 1124 665 1124 Q540 1124 474 1197 Q414 1264 414 1374 Q414 1384 416 1410 L547 1410 Q554 1252 677 1252 Q739 1252 779 1289.5 Q819 1327 846 1410 L978 1410 Z M988 157 L953 0 Q852 -27 788 -27 Q733 -27 696 7 Q652 47 652 97 L652 99 Q576 33 501 5 Q415 -27 322 -27 Q179 -27 94.5 46 Q10 119 10 243 Q10 394 113 475 Q224 562 424 578 L640 595 Q759 604 759 726 Q759 844 589 844 Q482 844 427 809 Q372 774 345 689 L138 689 Q160 783 190 833 Q301 1017 609 1017 Q802 1017 889 959.5 Q976 902 976 774 Q976 724 958 637 L879 262 Q877 253 872 231 Q866 207 866 189 Q866 145 913 145 Q928 145 988 157 Z M715 486 L711 490 Q682 464 646.5 456 Q611 448 477 437 Q228 416 228 278 Q228 146 408 146 Q538 146 614 228 Q653 271 674.5 326 Q696 381 715 486 Z " />
<glyph glyph-name="Aogonek" unicode="&#x104;" horiz-adv-x="1320" d="M1212 0 Q1084 -86 1084 -173 Q1084 -212 1117.5 -236 Q1151 -260 1206 -260 Q1235 -260 1283 -247 L1273 -355 Q1206 -375 1151 -375 Q1042 -375 985 -322 Q940 -280 940 -215 Q940 -102 1084 0 L969 0 L914 362 L373 362 L164 0 L-97 0 L721 1365 L976 1365 L1212 0 Z M804 1141 Q721 977 603 771 L472 542 L889 542 L846 822 Q812 1055 804 1141 Z " />
<glyph glyph-name="aogonek" unicode="&#x105;" horiz-adv-x="1103" d="M773 -27 Q724 -23 688 14 Q652 51 652 97 L652 99 Q575 33 501 5 Q415 -27 322 -27 Q179 -27 94.5 46 Q10 119 10 243 Q10 394 113 475 Q224 562 424 578 L640 595 Q759 604 759 726 Q759 844 589 844 Q482 844 427 809 Q372 774 345 689 L138 689 Q160 783 190 833 Q301 1017 609 1017 Q802 1017 889 959.5 Q976 902 976 774 Q976 724 958 637 L879 262 Q877 253 872 231 Q866 207 866 189 Q866 145 913 145 Q928 145 988 157 L954 1 Q806 -79 806 -165 Q806 -205 839 -229 Q872 -253 928 -253 Q957 -253 1004 -240 L995 -348 Q927 -368 873 -368 Q777 -368 719.5 -324.5 Q662 -281 662 -208 Q662 -105 773 -27 Z M715 486 L711 490 Q682 464 646.5 456 Q611 448 477 437 Q228 416 228 278 Q228 146 408 146 Q538 146 614 228 Q653 271 674.5 326 Q696 381 715 486 Z " />
<glyph glyph-name="Cacute" unicode="&#x106;" horiz-adv-x="1386" d="M1325 477 Q1287 300 1177 172 Q1002 -30 691 -30 Q416 -30 266 134 Q119 295 119 568 Q119 724 170.5 878 Q222 1032 311 1142 Q517 1396 864 1396 Q1118 1396 1265 1251 Q1390 1128 1390 939 Q1390 931 1389 909 L1157 909 Q1152 1059 1075.5 1131 Q999 1203 843 1203 Q650 1203 521 1052 Q444 963 399 832.5 Q354 702 354 569 Q354 385 437 283 Q534 164 701 164 Q890 164 997 298 Q1056 371 1084 477 L1325 477 Z M1210 1745 L920 1475 L765 1475 L947 1745 L1210 1745 Z " />
<glyph glyph-name="cacute" unicode="&#x107;" horiz-adv-x="1053" d="M972 341 Q937 210 854 118 Q723 -28 494 -28 Q270 -28 160 103 Q65 217 65 399 Q65 532 113.5 658 Q162 784 245 865 Q401 1017 626 1017 Q873 1017 974 856 Q1023 779 1024 661 L811 661 Q812 750 761 798.5 Q710 847 615 847 Q518 847 442 791 Q367 736 323 631 Q279 526 279 399 Q279 246 363 186 Q422 143 508 143 Q595 143 659 194.5 Q723 246 754 341 L972 341 Z M969 1410 L685 1126 L541 1126 L723 1410 L969 1410 Z " />
<glyph glyph-name="Ccircumflex" unicode="&#x108;" horiz-adv-x="1386" d="M1325 477 Q1287 300 1177 172 Q1002 -30 691 -30 Q416 -30 266 134 Q119 295 119 568 Q119 724 170.5 878 Q222 1032 311 1142 Q517 1396 864 1396 Q1118 1396 1265 1251 Q1390 1128 1390 939 Q1390 931 1389 909 L1157 909 Q1152 1059 1075.5 1131 Q999 1203 843 1203 Q650 1203 521 1052 Q444 963 399 832.5 Q354 702 354 569 Q354 385 437 283 Q534 164 701 164 Q890 164 997 298 Q1056 371 1084 477 L1325 477 Z M1197 1475 L1022 1475 L925 1644 L756 1475 L571 1475 L840 1745 L1043 1745 L1197 1475 Z " />
<glyph glyph-name="ccircumflex" unicode="&#x109;" horiz-adv-x="1053" d="M972 341 Q937 210 854 118 Q723 -28 494 -28 Q270 -28 160 103 Q65 217 65 399 Q65 532 113.5 658 Q162 784 245 865 Q401 1017 626 1017 Q873 1017 974 856 Q1023 779 1024 661 L811 661 Q812 750 761 798.5 Q710 847 615 847 Q518 847 442 791 Q367 736 323 631 Q279 526 279 399 Q279 246 363 186 Q422 143 508 143 Q595 143 659 194.5 Q723 246 754 341 L972 341 Z M957 1126 L785 1126 L711 1305 L552 1126 L370 1126 L637 1410 L813 1410 L957 1126 Z " />
<glyph glyph-name="Cdotaccent" unicode="&#x10a;" horiz-adv-x="1386" d="M1325 477 Q1287 300 1177 172 Q1002 -30 691 -30 Q416 -30 266 134 Q119 295 119 568 Q119 724 170.5 878 Q222 1032 311 1142 Q517 1396 864 1396 Q1118 1396 1265 1251 Q1390 1128 1390 939 Q1390 931 1389 909 L1157 909 Q1152 1059 1075.5 1131 Q999 1203 843 1203 Q650 1203 521 1052 Q444 963 399 832.5 Q354 702 354 569 Q354 385 437 283 Q534 164 701 164 Q890 164 997 298 Q1056 371 1084 477 L1325 477 Z M903 1745 Q958 1745 996.5 1704.5 Q1035 1664 1035 1606 Q1035 1552 996 1513.5 Q957 1475 902 1475 Q847 1475 809 1514.5 Q771 1554 771 1611 Q771 1665 810 1705 Q849 1745 903 1745 Z " />
<glyph glyph-name="cdotaccent" unicode="&#x10b;" horiz-adv-x="1053" d="M972 341 Q937 210 854 118 Q723 -28 494 -28 Q270 -28 160 103 Q65 217 65 399 Q65 532 113.5 658 Q162 784 245 865 Q401 1017 626 1017 Q873 1017 974 856 Q1023 779 1024 661 L811 661 Q812 750 761 798.5 Q710 847 615 847 Q518 847 442 791 Q367 736 323 631 Q279 526 279 399 Q279 246 363 186 Q422 143 508 143 Q595 143 659 194.5 Q723 246 754 341 L972 341 Z M686 1402 Q741 1402 779.5 1361.5 Q818 1321 818 1263 Q818 1209 778.5 1170.5 Q739 1132 685 1132 Q630 1132 592 1171.5 Q554 1211 554 1268 Q554 1322 593 1362 Q632 1402 686 1402 Z " />
<glyph glyph-name="Ccaron" unicode="&#x10c;" horiz-adv-x="1386" d="M1325 477 Q1287 300 1177 172 Q1002 -30 691 -30 Q416 -30 266 134 Q119 295 119 568 Q119 724 170.5 878 Q222 1032 311 1142 Q517 1396 864 1396 Q1118 1396 1265 1251 Q1390 1128 1390 939 Q1390 931 1389 909 L1157 909 Q1152 1059 1075.5 1131 Q999 1203 843 1203 Q650 1203 521 1052 Q444 963 399 832.5 Q354 702 354 569 Q354 385 437 283 Q534 164 701 164 Q890 164 997 298 Q1056 371 1084 477 L1325 477 Z M633 1745 L808 1745 L904 1576 L1074 1745 L1258 1745 L990 1475 L787 1475 L633 1745 Z " />
<glyph glyph-name="ccaron" unicode="&#x10d;" horiz-adv-x="1053" d="M972 341 Q937 210 854 118 Q723 -28 494 -28 Q270 -28 160 103 Q65 217 65 399 Q65 532 113.5 658 Q162 784 245 865 Q401 1017 626 1017 Q873 1017 974 856 Q1023 779 1024 661 L811 661 Q812 750 761 798.5 Q710 847 615 847 Q518 847 442 791 Q367 736 323 631 Q279 526 279 399 Q279 246 363 186 Q422 143 508 143 Q595 143 659 194.5 Q723 246 754 341 L972 341 Z M436 1410 L608 1410 L682 1231 L841 1410 L1023 1410 L756 1126 L580 1126 L436 1410 Z " />
<glyph glyph-name="Dcaron" unicode="&#x10e;" horiz-adv-x="1384" d="M329 1365 L663 1365 Q897 1365 979 1346 Q1184 1300 1282 1125 Q1356 992 1356 814 Q1356 658 1303 506.5 Q1250 355 1156 245 Q1026 92 847 37 Q727 0 485 0 L39 0 L329 1365 Z M523 1164 L318 201 L516 201 Q714 201 802 238 Q990 319 1076 559 Q1119 680 1119 803 Q1119 1045 961 1125 Q886 1164 716 1164 L523 1164 Z M520 1745 L695 1745 L792 1576 L961 1745 L1146 1745 L877 1475 L674 1475 L520 1745 Z " />
<glyph glyph-name="dcaron" unicode="&#x10f;" horiz-adv-x="1423" d="M1228 1365 L938 0 L733 0 L762 138 Q715 58 632 15 Q549 -28 441 -28 Q291 -28 201 43 Q64 152 64 372 Q64 596 179 776 Q333 1017 603 1017 Q836 1017 903 847 L1013 1365 L1228 1365 Z M626 833 Q456 833 361 684 Q281 560 281 384 Q281 256 350 194 Q408 143 502 143 Q668 143 765 305 Q800 363 823 450.5 Q846 538 846 612 Q846 723 775 784 Q717 833 626 833 Z M1297 1061 Q1351 1066 1395 1094 Q1439 1122 1457 1163 Q1403 1158 1366 1189 Q1329 1220 1329 1271 Q1329 1319 1361 1352.5 Q1393 1386 1440 1386 Q1494 1386 1528.5 1343 Q1563 1300 1563 1233 Q1563 1143 1483 1063 Q1402 983 1278 968 L1297 1061 Z " />
<glyph glyph-name="Dcroat" unicode="&#x110;" horiz-adv-x="1384" d="M329 1365 L663 1365 Q897 1365 979 1346 Q1184 1300 1281 1125 Q1356 992 1356 815 Q1356 659 1302.5 507 Q1249 355 1156 245 Q1026 92 847 37 Q726 0 485 0 L39 0 L175 642 L32 642 L65 799 L209 799 L329 1365 Z M445 799 L761 799 L728 642 L412 642 L318 201 L516 201 Q714 201 802 238 Q990 319 1076 559 Q1119 680 1119 804 Q1119 1045 961 1125 Q885 1164 716 1164 L523 1164 L445 799 Z " />
<glyph glyph-name="dcroat" unicode="&#x111;" horiz-adv-x="1168" d="M1173 1106 L938 0 L733 0 L762 138 Q716 59 632.5 15.5 Q549 -28 441 -28 Q291 -28 201 43 Q64 152 64 372 Q64 597 179 777 Q332 1017 603 1017 Q836 1017 903 847 L958 1106 L645 1106 L674 1243 L987 1243 L1013 1365 L1228 1365 L1202 1243 L1325 1243 L1296 1106 L1173 1106 Z M626 833 Q456 833 361 684 Q281 560 281 385 Q281 256 350 194 Q408 143 502 143 Q668 143 765 305 Q799 363 822.5 451 Q846 539 846 612 Q846 723 775 784 Q717 833 626 833 Z " />
<glyph glyph-name="Emacron" unicode="&#x112;" horiz-adv-x="1227" d="M1320 1365 L1278 1164 L523 1164 L445 799 L1148 799 L1108 608 L404 608 L318 201 L1085 201 L1043 0 L39 0 L329 1365 L1320 1365 Z M1202 1665 L1175 1539 L513 1539 L540 1665 L1202 1665 Z " />
<glyph glyph-name="emacron" unicode="&#x113;" horiz-adv-x="1089" d="M972 306 Q944 201 867 117 Q735 -27 500 -27 Q269 -27 156 113 Q63 228 63 404 Q63 625 178 789 Q254 898 367.5 957.5 Q481 1017 612 1017 Q780 1017 889 929 Q1028 816 1028 591 Q1028 525 1014 438 L278 438 Q274 406 274 381 Q274 279 323 218 Q387 136 510 136 Q689 136 755 306 L972 306 Z M302 585 L820 585 Q821 607 821 616 Q821 714 780 773 Q723 853 604 853 Q495 853 415 782 Q335 711 302 585 Z M998 1326 L971 1203 L371 1203 L398 1326 L998 1326 Z " />
<glyph glyph-name="Ebreve" unicode="&#x114;" horiz-adv-x="1227" d="M1320 1365 L1278 1164 L523 1164 L445 799 L1148 799 L1108 608 L404 608 L318 201 L1085 201 L1043 0 L39 0 L329 1365 L1320 1365 Z M1175 1744 Q1119 1471 836 1471 Q699 1471 630 1540 Q566 1603 566 1706 Q566 1718 568 1744 L706 1744 Q711 1669 745.5 1635.5 Q780 1602 850 1602 Q993 1602 1037 1744 L1175 1744 Z " />
<glyph glyph-name="ebreve" unicode="&#x115;" horiz-adv-x="1088" d="M972 306 Q944 201 867 117 Q735 -27 500 -27 Q269 -27 156 113 Q63 228 63 404 Q63 625 178 789 Q254 898 367.5 957.5 Q481 1017 612 1017 Q780 1017 889 929 Q1028 816 1028 591 Q1028 525 1014 438 L278 438 Q274 406 274 381 Q274 279 323 218 Q387 136 510 136 Q689 136 755 306 L972 306 Z M302 585 L820 585 Q821 607 821 616 Q821 714 780 773 Q723 853 604 853 Q495 853 415 782 Q335 711 302 585 Z M991 1410 Q933 1124 678 1124 Q553 1124 488 1197 Q427 1264 427 1374 Q427 1385 428 1410 L560 1410 Q567 1252 690 1252 Q752 1252 792 1289.5 Q832 1327 859 1410 L991 1410 Z " />
<glyph glyph-name="Edotaccent" unicode="&#x116;" horiz-adv-x="1227" d="M1320 1365 L1278 1164 L523 1164 L445 799 L1148 799 L1108 608 L404 608 L318 201 L1085 201 L1043 0 L39 0 L329 1365 L1320 1365 Z M851 1745 Q906 1745 944.5 1704.5 Q983 1664 983 1606 Q983 1552 943.5 1513.5 Q904 1475 850 1475 Q795 1475 757 1514.5 Q719 1554 719 1611 Q719 1665 758 1705 Q797 1745 851 1745 Z " />
<glyph glyph-name="edotaccent" unicode="&#x117;" horiz-adv-x="1088" d="M972 306 Q944 201 867 117 Q735 -27 500 -27 Q269 -27 156 113 Q63 228 63 404 Q63 625 178 789 Q254 898 367.5 957.5 Q481 1017 612 1017 Q780 1017 889 929 Q1028 816 1028 591 Q1028 525 1014 438 L278 438 Q274 406 274 381 Q274 279 323 218 Q387 136 510 136 Q689 136 755 306 L972 306 Z M302 585 L820 585 Q821 607 821 616 Q821 714 780 773 Q723 853 604 853 Q495 853 415 782 Q335 711 302 585 Z M676 1402 Q731 1402 769.5 1361.5 Q808 1321 808 1263 Q808 1209 769 1170.5 Q730 1132 675 1132 Q620 1132 582 1171.5 Q544 1211 544 1268 Q544 1322 583 1362 Q622 1402 676 1402 Z " />
<glyph glyph-name="Eogonek" unicode="&#x118;" horiz-adv-x="1227" d="M1320 1365 L1278 1164 L523 1164 L445 799 L1148 799 L1108 608 L404 608 L318 201 L1085 201 L1043 0 Q914 -89 914 -173 Q914 -212 947.5 -236 Q981 -260 1036 -260 Q1066 -260 1113 -247 L1104 -355 Q1036 -375 982 -375 Q873 -375 816 -322 Q770 -280 770 -215 Q770 -156 803 -106.5 Q836 -57 915 0 L39 0 L329 1365 L1320 1365 Z " />
<glyph glyph-name="eogonek" unicode="&#x119;" horiz-adv-x="1088" d="M812 -234 L803 -341 Q735 -361 681 -361 Q583 -361 526 -317.5 Q469 -274 469 -199 Q469 -96 580 -23 Q527 -27 492 -27 Q269 -27 156 113 Q63 228 63 404 Q63 625 178 789 Q254 898 367.5 957.5 Q481 1017 612 1017 Q780 1017 889 929 Q1028 816 1028 591 Q1028 525 1014 438 L278 438 Q274 406 274 381 Q274 279 323 218 Q387 136 510 136 Q689 136 755 306 L972 306 Q930 148 772 38 Q614 -72 614 -159 Q614 -198 647 -222 Q680 -246 735 -246 Q764 -246 812 -234 Z M302 585 L820 585 Q821 607 821 616 Q821 714 780 773 Q723 853 604 853 Q495 853 415 782 Q335 711 302 585 Z " />
<glyph glyph-name="Ecaron" unicode="&#x11a;" horiz-adv-x="1227" d="M1320 1365 L1278 1164 L523 1164 L445 799 L1148 799 L1108 608 L404 608 L318 201 L1085 201 L1043 0 L39 0 L329 1365 L1320 1365 Z M572 1745 L747 1745 L843 1576 L1013 1745 L1197 1745 L929 1475 L726 1475 L572 1745 Z " />
<glyph glyph-name="ecaron" unicode="&#x11b;" horiz-adv-x="1088" d="M972 306 Q944 201 867 117 Q735 -27 500 -27 Q269 -27 156 113 Q63 228 63 404 Q63 625 178 789 Q254 898 367.5 957.5 Q481 1017 612 1017 Q780 1017 889 929 Q1028 816 1028 591 Q1028 525 1014 438 L278 438 Q274 406 274 381 Q274 279 323 218 Q387 136 510 136 Q689 136 755 306 L972 306 Z M302 585 L820 585 Q821 607 821 616 Q821 714 780 773 Q723 853 604 853 Q495 853 415 782 Q335 711 302 585 Z M422 1410 L594 1410 L668 1231 L828 1410 L1010 1410 L742 1126 L566 1126 L422 1410 Z " />
<glyph glyph-name="Gcircumflex" unicode="&#x11c;" horiz-adv-x="1468" d="M1401 732 L1246 3 L1094 3 L1093 85 Q1092 121 1092 145 Q939 -31 676 -31 Q413 -31 265.5 125.5 Q118 282 118 560 Q118 788 209 980 Q305 1181 478.5 1288.5 Q652 1396 881 1396 Q1148 1396 1294 1254 Q1419 1132 1424 933 L1191 933 Q1181 1042 1135 1098 Q1053 1201 871 1201 Q643 1201 500 1023 Q434 941 395 814.5 Q356 688 356 558 Q356 362 464 255 Q556 164 719 164 Q945 164 1062 336 Q1114 413 1150 548 L775 548 L814 732 L1401 732 Z M1229 1475 L1054 1475 L957 1644 L788 1475 L603 1475 L872 1745 L1075 1745 L1229 1475 Z " />
<glyph glyph-name="gcircumflex" unicode="&#x11d;" horiz-adv-x="1155" d="M1136 990 L959 159 Q928 11 899.5 -70.5 Q871 -152 834 -205 Q702 -389 409 -389 Q211 -389 100 -300 Q52 -262 24 -206 Q-4 -150 -4 -93 Q-4 -87 -3 -75 L216 -75 Q217 -152 272.5 -194 Q328 -236 426 -236 Q552 -236 621 -166 Q690 -96 724 65 L742 152 Q706 88 624 48.5 Q542 9 445 9 Q314 9 218 81 Q73 190 73 407 Q73 525 113.5 644 Q154 763 222 847 Q362 1017 583 1017 Q698 1017 779 966 Q860 915 895 821 L931 990 L1136 990 Z M606 848 Q445 848 356 688 Q285 561 285 420 Q285 292 360 228 Q418 179 508 179 Q613 179 693 254 Q755 312 791.5 409 Q828 506 828 612 Q828 722 768.5 785 Q709 848 606 848 Z M996 1126 L824 1126 L750 1305 L591 1126 L409 1126 L676 1410 L852 1410 L996 1126 Z " />
<glyph glyph-name="Gbreve" unicode="&#x11e;" horiz-adv-x="1468" d="M1401 732 L1246 3 L1094 3 L1093 85 Q1092 121 1092 145 Q939 -31 676 -31 Q413 -31 265.5 125.5 Q118 282 118 560 Q118 788 209 980 Q305 1181 478.5 1288.5 Q652 1396 881 1396 Q1148 1396 1294 1254 Q1419 1132 1424 933 L1191 933 Q1181 1042 1135 1098 Q1053 1201 871 1201 Q643 1201 500 1023 Q434 941 395 814.5 Q356 688 356 558 Q356 362 464 255 Q556 164 719 164 Q945 164 1062 336 Q1114 413 1150 548 L775 548 L814 732 L1401 732 Z M1255 1744 Q1199 1471 915 1471 Q778 1471 709 1540 Q645 1603 645 1706 Q645 1717 647 1744 L785 1744 Q791 1669 825 1635.5 Q859 1602 929 1602 Q1072 1602 1116 1744 L1255 1744 Z " />
<glyph glyph-name="gbreve" unicode="&#x11f;" horiz-adv-x="1155" d="M1136 990 L959 159 Q928 11 899.5 -70.5 Q871 -152 834 -205 Q702 -389 409 -389 Q211 -389 100 -300 Q52 -262 24 -206 Q-4 -150 -4 -93 Q-4 -87 -3 -75 L216 -75 Q217 -152 272.5 -194 Q328 -236 426 -236 Q552 -236 621 -166 Q690 -96 724 65 L742 152 Q706 88 624 48.5 Q542 9 445 9 Q314 9 218 81 Q73 190 73 407 Q73 525 113.5 644 Q154 763 222 847 Q362 1017 583 1017 Q698 1017 779 966 Q860 915 895 821 L931 990 L1136 990 Z M606 848 Q445 848 356 688 Q285 561 285 420 Q285 292 360 228 Q418 179 508 179 Q613 179 693 254 Q755 312 791.5 409 Q828 506 828 612 Q828 722 768.5 785 Q709 848 606 848 Z M1012 1410 Q954 1124 699 1124 Q581 1124 514.5 1190 Q448 1256 448 1374 Q448 1386 449 1410 L580 1410 Q588 1252 710 1252 Q773 1252 813 1289.5 Q853 1327 880 1410 L1012 1410 Z " />
<glyph glyph-name="Gdotaccent" unicode="&#x120;" horiz-adv-x="1468" d="M1401 732 L1246 3 L1094 3 L1093 85 Q1092 121 1092 145 Q939 -31 676 -31 Q413 -31 265.5 125.5 Q118 282 118 560 Q118 788 209 980 Q305 1181 478.5 1288.5 Q652 1396 881 1396 Q1148 1396 1294 1254 Q1419 1132 1424 933 L1191 933 Q1181 1042 1135 1098 Q1053 1201 871 1201 Q643 1201 500 1023 Q434 941 395 814.5 Q356 688 356 558 Q356 362 464 255 Q556 164 719 164 Q945 164 1062 336 Q1114 413 1150 548 L775 548 L814 732 L1401 732 Z M924 1745 Q979 1745 1017.5 1704.5 Q1056 1664 1056 1606 Q1056 1552 1016.5 1513.5 Q977 1475 923 1475 Q868 1475 830 1514.5 Q792 1554 792 1611 Q792 1666 831 1705.5 Q870 1745 924 1745 Z " />
<glyph glyph-name="gdotaccent" unicode="&#x121;" horiz-adv-x="1155" d="M1136 990 L959 159 Q928 11 899.5 -70.5 Q871 -152 834 -205 Q702 -389 409 -389 Q211 -389 100 -300 Q52 -262 24 -206 Q-4 -150 -4 -93 Q-4 -87 -3 -75 L216 -75 Q217 -152 272.5 -194 Q328 -236 426 -236 Q552 -236 621 -166 Q690 -96 724 65 L742 152 Q706 88 624 48.5 Q542 9 445 9 Q314 9 218 81 Q73 190 73 407 Q73 525 113.5 644 Q154 763 222 847 Q362 1017 583 1017 Q698 1017 779 966 Q860 915 895 821 L931 990 L1136 990 Z M606 848 Q445 848 356 688 Q285 561 285 420 Q285 292 360 228 Q418 179 508 179 Q613 179 693 254 Q755 312 791.5 409 Q828 506 828 612 Q828 722 768.5 785 Q709 848 606 848 Z M703 1402 Q758 1402 796.5 1361.5 Q835 1321 835 1263 Q835 1209 796 1170.5 Q757 1132 702 1132 Q647 1132 609 1171.5 Q571 1211 571 1268 Q571 1322 610 1362 Q649 1402 703 1402 Z " />
<glyph glyph-name="Gcommaaccent" unicode="&#x122;" horiz-adv-x="1468" d="M1401 732 L1246 3 L1094 3 L1093 85 Q1092 121 1092 145 Q939 -31 676 -31 Q413 -31 265.5 125.5 Q118 282 118 560 Q118 788 209 980 Q305 1181 478.5 1288.5 Q652 1396 881 1396 Q1148 1396 1294 1254 Q1419 1132 1424 933 L1191 933 Q1181 1042 1135 1098 Q1053 1201 871 1201 Q643 1201 500 1023 Q434 941 395 814.5 Q356 688 356 558 Q356 362 464 255 Q556 164 719 164 Q945 164 1062 336 Q1114 413 1150 548 L775 548 L814 732 L1401 732 Z M488 -414 Q542 -408 586 -380 Q630 -352 647 -312 Q638 -313 633 -313 Q585 -313 552.5 -281.5 Q520 -250 520 -204 Q520 -155 552 -121.5 Q584 -88 631 -88 Q685 -88 719.5 -131.5 Q754 -175 754 -242 Q754 -332 674 -412 Q593 -492 468 -507 L488 -414 Z " />
<glyph glyph-name="gcommaaccent" unicode="&#x123;" horiz-adv-x="1155" d="M1136 990 L959 159 Q928 11 899.5 -70.5 Q871 -152 834 -205 Q702 -389 409 -389 Q211 -389 100 -300 Q52 -262 24 -206 Q-4 -150 -4 -93 Q-4 -87 -3 -75 L216 -75 Q217 -152 272.5 -194 Q328 -236 426 -236 Q552 -236 621 -166 Q690 -96 724 65 L742 152 Q706 88 624 48.5 Q542 9 445 9 Q314 9 218 81 Q73 190 73 407 Q73 525 113.5 644 Q154 763 222 847 Q362 1017 583 1017 Q698 1017 779 966 Q860 915 895 821 L931 990 L1136 990 Z M606 848 Q445 848 356 688 Q285 561 285 420 Q285 292 360 228 Q418 179 508 179 Q613 179 693 254 Q755 312 791.5 409 Q828 506 828 612 Q828 722 768.5 785 Q709 848 606 848 Z M826 1423 Q772 1418 728 1390 Q684 1362 667 1321 Q678 1322 681 1322 Q729 1322 761.5 1290.5 Q794 1259 794 1213 Q794 1165 762 1131.5 Q730 1098 683 1098 Q629 1098 594.5 1141 Q560 1184 560 1251 Q560 1341 640 1421 Q721 1501 846 1516 L826 1423 Z " />
<glyph glyph-name="Hcircumflex" unicode="&#x124;" horiz-adv-x="1396" d="M1442 1365 L1152 0 L915 0 L1046 614 L406 614 L275 0 L39 0 L329 1365 L565 1365 L448 815 L1089 815 L1206 1365 L1442 1365 Z M1220 1475 L1045 1475 L948 1644 L779 1475 L594 1475 L863 1745 L1066 1745 L1220 1475 Z " />
<glyph glyph-name="hcircumflex" unicode="&#x125;" horiz-adv-x="1126" d="M531 1365 L421 847 Q572 1018 765 1018 Q894 1018 972.5 948 Q1051 878 1051 763 Q1051 694 1030 595 L903 0 L688 0 L809 568 Q827 653 827 702 Q827 782 774 814 Q731 841 672 841 Q604 841 538.5 806 Q473 771 429 712 Q377 642 351 516 L241 0 L26 0 L316 1365 L531 1365 Z M908 1468 L736 1468 L662 1647 L503 1468 L321 1468 L588 1752 L764 1752 L908 1468 Z " />
<glyph glyph-name="Hbar" unicode="&#x126;" horiz-adv-x="1396" d="M1403 1184 L1525 1184 L1493 1034 L1371 1034 L1152 0 L916 0 L1046 614 L406 614 L275 0 L39 0 L259 1034 L137 1034 L169 1184 L291 1184 L329 1365 L565 1365 L527 1184 L1167 1184 L1206 1365 L1442 1365 L1403 1184 Z M495 1034 L448 815 L1089 815 L1135 1034 L495 1034 Z " />
<glyph glyph-name="hbar" unicode="&#x127;" horiz-adv-x="1126" d="M316 1365 L531 1365 L505 1242 L819 1242 L790 1105 L476 1105 L421 847 Q572 1018 765 1018 Q894 1018 972.5 948 Q1051 878 1051 763 Q1051 694 1030 595 L903 0 L688 0 L809 568 Q827 653 827 703 Q827 782 774 815 Q731 842 672 842 Q604 842 538.5 807 Q473 772 429 713 Q378 642 351 516 L241 0 L26 0 L261 1105 L138 1105 L167 1242 L290 1242 L316 1365 Z " />
<glyph glyph-name="Itilde" unicode="&#x128;" horiz-adv-x="520" d="M565 1365 L275 0 L39 0 L329 1365 L565 1365 Z M840 1719 Q814 1612 762 1553 Q710 1494 643 1494 Q611 1494 582.5 1503 Q554 1512 447 1556 Q385 1581 358 1581 Q311 1581 273 1496 L158 1496 Q185 1602 238.5 1660 Q292 1718 363 1718 Q396 1718 424 1708.5 Q452 1699 569 1649 Q613 1630 639 1630 Q695 1630 725 1719 L840 1719 Z " />
<glyph glyph-name="itilde" unicode="&#x129;" horiz-adv-x="471" d="M451 990 L241 0 L26 0 L236 990 L451 990 Z M725 1377 Q701 1271 652 1211.5 Q603 1152 539 1152 Q509 1152 482.5 1161 Q456 1170 355 1214 Q297 1239 272 1239 Q230 1239 195 1154 L83 1154 Q108 1260 158.5 1318 Q209 1376 276 1376 Q307 1376 333 1366.5 Q359 1357 470 1307 Q511 1288 536 1288 Q587 1288 614 1377 L725 1377 Z " />
<glyph glyph-name="Imacron" unicode="&#x12a;" horiz-adv-x="519" d="M565 1365 L275 0 L39 0 L329 1365 L565 1365 Z M753 1665 L726 1539 L228 1539 L255 1665 L753 1665 Z " />
<glyph glyph-name="imacron" unicode="&#x12b;" horiz-adv-x="471" d="M451 990 L241 0 L26 0 L236 990 L451 990 Z M634 1326 L608 1203 L157 1203 L184 1326 L634 1326 Z " />
<glyph glyph-name="Ibreve" unicode="&#x12c;" horiz-adv-x="519" d="M565 1365 L275 0 L39 0 L329 1365 L565 1365 Z M819 1744 Q763 1471 479 1471 Q343 1471 274 1540 Q210 1603 210 1706 Q210 1719 211 1744 L349 1744 Q355 1669 389 1635.5 Q423 1602 494 1602 Q636 1602 681 1744 L819 1744 Z " />
<glyph glyph-name="ibreve" unicode="&#x12d;" horiz-adv-x="471" d="M451 990 L241 0 L26 0 L236 990 L451 990 Z M676 1410 Q623 1124 386 1124 Q278 1124 217 1190 Q156 1256 156 1374 Q156 1384 157 1410 L289 1410 Q294 1252 398 1252 Q501 1252 544 1410 L676 1410 Z " />
<glyph glyph-name="Iogonek" unicode="&#x12e;" horiz-adv-x="520" d="M275 0 Q147 -86 147 -174 Q147 -214 175 -236.5 Q203 -259 252 -259 Q276 -259 305 -250 L295 -358 Q243 -375 197 -375 Q108 -375 55.5 -332.5 Q3 -290 3 -217 Q3 -102 147 0 L39 0 L329 1365 L566 1365 L275 0 Z " />
<glyph glyph-name="iogonek" unicode="&#x12f;" horiz-adv-x="471" d="M241 0 Q122 -91 122 -173 Q122 -252 220 -252 Q244 -252 273 -243 L264 -351 Q211 -368 166 -368 Q80 -368 29 -324 Q-22 -280 -22 -206 Q-22 -85 109 0 L26 0 L236 990 L451 990 L241 0 Z M398 1392 Q453 1392 491.5 1351.5 Q530 1311 530 1253 Q530 1199 491 1160.5 Q452 1122 397 1122 Q342 1122 304 1161.5 Q266 1201 266 1258 Q266 1313 305 1352.5 Q344 1392 398 1392 Z " />
<glyph glyph-name="Idot" unicode="&#x130;" horiz-adv-x="519" d="M565 1365 L275 0 L39 0 L329 1365 L565 1365 Z M497 1745 Q552 1745 590.5 1704.5 Q629 1664 629 1606 Q629 1552 590 1513.5 Q551 1475 496 1475 Q441 1475 403 1514.5 Q365 1554 365 1611 Q365 1666 404 1705.5 Q443 1745 497 1745 Z " />
<glyph glyph-name="dotlessi" unicode="&#x131;" horiz-adv-x="471" d="M451 990 L241 0 L26 0 L236 990 L451 990 Z " />
<glyph glyph-name="IJ" unicode="&#x132;" horiz-adv-x="1503" d="M565 1365 L275 0 L39 0 L329 1365 L565 1365 Z M1570 1365 L1383 485 Q1349 327 1324 253.5 Q1299 180 1260 126 Q1147 -32 898 -32 Q689 -32 590 77 Q511 164 511 300 Q511 391 532 479 L756 479 Q734 365 734 324 Q734 164 907 164 Q1009 164 1066 235 Q1104 282 1140 451 L1334 1365 L1570 1365 Z " />
<glyph glyph-name="ij" unicode="&#x133;" horiz-adv-x="918" d="M451 990 L241 0 L26 0 L236 990 L451 990 Z M399 1392 Q454 1392 492.5 1351.5 Q531 1311 531 1253 Q531 1199 492 1160.5 Q453 1122 398 1122 Q343 1122 305 1161.5 Q267 1201 267 1258 Q267 1312 306 1352 Q345 1392 399 1392 Z M898 990 L694 29 Q661 -124 648 -173.5 Q635 -223 621 -249 Q582 -319 521.5 -349.5 Q461 -380 360 -380 Q303 -380 247 -370 L284 -193 Q316 -201 345 -201 Q410 -201 432 -155 Q444 -130 479 29 L683 990 L898 990 Z M845 1392 Q900 1392 938.5 1351.5 Q977 1311 977 1253 Q977 1199 938 1160.5 Q899 1122 844 1122 Q789 1122 751 1161.5 Q713 1201 713 1258 Q713 1313 752 1352.5 Q791 1392 845 1392 Z " />
<glyph glyph-name="Jcircumflex" unicode="&#x134;" horiz-adv-x="991" d="M1058 1365 L871 485 Q837 327 812 253.5 Q787 180 748 126 Q635 -32 386 -32 Q177 -32 78 77 Q-1 164 -1 300 Q-1 391 20 479 L244 479 Q222 365 222 324 Q222 164 395 164 Q497 164 554 235 Q592 282 628 451 L822 1365 L1058 1365 Z M1265 1475 L1089 1475 L993 1644 L824 1475 L639 1475 L907 1745 L1111 1745 L1265 1475 Z " />
<glyph glyph-name="jcircumflex" unicode="&#x135;" horiz-adv-x="454" d="M433 990 L229 29 Q197 -124 184 -173.5 Q171 -223 156 -249 Q117 -319 56.5 -349.5 Q-4 -380 -105 -380 Q-162 -380 -218 -370 L-180 -193 Q-149 -201 -119 -201 Q-55 -201 -33 -155 Q-21 -130 14 29 L218 990 L433 990 Z M657 1126 L485 1126 L411 1305 L252 1126 L70 1126 L337 1410 L513 1410 L657 1126 Z " />
<glyph glyph-name="Kcommaaccent" unicode="&#x136;" horiz-adv-x="1313" d="M1460 1365 L802 804 L1232 0 L962 0 L619 654 L370 447 L275 0 L39 0 L329 1365 L565 1365 L431 733 Q469 771 642 927 L1140 1365 L1460 1365 Z M424 -414 Q478 -408 522 -380 Q566 -352 583 -312 Q573 -313 568 -313 Q520 -313 487.5 -281.5 Q455 -250 455 -204 Q455 -155 487 -121.5 Q519 -88 566 -88 Q620 -88 654.5 -131.5 Q689 -175 689 -242 Q689 -332 609 -412 Q528 -492 404 -507 L424 -414 Z " />
<glyph glyph-name="kcommaaccent" unicode="&#x137;" horiz-adv-x="1009" d="M531 1365 L366 587 Q404 623 439 654 L819 989 L1097 989 L658 618 L905 0 L665 0 L488 483 L313 337 L241 0 L26 0 L316 1365 L531 1365 Z M272 -407 Q326 -402 370 -373.5 Q414 -345 431 -305 Q422 -306 417 -306 Q369 -306 336.5 -274.5 Q304 -243 304 -197 Q304 -149 336 -115.5 Q368 -82 415 -82 Q469 -82 503.5 -125 Q538 -168 538 -235 Q538 -325 458 -405 Q377 -485 252 -500 L272 -407 Z " />
<glyph glyph-name="kgreenlandic" unicode="&#x138;" horiz-adv-x="1009" d="M451 990 L366 587 Q404 623 439 654 L819 989 L1097 989 L658 618 L905 0 L665 0 L488 483 L313 337 L241 0 L26 0 L236 990 L451 990 Z " />
<glyph glyph-name="Lacute" unicode="&#x139;" horiz-adv-x="1124" d="M565 1365 L318 201 L1018 201 L976 0 L39 0 L329 1365 L565 1365 Z M805 1745 L516 1475 L361 1475 L542 1745 L805 1745 Z " />
<glyph glyph-name="lacute" unicode="&#x13a;" horiz-adv-x="471" d="M531 1365 L241 0 L26 0 L316 1365 L531 1365 Z M769 1745 L497 1475 L349 1475 L531 1745 L769 1745 Z " />
<glyph glyph-name="Lcommaaccent" unicode="&#x13b;" horiz-adv-x="1124" d="M565 1365 L318 201 L1018 201 L976 0 L39 0 L329 1365 L565 1365 Z M343 -414 Q397 -408 441 -380 Q485 -352 502 -312 Q493 -313 487 -313 Q439 -313 406.5 -281.5 Q374 -250 374 -204 Q374 -155 406 -121.5 Q438 -88 485 -88 Q539 -88 573.5 -131.5 Q608 -175 608 -242 Q608 -332 528 -412 Q447 -492 323 -507 L343 -414 Z " />
<glyph glyph-name="lcommaaccent" unicode="&#x13c;" horiz-adv-x="471" d="M531 1365 L241 0 L25 0 L316 1365 L531 1365 Z M-49 -407 Q5 -402 49 -373.5 Q93 -345 110 -305 Q100 -306 96 -306 Q48 -306 15.5 -274.5 Q-17 -243 -17 -197 Q-17 -149 15 -115.5 Q47 -82 94 -82 Q148 -82 182.5 -125 Q217 -168 217 -235 Q217 -325 136 -405 Q56 -485 -69 -500 L-49 -407 Z " />
<glyph glyph-name="Lcaron" unicode="&#x13d;" horiz-adv-x="1124" d="M565 1365 L318 201 L1018 201 L976 0 L39 0 L329 1365 L565 1365 Z M711 1061 Q765 1066 809 1094 Q853 1122 870 1163 Q817 1158 780 1189 Q743 1220 743 1271 Q743 1319 775 1352.5 Q807 1386 854 1386 Q908 1386 942.5 1343 Q977 1300 977 1233 Q977 1143 897 1063 Q816 983 691 968 L711 1061 Z " />
<glyph glyph-name="lcaron" unicode="&#x13e;" horiz-adv-x="726" d="M531 1365 L241 0 L26 0 L316 1365 L531 1365 Z M601 1061 Q655 1066 699 1094 Q743 1122 760 1163 Q706 1158 669 1189.5 Q632 1221 632 1271 Q632 1319 664 1352.5 Q696 1386 743 1386 Q797 1386 831.5 1343 Q866 1300 866 1233 Q866 1143 786 1063 Q705 983 581 968 L601 1061 Z " />
<glyph glyph-name="Ldot" unicode="&#x13f;" horiz-adv-x="1124" d="M566 1365 L319 201 L1019 201 L977 0 L40 0 L330 1365 L566 1365 Z M862 830 Q917 830 955.5 789.5 Q994 749 994 691 Q994 637 955 598.5 Q916 560 861 560 Q806 560 768 599.5 Q730 639 730 696 Q730 751 769 790.5 Q808 830 862 830 Z " />
<glyph glyph-name="ldot" unicode="&#x140;" horiz-adv-x="759" d="M531 1365 L241 0 L26 0 L316 1365 L531 1365 Z M661 830 Q716 830 754.5 789.5 Q793 749 793 691 Q793 637 754 598.5 Q715 560 660 560 Q605 560 567 599.5 Q529 639 529 696 Q529 750 568 790 Q607 830 661 830 Z " />
<glyph glyph-name="Lslash" unicode="&#x141;" horiz-adv-x="1124" d="M408 627 L318 201 L1018 201 L976 0 L39 0 L148 512 L1 419 L42 614 L189 706 L329 1365 L565 1365 L450 822 L753 1002 L711 807 L408 627 Z " />
<glyph glyph-name="lslash" unicode="&#x142;" horiz-adv-x="485" d="M392 683 L247 0 L32 0 L156 585 L29 508 L65 679 L193 756 L322 1365 L537 1365 L428 854 L556 931 L519 759 L392 683 Z " />
<glyph glyph-name="Nacute" unicode="&#x143;" horiz-adv-x="1414" d="M1460 1365 L1169 0 L917 0 L579 815 Q515 970 486 1076 Q470 937 422 710 L271 0 L39 0 L329 1365 L581 1365 L916 553 Q974 413 1014 283 Q1046 513 1088 710 L1228 1365 L1460 1365 Z M1237 1745 L947 1475 L792 1475 L974 1745 L1237 1745 Z " />
<glyph glyph-name="nacute" unicode="&#x144;" horiz-adv-x="1126" d="M441 990 L409 840 Q473 925 564 971 Q655 1017 761 1017 Q868 1017 948 966 Q1053 900 1053 768 Q1053 708 1030 597 L903 0 L688 0 L814 594 Q829 665 829 715 Q829 841 672 841 Q536 841 443 730 Q381 657 352 524 L241 0 L26 0 L236 990 L441 990 Z M1006 1410 L722 1126 L578 1126 L759 1410 L1006 1410 Z " />
<glyph glyph-name="Ncommaaccent" unicode="&#x145;" horiz-adv-x="1414" d="M1460 1365 L1169 0 L917 0 L579 815 Q515 970 486 1076 Q470 937 422 710 L271 0 L39 0 L329 1365 L581 1365 L916 553 Q974 413 1014 283 Q1046 513 1088 710 L1228 1365 L1460 1365 Z M440 -414 Q494 -408 538 -380 Q582 -352 599 -312 Q590 -313 585 -313 Q537 -313 504.5 -281.5 Q472 -250 472 -204 Q472 -155 504 -121.5 Q536 -88 583 -88 Q637 -88 671.5 -131.5 Q706 -175 706 -242 Q706 -332 626 -412 Q545 -492 420 -507 L440 -414 Z " />
<glyph glyph-name="ncommaaccent" unicode="&#x146;" horiz-adv-x="1126" d="M441 990 L409 840 Q473 925 564 971 Q655 1017 761 1017 Q868 1017 948 966 Q1053 900 1053 768 Q1053 708 1030 597 L903 0 L688 0 L814 594 Q829 665 829 715 Q829 841 672 841 Q536 841 443 730 Q381 657 352 524 L241 0 L26 0 L236 990 L441 990 Z M290 -407 Q344 -402 388 -373.5 Q432 -345 449 -305 Q439 -306 434 -306 Q386 -306 353.5 -274.5 Q321 -243 321 -197 Q321 -149 353 -115.5 Q385 -82 432 -82 Q486 -82 520.5 -125 Q555 -168 555 -235 Q555 -325 475 -405 Q394 -485 270 -500 L290 -407 Z " />
<glyph glyph-name="Ncaron" unicode="&#x147;" horiz-adv-x="1414" d="M1460 1365 L1169 0 L917 0 L579 815 Q515 970 486 1076 Q470 937 422 710 L271 0 L39 0 L329 1365 L581 1365 L916 553 Q974 413 1014 283 Q1046 513 1088 710 L1228 1365 L1460 1365 Z M655 1745 L830 1745 L927 1576 L1096 1745 L1281 1745 L1012 1475 L809 1475 L655 1745 Z " />
<glyph glyph-name="ncaron" unicode="&#x148;" horiz-adv-x="1126" d="M441 990 L409 840 Q473 925 564 971 Q655 1017 761 1017 Q868 1017 948 966 Q1053 900 1053 768 Q1053 708 1030 597 L903 0 L688 0 L814 594 Q829 665 829 715 Q829 841 672 841 Q536 841 443 730 Q381 657 352 524 L241 0 L26 0 L236 990 L441 990 Z M464 1410 L636 1410 L710 1231 L870 1410 L1051 1410 L784 1126 L608 1126 L464 1410 Z " />
<glyph glyph-name="napostrophe" unicode="&#x149;" horiz-adv-x="1597" d="M256 961 Q317 969 366.5 1009 Q416 1049 435 1108 L423 1106 L418 1106 L411 1106 Q358 1106 319 1145 Q280 1184 280 1238 Q280 1296 319 1336.5 Q358 1377 415 1377 Q481 1377 523 1324.5 Q565 1272 565 1190 Q565 1076 471 972 Q421 916 366 887.5 Q311 859 232 849 L256 961 Z M913 990 L881 840 Q945 925 1036 971 Q1127 1017 1233 1017 Q1340 1017 1420 966 Q1525 900 1525 768 Q1525 708 1501 597 L1374 0 L1159 0 L1286 594 Q1301 667 1301 715 Q1301 841 1144 841 Q1008 841 915 730 Q852 657 824 524 L713 0 L498 0 L708 990 L913 990 Z " />
<glyph glyph-name="Eng" unicode="&#x14a;" horiz-adv-x="1380" d="M566 1365 L527 1179 Q602 1256 662 1295 Q819 1395 1006 1395 Q1188 1395 1283 1299 Q1356 1224 1356 1106 Q1356 1033 1330 909 L1134 -13 Q1106 -141 1082 -197 Q1058 -253 1012 -296 Q921 -379 746 -379 Q706 -379 656 -373 L693 -195 Q723 -198 744 -198 Q796 -198 822 -185.5 Q848 -173 862 -142 Q877 -110 906 28 L1078 839 Q1107 973 1107 1031 Q1107 1113 1050.5 1157.5 Q994 1202 891 1202 Q728 1202 613 1108 Q544 1052 504.5 970 Q465 888 433 737 L276 0 L40 0 L330 1365 L566 1365 Z " />
<glyph glyph-name="eng" unicode="&#x14b;" horiz-adv-x="1126" d="M441 990 L409 840 Q473 925 564 971 Q655 1017 761 1017 Q868 1017 948 966 Q1053 900 1053 768 Q1053 708 1030 597 L909 29 Q876 -124 863 -173.5 Q850 -223 836 -249 Q797 -319 736.5 -349.5 Q676 -380 575 -380 Q517 -380 462 -370 L499 -193 Q531 -201 560 -201 Q624 -201 647 -155 Q658 -130 694 29 L814 594 Q829 665 829 715 Q829 841 672 841 Q536 841 443 730 Q381 657 352 524 L241 0 L26 0 L236 990 L441 990 Z " />
<glyph glyph-name="Omacron" unicode="&#x14c;" horiz-adv-x="1487" d="M870 1397 Q1083 1397 1233 1293 Q1455 1138 1455 814 Q1455 646 1403 491.5 Q1351 337 1254 219 Q1125 61 949 6 Q834 -31 703 -31 Q381 -31 226 191 Q119 344 119 574 Q119 776 197 955 Q303 1199 510 1309 Q675 1397 870 1397 Z M861 1202 Q657 1202 524 1055 Q446 969 401 839 Q356 709 356 569 Q356 380 453 271.5 Q550 163 720 163 Q917 163 1050 316 Q1137 416 1180 560 Q1218 689 1218 808 Q1218 992 1123 1097 Q1028 1202 861 1202 Z M1306 1665 L1279 1539 L617 1539 L644 1665 L1306 1665 Z " />
<glyph glyph-name="omacron" unicode="&#x14d;" horiz-adv-x="1128" d="M633 1019 Q840 1019 953.5 908.5 Q1067 798 1067 597 Q1067 477 1026.5 360 Q986 243 915 155 Q766 -29 510 -29 Q240 -29 133 148 Q68 256 68 403 Q68 547 125 681 Q193 841 326.5 930 Q460 1019 633 1019 Z M620 848 Q482 848 388 732 Q339 672 309 582 Q279 492 279 405 Q279 280 343 210.5 Q407 141 521 141 Q668 141 763 278 Q805 338 830 424.5 Q855 511 855 594 Q855 713 792.5 780.5 Q730 848 620 848 Z M1032 1326 L1005 1203 L404 1203 L431 1326 L1032 1326 Z " />
<glyph glyph-name="Obreve" unicode="&#x14e;" horiz-adv-x="1487" d="M870 1397 Q1083 1397 1233 1293 Q1455 1138 1455 814 Q1455 646 1403 491.5 Q1351 337 1254 219 Q1125 61 949 6 Q834 -31 703 -31 Q381 -31 226 191 Q119 344 119 574 Q119 776 197 955 Q303 1199 510 1309 Q675 1397 870 1397 Z M861 1202 Q657 1202 524 1055 Q446 969 401 839 Q356 709 356 569 Q356 380 453 271.5 Q550 163 720 163 Q917 163 1050 316 Q1137 416 1180 560 Q1218 689 1218 808 Q1218 992 1123 1097 Q1028 1202 861 1202 Z M1303 1744 Q1246 1471 963 1471 Q826 1471 757 1540 Q693 1603 693 1706 Q693 1717 695 1744 L833 1744 Q838 1669 872.5 1635.5 Q907 1602 977 1602 Q1120 1602 1164 1744 L1303 1744 Z " />
<glyph glyph-name="obreve" unicode="&#x14f;" horiz-adv-x="1128" d="M633 1019 Q840 1019 953.5 908.5 Q1067 798 1067 597 Q1067 477 1026.5 360 Q986 243 915 155 Q766 -29 510 -29 Q240 -29 133 148 Q68 256 68 403 Q68 547 125 681 Q193 841 326.5 930 Q460 1019 633 1019 Z M620 848 Q482 848 388 732 Q339 672 309 582 Q279 492 279 405 Q279 280 343 210.5 Q407 141 521 141 Q668 141 763 278 Q805 338 830 424.5 Q855 511 855 594 Q855 713 792.5 780.5 Q730 848 620 848 Z M1001 1410 Q944 1124 688 1124 Q563 1124 498 1197 Q437 1264 437 1374 Q437 1384 439 1410 L570 1410 Q577 1252 700 1252 Q763 1252 803 1289.5 Q843 1327 869 1410 L1001 1410 Z " />
<glyph glyph-name="Ohungarumlaut" unicode="&#x150;" horiz-adv-x="1487" d="M870 1397 Q1083 1397 1233 1293 Q1455 1138 1455 814 Q1455 646 1403 491.5 Q1351 337 1254 219 Q1125 61 949 6 Q834 -31 703 -31 Q381 -31 226 191 Q119 344 119 574 Q119 776 197 955 Q303 1199 510 1309 Q675 1397 870 1397 Z M861 1202 Q657 1202 524 1055 Q446 969 401 839 Q356 709 356 569 Q356 380 453 271.5 Q550 163 720 163 Q917 163 1050 316 Q1137 416 1180 560 Q1218 689 1218 808 Q1218 992 1123 1097 Q1028 1202 861 1202 Z M1027 1745 L788 1475 L657 1475 L808 1745 L1027 1745 Z M1361 1745 L1122 1475 L992 1475 L1142 1745 L1361 1745 Z " />
<glyph glyph-name="ohungarumlaut" unicode="&#x151;" horiz-adv-x="1128" d="M633 1019 Q840 1019 953.5 908.5 Q1067 798 1067 597 Q1067 477 1026.5 360 Q986 243 915 155 Q766 -29 510 -29 Q240 -29 133 148 Q68 256 68 403 Q68 547 125 681 Q193 841 326.5 930 Q460 1019 633 1019 Z M620 848 Q482 848 388 732 Q339 672 309 582 Q279 492 279 405 Q279 280 343 210.5 Q407 141 521 141 Q668 141 763 278 Q805 338 830 424.5 Q855 511 855 594 Q855 713 792.5 780.5 Q730 848 620 848 Z M1066 1410 L867 1126 L740 1126 L867 1410 L1066 1410 Z M779 1410 L574 1126 L453 1126 L580 1410 L779 1410 Z " />
<glyph glyph-name="OE" unicode="&#x152;" horiz-adv-x="2090" d="M2181 1365 L2138 1164 L1432 1164 L1354 799 L2002 799 L1962 608 L1314 608 L1227 201 L1949 201 L1906 0 L971 0 L994 112 Q949 63 917 41 Q815 -30 648 -30 Q373 -30 230 169 Q116 326 116 565 Q116 752 187 927 Q295 1192 523 1313 Q679 1395 856 1395 Q1106 1395 1221 1228 L1250 1365 L2181 1365 Z M1066 534 L1139 879 Q1151 935 1151 973 Q1151 1072 1069 1136.5 Q987 1201 861 1201 Q659 1201 520 1044 Q433 945 389 789 Q357 678 357 564 Q357 352 469 244 Q554 162 688 162 Q858 162 966 285 Q1004 328 1023.5 377 Q1043 426 1066 534 Z " />
<glyph glyph-name="oe" unicode="&#x153;" horiz-adv-x="1763" d="M1656 309 Q1594 143 1472 58 Q1350 -27 1173 -27 Q896 -27 826 156 Q704 -28 458 -28 Q287 -28 188 57 Q61 165 61 380 Q61 495 100 612.5 Q139 730 206 814 Q366 1018 626 1018 Q867 1018 955 837 Q1083 1017 1320 1017 Q1504 1017 1607 909.5 Q1710 802 1710 610 Q1710 519 1688 438 L973 438 Q963 388 963 349 Q963 267 1002 215 Q1060 136 1185 136 Q1364 136 1440 309 L1656 309 Z M608 849 Q470 849 385 735 Q335 667 305.5 572.5 Q276 478 276 386 Q276 273 329 208 Q383 143 488 143 Q655 143 742 315 Q770 371 792.5 468 Q815 565 815 633 Q815 747 750 802 Q694 849 608 849 Z M1000 584 L1500 584 Q1504 614 1504 634 Q1504 717 1462 777 Q1409 853 1295 853 Q1184 853 1109 785 Q1034 717 1000 584 Z " />
<glyph glyph-name="Racute" unicode="&#x154;" horiz-adv-x="1374" d="M326 1365 L864 1365 Q1080 1365 1172 1317 Q1336 1231 1336 1021 Q1336 872 1254 771 Q1172 670 1029 644 Q1106 611 1137 558 Q1168 505 1168 406 Q1168 362 1157 217 Q1153 154 1153 111 Q1153 46 1175 0 L933 0 Q918 35 918 101 Q918 134 928 231 Q938 336 938 391 Q938 491 889 526.5 Q840 562 702 562 L392 562 L272 0 L36 0 L326 1365 Z M522 1174 L430 741 L754 741 Q849 741 905 751.5 Q961 762 997 786 Q1043 818 1070 872 Q1097 926 1097 989 Q1097 1092 1022 1141 Q970 1174 828 1174 L522 1174 Z M1129 1745 L839 1475 L684 1475 L866 1745 L1129 1745 Z " />
<glyph glyph-name="racute" unicode="&#x155;" horiz-adv-x="702" d="M821 1010 L776 797 Q722 806 687 806 Q548 806 451 701 Q409 656 381.5 594.5 Q354 533 334 440 L241 0 L26 0 L236 990 L441 990 L399 793 Q524 1016 745 1016 Q780 1016 821 1010 Z M856 1410 L572 1126 L428 1126 L609 1410 L856 1410 Z " />
<glyph glyph-name="Rcommaaccent" unicode="&#x156;" horiz-adv-x="1374" d="M326 1365 L864 1365 Q1080 1365 1172 1317 Q1336 1231 1336 1021 Q1336 872 1254 771 Q1172 670 1029 644 Q1106 611 1137 558 Q1168 505 1168 406 Q1168 362 1157 217 Q1153 154 1153 111 Q1153 46 1175 0 L933 0 Q918 35 918 101 Q918 134 928 231 Q938 336 938 391 Q938 491 889 526.5 Q840 562 702 562 L392 562 L272 0 L36 0 L326 1365 Z M522 1174 L430 741 L754 741 Q849 741 905 751.5 Q961 762 997 786 Q1043 818 1070 872 Q1097 926 1097 989 Q1097 1092 1022 1141 Q970 1174 828 1174 L522 1174 Z M428 -414 Q482 -408 526 -380 Q570 -352 587 -312 Q577 -313 572 -313 Q524 -313 491.5 -281.5 Q459 -250 459 -204 Q459 -155 491 -121.5 Q523 -88 570 -88 Q624 -88 658.5 -131.5 Q693 -175 693 -242 Q693 -332 613 -412 Q532 -492 408 -507 L428 -414 Z " />
<glyph glyph-name="rcommaaccent" unicode="&#x157;" horiz-adv-x="702" d="M821 1010 L775 797 Q722 806 687 806 Q548 806 450 701 Q409 656 381.5 594.5 Q354 533 334 440 L241 0 L26 0 L236 990 L441 990 L399 793 Q524 1016 745 1016 Q780 1016 821 1010 Z M-47 -407 Q7 -402 51 -373.5 Q95 -345 112 -305 Q102 -306 98 -306 Q50 -306 17.5 -274.5 Q-15 -243 -15 -197 Q-15 -149 17 -115.5 Q49 -82 96 -82 Q150 -82 184.5 -125 Q219 -168 219 -235 Q219 -325 138 -405 Q58 -485 -67 -500 L-47 -407 Z " />
<glyph glyph-name="Rcaron" unicode="&#x158;" horiz-adv-x="1374" d="M326 1365 L864 1365 Q1080 1365 1172 1317 Q1336 1231 1336 1021 Q1336 872 1254 771 Q1172 670 1029 644 Q1106 611 1137 558 Q1168 505 1168 406 Q1168 362 1157 217 Q1153 154 1153 111 Q1153 46 1175 0 L933 0 Q918 35 918 101 Q918 134 928 231 Q938 336 938 391 Q938 491 889 526.5 Q840 562 702 562 L392 562 L272 0 L36 0 L326 1365 Z M522 1174 L430 741 L754 741 Q849 741 905 751.5 Q961 762 997 786 Q1043 818 1070 872 Q1097 926 1097 989 Q1097 1092 1022 1141 Q970 1174 828 1174 L522 1174 Z M551 1745 L726 1745 L823 1576 L992 1745 L1177 1745 L908 1475 L705 1475 L551 1745 Z " />
<glyph glyph-name="rcaron" unicode="&#x159;" horiz-adv-x="702" d="M821 1010 L776 797 Q722 806 687 806 Q548 806 451 701 Q409 656 381.5 594.5 Q354 533 334 440 L241 0 L26 0 L236 990 L441 990 L399 793 Q524 1016 745 1016 Q780 1016 821 1010 Z M307 1410 L479 1410 L553 1231 L713 1410 L895 1410 L627 1126 L451 1126 L307 1410 Z " />
<glyph glyph-name="Sacute" unicode="&#x15a;" horiz-adv-x="1225" d="M1202 964 L973 964 Q973 1087 908.5 1144 Q844 1201 705 1201 Q608 1201 535 1168 Q482 1145 451.5 1100.5 Q421 1056 421 1003 Q421 916 500 870 Q552 840 691 803 Q832 766 899 739 Q966 712 1010 675 Q1128 574 1128 408 Q1128 208 970 86 Q826 -27 569 -27 Q270 -27 135 127 Q36 240 36 427 Q36 435 36 453 L271 453 Q270 315 327 251 Q402 166 584 166 Q722 166 801 224 Q892 291 892 393 Q892 473 840 516.5 Q788 560 650 596 Q389 665 306 733 Q188 829 188 989 Q188 1169 330 1283 Q464 1392 702 1392 Q972 1392 1101 1264 Q1203 1161 1203 996 Q1203 986 1202 964 Z M1047 1745 L758 1475 L602 1475 L784 1745 L1047 1745 Z " />
<glyph glyph-name="sacute" unicode="&#x15b;" horiz-adv-x="957" d="M907 700 L701 700 Q702 787 657 824.5 Q612 862 508 862 Q424 862 379 831 Q332 798 332 743 Q332 680 411 643 Q451 624 601 574 Q851 489 851 303 Q851 230 817 164.5 Q783 99 722 54 Q612 -27 418 -27 Q234 -27 123 51 Q4 136 4 292 Q4 301 5 317 L211 317 Q209 137 436 137 Q532 137 585 176 Q637 214 637 273 Q637 321 601 352.5 Q565 384 473 416 Q330 466 284.5 486 Q239 506 204 534 Q119 603 119 719 Q119 855 229.5 936.5 Q340 1018 525 1018 Q719 1018 821 927 Q907 850 907 722 Q907 710 907 700 Z M880 1410 L596 1126 L452 1126 L633 1410 L880 1410 Z " />
<glyph glyph-name="Scircumflex" unicode="&#x15c;" horiz-adv-x="1225" d="M1202 964 L973 964 Q973 1087 908.5 1144 Q844 1201 705 1201 Q608 1201 535 1168 Q482 1145 451.5 1100.5 Q421 1056 421 1003 Q421 916 500 870 Q552 840 691 803 Q832 766 899 739 Q966 712 1010 675 Q1128 574 1128 408 Q1128 208 970 86 Q826 -27 569 -27 Q270 -27 135 127 Q36 240 36 427 Q36 435 36 453 L271 453 Q270 315 327 251 Q402 166 584 166 Q722 166 801 224 Q892 291 892 393 Q892 473 840 516.5 Q788 560 650 596 Q389 665 306 733 Q188 829 188 989 Q188 1169 330 1283 Q464 1392 702 1392 Q972 1392 1101 1264 Q1203 1161 1203 996 Q1203 986 1202 964 Z M1048 1475 L873 1475 L777 1644 L607 1475 L423 1475 L691 1745 L894 1745 L1048 1475 Z " />
<glyph glyph-name="scircumflex" unicode="&#x15d;" horiz-adv-x="957" d="M907 700 L701 700 Q702 787 657 824.5 Q612 862 508 862 Q424 862 379 831 Q332 798 332 743 Q332 680 411 643 Q451 624 601 574 Q851 489 851 303 Q851 230 817 164.5 Q783 99 722 54 Q612 -27 418 -27 Q234 -27 123 51 Q4 136 4 292 Q4 301 5 317 L211 317 Q209 137 436 137 Q532 137 585 176 Q637 214 637 273 Q637 321 601 352.5 Q565 384 473 416 Q330 466 284.5 486 Q239 506 204 534 Q119 603 119 719 Q119 855 229.5 936.5 Q340 1018 525 1018 Q719 1018 821 927 Q907 850 907 722 Q907 710 907 700 Z M859 1126 L686 1126 L613 1305 L453 1126 L271 1126 L539 1410 L714 1410 L859 1126 Z " />
<glyph glyph-name="Scedilla" unicode="&#x15e;" horiz-adv-x="1225" d="M591 -27 L523 -109 Q556 -103 581 -103 Q653 -103 698.5 -142 Q744 -181 744 -242 Q744 -316 679 -364 Q614 -412 514 -412 Q428 -412 311 -367 L351 -292 Q426 -325 491 -325 Q534 -325 563 -304 Q592 -283 592 -251 Q592 -219 567.5 -199.5 Q543 -180 504 -180 Q470 -180 433 -194 L398 -154 L504 -26 Q383 -14 323 4.5 Q263 23 203 65 Q36 184 36 427 Q36 435 36 453 L271 453 Q270 315 327 251 Q402 166 584 166 Q722 166 801 224 Q892 291 892 394 Q892 473 840 516.5 Q788 560 650 596 Q389 665 306 733 Q188 829 188 989 Q188 1169 330 1283 Q464 1392 702 1392 Q972 1392 1101 1264 Q1203 1161 1203 996 Q1203 986 1202 964 L973 964 Q973 1087 908.5 1144 Q844 1201 705 1201 Q608 1201 535 1168 Q482 1145 451.5 1100.5 Q421 1056 421 1003 Q421 916 500 870 Q552 839 691 803 Q832 766 899 739 Q966 712 1010 675 Q1128 574 1128 408 Q1128 259 1036 149 Q894 -22 591 -27 Z " />
<glyph glyph-name="scedilla" unicode="&#x15f;" horiz-adv-x="957" d="M435 -26 L367 -109 Q401 -102 425 -102 Q463 -102 498 -115 Q588 -149 588 -241 Q588 -315 522.5 -363 Q457 -411 357 -411 Q270 -411 155 -366 L194 -292 Q270 -324 335 -324 Q378 -324 407 -303 Q436 -282 436 -250 Q436 -218 411.5 -198.5 Q387 -179 348 -179 Q312 -179 277 -193 L242 -153 L346 -23 Q262 -17 191 13 Q111 48 63 111 Q4 188 4 292 Q4 301 5 317 L211 317 Q209 137 436 137 Q532 137 585 176 Q637 214 637 273 Q637 321 601 352.5 Q565 384 473 416 Q331 465 285.5 485 Q240 505 204 534 Q119 603 119 719 Q119 855 229.5 936.5 Q340 1018 525 1018 Q719 1018 821 927 Q907 850 907 722 Q907 710 907 700 L701 700 Q702 787 657 824.5 Q612 862 508 862 Q424 862 379 831 Q332 798 332 743 Q332 680 411 643 Q451 624 601 574 Q851 490 851 303 Q851 194 781 110 Q711 26 595 -5 Q528 -24 435 -26 Z " />
<glyph glyph-name="Scaron" unicode="&#x160;" horiz-adv-x="1225" d="M1202 964 L973 964 Q973 1087 908.5 1144 Q844 1201 705 1201 Q608 1201 535 1168 Q482 1145 451.5 1100.5 Q421 1056 421 1003 Q421 916 500 870 Q552 840 691 803 Q832 766 899 739 Q966 712 1010 675 Q1128 574 1128 408 Q1128 208 970 86 Q826 -27 569 -27 Q270 -27 135 127 Q36 240 36 427 Q36 435 36 453 L271 453 Q270 315 327 251 Q402 166 584 166 Q722 166 801 224 Q892 291 892 393 Q892 473 840 516.5 Q788 560 650 596 Q389 665 306 733 Q188 829 188 989 Q188 1169 330 1283 Q464 1392 702 1392 Q972 1392 1101 1264 Q1203 1161 1203 996 Q1203 986 1202 964 Z M477 1745 L652 1745 L749 1576 L918 1745 L1103 1745 L834 1475 L631 1475 L477 1745 Z " />
<glyph glyph-name="scaron" unicode="&#x161;" horiz-adv-x="957" d="M907 700 L701 700 Q702 787 657 824.5 Q612 862 508 862 Q424 862 379 831 Q332 798 332 743 Q332 680 411 643 Q451 624 601 574 Q851 489 851 303 Q851 230 817 164.5 Q783 99 722 54 Q612 -27 418 -27 Q234 -27 123 51 Q4 136 4 292 Q4 301 5 317 L211 317 Q209 137 436 137 Q532 137 585 176 Q637 214 637 273 Q637 321 601 352.5 Q565 384 473 416 Q330 466 284.5 486 Q239 506 204 534 Q119 603 119 719 Q119 855 229.5 936.5 Q340 1018 525 1018 Q719 1018 821 927 Q907 850 907 722 Q907 710 907 700 Z M326 1410 L498 1410 L572 1231 L731 1410 L913 1410 L646 1126 L470 1126 L326 1410 Z " />
<glyph glyph-name="Tcommaaccent" unicode="&#x162;" horiz-adv-x="1186" d="M1342 1365 L1300 1164 L861 1164 L614 0 L378 0 L625 1164 L176 1164 L219 1365 L1342 1365 Z M310 -414 Q364 -408 408 -380 Q452 -352 469 -312 Q459 -313 454 -313 Q406 -313 373.5 -281.5 Q341 -250 341 -204 Q341 -155 373 -121.5 Q405 -88 452 -88 Q506 -88 540.5 -131.5 Q575 -175 575 -242 Q575 -332 495 -412 Q414 -492 290 -507 L310 -414 Z " />
<glyph glyph-name="tcommaaccent" unicode="&#x163;" horiz-adv-x="646" d="M681 990 L647 830 L447 830 L344 343 Q331 284 331 264 Q331 205 349 184.5 Q367 164 419 164 Q460 164 525 174 L488 2 Q423 -10 346 -10 Q274 -10 233 -1 Q192 8 162 31 Q100 78 100 166 Q100 209 127 336 L232 830 L63 830 L97 990 L266 990 L329 1285 L549 1285 L486 990 L681 990 Z M97 -407 Q151 -402 195 -373.5 Q239 -345 256 -305 Q246 -306 241 -306 Q193 -306 160.5 -274.5 Q128 -243 128 -197 Q128 -149 160 -115.5 Q192 -82 239 -82 Q293 -82 327.5 -125 Q362 -168 362 -235 Q362 -325 282 -405 Q201 -485 77 -500 L97 -407 Z " />
<glyph glyph-name="Tcaron" unicode="&#x164;" horiz-adv-x="1186" d="M1342 1365 L1300 1164 L861 1164 L614 0 L378 0 L625 1164 L176 1164 L219 1365 L1342 1365 Z M549 1745 L724 1745 L821 1576 L990 1745 L1174 1745 L906 1475 L703 1475 L549 1745 Z " />
<glyph glyph-name="tcaron" unicode="&#x165;" horiz-adv-x="779" d="M681 990 L647 830 L447 830 L344 343 Q331 284 331 264 Q331 205 349 184.5 Q367 164 419 164 Q460 164 525 174 L488 2 Q423 -10 346 -10 Q274 -10 233 -1 Q192 8 162 31 Q100 78 100 166 Q100 209 127 336 L232 830 L63 830 L97 990 L266 990 L329 1285 L549 1285 L486 990 L681 990 Z M652 1157 Q706 1162 750 1190 Q794 1218 811 1258 Q802 1257 797 1257 Q749 1257 716.5 1288.5 Q684 1320 684 1366 Q684 1415 716 1448.5 Q748 1482 795 1482 Q849 1482 883.5 1438.5 Q918 1395 918 1328 Q918 1238 838 1158 Q757 1078 632 1063 L652 1157 Z " />
<glyph glyph-name="Tbar" unicode="&#x166;" horiz-adv-x="1185" d="M1342 1365 L1300 1164 L861 1164 L793 844 L1080 844 L1047 687 L760 687 L614 0 L378 0 L524 687 L237 687 L271 844 L557 844 L625 1164 L176 1164 L219 1365 L1342 1365 Z " />
<glyph glyph-name="tbar" unicode="&#x167;" horiz-adv-x="646" d="M681 990 L647 830 L448 830 L408 643 L587 643 L558 506 L379 506 L344 343 Q331 281 331 264 Q331 205 349 184.5 Q367 164 419 164 Q462 164 525 174 L489 2 Q424 -10 347 -10 Q274 -10 233 -1 Q192 8 162 31 Q100 78 100 166 Q100 208 128 336 L164 506 L15 506 L44 643 L193 643 L233 830 L63 830 L97 990 L266 990 L329 1285 L549 1285 L486 990 L681 990 Z " />
<glyph glyph-name="Utilde" unicode="&#x168;" horiz-adv-x="1375" d="M1441 1365 L1268 552 Q1233 385 1201 302.5 Q1169 220 1115 154 Q964 -32 643 -32 Q422 -32 289 54 Q114 167 114 373 Q114 451 142 581 L309 1365 L545 1365 L378 581 Q351 454 351 400 Q351 281 433 221 Q512 164 646 164 Q861 164 948 300 Q973 339 994.5 408 Q1016 477 1042 600 L1205 1365 L1441 1365 Z M1268 1719 Q1242 1612 1190 1553 Q1138 1494 1070 1494 Q1039 1494 1010 1503 Q981 1512 874 1556 Q812 1581 785 1581 Q739 1581 701 1496 L585 1496 Q612 1602 665.5 1660 Q719 1718 790 1718 Q824 1718 852 1708.5 Q880 1699 997 1649 Q1041 1630 1067 1630 Q1122 1630 1153 1719 L1268 1719 Z " />
<glyph glyph-name="utilde" unicode="&#x169;" horiz-adv-x="1113" d="M1093 990 L883 0 L678 0 L709 147 Q658 65 569.5 19 Q481 -27 375 -27 Q265 -27 184 24 Q80 90 80 228 Q80 290 102 392 L229 990 L444 990 L333 466 Q302 317 302 275 Q302 149 464 149 Q577 149 656 231.5 Q735 314 767 466 L878 990 L1093 990 Z M1032 1377 Q1008 1271 959 1211.5 Q910 1152 846 1152 Q816 1152 789 1161 Q762 1170 662 1214 Q604 1239 579 1239 Q537 1239 502 1154 L390 1154 Q415 1260 465.5 1318 Q516 1376 583 1376 Q614 1376 640 1366.5 Q666 1357 777 1307 Q818 1288 843 1288 Q893 1288 920 1377 L1032 1377 Z " />
<glyph glyph-name="Umacron" unicode="&#x16a;" horiz-adv-x="1375" d="M1441 1365 L1268 552 Q1233 385 1201 302.5 Q1169 220 1115 154 Q964 -32 643 -32 Q422 -32 289 54 Q114 167 114 373 Q114 451 142 581 L309 1365 L545 1365 L378 581 Q351 454 351 400 Q351 281 433 221 Q512 164 646 164 Q861 164 948 300 Q973 339 994.5 408 Q1016 477 1042 600 L1205 1365 L1441 1365 Z M1265 1665 L1239 1539 L577 1539 L603 1665 L1265 1665 Z " />
<glyph glyph-name="umacron" unicode="&#x16b;" horiz-adv-x="1113" d="M1093 990 L883 0 L678 0 L709 147 Q658 65 569.5 19 Q481 -27 375 -27 Q265 -27 184 24 Q80 90 80 228 Q80 290 102 392 L229 990 L444 990 L333 466 Q302 317 302 275 Q302 149 464 149 Q577 149 656 231.5 Q735 314 767 466 L878 990 L1093 990 Z M1023 1326 L996 1203 L396 1203 L423 1326 L1023 1326 Z " />
<glyph glyph-name="Ubreve" unicode="&#x16c;" horiz-adv-x="1375" d="M1441 1365 L1268 552 Q1233 385 1201 302.5 Q1169 220 1115 154 Q964 -32 643 -32 Q422 -32 289 54 Q114 167 114 373 Q114 451 142 581 L309 1365 L545 1365 L378 581 Q351 454 351 400 Q351 281 433 221 Q512 164 646 164 Q861 164 948 300 Q973 339 994.5 408 Q1016 477 1042 600 L1205 1365 L1441 1365 Z M1246 1744 Q1190 1471 907 1471 Q770 1471 701 1540 Q637 1603 637 1706 Q637 1718 639 1744 L777 1744 Q782 1669 816.5 1635.5 Q851 1602 921 1602 Q1064 1602 1108 1744 L1246 1744 Z " />
<glyph glyph-name="ubreve" unicode="&#x16d;" horiz-adv-x="1113" d="M1093 990 L883 0 L678 0 L709 147 Q658 65 569.5 19 Q481 -27 375 -27 Q265 -27 184 24 Q80 90 80 228 Q80 290 102 392 L229 990 L444 990 L333 466 Q302 317 302 275 Q302 149 464 149 Q577 149 656 231.5 Q735 314 767 466 L878 990 L1093 990 Z M1012 1410 Q954 1124 699 1124 Q581 1124 514.5 1190 Q448 1256 448 1374 Q448 1385 449 1410 L581 1410 Q588 1252 711 1252 Q773 1252 813 1289.5 Q853 1327 880 1410 L1012 1410 Z " />
<glyph glyph-name="Uring" unicode="&#x16e;" horiz-adv-x="1375" d="M1441 1365 L1268 552 Q1233 385 1201 302.5 Q1169 220 1115 154 Q964 -32 643 -32 Q422 -32 289 54 Q114 167 114 373 Q114 451 142 581 L309 1365 L545 1365 L378 581 Q351 454 351 400 Q351 281 433 221 Q512 164 646 164 Q861 164 948 300 Q973 339 994.5 408 Q1016 477 1042 600 L1205 1365 L1441 1365 Z M918 1877 Q1008 1877 1072 1807 Q1126 1747 1126 1666 Q1126 1571 1056 1508 Q996 1454 914 1454 Q820 1454 757 1524 Q703 1584 703 1667 Q703 1758 773 1823 Q833 1877 918 1877 Z M916 1769 Q872 1769 841.5 1739 Q811 1709 811 1666 Q811 1623 841 1592.5 Q871 1562 914 1562 Q957 1562 987.5 1592.5 Q1018 1623 1018 1665 Q1018 1708 988 1738.5 Q958 1769 916 1769 Z " />
<glyph glyph-name="uring" unicode="&#x16f;" horiz-adv-x="1113" d="M1093 990 L883 0 L678 0 L709 147 Q658 65 569.5 19 Q481 -27 375 -27 Q265 -27 184 24 Q80 90 80 228 Q80 290 102 392 L229 990 L444 990 L333 466 Q302 317 302 275 Q302 149 464 149 Q577 149 656 231.5 Q735 314 767 466 L878 990 L1093 990 Z M713 1502 Q800 1502 861 1434 Q914 1376 914 1297 Q914 1206 846 1145 Q788 1092 710 1092 Q618 1092 557 1160 Q505 1218 505 1299 Q505 1387 573 1449 Q630 1502 713 1502 Z M711 1394 Q670 1394 641.5 1366 Q613 1338 613 1298 Q613 1257 641 1228.5 Q669 1200 710 1200 Q749 1200 777.5 1228.5 Q806 1257 806 1297 Q806 1336 778 1365 Q750 1394 711 1394 Z " />
<glyph glyph-name="Uhungarumlaut" unicode="&#x170;" horiz-adv-x="1375" d="M1441 1365 L1268 552 Q1233 385 1201 302.5 Q1169 220 1115 154 Q964 -32 643 -32 Q422 -32 289 54 Q114 167 114 373 Q114 451 142 581 L309 1365 L545 1365 L378 581 Q351 454 351 400 Q351 281 433 221 Q512 164 646 164 Q861 164 948 300 Q973 339 994.5 408 Q1016 477 1042 600 L1205 1365 L1441 1365 Z M1000 1745 L761 1475 L630 1475 L781 1745 L1000 1745 Z M1334 1745 L1095 1475 L965 1475 L1115 1745 L1334 1745 Z " />
<glyph glyph-name="uhungarumlaut" unicode="&#x171;" horiz-adv-x="1113" d="M1093 990 L883 0 L678 0 L709 147 Q658 65 569.5 19 Q481 -27 375 -27 Q265 -27 184 24 Q80 90 80 228 Q80 290 102 392 L229 990 L444 990 L333 466 Q302 317 302 275 Q302 149 464 149 Q577 149 656 231.5 Q735 314 767 466 L878 990 L1093 990 Z M1057 1410 L859 1126 L731 1126 L858 1410 L1057 1410 Z M770 1410 L565 1126 L444 1126 L571 1410 L770 1410 Z " />
<glyph glyph-name="Uogonek" unicode="&#x172;" horiz-adv-x="1375" d="M976 -247 L967 -355 Q899 -375 845 -375 Q736 -375 680 -322 Q634 -280 634 -219 Q634 -109 748 -26 Q688 -32 644 -32 Q422 -32 289 54 Q114 167 114 373 Q114 451 142 581 L309 1365 L545 1365 L378 581 Q351 454 351 400 Q351 281 433 221 Q512 164 646 164 Q861 164 948 300 Q973 339 994.5 408 Q1016 477 1042 600 L1205 1365 L1441 1365 L1268 552 Q1235 397 1205 314.5 Q1175 232 1130 171 Q1093 122 1053 91.5 Q1013 61 907 0 Q851 -32 814.5 -81 Q778 -130 778 -174 Q778 -212 811.5 -236 Q845 -260 900 -260 Q929 -260 976 -247 Z " />
<glyph glyph-name="uogonek" unicode="&#x173;" horiz-adv-x="1113" d="M883 0 Q806 -49 775 -86 Q744 -123 744 -165 Q744 -205 777 -229 Q810 -253 865 -253 Q895 -253 942 -240 L933 -348 Q865 -368 811 -368 Q714 -368 657 -324.5 Q600 -281 600 -207 Q600 -89 751 0 L678 0 L709 147 Q658 65 569.5 19 Q481 -27 375 -27 Q265 -27 184 24 Q80 90 80 228 Q80 290 102 392 L229 990 L444 990 L333 466 Q302 317 302 275 Q302 149 464 149 Q577 149 656 231.5 Q735 314 767 466 L878 990 L1093 990 L883 0 Z " />
<glyph glyph-name="Wcircumflex" unicode="&#x174;" horiz-adv-x="1790" d="M1966 1365 L1333 0 L1088 0 L1040 728 Q1036 792 1032 1055 L1031 1107 Q930 844 845 661 L541 0 L292 0 L200 1365 L438 1365 L464 728 Q472 520 472 377 Q472 328 468 247 Q526 417 672 735 L960 1365 L1203 1365 L1240 787 Q1257 526 1257 314 Q1257 301 1256 256 Q1353 518 1469 787 L1720 1365 L1966 1365 Z M1396 1475 L1221 1475 L1124 1644 L955 1475 L770 1475 L1039 1745 L1242 1745 L1396 1475 Z " />
<glyph glyph-name="wcircumflex" unicode="&#x175;" horiz-adv-x="1463" d="M1570 990 L1057 0 L828 0 L792 546 Q786 625 786 748 Q715 575 707 557 L453 0 L223 0 L110 990 L333 990 L361 652 Q385 375 385 267 Q385 245 385 221 Q418 321 471 440 L719 990 L948 990 L980 520 Q990 377 990 294 Q990 273 989 228 Q1037 362 1159 617 L1338 990 L1570 990 Z M1134 1126 L962 1126 L888 1305 L728 1126 L546 1126 L814 1410 L990 1410 L1134 1126 Z " />
<glyph glyph-name="Ycircumflex" unicode="&#x176;" horiz-adv-x="1186" d="M1403 1365 L737 530 L624 0 L388 0 L503 544 L159 1365 L410 1365 L574 942 L595 882 Q640 761 648 736 Q709 830 775 917 L1119 1365 L1403 1365 Z M1094 1475 L919 1475 L822 1644 L653 1475 L468 1475 L737 1745 L940 1745 L1094 1475 Z " />
<glyph glyph-name="ycircumflex" unicode="&#x177;" horiz-adv-x="933" d="M1045 990 L556 104 Q413 -156 351 -238 Q295 -313 224.5 -347 Q154 -381 56 -381 Q-11 -381 -78 -365 L-40 -186 Q18 -202 67 -202 Q133 -202 176 -142 Q193 -119 221 -58 Q272 51 270 61 L103 990 L330 990 L386 608 Q421 374 434 223 Q492 370 581 543 L812 990 L1045 990 Z M886 1126 L714 1126 L641 1305 L481 1126 L299 1126 L567 1410 L742 1410 L886 1126 Z " />
<glyph glyph-name="Ydieresis" unicode="&#x178;" horiz-adv-x="1186" d="M1403 1365 L737 530 L624 0 L388 0 L503 544 L159 1365 L410 1365 L574 942 L595 882 Q640 761 648 736 Q709 830 775 917 L1119 1365 L1403 1365 Z M598 1745 Q653 1745 691.5 1704.5 Q730 1664 730 1606 Q730 1552 690.5 1513.5 Q651 1475 597 1475 Q542 1475 504 1514.5 Q466 1554 466 1611 Q466 1666 505 1705.5 Q544 1745 598 1745 Z M1022 1745 Q1077 1745 1115.5 1704.5 Q1154 1664 1154 1606 Q1154 1552 1115 1513.5 Q1076 1475 1021 1475 Q966 1475 928 1514.5 Q890 1554 890 1611 Q890 1665 929 1705 Q968 1745 1022 1745 Z " />
<glyph glyph-name="Zacute" unicode="&#x179;" horiz-adv-x="1220" d="M1305 1365 L1262 1166 L431 335 Q346 250 277 194 Q376 201 495 201 L1113 201 L1070 0 L-52 0 L-9 201 L790 1003 Q878 1091 969 1165 L812 1164 L222 1164 L264 1365 L1305 1365 Z M1106 1745 L817 1475 L662 1475 L843 1745 L1106 1745 Z " />
<glyph glyph-name="zacute" unicode="&#x17a;" horiz-adv-x="922" d="M958 990 L925 831 L402 302 Q331 230 249 163 Q342 171 508 171 L835 171 L798 0 L-55 0 L-20 163 L501 688 Q572 758 649 822 Q575 819 410 819 L130 819 L167 990 L958 990 Z M890 1410 L605 1126 L461 1126 L643 1410 L890 1410 Z " />
<glyph glyph-name="Zdotaccent" unicode="&#x17b;" horiz-adv-x="1220" d="M1305 1365 L1262 1166 L431 335 Q346 250 277 194 Q376 201 495 201 L1113 201 L1070 0 L-52 0 L-9 201 L790 1003 Q878 1091 969 1165 L812 1164 L222 1164 L264 1365 L1305 1365 Z M820 1745 Q875 1745 913.5 1704.5 Q952 1664 952 1606 Q952 1552 913 1513.5 Q874 1475 819 1475 Q764 1475 726 1514.5 Q688 1554 688 1611 Q688 1665 727 1705 Q766 1745 820 1745 Z " />
<glyph glyph-name="zdotaccent" unicode="&#x17c;" horiz-adv-x="922" d="M958 990 L925 831 L402 302 Q331 230 249 163 Q342 171 508 171 L835 171 L798 0 L-55 0 L-20 163 L501 688 Q572 758 649 822 Q575 819 410 819 L130 819 L167 990 L958 990 Z M613 1402 Q668 1402 706.5 1361.5 Q745 1321 745 1263 Q745 1209 706 1170.5 Q667 1132 612 1132 Q557 1132 519 1171.5 Q481 1211 481 1268 Q481 1322 520 1362 Q559 1402 613 1402 Z " />
<glyph glyph-name="Zcaron" unicode="&#x17d;" horiz-adv-x="1220" d="M1305 1365 L1262 1166 L431 335 Q346 250 277 194 Q376 201 495 201 L1113 201 L1070 0 L-52 0 L-9 201 L790 1003 Q878 1091 969 1165 L812 1164 L222 1164 L264 1365 L1305 1365 Z M546 1745 L721 1745 L817 1576 L987 1745 L1171 1745 L903 1475 L700 1475 L546 1745 Z " />
<glyph glyph-name="zcaron" unicode="&#x17e;" horiz-adv-x="922" d="M958 990 L925 831 L402 302 Q331 230 249 163 Q342 171 508 171 L835 171 L798 0 L-55 0 L-20 163 L501 688 Q572 758 649 822 Q575 819 410 819 L130 819 L167 990 L958 990 Z M356 1410 L528 1410 L602 1231 L761 1410 L943 1410 L676 1126 L500 1126 L356 1410 Z " />
<glyph glyph-name="longs" unicode="&#x17f;" horiz-adv-x="608" d="M279 0 L64 0 L240 830 L78 830 L112 990 L274 990 L283 1028 Q322 1208 362 1265 Q445 1379 621 1379 Q686 1379 782 1364 L747 1197 Q698 1207 662 1207 Q585 1207 553 1173 Q521 1139 499 1035 L279 0 Z " />
<glyph glyph-name="uni018F" unicode="&#x18f;" horiz-adv-x="1467" d="M137 774 L1218 774 Q1220 810 1220 822 Q1220 1018 1114 1107 Q1019 1187 870 1187 Q610 1187 443 922 L241 1021 Q477 1388 880 1388 Q1109 1388 1261 1274 Q1458 1126 1458 813 Q1458 643 1392 477 Q1286 211 1071 72 Q896 -42 674 -42 Q474 -42 322 51 Q180 138 124 309 Q90 412 90 526 Q90 651 137 774 Z M1176 575 L331 575 Q329 538 329 523 Q329 335 435 242 Q530 159 680 159 Q850 159 977.5 266 Q1105 373 1176 575 Z " />
<glyph glyph-name="florin" unicode="&#x192;" horiz-adv-x="1106" d="M964 892 L923 739 L718 739 L520 -7 Q490 -121 463 -179 Q436 -237 393 -278 Q302 -367 132 -367 Q81 -367 24 -357 L69 -186 Q103 -192 130 -192 Q203 -192 241 -145 Q269 -111 302 15 L494 739 L314 739 L355 892 L535 892 L604 1153 Q651 1330 728 1396 Q817 1470 971 1470 Q1030 1470 1113 1456 L1069 1288 Q1025 1297 990 1297 Q917 1297 881.5 1258.5 Q846 1220 817 1110 L759 892 L964 892 Z " />
<glyph glyph-name="uni01C4" unicode="&#x1c4;" horiz-adv-x="2453" d="M329 1365 L663 1365 Q897 1365 979 1346 Q1184 1300 1282 1125 Q1356 992 1356 814 Q1356 658 1303 506.5 Q1250 355 1156 245 Q1026 92 847 37 Q727 0 485 0 L39 0 L329 1365 Z M523 1164 L318 201 L516 201 Q714 201 802 238 Q990 319 1076 559 Q1119 680 1119 803 Q1119 1045 961 1125 Q886 1164 716 1164 L523 1164 Z M2538 1365 L2495 1166 L1664 335 Q1579 250 1510 194 Q1609 201 1728 201 L2346 201 L2303 0 L1181 0 L1224 201 L2023 1003 Q2111 1091 2202 1165 L2045 1164 L1455 1164 L1497 1365 L2538 1365 Z M1746 1745 L1921 1745 L2018 1576 L2187 1745 L2372 1745 L2103 1475 L1900 1475 L1746 1745 Z " />
<glyph glyph-name="uni01C5" unicode="&#x1c5;" horiz-adv-x="2208" d="M2244 990 L2211 831 L1688 302 Q1617 230 1535 163 Q1628 171 1794 171 L2121 171 L2085 0 L1231 0 L1266 163 L1788 688 Q1858 758 1935 822 Q1861 819 1697 819 L1416 819 L1453 990 L2244 990 Z M329 1365 L663 1365 Q897 1365 979 1346 Q1184 1300 1282 1125 Q1356 992 1356 814 Q1356 658 1303 506.5 Q1250 355 1156 245 Q1026 92 847 37 Q727 0 485 0 L39 0 L329 1365 Z M523 1164 L318 201 L516 201 Q714 201 802 238 Q990 319 1076 559 Q1119 680 1119 803 Q1119 1045 961 1125 Q886 1164 716 1164 L523 1164 Z M1611 1393 L1786 1393 L1883 1223 L2052 1393 L2237 1393 L1968 1123 L1765 1123 L1611 1393 Z " />
<glyph glyph-name="uni01C6" unicode="&#x1c6;" horiz-adv-x="1986" d="M1228 1365 L938 0 L733 0 L762 138 Q715 58 632 15 Q549 -28 441 -28 Q291 -28 201 43 Q64 152 64 372 Q64 596 179 776 Q333 1017 603 1017 Q836 1017 903 847 L1013 1365 L1228 1365 Z M626 833 Q456 833 361 684 Q281 560 281 384 Q281 256 350 194 Q408 143 502 143 Q668 143 765 305 Q800 363 823 450.5 Q846 538 846 612 Q846 723 775 784 Q717 833 626 833 Z M2023 990 L1990 831 L1467 302 Q1396 230 1313 163 Q1407 171 1572 171 L1900 171 L1863 0 L1010 0 L1045 163 L1566 688 Q1637 758 1714 822 Q1640 819 1475 819 L1195 819 L1231 990 L2023 990 Z M1399 1379 L1574 1379 L1671 1209 L1840 1379 L2025 1379 L1757 1109 L1553 1109 L1399 1379 Z " />
<glyph glyph-name="uni01C7" unicode="&#x1c7;" horiz-adv-x="2074" d="M565 1365 L318 201 L1018 201 L976 0 L39 0 L329 1365 L565 1365 Z M2141 1365 L1954 485 Q1920 327 1895 253 Q1870 179 1831 126 Q1718 -32 1469 -32 Q1260 -32 1161 77 Q1082 164 1082 300 Q1082 392 1103 479 L1327 479 Q1305 365 1305 324 Q1305 164 1478 164 Q1580 164 1637 235 Q1675 282 1711 451 L1905 1365 L2141 1365 Z " />
<glyph glyph-name="uni01C8" unicode="&#x1c8;" horiz-adv-x="1528" d="M565 1365 L318 201 L1018 201 L976 0 L39 0 L329 1365 L565 1365 Z M1508 990 L1303 29 Q1271 -124 1258 -173.5 Q1245 -223 1230 -249 Q1191 -319 1131 -349.5 Q1071 -380 970 -380 Q912 -380 856 -370 L894 -193 Q925 -201 955 -201 Q1019 -201 1041 -155 Q1053 -130 1088 29 L1293 990 L1508 990 Z M1455 1392 Q1510 1392 1548.5 1351.5 Q1587 1311 1587 1253 Q1587 1199 1548 1160.5 Q1509 1122 1454 1122 Q1399 1122 1361 1161.5 Q1323 1201 1323 1258 Q1323 1313 1362 1352.5 Q1401 1392 1455 1392 Z " />
<glyph glyph-name="uni01C9" unicode="&#x1c9;" horiz-adv-x="944" d="M805 990 L601 29 Q568 -124 555 -173.5 Q542 -223 528 -249 Q489 -319 428.5 -349.5 Q368 -380 267 -380 Q209 -380 154 -370 L191 -193 Q223 -201 252 -201 Q316 -201 339 -155 Q350 -130 386 29 L590 990 L805 990 Z M752 1392 Q807 1392 845.5 1351.5 Q884 1311 884 1253 Q884 1199 845 1160.5 Q806 1122 751 1122 Q696 1122 658 1161.5 Q620 1201 620 1258 Q620 1313 659 1352.5 Q698 1392 752 1392 Z M531 1365 L241 0 L26 0 L316 1365 L531 1365 Z " />
<glyph glyph-name="uni01CA" unicode="&#x1ca;" horiz-adv-x="2339" d="M1460 1365 L1169 0 L917 0 L579 815 Q515 970 486 1076 Q470 937 422 710 L271 0 L39 0 L329 1365 L581 1365 L916 553 Q974 413 1014 283 Q1046 513 1088 710 L1228 1365 L1460 1365 Z M2406 1365 L2219 485 Q2185 327 2160 253.5 Q2135 180 2096 126 Q1983 -32 1734 -32 Q1525 -32 1426 77 Q1347 164 1347 300 Q1347 390 1368 479 L1592 479 Q1570 366 1570 324 Q1570 164 1743 164 Q1845 164 1902 235 Q1940 282 1976 451 L2170 1365 L2406 1365 Z " />
<glyph glyph-name="uni01CB" unicode="&#x1cb;" horiz-adv-x="1759" d="M1460 1365 L1169 0 L917 0 L579 815 Q515 970 486 1076 Q470 937 422 710 L271 0 L39 0 L329 1365 L581 1365 L916 553 Q974 413 1014 283 Q1046 513 1088 710 L1228 1365 L1460 1365 Z M1739 990 L1535 29 Q1502 -124 1489 -173.5 Q1476 -223 1462 -249 Q1422 -319 1362 -349.5 Q1302 -380 1201 -380 Q1143 -380 1087 -370 L1125 -193 Q1157 -201 1186 -201 Q1250 -201 1272 -155 Q1284 -130 1320 29 L1524 990 L1739 990 Z M1686 1392 Q1741 1392 1779.5 1351.5 Q1818 1311 1818 1253 Q1818 1199 1779 1160.5 Q1740 1122 1685 1122 Q1630 1122 1592 1161.5 Q1554 1201 1554 1258 Q1554 1312 1593 1352 Q1632 1392 1686 1392 Z " />
<glyph glyph-name="uni01CC" unicode="&#x1cc;" horiz-adv-x="1475" d="M1455 990 L1251 29 Q1218 -124 1205.5 -173.5 Q1193 -223 1178 -249 Q1139 -319 1078.5 -349.5 Q1018 -380 917 -380 Q860 -380 804 -370 L841 -193 Q873 -201 903 -201 Q967 -201 989 -155 Q1001 -130 1036 29 L1240 990 L1455 990 Z M1402 1392 Q1457 1392 1495.5 1351.5 Q1534 1311 1534 1253 Q1534 1199 1495 1160.5 Q1456 1122 1401 1122 Q1346 1122 1308 1161.5 Q1270 1201 1270 1258 Q1270 1313 1309 1352.5 Q1348 1392 1402 1392 Z M441 990 L409 840 Q473 925 564 971 Q655 1017 761 1017 Q868 1017 948 966 Q1053 900 1053 768 Q1053 708 1030 597 L903 0 L688 0 L814 594 Q829 665 829 715 Q829 841 672 841 Q536 841 443 730 Q381 657 352 524 L241 0 L26 0 L236 990 L441 990 Z " />
<glyph glyph-name="uni01CD" unicode="&#x1cd;" horiz-adv-x="1320" d="M976 1365 L1212 0 L969 0 L914 362 L373 362 L164 0 L-97 0 L721 1365 L976 1365 Z M804 1141 Q721 977 603 771 L472 542 L889 542 L846 822 Q812 1055 804 1141 Z M603 1745 L778 1745 L874 1576 L1044 1745 L1228 1745 L960 1475 L757 1475 L603 1745 Z " />
<glyph glyph-name="uni01CE" unicode="&#x1ce;" horiz-adv-x="1103" d="M416 1410 L588 1410 L662 1231 L822 1410 L1004 1410 L736 1126 L560 1126 L416 1410 Z M988 157 L953 0 Q852 -27 788 -27 Q733 -27 696 7 Q652 47 652 97 L652 99 Q576 33 501 5 Q415 -27 322 -27 Q179 -27 94.5 46 Q10 119 10 243 Q10 394 113 475 Q224 562 424 578 L640 595 Q759 604 759 726 Q759 844 589 844 Q482 844 427 809 Q372 774 345 689 L138 689 Q160 783 190 833 Q301 1017 609 1017 Q802 1017 889 959.5 Q976 902 976 774 Q976 724 958 637 L879 262 Q877 253 872 231 Q866 207 866 189 Q866 145 913 145 Q928 145 988 157 Z M715 486 L711 490 Q682 464 646.5 456 Q611 448 477 437 Q228 416 228 278 Q228 146 408 146 Q538 146 614 228 Q653 271 674.5 326 Q696 381 715 486 Z " />
<glyph glyph-name="uni01D1" unicode="&#x1d1;" horiz-adv-x="1487" d="M870 1397 Q1083 1397 1233 1293 Q1455 1138 1455 814 Q1455 646 1403 491.5 Q1351 337 1254 219 Q1125 61 949 6 Q834 -31 703 -31 Q381 -31 226 191 Q119 344 119 574 Q119 776 197 955 Q303 1199 510 1309 Q675 1397 870 1397 Z M861 1202 Q657 1202 524 1055 Q446 969 401 839 Q356 709 356 569 Q356 380 453 271.5 Q550 163 720 163 Q917 163 1050 316 Q1137 416 1180 560 Q1218 689 1218 808 Q1218 992 1123 1097 Q1028 1202 861 1202 Z M672 1745 L847 1745 L943 1576 L1113 1745 L1297 1745 L1029 1475 L826 1475 L672 1745 Z " />
<glyph glyph-name="uni01D2" unicode="&#x1d2;" horiz-adv-x="1128" d="M633 1019 Q840 1019 953.5 908.5 Q1067 798 1067 597 Q1067 477 1026.5 360 Q986 243 915 155 Q766 -29 510 -29 Q240 -29 133 148 Q68 256 68 403 Q68 547 125 681 Q193 841 326.5 930 Q460 1019 633 1019 Z M620 848 Q482 848 388 732 Q339 672 309 582 Q279 492 279 405 Q279 280 343 210.5 Q407 141 521 141 Q668 141 763 278 Q805 338 830 424.5 Q855 511 855 594 Q855 713 792.5 780.5 Q730 848 620 848 Z M470 1410 L642 1410 L716 1231 L875 1410 L1057 1410 L790 1126 L614 1126 L470 1410 Z " />
<glyph glyph-name="uni01D3" unicode="&#x1d3;" horiz-adv-x="1375" d="M1441 1365 L1268 552 Q1233 385 1201 302.5 Q1169 220 1115 154 Q964 -32 643 -32 Q422 -32 289 54 Q114 167 114 373 Q114 451 142 581 L309 1365 L545 1365 L378 581 Q351 454 351 400 Q351 281 433 221 Q512 164 646 164 Q861 164 948 300 Q973 339 994.5 408 Q1016 477 1042 600 L1205 1365 L1441 1365 Z M642 1745 L817 1745 L914 1576 L1083 1745 L1268 1745 L999 1475 L796 1475 L642 1745 Z " />
<glyph glyph-name="uni01D4" unicode="&#x1d4;" horiz-adv-x="1113" d="M1093 990 L883 0 L678 0 L709 147 Q658 65 569.5 19 Q481 -27 375 -27 Q265 -27 184 24 Q80 90 80 228 Q80 290 102 392 L229 990 L444 990 L333 466 Q302 317 302 275 Q302 149 464 149 Q577 149 656 231.5 Q735 314 767 466 L878 990 L1093 990 Z M457 1410 L629 1410 L703 1231 L862 1410 L1044 1410 L777 1126 L601 1126 L457 1410 Z " />
<glyph glyph-name="uni01DD" unicode="&#x1dd;" horiz-adv-x="1102" d="M128 684 Q154 787 233 873 Q365 1017 600 1017 Q831 1017 944 877 Q1037 762 1037 586 Q1037 364 922 200 Q847 92 733.5 32.5 Q620 -27 489 -27 Q321 -27 212 61 Q73 174 73 395 Q73 462 86 551 L822 551 Q826 580 826 607 Q826 710 777 772 Q713 854 590 854 Q411 854 346 684 L128 684 Z M798 404 L280 404 Q279 381 279 373 Q279 276 321 217 Q378 137 497 137 Q643 137 731 259 Q778 323 798 404 Z " />
<glyph glyph-name="Gcaron" unicode="&#x1e6;" horiz-adv-x="1468" d="M1401 732 L1246 3 L1094 3 L1093 85 Q1092 121 1092 145 Q939 -31 676 -31 Q413 -31 265.5 125.5 Q118 282 118 560 Q118 788 209 980 Q305 1181 478.5 1288.5 Q652 1396 881 1396 Q1148 1396 1294 1254 Q1419 1132 1424 933 L1191 933 Q1181 1042 1135 1098 Q1053 1201 871 1201 Q643 1201 500 1023 Q434 941 395 814.5 Q356 688 356 558 Q356 362 464 255 Q556 164 719 164 Q945 164 1062 336 Q1114 413 1150 548 L775 548 L814 732 L1401 732 Z M651 1745 L826 1745 L923 1576 L1092 1745 L1277 1745 L1008 1475 L805 1475 L651 1745 Z " />
<glyph glyph-name="gcaron" unicode="&#x1e7;" horiz-adv-x="1155" d="M1136 990 L959 159 Q928 11 899.5 -70.5 Q871 -152 834 -205 Q702 -389 409 -389 Q211 -389 100 -300 Q52 -262 24 -206 Q-4 -150 -4 -93 Q-4 -87 -3 -75 L216 -75 Q217 -152 272.5 -194 Q328 -236 426 -236 Q552 -236 621 -166 Q690 -96 724 65 L742 152 Q706 88 624 48.5 Q542 9 445 9 Q314 9 218 81 Q73 190 73 407 Q73 525 113.5 644 Q154 763 222 847 Q362 1017 583 1017 Q698 1017 779 966 Q860 915 895 821 L931 990 L1136 990 Z M606 848 Q445 848 356 688 Q285 561 285 420 Q285 292 360 228 Q418 179 508 179 Q613 179 693 254 Q755 312 791.5 409 Q828 506 828 612 Q828 722 768.5 785 Q709 848 606 848 Z M443 1410 L615 1410 L689 1231 L848 1410 L1030 1410 L763 1126 L587 1126 L443 1410 Z " />
<glyph glyph-name="uni01F4" unicode="&#x1f4;" horiz-adv-x="1468" d="M1401 732 L1246 3 L1094 3 L1093 85 Q1092 121 1092 145 Q939 -31 676 -31 Q413 -31 265.5 125.5 Q118 282 118 560 Q118 788 209 980 Q305 1181 478.5 1288.5 Q652 1396 881 1396 Q1148 1396 1294 1254 Q1419 1132 1424 933 L1191 933 Q1181 1042 1135 1098 Q1053 1201 871 1201 Q643 1201 500 1023 Q434 941 395 814.5 Q356 688 356 558 Q356 362 464 255 Q556 164 719 164 Q945 164 1062 336 Q1114 413 1150 548 L775 548 L814 732 L1401 732 Z M1224 1745 L934 1475 L779 1475 L961 1745 L1224 1745 Z " />
<glyph glyph-name="uni01F5" unicode="&#x1f5;" horiz-adv-x="1155" d="M1136 990 L959 159 Q928 11 899.5 -70.5 Q871 -152 834 -205 Q702 -389 409 -389 Q211 -389 100 -300 Q52 -262 24 -206 Q-4 -150 -4 -93 Q-4 -87 -3 -75 L216 -75 Q217 -152 272.5 -194 Q328 -236 426 -236 Q552 -236 621 -166 Q690 -96 724 65 L742 152 Q706 88 624 48.5 Q542 9 445 9 Q314 9 218 81 Q73 190 73 407 Q73 525 113.5 644 Q154 763 222 847 Q362 1017 583 1017 Q698 1017 779 966 Q860 915 895 821 L931 990 L1136 990 Z M606 848 Q445 848 356 688 Q285 561 285 420 Q285 292 360 228 Q418 179 508 179 Q613 179 693 254 Q755 312 791.5 409 Q828 506 828 612 Q828 722 768.5 785 Q709 848 606 848 Z M835 1410 L551 1126 L407 1126 L588 1410 L835 1410 Z " />
<glyph glyph-name="Aringacute" unicode="&#x1fa;" horiz-adv-x="1320" d="M976 1365 L1212 0 L969 0 L914 362 L373 362 L164 0 L-97 0 L721 1365 L976 1365 Z M804 1141 Q721 977 603 771 L472 542 L889 542 L846 822 Q812 1055 804 1141 Z M851 1877 Q941 1877 1005 1807 Q1059 1747 1059 1666 Q1059 1571 989 1508 Q929 1454 848 1454 Q753 1454 690 1524 Q636 1584 636 1667 Q636 1758 706 1823 Q766 1877 851 1877 Z M849 1769 Q805 1769 774.5 1739 Q744 1709 744 1666 Q744 1623 774 1592.5 Q804 1562 848 1562 Q890 1562 920.5 1592.5 Q951 1623 951 1665 Q951 1708 921 1738.5 Q891 1769 849 1769 Z M943 2113 L654 1842 L499 1842 L681 2113 L943 2113 Z " />
<glyph glyph-name="aringacute" unicode="&#x1fb;" horiz-adv-x="1103" d="M631 1502 Q718 1502 779 1434 Q832 1376 832 1297 Q832 1206 764 1145 Q706 1092 628 1092 Q536 1092 476 1160 Q423 1218 423 1299 Q423 1387 491 1449 Q548 1502 631 1502 Z M629 1394 Q588 1394 559.5 1366 Q531 1338 531 1298 Q531 1257 559 1228.5 Q587 1200 628 1200 Q667 1200 695.5 1228.5 Q724 1257 724 1297 Q724 1336 696 1365 Q668 1394 629 1394 Z M709 1728 L425 1445 L281 1445 L463 1728 L709 1728 Z M988 157 L953 0 Q852 -27 788 -27 Q733 -27 696 7 Q652 47 652 97 L652 99 Q576 33 501 5 Q415 -27 322 -27 Q179 -27 94.5 46 Q10 119 10 243 Q10 394 113 475 Q224 562 424 578 L640 595 Q759 604 759 726 Q759 844 589 844 Q482 844 427 809 Q372 774 345 689 L138 689 Q160 783 190 833 Q301 1017 609 1017 Q802 1017 889 959.5 Q976 902 976 774 Q976 724 958 637 L879 262 Q877 253 872 231 Q866 207 866 189 Q866 145 913 145 Q928 145 988 157 Z M715 486 L711 490 Q682 464 646.5 456 Q611 448 477 437 Q228 416 228 278 Q228 146 408 146 Q538 146 614 228 Q653 271 674.5 326 Q696 381 715 486 Z " />
<glyph glyph-name="AEacute" unicode="&#x1fc;" horiz-adv-x="1858" d="M1951 1365 L1908 1164 L1254 1164 L1176 799 L1790 799 L1749 608 L1136 608 L1049 201 L1717 201 L1674 0 L770 0 L845 350 L404 350 L160 0 L-118 0 L863 1365 L1951 1365 Z M1019 1168 L969 1168 L527 530 L883 530 L1019 1168 Z M1669 1745 L1380 1475 L1225 1475 L1406 1745 L1669 1745 Z " />
<glyph glyph-name="aeacute" unicode="&#x1fd;" horiz-adv-x="1695" d="M1206 1410 L921 1126 L777 1126 L959 1410 L1206 1410 Z M749 169 Q673 89 609 51 Q476 -27 323 -27 Q179 -27 94.5 46 Q10 119 10 243 Q10 394 113 475 Q224 562 424 578 L640 595 Q759 604 759 726 Q759 844 589 844 Q482 844 427 809 Q372 774 345 689 L138 689 Q160 783 190 833 Q301 1017 608 1017 Q745 1017 828 988 Q911 959 948 898 Q1060 1017 1253 1017 Q1449 1017 1555 890 Q1643 786 1643 619 Q1643 537 1621 438 L905 438 Q896 387 896 347 Q896 260 940 208 Q1000 136 1118 136 Q1204 136 1273.5 182.5 Q1343 229 1372 307 L1588 307 Q1548 194 1460 109 Q1320 -27 1100 -27 Q816 -27 749 169 Z M932 584 L1434 584 Q1437 615 1437 637 Q1437 724 1394 781 Q1338 854 1227 854 Q1116 854 1037.5 782.5 Q959 711 932 584 Z M715 486 L711 490 Q682 464 646.5 456 Q611 448 477 437 Q228 416 228 278 Q228 146 408 146 Q538 146 614 228 Q653 271 674.5 326 Q696 381 715 486 Z " />
<glyph glyph-name="Oslashacute" unicode="&#x1fe;" horiz-adv-x="1487" d="M1567 1330 L1376 1149 Q1461 1019 1461 816 Q1461 649 1406 491.5 Q1351 334 1252 219 Q1038 -30 699 -30 Q429 -30 286 124 L97 -64 L19 35 L207 222 Q119 372 119 581 Q119 766 192 944 Q285 1171 488 1292 Q660 1395 877 1395 Q1145 1395 1295 1250 L1480 1422 L1567 1330 Z M1129 1095 Q1025 1201 864 1201 Q666 1201 531 1061 Q450 978 404 851.5 Q358 725 358 586 Q358 482 391 395 L1129 1095 Z M1188 979 L448 277 Q490 224 564 194 Q638 164 725 164 Q896 164 1030 290 Q1112 368 1166 502 Q1224 646 1224 791 Q1224 891 1188 979 Z M1101 1745 L811 1475 L656 1475 L838 1745 L1101 1745 Z " />
<glyph glyph-name="oslashacute" unicode="&#x1ff;" horiz-adv-x="1128" d="M952 1410 L668 1126 L524 1126 L706 1410 L952 1410 Z M1151 952 L1016 829 Q1069 735 1069 600 Q1069 466 1024 341.5 Q979 217 898 129 Q752 -30 512 -30 Q309 -30 195 77 L57 -52 L-6 31 L129 161 Q76 258 76 401 Q76 543 127.5 669 Q179 795 271 879 Q423 1017 637 1017 Q836 1017 952 908 L1085 1028 L1151 952 Z M808 777 Q742 853 624 853 Q459 853 358 682 Q285 559 285 398 Q285 355 295 312 L808 777 Z M851 676 L339 209 Q409 136 518 136 Q683 136 784 303 Q817 358 838.5 440 Q860 522 860 595 Q860 628 851 676 Z " />
<glyph glyph-name="uni0200" unicode="&#x200;" horiz-adv-x="1320" d="M976 1365 L1212 0 L969 0 L914 362 L373 362 L164 0 L-97 0 L721 1365 L976 1365 Z M804 1141 Q721 977 603 771 L472 542 L889 542 L846 822 Q812 1055 804 1141 Z M722 1745 L941 1745 L1092 1475 L961 1475 L722 1745 Z M388 1745 L607 1745 L757 1475 L627 1475 L388 1745 Z " />
<glyph glyph-name="uni0201" unicode="&#x201;" horiz-adv-x="1103" d="M515 1451 L735 1451 L885 1181 L755 1181 L515 1451 Z M181 1451 L400 1451 L551 1181 L420 1181 L181 1451 Z M988 157 L953 0 Q852 -27 788 -27 Q733 -27 696 7 Q652 47 652 97 L652 99 Q576 33 501 5 Q415 -27 322 -27 Q179 -27 94.5 46 Q10 119 10 243 Q10 394 113 475 Q224 562 424 578 L640 595 Q759 604 759 726 Q759 844 589 844 Q482 844 427 809 Q372 774 345 689 L138 689 Q160 783 190 833 Q301 1017 609 1017 Q802 1017 889 959.5 Q976 902 976 774 Q976 724 958 637 L879 262 Q877 253 872 231 Q866 207 866 189 Q866 145 913 145 Q928 145 988 157 Z M715 486 L711 490 Q682 464 646.5 456 Q611 448 477 437 Q228 416 228 278 Q228 146 408 146 Q538 146 614 228 Q653 271 674.5 326 Q696 381 715 486 Z " />
<glyph glyph-name="Scommaaccent" unicode="&#x218;" horiz-adv-x="1225" d="M1202 964 L973 964 Q973 1087 908.5 1144 Q844 1201 705 1201 Q608 1201 535 1168 Q482 1145 451.5 1100.5 Q421 1056 421 1003 Q421 916 500 870 Q552 840 691 803 Q832 766 899 739 Q966 712 1010 675 Q1128 574 1128 408 Q1128 208 970 86 Q826 -27 569 -27 Q270 -27 135 127 Q36 240 36 427 Q36 435 36 453 L271 453 Q270 315 327 251 Q402 166 584 166 Q722 166 801 224 Q892 291 892 393 Q892 473 840 516.5 Q788 560 650 596 Q389 665 306 733 Q188 829 188 989 Q188 1169 330 1283 Q464 1392 702 1392 Q972 1392 1101 1264 Q1203 1161 1203 996 Q1203 986 1202 964 Z M381 -414 Q435 -408 479 -380 Q523 -352 540 -312 Q531 -313 526 -313 Q478 -313 445.5 -281.5 Q413 -250 413 -204 Q413 -155 445 -121.5 Q477 -88 524 -88 Q578 -88 612.5 -131.5 Q647 -175 647 -242 Q647 -332 567 -412 Q486 -492 361 -507 L381 -414 Z " />
<glyph glyph-name="scommaaccent" unicode="&#x219;" horiz-adv-x="957" d="M907 700 L701 700 Q702 787 657 824.5 Q612 862 508 862 Q424 862 379 831 Q332 798 332 743 Q332 680 411 643 Q451 624 601 574 Q851 489 851 303 Q851 230 817 164.5 Q783 99 722 54 Q612 -27 418 -27 Q234 -27 123 51 Q4 136 4 292 Q4 301 5 317 L211 317 Q209 137 436 137 Q532 137 585 176 Q637 214 637 273 Q637 321 601 352.5 Q565 384 473 416 Q330 466 284.5 486 Q239 506 204 534 Q119 603 119 719 Q119 855 229.5 936.5 Q340 1018 525 1018 Q719 1018 821 927 Q907 850 907 722 Q907 710 907 700 Z M225 -407 Q279 -402 323 -373.5 Q367 -345 384 -305 Q374 -306 370 -306 Q322 -306 289.5 -274.5 Q257 -243 257 -197 Q257 -149 289 -115.5 Q321 -82 368 -82 Q422 -82 456.5 -125 Q491 -168 491 -235 Q491 -325 410 -405 Q330 -485 205 -500 L225 -407 Z " />
<glyph glyph-name="uni021A" unicode="&#x21a;" horiz-adv-x="1186" d="M1342 1365 L1300 1164 L861 1164 L614 0 L378 0 L625 1164 L176 1164 L219 1365 L1342 1365 Z M310 -414 Q364 -408 408 -380 Q452 -352 469 -312 Q459 -313 454 -313 Q406 -313 373.5 -281.5 Q341 -250 341 -204 Q341 -155 373 -121.5 Q405 -88 452 -88 Q506 -88 540.5 -131.5 Q575 -175 575 -242 Q575 -332 495 -412 Q414 -492 290 -507 L310 -414 Z " />
<glyph glyph-name="uni021B" unicode="&#x21b;" horiz-adv-x="646" d="M681 990 L647 830 L447 830 L344 343 Q331 284 331 264 Q331 205 349 184.5 Q367 164 419 164 Q460 164 525 174 L488 2 Q423 -10 346 -10 Q274 -10 233 -1 Q192 8 162 31 Q100 78 100 166 Q100 209 127 336 L232 830 L63 830 L97 990 L266 990 L329 1285 L549 1285 L486 990 L681 990 Z M97 -407 Q151 -402 195 -373.5 Q239 -345 256 -305 Q246 -306 241 -306 Q193 -306 160.5 -274.5 Q128 -243 128 -197 Q128 -149 160 -115.5 Q192 -82 239 -82 Q293 -82 327.5 -125 Q362 -168 362 -235 Q362 -325 282 -405 Q201 -485 77 -500 L97 -407 Z " />
<glyph glyph-name="uni0226" unicode="&#x226;" horiz-adv-x="1320" d="M976 1365 L1212 0 L969 0 L914 362 L373 362 L164 0 L-97 0 L721 1365 L976 1365 Z M804 1141 Q721 977 603 771 L472 542 L889 542 L846 822 Q812 1055 804 1141 Z M884 1745 Q939 1745 977.5 1704.5 Q1016 1664 1016 1606 Q1016 1552 977 1513.5 Q938 1475 883 1475 Q828 1475 790 1514.5 Q752 1554 752 1611 Q752 1665 791 1705 Q830 1745 884 1745 Z " />
<glyph glyph-name="uni0227" unicode="&#x227;" horiz-adv-x="1103" d="M664 1402 Q719 1402 757.5 1361.5 Q796 1321 796 1263 Q796 1209 757 1170.5 Q718 1132 663 1132 Q608 1132 570 1171.5 Q532 1211 532 1268 Q532 1322 571 1362 Q610 1402 664 1402 Z M988 157 L953 0 Q852 -27 788 -27 Q733 -27 696 7 Q652 47 652 97 L652 99 Q576 33 501 5 Q415 -27 322 -27 Q179 -27 94.5 46 Q10 119 10 243 Q10 394 113 475 Q224 562 424 578 L640 595 Q759 604 759 726 Q759 844 589 844 Q482 844 427 809 Q372 774 345 689 L138 689 Q160 783 190 833 Q301 1017 609 1017 Q802 1017 889 959.5 Q976 902 976 774 Q976 724 958 637 L879 262 Q877 253 872 231 Q866 207 866 189 Q866 145 913 145 Q928 145 988 157 Z M715 486 L711 490 Q682 464 646.5 456 Q611 448 477 437 Q228 416 228 278 Q228 146 408 146 Q538 146 614 228 Q653 271 674.5 326 Q696 381 715 486 Z " />
<glyph glyph-name="uni0237" unicode="&#x237;" horiz-adv-x="454" d="M433 990 L229 29 Q197 -124 184 -173.5 Q171 -223 156 -249 Q117 -319 56.5 -349.5 Q-4 -380 -105 -380 Q-162 -380 -218 -370 L-180 -193 Q-149 -201 -119 -201 Q-55 -201 -33 -155 Q-21 -130 14 29 L218 990 L433 990 Z " />
<glyph glyph-name="afii57929" unicode="&#x2bc;" horiz-adv-x="540" d="M256 961 Q317 969 366.5 1009 Q416 1049 435 1108 L423 1106 L418 1106 L411 1106 Q358 1106 319 1145 Q280 1184 280 1238 Q280 1296 319 1336.5 Q358 1377 415 1377 Q481 1377 523 1324.5 Q565 1272 565 1190 Q565 1076 471 972 Q421 916 366 887.5 Q311 859 232 849 L256 961 Z " />
<glyph glyph-name="circumflex" unicode="&#x2c6;" horiz-adv-x="1024" d="M942 1126 L770 1126 L696 1305 L537 1126 L355 1126 L622 1410 L798 1410 L942 1126 Z " />
<glyph glyph-name="caron" unicode="&#x2c7;" horiz-adv-x="1024" d="M418 1410 L590 1410 L664 1231 L824 1410 L1005 1410 L738 1126 L562 1126 L418 1410 Z " />
<glyph glyph-name="uni02C9" unicode="&#x2c9;" horiz-adv-x="1024" d="M993 1326 L967 1203 L366 1203 L393 1326 L993 1326 Z " />
<glyph glyph-name="breve" unicode="&#x2d8;" horiz-adv-x="1024" d="M991 1410 Q933 1124 678 1124 Q560 1124 493.5 1190 Q427 1256 427 1374 Q427 1385 428 1410 L560 1410 Q567 1252 690 1252 Q752 1252 792 1289.5 Q832 1327 859 1410 L991 1410 Z " />
<glyph glyph-name="dotaccent" unicode="&#x2d9;" horiz-adv-x="1024" d="M678 1402 Q733 1402 771.5 1361.5 Q810 1321 810 1263 Q810 1209 771 1170.5 Q732 1132 677 1132 Q622 1132 584 1171.5 Q546 1211 546 1268 Q546 1322 585 1362 Q624 1402 678 1402 Z " />
<glyph glyph-name="ring" unicode="&#x2da;" horiz-adv-x="1024" d="M634 1502 Q722 1502 783 1434 Q836 1376 836 1297 Q836 1206 768 1145 Q710 1092 631 1092 Q540 1092 479 1160 Q426 1218 426 1299 Q426 1387 494 1449 Q552 1502 634 1502 Z M632 1394 Q592 1394 563 1366 Q534 1338 534 1298 Q534 1257 562.5 1228.5 Q591 1200 631 1200 Q671 1200 699.5 1228.5 Q728 1257 728 1297 Q728 1336 699.5 1365 Q671 1394 632 1394 Z " />
<glyph glyph-name="ogonek" unicode="&#x2db;" horiz-adv-x="1024" d="M510 0 L642 0 Q565 -49 534 -86 Q503 -123 503 -165 Q503 -205 536.5 -229 Q570 -253 625 -253 Q654 -253 702 -240 L692 -348 Q625 -368 570 -368 Q473 -368 416 -324.5 Q359 -281 359 -207 Q359 -89 510 0 Z " />
<glyph glyph-name="tilde" unicode="&#x2dc;" horiz-adv-x="1024" d="M1001 1377 Q977 1271 928 1211.5 Q879 1152 815 1152 Q785 1152 758 1161 Q731 1170 631 1214 Q573 1239 548 1239 Q506 1239 471 1154 L359 1154 Q384 1260 434.5 1318 Q485 1376 552 1376 Q583 1376 609 1366.5 Q635 1357 746 1307 Q787 1288 812 1288 Q863 1288 889 1377 L1001 1377 Z " />
<glyph glyph-name="hungarumlaut" unicode="&#x2dd;" horiz-adv-x="1024" d="M1020 1410 L822 1126 L694 1126 L821 1410 L1020 1410 Z M733 1410 L528 1126 L407 1126 L534 1410 L733 1410 Z " />
<glyph glyph-name="pi" unicode="&#x3c0;" horiz-adv-x="1217" d="M93 0 L268 822 L119 822 L155 990 L1278 990 L1242 822 L1095 822 L920 0 L709 0 L884 822 L479 822 L304 0 L93 0 Z " />
<glyph glyph-name="uni1E1E" unicode="&#x1e1e;" horiz-adv-x="1119" d="M1266 1365 L1223 1164 L523 1164 L442 786 L1057 786 L1016 595 L402 595 L275 0 L39 0 L329 1365 L1266 1365 Z M838 1745 Q893 1745 931.5 1704.5 Q970 1664 970 1606 Q970 1552 931 1513.5 Q892 1475 837 1475 Q782 1475 744 1514.5 Q706 1554 706 1611 Q706 1665 745 1705 Q784 1745 838 1745 Z " />
<glyph glyph-name="Wgrave" unicode="&#x1e80;" horiz-adv-x="1790" d="M1966 1365 L1333 0 L1088 0 L1040 728 Q1036 792 1032 1055 L1031 1107 Q930 844 845 661 L541 0 L292 0 L200 1365 L438 1365 L464 728 Q472 520 472 377 Q472 328 468 247 Q526 417 672 735 L960 1365 L1203 1365 L1240 787 Q1257 526 1257 314 Q1257 301 1256 256 Q1353 518 1469 787 L1720 1365 L1966 1365 Z M1184 1475 L1040 1475 L800 1744 L1040 1744 L1184 1475 Z " />
<glyph glyph-name="wgrave" unicode="&#x1e81;" horiz-adv-x="1463" d="M1570 990 L1057 0 L828 0 L792 546 Q786 625 786 748 Q715 575 707 557 L453 0 L223 0 L110 990 L333 990 L361 652 Q385 375 385 267 Q385 245 385 221 Q418 321 471 440 L719 990 L948 990 L980 520 Q990 377 990 294 Q990 273 989 228 Q1037 362 1159 617 L1338 990 L1570 990 Z M1014 1126 L875 1126 L648 1410 L875 1410 L1014 1126 Z " />
<glyph glyph-name="Wacute" unicode="&#x1e82;" horiz-adv-x="1790" d="M1374 1775 L1090 1491 L945 1491 L1127 1775 L1374 1775 Z M1966 1365 L1333 0 L1088 0 L1040 728 Q1036 792 1032 1055 L1031 1107 Q930 844 845 661 L541 0 L292 0 L200 1365 L438 1365 L464 728 Q472 520 472 377 Q472 328 468 247 Q526 417 672 735 L960 1365 L1203 1365 L1240 787 Q1257 526 1257 314 Q1257 301 1256 256 Q1353 518 1469 787 L1720 1365 L1966 1365 Z " />
<glyph glyph-name="wacute" unicode="&#x1e83;" horiz-adv-x="1463" d="M1570 990 L1057 0 L828 0 L792 546 Q786 625 786 748 Q715 575 707 557 L453 0 L223 0 L110 990 L333 990 L361 652 Q385 375 385 267 Q385 245 385 221 Q418 321 471 440 L719 990 L948 990 L980 520 Q990 377 990 294 Q990 273 989 228 Q1037 362 1159 617 L1338 990 L1570 990 Z M1115 1410 L831 1126 L687 1126 L868 1410 L1115 1410 Z " />
<glyph glyph-name="Wdieresis" unicode="&#x1e84;" horiz-adv-x="1790" d="M1966 1365 L1333 0 L1088 0 L1040 728 Q1036 792 1032 1055 L1031 1107 Q930 844 845 661 L541 0 L292 0 L200 1365 L438 1365 L464 728 Q472 520 472 377 Q472 328 468 247 Q526 417 672 735 L960 1365 L1203 1365 L1240 787 Q1257 526 1257 314 Q1257 301 1256 256 Q1353 518 1469 787 L1720 1365 L1966 1365 Z M901 1745 Q956 1745 994.5 1704.5 Q1033 1664 1033 1606 Q1033 1552 993.5 1513.5 Q954 1475 900 1475 Q845 1475 807 1514.5 Q769 1554 769 1611 Q769 1665 808 1705 Q847 1745 901 1745 Z M1324 1745 Q1379 1745 1417.5 1704.5 Q1456 1664 1456 1606 Q1456 1552 1417 1513.5 Q1378 1475 1323 1475 Q1268 1475 1230 1514.5 Q1192 1554 1192 1611 Q1192 1666 1231 1705.5 Q1270 1745 1324 1745 Z " />
<glyph glyph-name="wdieresis" unicode="&#x1e85;" horiz-adv-x="1463" d="M1570 990 L1057 0 L828 0 L792 546 Q786 625 786 748 Q715 575 707 557 L453 0 L223 0 L110 990 L333 990 L361 652 Q385 375 385 267 Q385 245 385 221 Q418 321 471 440 L719 990 L948 990 L980 520 Q990 377 990 294 Q990 273 989 228 Q1037 362 1159 617 L1338 990 L1570 990 Z M700 1402 Q755 1402 793.5 1361.5 Q832 1321 832 1263 Q832 1209 793 1170.5 Q754 1132 699 1132 Q644 1132 606 1171.5 Q568 1211 568 1268 Q568 1322 607 1362 Q646 1402 700 1402 Z M1069 1402 Q1124 1402 1162.5 1361.5 Q1201 1321 1201 1263 Q1201 1209 1162 1170.5 Q1123 1132 1068 1132 Q1013 1132 975 1171.5 Q937 1211 937 1268 Q937 1322 976 1362 Q1015 1402 1069 1402 Z " />
<glyph glyph-name="Ygrave" unicode="&#x1ef2;" horiz-adv-x="1186" d="M1403 1365 L737 530 L624 0 L388 0 L503 544 L159 1365 L410 1365 L574 942 L595 882 Q640 761 648 736 Q709 830 775 917 L1119 1365 L1403 1365 Z M922 1475 L779 1475 L538 1744 L778 1744 L922 1475 Z " />
<glyph glyph-name="ygrave" unicode="&#x1ef3;" horiz-adv-x="933" d="M1045 990 L556 104 Q413 -156 351 -238 Q295 -313 224.5 -347 Q154 -381 56 -381 Q-11 -381 -78 -365 L-40 -186 Q18 -202 67 -202 Q133 -202 176 -142 Q193 -119 221 -58 Q272 51 270 61 L103 990 L330 990 L386 608 Q421 374 434 223 Q492 370 581 543 L812 990 L1045 990 Z M748 1126 L609 1126 L382 1410 L609 1410 L748 1126 Z " />
<glyph glyph-name="uni2011" unicode="&#x2011;" horiz-adv-x="519" d="M546 607 L504 410 L-15 410 L27 607 L546 607 Z " />
<glyph glyph-name="figuredash" unicode="&#x2012;" horiz-adv-x="1106" d="M1037 607 L1036 410 L81 410 L82 607 L1037 607 Z " />
<glyph glyph-name="endash" unicode="&#x2013;" horiz-adv-x="1106" d="M1037 607 L1036 410 L81 410 L82 607 L1037 607 Z " />
<glyph glyph-name="emdash" unicode="&#x2014;" horiz-adv-x="1490" d="M1476 607 L1475 410 L26 410 L27 607 L1476 607 Z " />
<glyph glyph-name="afii00208" unicode="&#x2015;" horiz-adv-x="1490" d="M1476 607 L1475 410 L26 410 L27 607 L1476 607 Z " />
<glyph glyph-name="underscoredbl" unicode="&#x2017;" horiz-adv-x="1024" d="M43 -114 L1067 -114 L1067 -217 L43 -217 L43 -114 Z M43 -352 L1067 -352 L1067 -456 L43 -456 L43 -352 Z " />
<glyph glyph-name="quoteleft" unicode="&#x2018;" horiz-adv-x="540" d="M546 1292 Q485 1284 435.5 1244 Q386 1204 367 1146 L379 1147 L384 1147 L391 1147 Q444 1147 483 1108 Q522 1069 522 1015 Q522 957 483 916.5 Q444 876 387 876 Q321 876 279 928.5 Q237 981 237 1063 Q237 1177 331 1281 Q381 1337 436.5 1365.5 Q492 1394 570 1404 L546 1292 Z " />
<glyph glyph-name="quoteright" unicode="&#x2019;" horiz-adv-x="540" d="M256 961 Q317 969 366.5 1009 Q416 1049 435 1108 L423 1106 L418 1106 L411 1106 Q358 1106 319 1145 Q280 1184 280 1238 Q280 1296 319 1336.5 Q358 1377 415 1377 Q481 1377 523 1324.5 Q565 1272 565 1190 Q565 1076 471 972 Q421 916 366 887.5 Q311 859 232 849 L256 961 Z " />
<glyph glyph-name="quotesinglbase" unicode="&#x201a;" horiz-adv-x="540" d="M18 -154 Q79 -146 128.5 -106 Q178 -66 197 -8 L185 -9 L180 -9 L173 -9 Q120 -9 81 30 Q42 69 42 123 Q42 181 81 221.5 Q120 262 177 262 Q243 262 285 209.5 Q327 157 327 75 Q327 -40 233 -143 Q183 -199 127.5 -227.5 Q72 -256 -6 -266 L18 -154 Z " />
<glyph glyph-name="quotereversed" unicode="&#x201b;" horiz-adv-x="540" d="M557 922 L526 811 Q359 930 359 1132 Q359 1248 429 1323 Q482 1380 547 1380 Q603 1380 642.5 1340.5 Q682 1301 682 1245 Q682 1187 643.5 1147.5 Q605 1108 547 1108 Q504 1108 467 1135 Q463 1113 463 1101 Q463 1048 488 1000.5 Q513 953 557 922 Z " />
<glyph glyph-name="quotedblleft" unicode="&#x201c;" horiz-adv-x="898" d="M532 1269 Q471 1261 421.5 1221 Q372 1181 353 1123 L365 1124 L370 1124 L377 1124 Q430 1124 469 1085 Q508 1046 508 992 Q508 934 469 893.5 Q430 853 373 853 Q307 853 265 905.5 Q223 958 223 1040 Q223 1154 317 1258 Q367 1314 422.5 1342.5 Q478 1371 556 1381 L532 1269 Z M909 1269 Q848 1261 798.5 1221 Q749 1181 730 1123 L742 1124 L747 1124 L754 1124 Q807 1124 846 1085 Q885 1046 885 992 Q885 934 846 893.5 Q807 853 750 853 Q684 853 642 905.5 Q600 958 600 1040 Q600 1154 694 1258 Q744 1314 799.5 1342.5 Q855 1371 933 1381 L909 1269 Z " />
<glyph glyph-name="quotedblright" unicode="&#x201d;" horiz-adv-x="898" d="M247 966 Q308 973 357.5 1013.5 Q407 1054 426 1112 L414 1111 L409 1111 L402 1111 Q349 1111 310 1149.5 Q271 1188 271 1242 Q271 1300 310 1340.5 Q349 1381 406 1381 Q472 1381 514 1328.5 Q556 1276 556 1194 Q556 1080 462 976 Q412 920 357 892 Q302 864 223 853 L247 966 Z M624 966 Q685 973 734.5 1013.5 Q784 1054 803 1112 L791 1111 L786 1111 L779 1111 Q726 1111 687 1149.5 Q648 1188 648 1242 Q648 1300 687 1340.5 Q726 1381 783 1381 Q849 1381 891 1328.5 Q933 1276 933 1194 Q933 1080 839 976 Q789 920 734 892 Q679 864 600 853 L624 966 Z " />
<glyph glyph-name="quotedblbase" unicode="&#x201e;" horiz-adv-x="898" d="M8 -156 Q69 -149 118.5 -108.5 Q168 -68 187 -10 L175 -11 L170 -11 L163 -11 Q110 -11 71 28 Q32 67 32 120 Q32 178 71 218.5 Q110 259 167 259 Q233 259 275 206.5 Q317 154 317 72 Q317 -42 223 -146 Q173 -201 117.5 -229.5 Q62 -258 -16 -269 L8 -156 Z M385 -156 Q446 -149 495.5 -108.5 Q545 -68 564 -10 L552 -11 L547 -11 L540 -11 Q487 -11 448 28 Q409 67 409 120 Q409 178 448 218.5 Q487 259 544 259 Q610 259 652 206.5 Q694 154 694 72 Q694 -42 600 -146 Q550 -201 494.5 -229.5 Q439 -258 361 -269 L385 -156 Z " />
<glyph glyph-name="dagger" unicode="&#x2020;" horiz-adv-x="1106" d="M846 1365 L755 935 L1118 935 L1079 752 L716 752 L478 -366 L267 -366 L504 752 L142 752 L181 935 L543 935 L635 1365 L846 1365 Z " />
<glyph glyph-name="daggerdbl" unicode="&#x2021;" horiz-adv-x="1106" d="M843 1365 L759 972 L1125 972 L1088 795 L722 795 L595 200 L961 200 L924 23 L558 23 L475 -366 L270 -366 L353 23 L-13 23 L25 200 L391 200 L517 795 L151 795 L189 972 L555 972 L638 1365 L843 1365 Z " />
<glyph glyph-name="bullet" unicode="&#x2022;" horiz-adv-x="1365" d="M730 982 Q842 982 924 899 Q1007 815 1007 696 Q1007 578 925 494 Q842 410 726 410 Q610 410 528 493 Q444 577 444 696 Q444 817 528 899 Q612 982 730 982 Z " />
<glyph glyph-name="ellipsis" unicode="&#x2026;" horiz-adv-x="1618" d="M195 263 Q250 263 288.5 222.5 Q327 182 327 124 Q327 70 288 31.5 Q249 -7 194 -7 Q139 -7 101 32.5 Q63 72 63 129 Q63 183 102 223 Q141 263 195 263 Z M734 263 Q789 263 827.5 222.5 Q866 182 866 124 Q866 70 827 31.5 Q788 -7 733 -7 Q678 -7 640 32.5 Q602 72 602 129 Q602 184 641 223.5 Q680 263 734 263 Z M1274 263 Q1329 263 1367.5 222.5 Q1406 182 1406 124 Q1406 70 1367 31.5 Q1328 -7 1273 -7 Q1218 -7 1180 32.5 Q1142 72 1142 129 Q1142 184 1181 223.5 Q1220 263 1274 263 Z " />
<glyph glyph-name="perthousand" unicode="&#x2030;" horiz-adv-x="2457" d="M518 1367 Q649 1367 722.5 1290.5 Q796 1214 796 1077 Q796 935 725 811 Q618 626 415 626 Q289 626 216.5 705 Q144 784 144 921 Q144 1109 247 1238 Q349 1367 518 1367 Z M517 1242 Q397 1242 340 1085 Q307 994 307 898 Q307 827 338.5 789 Q370 751 429 751 Q484 751 533 800 Q633 899 633 1075 Q633 1242 517 1242 Z M418 -42 L253 -42 L1347 1382 L1511 1382 L418 -42 Z M1335 714 Q1467 714 1540 638 Q1613 562 1613 426 Q1613 280 1543 159 Q1435 -27 1235 -27 Q1108 -27 1035 52 Q962 131 962 267 Q962 460 1064 586 Q1168 714 1335 714 Z M1335 590 Q1215 590 1157 432 Q1125 346 1125 244 Q1125 173 1156 135.5 Q1187 98 1244 98 Q1304 98 1351 147 Q1450 250 1450 420 Q1450 590 1335 590 Z M2120 714 Q2252 714 2325 638 Q2398 562 2398 426 Q2398 280 2328 159 Q2220 -27 2020 -27 Q1893 -27 1820 52 Q1747 131 1747 267 Q1747 460 1849 586 Q1953 714 2120 714 Z M2120 590 Q2001 590 1942 432 Q1910 346 1910 244 Q1910 173 1941 135.5 Q1972 98 2029 98 Q2089 98 2136 147 Q2235 250 2235 420 Q2235 590 2120 590 Z " />
<glyph glyph-name="guilsinglleft" unicode="&#x2039;" horiz-adv-x="505" d="M464 849 L422 647 L203 517 L358 347 L320 167 L81 431 L126 642 L464 849 Z " />
<glyph glyph-name="guilsinglright" unicode="&#x203a;" horiz-adv-x="506" d="M197 849 L436 583 L392 375 L52 167 L95 369 L314 499 L159 669 L197 849 Z " />
<glyph glyph-name="uni203E" unicode="&#x203e;" horiz-adv-x="1024" d="M43 1772 L1067 1772 L1067 1629 L43 1629 L43 1772 Z " />
<glyph glyph-name="fraction" unicode="&#x2044;" horiz-adv-x="318" d="M643 1347 L-104 0 L-244 0 L506 1347 L643 1347 Z " />
<glyph glyph-name="zerosuperior" unicode="&#x2070;" horiz-adv-x="731" d="M527 1360 Q653 1360 721 1283.5 Q789 1207 789 1066 Q789 969 761 869 Q733 769 686 696 Q579 532 404 532 Q276 532 210 613 Q141 698 141 834 Q141 933 171 1035 Q201 1137 252 1212 Q354 1360 527 1360 Z M516 1240 Q417 1240 357 1114 Q328 1054 309.5 970 Q291 886 291 817 Q291 652 418 652 Q496 652 544 725 Q585 788 612 887.5 Q639 987 639 1075 Q639 1240 516 1240 Z " />
<glyph glyph-name="foursuperior" unicode="&#x2074;" horiz-adv-x="731" d="M765 851 L740 733 L625 733 L586 546 L437 546 L477 733 L96 733 L123 859 L620 1359 L759 1359 L651 851 L765 851 Z M509 844 L580 1177 L255 844 L509 844 Z " />
<glyph glyph-name="fivesuperior" unicode="&#x2075;" horiz-adv-x="731" d="M779 1347 L753 1223 L399 1223 L345 1054 Q418 1090 488 1090 Q601 1090 671.5 1021.5 Q742 953 742 844 Q742 722 655 631 Q562 532 400 532 Q264 532 189 597 Q114 662 114 768 Q114 773 114 783 L262 783 Q272 652 408 652 Q487 652 537 702.5 Q587 753 587 834 Q587 899 547.5 937 Q508 975 439 975 Q344 975 295 904 L162 907 L299 1347 L779 1347 Z " />
<glyph glyph-name="sixsuperior" unicode="&#x2076;" horiz-adv-x="731" d="M808 1137 L660 1137 Q656 1173 646 1194 Q621 1246 543 1246 Q468 1246 419 1193.5 Q370 1141 327 1017 Q372 1052 410 1066 Q448 1080 501 1080 Q614 1080 685 1011.5 Q756 943 756 835 Q756 705 665.5 618.5 Q575 532 439 532 Q304 532 226.5 613.5 Q149 695 149 838 Q149 927 176 1024.5 Q203 1122 246 1190 Q355 1361 552 1361 Q672 1361 740 1301 Q808 1241 808 1137 Z M461 966 Q388 966 344 919 Q300 872 300 796 Q300 729 339.5 689 Q379 649 444 649 Q514 649 559 698 Q604 747 604 824 Q604 890 566 928 Q528 966 461 966 Z " />
<glyph glyph-name="sevensuperior" unicode="&#x2077;" horiz-adv-x="731" d="M832 1347 L807 1229 Q662 1096 552 917 Q442 738 387 546 L219 546 Q264 715 380 900 Q438 991 486 1050 Q534 1109 634 1211 L638 1215 Q591 1214 556 1214 L214 1214 L242 1347 L832 1347 Z " />
<glyph glyph-name="eightsuperior" unicode="&#x2078;" horiz-adv-x="731" d="M631 971 Q691 936 713 901 Q743 852 743 792 Q743 678 652.5 605 Q562 532 421 532 Q283 532 200.5 598 Q118 664 118 774 Q118 855 165 907.5 Q212 960 308 988 Q258 1020 237.5 1054.5 Q217 1089 217 1140 Q217 1237 295 1299 Q373 1361 495 1361 Q644 1361 720 1280 Q769 1227 769 1154 Q769 1089 735.5 1045 Q702 1001 631 971 Z M495 1248 Q431 1248 395 1217 Q359 1186 359 1131 Q359 1082 394.5 1053.5 Q430 1025 491 1025 Q553 1025 588.5 1055.5 Q624 1086 624 1139 Q624 1190 589.5 1219 Q555 1248 495 1248 Z M439 921 Q362 921 317 882 Q272 843 272 776 Q272 715 313 679.5 Q354 644 424 644 Q499 644 544 685 Q589 726 589 794 Q589 854 549.5 887.5 Q510 921 439 921 Z " />
<glyph glyph-name="ninesuperior" unicode="&#x2079;" horiz-adv-x="731" d="M128 756 L270 756 Q283 647 395 647 Q478 647 524.5 699 Q571 751 603 882 Q558 844 518.5 829 Q479 814 425 814 Q352 814 296 844 Q173 909 173 1057 Q173 1176 251 1261 Q342 1360 495 1360 Q628 1360 701.5 1280.5 Q775 1201 775 1057 Q775 824 666 670 Q567 532 395 532 Q270 532 200 590.5 Q130 649 128 756 Z M489 1242 Q418 1242 370 1191 Q322 1140 322 1063 Q322 1000 359 963.5 Q396 927 461 927 Q534 927 579 975 Q624 1023 624 1101 Q624 1166 588 1204 Q552 1242 489 1242 Z " />
<glyph glyph-name="zeroinferior" unicode="&#x2080;" horiz-adv-x="731" d="M411 814 Q537 814 605 737.5 Q673 661 673 520 Q673 423 645 323 Q617 223 570 150 Q463 -14 288 -14 Q160 -14 94 67 Q25 152 25 288 Q25 387 55 489 Q85 591 136 666 Q238 814 411 814 Z M400 694 Q301 694 241 568 Q212 509 193.5 424.5 Q175 340 175 271 Q175 106 302 106 Q380 106 428 179 Q469 242 496 341.5 Q523 441 523 529 Q523 694 400 694 Z " />
<glyph glyph-name="oneinferior" unicode="&#x2081;" horiz-adv-x="731" d="M577 810 L405 0 L247 0 L369 574 Q282 560 196 560 Q178 560 155 561 L178 669 Q378 672 457 810 L577 810 Z " />
<glyph glyph-name="twoinferior" unicode="&#x2082;" horiz-adv-x="731" d="M613 124 L587 0 L-16 0 Q-12 98 49 180 Q87 230 134 263 Q181 296 328 376 Q441 437 480.5 478.5 Q520 520 520 576 Q520 629 484 660 Q448 691 387 691 Q237 691 222 517 L78 517 Q90 659 174 737 Q258 815 399 815 Q529 815 603 750 Q674 686 674 586 Q674 468 573 385 Q538 356 507 336.5 Q476 317 325 231 Q222 172 184 122 Q233 124 289 124 L613 124 Z " />
<glyph glyph-name="threeinferior" unicode="&#x2083;" horiz-adv-x="731" d="M144 275 Q143 260 143 248 Q143 110 295 110 Q370 110 417 151 Q464 192 464 257 Q464 370 316 370 Q293 370 264 368 L288 478 Q317 478 327 478 Q508 478 508 597 Q508 642 473.5 668.5 Q439 695 379 695 Q246 695 220 549 L77 549 Q94 675 176.5 745 Q259 815 393 815 Q514 815 588 755 Q658 698 658 611 Q658 479 520 425 Q620 371 620 264 Q620 142 526 64 Q432 -14 287 -14 Q156 -14 76.5 53 Q-3 120 -3 230 Q-3 247 -1 275 L144 275 Z " />
<glyph glyph-name="fourinferior" unicode="&#x2084;" horiz-adv-x="731" d="M649 305 L624 187 L509 187 L470 0 L321 0 L361 187 L-20 187 L7 313 L504 813 L643 813 L535 305 L649 305 Z M393 298 L464 631 L139 298 L393 298 Z " />
<glyph glyph-name="fiveinferior" unicode="&#x2085;" horiz-adv-x="731" d="M663 801 L637 677 L283 677 L229 508 Q302 544 372 544 Q485 544 555.5 475.5 Q626 407 626 298 Q626 176 539 85 Q446 -14 284 -14 Q148 -14 73 51 Q-2 116 -2 222 Q-2 227 -2 237 L146 237 Q156 106 292 106 Q371 106 421 156.5 Q471 207 471 288 Q471 353 431.5 391 Q392 429 323 429 Q228 429 179 358 L46 361 L183 801 L663 801 Z " />
<glyph glyph-name="sixinferior" unicode="&#x2086;" horiz-adv-x="731" d="M692 590 L544 590 Q540 626 530 647 Q505 699 427 699 Q353 699 303.5 646.5 Q254 594 211 470 Q256 506 294 519.5 Q332 533 385 533 Q498 533 569 464.5 Q640 396 640 288 Q640 158 549.5 72 Q459 -14 323 -14 Q188 -14 110.5 67.5 Q33 149 33 292 Q33 380 60 477.5 Q87 575 130 643 Q239 815 436 815 Q555 815 623.5 755 Q692 695 692 590 Z M345 420 Q272 420 228 373 Q184 326 184 250 Q184 183 223.5 143 Q263 103 328 103 Q398 103 443 152 Q488 201 488 278 Q488 344 450 382 Q412 420 345 420 Z " />
<glyph glyph-name="seveninferior" unicode="&#x2087;" horiz-adv-x="731" d="M716 801 L691 683 Q546 550 436 371 Q326 192 271 0 L103 0 Q148 169 264 354 Q322 445 370 504 Q418 563 518 665 L522 669 Q475 668 440 668 L98 668 L126 801 L716 801 Z " />
<glyph glyph-name="eightinferior" unicode="&#x2088;" horiz-adv-x="731" d="M515 425 Q575 390 597 355 Q627 306 627 246 Q627 132 536.5 59 Q446 -14 305 -14 Q167 -14 84.5 52 Q2 118 2 228 Q2 309 49 361.5 Q96 414 192 441 Q142 473 121.5 508 Q101 543 101 594 Q101 691 179 753 Q257 815 379 815 Q528 815 604 734 Q653 681 653 608 Q653 543 619.5 498.5 Q586 454 515 425 Z M379 702 Q315 702 279 671 Q243 640 243 585 Q243 536 278.5 507.5 Q314 479 375 479 Q437 479 472.5 509.5 Q508 540 508 593 Q508 644 473.5 673 Q439 702 379 702 Z M323 375 Q246 375 201 336 Q156 297 156 230 Q156 169 197 133.5 Q238 98 308 98 Q383 98 428 139 Q473 180 473 248 Q473 308 433.5 341.5 Q394 375 323 375 Z " />
<glyph glyph-name="nineinferior" unicode="&#x2089;" horiz-adv-x="731" d="M12 210 L154 210 Q167 101 279 101 Q362 101 408.5 153 Q455 205 487 336 Q442 298 402.5 283 Q363 268 309 268 Q236 268 180 298 Q57 363 57 511 Q57 630 135 715 Q226 814 379 814 Q512 814 585.5 734.5 Q659 655 659 511 Q659 278 550 124 Q451 -14 279 -14 Q154 -14 84 44.5 Q14 103 12 210 Z M373 696 Q302 696 254 645 Q206 594 206 517 Q206 454 243 417.5 Q280 381 345 381 Q418 381 463 429 Q508 477 508 555 Q508 620 472 658 Q436 696 373 696 Z " />
<glyph glyph-name="franc" unicode="&#x20a3;" horiz-adv-x="1324" d="M1184 1365 L1142 1168 L511 1168 L430 769 L799 769 L759 582 L390 582 L269 0 L40 0 L324 1365 L1184 1365 Z M1403 791 L1362 595 Q1313 604 1281 604 Q1157 604 1069 507 Q998 429 964 266 L909 0 L716 0 L876 773 L1061 773 L1023 591 Q1135 797 1333 797 Q1362 797 1403 791 Z " />
<glyph glyph-name="lira" unicode="&#x20a4;" horiz-adv-x="1106" d="M277 406 L58 406 L82 522 L287 522 Q284 560 253 711 L121 711 L146 827 L226 827 Q222 843 220 851 Q206 906 206 950 Q206 1091 295 1208 Q429 1386 682 1386 Q879 1386 997.5 1272 Q1116 1158 1116 969 Q1116 950 1114 923 L902 923 Q903 948 903 955 Q903 1070 851 1131 Q792 1201 681 1201 Q546 1201 474 1091 Q430 1026 430 948 Q430 913 448 827 L774 827 L749 711 L474 711 Q496 610 497 522 L710 522 L685 406 L481 406 Q460 347 426 306 Q375 245 287 172 Q401 218 472 218 Q522 218 599 194 Q723 157 767 157 Q812 157 846 171 Q880 185 955 235 L1023 61 Q884 -36 745 -36 Q674 -36 525 12 Q409 50 341 50 Q290 50 251.5 35.5 Q213 21 119 -33 L50 135 Q236 273 277 406 Z " />
<glyph glyph-name="peseta" unicode="&#x20a7;" horiz-adv-x="1789" d="M324 1365 L606 1365 Q818 1365 909 1310 Q1073 1212 1073 991 Q1073 829 988 703 Q915 594 807.5 553 Q700 512 487 512 L376 512 L269 0 L40 0 L324 1365 Z M513 1174 L415 699 L489 699 Q599 699 652 709.5 Q705 720 742 749 Q787 784 813.5 842.5 Q840 901 840 966 Q840 1081 767 1135 Q715 1174 546 1174 L513 1174 Z M1243 509 L1220 404 L1115 404 L1068 176 Q1062 149 1062 137 Q1062 98 1097 98 Q1122 98 1168 108 L1145 -5 Q1099 -14 1053 -14 Q912 -14 912 87 Q912 110 925 173 L973 404 L884 404 L906 509 L996 509 L1026 659 L1170 659 L1140 509 L1243 509 Z M1726 340 L1589 340 Q1589 388 1569.5 405.5 Q1550 423 1497 423 Q1422 423 1422 381 Q1422 360 1443.5 348 Q1465 336 1558 307 Q1700 261 1700 158 Q1700 76 1633.5 27 Q1567 -22 1457 -22 Q1355 -22 1293 19 Q1223 65 1223 151 Q1223 159 1225 177 L1361 177 Q1362 136 1377 117 Q1403 85 1471 85 Q1559 85 1559 136 Q1559 170 1478 197 Q1361 235 1332 258 Q1281 296 1281 362 Q1281 437 1344 481.5 Q1407 526 1511 526 Q1613 526 1669.5 483 Q1726 440 1726 362 Q1726 347 1726 340 Z " />
<glyph glyph-name="Euro" unicode="&#x20ac;" horiz-adv-x="1402" d="M251 420 L27 420 L161 600 L238 600 Q240 640 246 679 L84 679 L218 859 L286 859 Q335 1016 430 1133 Q635 1387 985 1387 Q1308 1387 1450 1156 L1301 958 Q1272 1080 1190.5 1137 Q1109 1194 962 1194 Q818 1194 707 1108 Q596 1022 531 859 L1229 859 L1095 679 L482 679 Q475 636 474 600 L1031 600 L897 420 L490 420 Q524 295 609 229.5 Q694 164 823 164 Q1050 164 1159 343 L1092 21 Q966 -30 809 -30 Q487 -30 338 193 Q275 289 251 420 Z " />
<glyph glyph-name="uni2101" unicode="&#x2101;" horiz-adv-x="2053" d="M1535 1408 L771 -42 L638 -42 L1402 1408 L1535 1408 Z M730 1365 L893 546 L725 546 L687 760 L356 760 L227 546 L48 546 L560 1365 L730 1365 Z M613 1204 Q558 1104 500 1006 L425 880 L668 880 L640 1036 Q617 1166 613 1204 Z M1934 582 L1777 582 Q1775 658 1736.5 690.5 Q1698 723 1612 723 Q1534 723 1488.5 694 Q1443 665 1443 615 Q1443 572 1477 549 Q1511 526 1610 501 Q1765 464 1814 425 Q1893 364 1893 260 Q1893 139 1796.5 68.5 Q1700 -2 1536 -2 Q1317 -2 1234 120 Q1209 156 1200.5 192 Q1192 228 1191 295 L1353 295 Q1354 228 1374 193 Q1413 126 1542 126 Q1631 126 1678 158 Q1730 194 1730 252 Q1730 295 1697 320 Q1664 345 1580 366 Q1415 407 1360 448 Q1282 507 1282 606 Q1282 716 1372 782.5 Q1462 849 1610 849 Q1766 849 1850.5 785 Q1935 721 1935 603 Q1935 597 1934 582 Z " />
<glyph glyph-name="afii61248" unicode="&#x2105;" horiz-adv-x="1637" d="M1215 1408 L451 -42 L318 -42 L1082 1408 L1215 1408 Z M652 871 Q621 757 535 691 Q449 625 330 625 Q179 625 106 720 Q46 797 46 916 Q46 988 69.5 1066 Q93 1144 131 1199 Q240 1356 435 1356 Q560 1356 626 1295 Q692 1234 692 1118 L578 1118 Q579 1262 423 1262 Q317 1262 244 1174 Q162 1074 162 918 Q162 822 207 771 Q252 720 336 720 Q479 720 533 871 L652 871 Z M1229 741 Q1376 741 1453 658 Q1520 585 1520 452 Q1520 275 1417 143 Q1312 8 1138 8 Q997 8 919.5 86 Q842 164 842 305 Q842 395 873 479.5 Q904 564 957 622 Q1068 741 1229 741 Z M1223 646 Q1114 646 1040 556 Q955 453 955 310 Q955 236 988 181 Q1036 103 1145 103 Q1260 103 1336 212 Q1406 313 1406 448 Q1406 540 1357 593 Q1308 646 1223 646 Z " />
<glyph glyph-name="afii61289" unicode="&#x2113;" horiz-adv-x="1024" d="M557 536 Q503 246 503 144 Q503 92 535 92 Q557 92 576 114 Q595 136 623 192 Q644 233 668 233 Q703 233 703 194 Q703 142 655 69 Q583 -41 485 -41 Q381 -41 342 57 Q324 103 324 187 Q324 245 333 367 Q259 284 234 284 Q223 284 212.5 300 Q202 316 202 333 Q202 358 234 390 Q282 438 349 520 Q417 896 510 1123 Q614 1376 770 1376 Q840 1376 881.5 1325.5 Q923 1275 923 1191 Q923 1015 783 800 Q729 717 557 536 Z M576 669 Q697 802 761 954 Q821 1097 821 1188 Q821 1218 807.5 1238 Q794 1258 773 1258 Q721 1258 688 1169 Q636 1028 576 669 Z " />
<glyph glyph-name="afii61352" unicode="&#x2116;" horiz-adv-x="2249" d="M1442 1365 L1151 0 L904 0 L611 697 Q508 942 480 1054 Q459 898 403 635 L268 0 L40 0 L330 1365 L579 1365 L875 655 Q964 440 1002 310 Q1014 383 1031 477 L1081 739 L1214 1365 L1442 1365 Z M1868 1111 Q1957 1111 2032 1080 Q2107 1049 2150 995 Q2215 913 2215 774 Q2215 585 2092 458 Q1970 333 1785 333 Q1708 333 1635.5 362 Q1563 391 1518 441 Q1440 527 1440 672 Q1440 839 1541 960 Q1666 1111 1868 1111 Z M1870 940 Q1767 940 1707 861 Q1648 781 1648 662 Q1648 591 1681 550 Q1719 504 1792 504 Q1886 504 1941 577 Q2010 667 2010 790 Q2010 860 1975 897 Q1936 940 1870 940 Z M2070 196 L2028 0 L1330 0 L1372 196 L2070 196 Z " />
<glyph glyph-name="uni2120" unicode="&#x2120;" horiz-adv-x="1957" d="M946 1119 L784 1119 Q778 1254 636 1254 Q563 1254 517.5 1224.5 Q472 1195 472 1148 Q472 1079 618 1048 Q714 1028 797 992 Q848 970 878 926 Q908 882 908 829 Q908 711 801 632 Q700 558 538 558 Q373 558 287 651 Q252 689 237 731 Q222 773 218 846 L379 846 Q384 684 552 684 Q635 684 687.5 717.5 Q740 751 740 805 Q740 851 680 875 Q656 884 536 919 Q412 955 365 994 Q306 1043 306 1124 Q306 1244 406 1316 Q498 1382 644 1382 Q760 1382 836 1338 Q946 1274 946 1136 L946 1119 Z M1357 1365 L1453 811 L1780 1365 L2017 1365 L1850 577 L1695 577 L1823 1185 L1820 1185 L1466 577 L1353 577 L1254 1185 L1251 1185 L1122 577 L967 577 L1133 1365 L1357 1365 Z " />
<glyph glyph-name="trademark" unicode="&#x2122;" horiz-adv-x="1770" d="M832 1368 L805 1240 L569 1240 L430 578 L269 578 L408 1240 L173 1240 L200 1368 L832 1368 Z M1170 1368 L1267 811 L1593 1368 L1831 1368 L1666 578 L1510 578 L1638 1187 L1634 1187 L1279 578 L1167 578 L1068 1187 L1063 1187 L935 578 L781 578 L946 1368 L1170 1368 Z " />
<glyph glyph-name="Omega" unicode="&#x2126;" horiz-adv-x="1364" d="M100 0 L100 196 L430 196 Q95 396 95 750 Q95 1047 315 1243 Q489 1398 725 1398 Q962 1398 1136 1243 Q1356 1047 1356 749 Q1356 397 1021 196 L1351 196 L1351 0 L809 0 L809 182 Q928 245 1001 339 Q1127 504 1127 709 Q1127 934 986 1082 Q874 1199 726 1199 Q578 1199 465 1082 Q324 935 324 711 Q324 352 642 182 L642 0 L100 0 Z " />
<glyph glyph-name="estimated" unicode="&#x212e;" horiz-adv-x="1219" d="M1093 506 L328 506 L328 298 Q359 197 406 154 Q484 84 622 84 Q861 84 961 298 L1064 298 Q964 -20 619 -20 Q390 -20 263 128 Q138 273 138 521 Q138 786 275 933 Q409 1077 622 1077 Q798 1077 923 980 Q1073 863 1090 608 Q1091 586 1093 506 Z M930 591 L930 773 Q913 821 885 854 Q831 917 769 945 Q707 973 621 973 Q484 973 406 890 Q370 853 333 773 L333 591 L930 591 Z " />
<glyph glyph-name="onethird" unicode="&#x2153;" horiz-adv-x="1779" d="M693 1356 L521 546 L363 546 L485 1120 Q398 1106 312 1106 Q294 1106 271 1107 L294 1215 Q494 1218 573 1356 L693 1356 Z M1374 1347 L628 0 L487 0 L1237 1347 L1374 1347 Z M1193 275 Q1191 260 1191 248 Q1191 110 1343 110 Q1418 110 1465 151 Q1512 192 1512 257 Q1512 370 1364 370 Q1342 370 1313 368 L1336 478 Q1366 478 1376 478 Q1475 478 1515 508 Q1557 541 1557 597 Q1557 642 1522 668.5 Q1487 695 1428 695 Q1295 695 1269 549 L1126 549 Q1142 675 1225 745 Q1308 815 1442 815 Q1563 815 1637 755 Q1707 698 1707 611 Q1707 479 1568 425 Q1668 372 1668 264 Q1668 142 1574 64 Q1480 -14 1335 -14 Q1204 -14 1124.5 53 Q1045 120 1045 230 Q1045 249 1048 275 L1193 275 Z " />
<glyph glyph-name="twothirds" unicode="&#x2154;" horiz-adv-x="1779" d="M729 671 L703 547 L100 547 Q104 645 165 727 Q203 776 251.5 810.5 Q300 845 444 923 Q557 983 596.5 1024.5 Q636 1066 636 1122 Q636 1175 600 1206 Q564 1237 503 1237 Q353 1237 338 1063 L194 1063 Q206 1205 290 1283 Q374 1361 515 1361 Q645 1361 719 1296 Q790 1232 790 1132 Q790 1014 689 931 Q654 902 623 883 Q592 864 441 778 Q338 719 300 669 Q349 671 405 671 L729 671 Z M1374 1347 L627 0 L487 0 L1237 1347 L1374 1347 Z M1192 275 Q1191 260 1191 248 Q1191 110 1343 110 Q1418 110 1465 151 Q1512 192 1512 257 Q1512 370 1364 370 Q1341 370 1312 368 L1336 478 Q1366 478 1375 478 Q1475 478 1514 508 Q1556 541 1556 597 Q1556 642 1521 668.5 Q1486 695 1427 695 Q1294 695 1268 549 L1126 549 Q1142 675 1224.5 745 Q1307 815 1441 815 Q1562 815 1636 755 Q1706 698 1706 611 Q1706 479 1568 425 Q1668 372 1668 264 Q1668 142 1574 64 Q1480 -14 1335 -14 Q1204 -14 1124.5 53 Q1045 120 1045 230 Q1045 249 1048 275 L1192 275 Z " />
<glyph glyph-name="uni2155" unicode="&#x2155;" horiz-adv-x="1780" d="M693 1356 L521 546 L363 546 L485 1120 Q398 1106 312 1106 Q294 1106 271 1107 L294 1215 Q494 1218 573 1356 L693 1356 Z M1374 1347 L628 0 L487 0 L1237 1347 L1374 1347 Z M1712 801 L1686 677 L1332 677 L1278 508 Q1351 544 1420 544 Q1533 544 1604 475.5 Q1675 407 1675 298 Q1675 177 1588 85 Q1495 -14 1334 -14 Q1197 -14 1122 51 Q1047 116 1047 222 Q1047 229 1047 237 L1195 237 Q1205 106 1341 106 Q1420 106 1470 156.5 Q1520 207 1520 288 Q1520 353 1480.5 391 Q1441 429 1372 429 Q1277 429 1228 358 L1095 361 L1232 801 L1712 801 Z " />
<glyph glyph-name="uni2156" unicode="&#x2156;" horiz-adv-x="1779" d="M729 671 L703 547 L100 547 Q104 645 165 727 Q203 776 251.5 810.5 Q300 845 444 923 Q557 983 596.5 1024.5 Q636 1066 636 1122 Q636 1175 600 1206 Q564 1237 503 1237 Q353 1237 338 1063 L194 1063 Q206 1205 290 1283 Q374 1361 515 1361 Q645 1361 719 1296 Q790 1232 790 1132 Q790 1014 689 931 Q654 902 623 883 Q592 864 441 778 Q338 719 300 669 Q349 671 405 671 L729 671 Z M1374 1347 L627 0 L487 0 L1237 1347 L1374 1347 Z M1711 801 L1685 677 L1331 677 L1277 508 Q1350 544 1420 544 Q1533 544 1604 475.5 Q1675 407 1675 298 Q1675 177 1588 85 Q1495 -14 1333 -14 Q1196 -14 1121 51 Q1046 116 1046 222 Q1046 225 1047 237 L1195 237 Q1204 106 1340 106 Q1420 106 1470 156.5 Q1520 207 1520 288 Q1520 353 1480 391 Q1440 429 1371 429 Q1276 429 1228 358 L1094 361 L1231 801 L1711 801 Z " />
<glyph glyph-name="uni2157" unicode="&#x2157;" horiz-adv-x="1779" d="M260 821 Q259 806 259 794 Q259 655 411 655 Q486 655 533 696 Q580 737 580 803 Q580 916 432 916 Q411 916 380 914 L404 1025 Q425 1024 443 1024 Q624 1024 624 1142 Q624 1187 589 1213.5 Q554 1240 495 1240 Q362 1240 336 1095 L193 1095 Q209 1221 292 1290.5 Q375 1360 509 1360 Q630 1360 704 1300 Q774 1243 774 1156 Q774 1025 636 972 Q736 917 736 809 Q736 688 642 609.5 Q548 531 403 531 Q272 531 192.5 598 Q113 665 113 776 Q113 793 115 821 L260 821 Z M1374 1347 L628 0 L487 0 L1237 1347 L1374 1347 Z M1712 801 L1685 677 L1331 677 L1277 508 Q1351 544 1420 544 Q1533 544 1604 475.5 Q1675 407 1675 298 Q1675 176 1588 85 Q1495 -14 1333 -14 Q1156 -14 1084 95 Q1047 150 1047 237 L1195 237 Q1205 106 1340 106 Q1420 106 1470 156.5 Q1520 207 1520 288 Q1520 353 1480 391 Q1440 429 1371 429 Q1276 429 1228 358 L1095 361 L1232 801 L1712 801 Z " />
<glyph glyph-name="uni2158" unicode="&#x2158;" horiz-adv-x="1780" d="M765 851 L740 733 L625 733 L586 546 L437 546 L477 733 L96 733 L123 859 L620 1359 L759 1359 L651 851 L765 851 Z M509 844 L580 1177 L255 844 L509 844 Z M1374 1347 L628 0 L487 0 L1237 1347 L1374 1347 Z M1712 801 L1685 677 L1331 677 L1277 508 Q1350 544 1420 544 Q1533 544 1604 475.5 Q1675 407 1675 298 Q1675 176 1588 85 Q1495 -14 1333 -14 Q1155 -14 1084 95 Q1047 150 1047 237 L1195 237 Q1205 106 1340 106 Q1420 106 1470 156.5 Q1520 207 1520 288 Q1520 353 1480 391 Q1440 429 1371 429 Q1276 429 1228 358 L1095 361 L1232 801 L1712 801 Z " />
<glyph glyph-name="uni2159" unicode="&#x2159;" horiz-adv-x="1780" d="M693 1356 L521 546 L363 546 L485 1120 Q398 1106 312 1106 Q294 1106 271 1107 L294 1215 Q494 1218 573 1356 L693 1356 Z M1374 1347 L628 0 L487 0 L1237 1347 L1374 1347 Z M1741 590 L1593 590 Q1589 626 1579 647 Q1554 699 1476 699 Q1401 699 1352 646.5 Q1303 594 1260 470 Q1305 506 1343 519.5 Q1381 533 1434 533 Q1547 533 1618 465 Q1689 397 1689 288 Q1689 158 1598.5 72 Q1508 -14 1372 -14 Q1237 -14 1159.5 67.5 Q1082 149 1082 292 Q1082 380 1109 477.5 Q1136 575 1179 643 Q1287 815 1485 815 Q1604 815 1672.5 755 Q1741 695 1741 590 Z M1393 420 Q1321 420 1276.5 373 Q1232 326 1232 250 Q1232 183 1271.5 143 Q1311 103 1377 103 Q1447 103 1492 152 Q1537 201 1537 278 Q1537 344 1499 382 Q1461 420 1393 420 Z " />
<glyph glyph-name="uni215A" unicode="&#x215a;" horiz-adv-x="1780" d="M779 1347 L753 1223 L399 1223 L345 1054 Q418 1090 488 1090 Q601 1090 671.5 1021.5 Q742 953 742 844 Q742 722 655 631 Q562 532 400 532 Q264 532 189 597 Q114 662 114 768 Q114 773 114 783 L262 783 Q272 652 408 652 Q487 652 537 702.5 Q587 753 587 834 Q587 899 547.5 937 Q508 975 439 975 Q344 975 295 904 L162 907 L299 1347 L779 1347 Z M1374 1347 L627 0 L487 0 L1237 1347 L1374 1347 Z M1741 590 L1592 590 Q1588 626 1579 647 Q1554 699 1475 699 Q1401 699 1351.5 646.5 Q1302 594 1260 470 Q1304 506 1342 519.5 Q1380 533 1433 533 Q1546 533 1617 465 Q1688 397 1688 288 Q1688 158 1598 72 Q1508 -14 1372 -14 Q1236 -14 1159 67.5 Q1082 149 1082 292 Q1082 380 1109 477.5 Q1136 575 1179 643 Q1287 815 1485 815 Q1604 815 1672.5 755 Q1741 695 1741 590 Z M1393 420 Q1321 420 1276.5 373 Q1232 326 1232 250 Q1232 183 1271.5 143 Q1311 103 1376 103 Q1446 103 1491 152 Q1536 201 1536 278 Q1536 344 1498 382 Q1460 420 1393 420 Z " />
<glyph glyph-name="oneeighth" unicode="&#x215b;" horiz-adv-x="1780" d="M693 1356 L521 546 L363 546 L485 1120 Q398 1106 312 1106 Q294 1106 271 1107 L294 1215 Q494 1218 573 1356 L693 1356 Z M1374 1347 L628 0 L487 0 L1237 1347 L1374 1347 Z M1564 425 Q1624 390 1645 355 Q1676 305 1676 246 Q1676 132 1585.5 59 Q1495 -14 1354 -14 Q1216 -14 1133.5 52 Q1051 118 1051 228 Q1051 309 1097.5 361.5 Q1144 414 1240 441 Q1190 474 1169.5 508.5 Q1149 543 1149 594 Q1149 691 1227 753 Q1305 815 1427 815 Q1576 815 1653 734 Q1702 681 1702 608 Q1702 543 1668.5 498.5 Q1635 454 1564 425 Z M1428 702 Q1363 702 1327 671 Q1291 640 1291 585 Q1291 536 1326.5 507.5 Q1362 479 1424 479 Q1486 479 1521.5 509.5 Q1557 540 1557 593 Q1557 644 1522.5 673 Q1488 702 1428 702 Z M1372 375 Q1295 375 1250 336 Q1205 297 1205 230 Q1205 169 1246 133.5 Q1287 98 1357 98 Q1424 98 1466 130 Q1522 172 1522 248 Q1522 308 1482.5 341.5 Q1443 375 1372 375 Z " />
<glyph glyph-name="threeeighths" unicode="&#x215c;" horiz-adv-x="1779" d="M260 821 Q259 806 259 794 Q259 655 411 655 Q486 655 533 696 Q580 737 580 803 Q580 916 432 916 Q411 916 380 914 L404 1025 Q425 1024 443 1024 Q624 1024 624 1142 Q624 1187 589 1213.5 Q554 1240 495 1240 Q362 1240 336 1095 L193 1095 Q209 1221 292 1290.5 Q375 1360 509 1360 Q630 1360 704 1300 Q774 1243 774 1156 Q774 1025 636 972 Q736 917 736 809 Q736 688 642 609.5 Q548 531 403 531 Q272 531 192.5 598 Q113 665 113 776 Q113 793 115 821 L260 821 Z M1374 1347 L628 0 L487 0 L1237 1347 L1374 1347 Z M1564 425 Q1623 390 1645 355 Q1675 306 1675 246 Q1675 132 1584.5 59 Q1494 -14 1353 -14 Q1215 -14 1133 52 Q1051 118 1051 228 Q1051 309 1097.5 361.5 Q1144 414 1240 441 Q1190 473 1169.5 507.5 Q1149 542 1149 594 Q1149 691 1227 753 Q1305 815 1427 815 Q1576 815 1653 734 Q1702 681 1702 608 Q1702 543 1668.5 498.5 Q1635 454 1564 425 Z M1428 702 Q1363 702 1327 671 Q1291 640 1291 585 Q1291 536 1326.5 507.5 Q1362 479 1424 479 Q1486 479 1521.5 509.5 Q1557 540 1557 593 Q1557 644 1522.5 673 Q1488 702 1428 702 Z M1371 375 Q1294 375 1249.5 336 Q1205 297 1205 230 Q1205 169 1246 133.5 Q1287 98 1357 98 Q1424 98 1465 130 Q1521 172 1521 248 Q1521 308 1481.5 341.5 Q1442 375 1371 375 Z " />
<glyph glyph-name="fiveeighths" unicode="&#x215d;" horiz-adv-x="1779" d="M779 1347 L753 1223 L399 1223 L345 1054 Q418 1090 488 1090 Q601 1090 671.5 1021.5 Q742 953 742 844 Q742 722 655 631 Q562 532 400 532 Q264 532 189 597 Q114 662 114 768 Q114 773 114 783 L262 783 Q272 652 408 652 Q487 652 537 702.5 Q587 753 587 834 Q587 899 547.5 937 Q508 975 439 975 Q344 975 295 904 L162 907 L299 1347 L779 1347 Z M1374 1347 L627 0 L487 0 L1237 1347 L1374 1347 Z M1563 425 Q1623 390 1645 355 Q1675 306 1675 246 Q1675 132 1584.5 59 Q1494 -14 1353 -14 Q1215 -14 1132.5 52 Q1050 118 1050 228 Q1050 309 1097 361.5 Q1144 414 1240 441 Q1190 474 1169.5 508 Q1149 542 1149 594 Q1149 691 1227 753 Q1305 815 1427 815 Q1575 815 1652 734 Q1701 681 1701 608 Q1701 543 1667.5 498.5 Q1634 454 1563 425 Z M1427 702 Q1363 702 1327 671 Q1291 640 1291 585 Q1291 536 1326.5 507.5 Q1362 479 1423 479 Q1485 479 1520.5 509.5 Q1556 540 1556 593 Q1556 644 1521.5 673 Q1487 702 1427 702 Z M1371 375 Q1294 375 1249 336 Q1204 297 1204 230 Q1204 169 1245 133.5 Q1286 98 1356 98 Q1423 98 1465 130 Q1521 172 1521 248 Q1521 308 1481.5 341.5 Q1442 375 1371 375 Z " />
<glyph glyph-name="seveneighths" unicode="&#x215e;" horiz-adv-x="1779" d="M832 1347 L807 1229 Q662 1096 552 917 Q442 738 387 546 L219 546 Q264 715 380 900 Q438 991 486 1050 Q534 1109 634 1211 L638 1215 Q591 1214 556 1214 L214 1214 L242 1347 L832 1347 Z M1374 1347 L627 0 L487 0 L1237 1347 L1374 1347 Z M1563 425 Q1623 390 1645 355 Q1675 306 1675 246 Q1675 132 1584.5 59 Q1494 -14 1353 -14 Q1215 -14 1132.5 52 Q1050 118 1050 228 Q1050 309 1097 361.5 Q1144 414 1240 441 Q1190 473 1169.5 508 Q1149 543 1149 594 Q1149 691 1227 753 Q1305 815 1427 815 Q1576 815 1652 734 Q1701 681 1701 608 Q1701 543 1668 498.5 Q1635 454 1563 425 Z M1427 702 Q1363 702 1327 671 Q1291 640 1291 585 Q1291 536 1326.5 507.5 Q1362 479 1423 479 Q1485 479 1520.5 509.5 Q1556 540 1556 593 Q1556 644 1521.5 673 Q1487 702 1427 702 Z M1371 375 Q1294 375 1249 336 Q1204 297 1204 230 Q1204 169 1245 133.5 Q1286 98 1356 98 Q1423 98 1465 130 Q1521 172 1521 248 Q1521 308 1481.5 341.5 Q1442 375 1371 375 Z " />
<glyph glyph-name="partialdiff" unicode="&#x2202;" horiz-adv-x="1024" d="M192 1189 L218 1367 Q401 1344 530 1292 Q708 1222 832 1069 Q1015 845 1015 511 Q1015 308 930 179 Q864 80 760 27 Q665 -20 554 -20 Q404 -20 285 64 Q213 115 165 191 Q95 304 95 442 Q95 536 130 622.5 Q165 709 227 771 Q345 888 511 888 Q629 888 705 840 Q728 825 791 764 Q775 791 721 903 Q707 931 665 977.5 Q623 1024 590 1048 Q513 1103 413.5 1138.5 Q314 1174 192 1189 Z M564 720 Q469 720 394 660 Q349 624 322 563.5 Q295 503 295 438 Q295 316 379 234 Q454 159 553 159 Q644 159 717 222 Q810 302 810 444 Q810 581 725 656 Q653 720 564 720 Z " />
<glyph glyph-name="emptyset" unicode="&#x2205;" horiz-adv-x="1266" d="M941 1365 L1039 1314 L941 1133 Q1172 972 1172 717 Q1172 576 1097 455 Q1032 350 927 288 Q808 219 664 219 Q570 219 502 252 L374 1 L274 52 L400 301 Q179 463 179 715 Q179 943 350 1091 Q490 1212 678 1212 Q760 1212 844 1183 L941 1365 Z M556 353 Q622 335 675 335 Q843 335 958 458 Q1058 566 1058 715 Q1058 812 1013.5 896 Q969 980 894 1027 L556 353 Z M791 1079 Q734 1096 681 1096 Q497 1096 382 958 Q293 851 293 716 Q293 533 452 406 L791 1079 Z " />
<glyph glyph-name="increment" unicode="&#x2206;" horiz-adv-x="1301" d="M57 0 L575 1365 L808 1365 L1329 0 L57 0 Z M346 196 L1035 196 L693 1125 L346 196 Z " />
</font>
</svg>
