<?xml version="1.0" encoding="UTF-8"?>
<svg xmlns="http://www.w3.org/2000/svg" xmlns:xlink="http://www.w3.org/1999/xlink" version="1.2" >
<font id=@epd-font-family-Sans-Bold>
<font-face  font-family="UHC Sans" units-per-em="2048" ascent="1697" descent="-351" font-style="normal" font-weight="700" font-stretch="normal" cap-height="1365" x-height="990" underline-position="-207" underline-thickness="176" />
<missing-glyph  horiz-adv-x="512" d="M51 0 L51 1365 L461 1365 L461 0 L51 0 Z M410 51 L410 1314 L102 1314 L102 51 L410 51 Z " />
<glyph glyph-name="space" unicode="&#x20;" horiz-adv-x="512" d="" />
<glyph glyph-name="exclam" unicode="&#x21;" horiz-adv-x="651" d="M490 1365 L490 1001 L415 416 L278 416 L203 997 L203 1365 L490 1365 Z M349 288 Q410 288 454.5 242.5 Q499 197 499 135 Q499 72 454 26.5 Q409 -19 346 -19 Q284 -19 238.5 26.5 Q193 72 193 135 Q193 198 238.5 243 Q284 288 349 288 Z " />
<glyph glyph-name="quotedbl" unicode="&#x22;" horiz-adv-x="774" d="M642 816 L501 816 L452 1365 L692 1365 L642 816 Z M272 816 L131 816 L82 1365 L323 1365 L272 816 Z " />
<glyph glyph-name="numbersign" unicode="&#x23;" horiz-adv-x="1147" d="M52 566 L252 566 L301 818 L139 818 L139 990 L336 990 L410 1368 L600 1368 L523 990 L746 990 L823 1368 L1010 1368 L933 990 L1094 990 L1094 818 L899 818 L849 566 L1010 566 L1010 394 L814 394 L737 0 L548 0 L627 394 L404 394 L326 0 L139 0 L217 394 L52 394 L52 566 Z M439 566 L661 566 L711 818 L489 818 L439 566 Z " />
<glyph glyph-name="dollar" unicode="&#x24;" horiz-adv-x="1147" d="M509 581 Q496 584 470 592 Q458 596 438 601 Q311 632 216 687 Q145 728 104.5 807 Q64 886 64 984 Q64 1180 208 1294 Q267 1341 332.5 1364.5 Q398 1388 509 1401 L509 1548 L622 1548 L622 1401 Q746 1384 815 1352 Q1037 1244 1053 993 L781 993 Q776 1073 732.5 1123.5 Q689 1174 622 1176 L622 837 Q760 803 832.5 774 Q905 745 963 699 Q1102 591 1102 393 Q1102 236 993 122 Q924 51 841 16 Q758 -19 622 -33 L622 -195 L509 -195 L509 -33 Q73 0 32 445 L304 445 L304 439 Q304 239 509 191 L509 581 Z M509 865 L509 1176 Q429 1174 382.5 1131.5 Q336 1089 336 1018 Q336 955 372.5 923 Q409 891 509 865 Z M622 549 L622 191 Q829 225 829 379 Q829 443 785.5 479 Q742 515 622 549 Z " />
<glyph glyph-name="percent" unicode="&#x25;" horiz-adv-x="1677" d="M386 1368 Q703 1368 703 982 Q703 790 600 697 Q515 621 378 621 Q227 621 145 712 Q63 802 63 982 Q63 1190 174 1292 Q258 1368 386 1368 Z M386 1224 Q319 1224 289 1166 Q259 1108 259 978 Q259 862 285 816 Q315 765 382 765 Q508 765 508 985 Q508 1224 386 1224 Z M536 -43 L346 -43 L1141 1383 L1326 1383 L536 -43 Z M1301 720 Q1449 720 1529 629 Q1613 534 1613 347 Q1613 148 1505 49 Q1423 -27 1287 -27 Q1139 -27 1058 65 Q972 161 972 344 Q972 545 1079 644 Q1162 720 1301 720 Z M1296 576 Q1168 576 1168 354 Q1168 225 1196 171 Q1224 117 1291 117 Q1359 117 1386 170 Q1417 232 1417 340 Q1417 462 1387.5 519 Q1358 576 1296 576 Z " />
<glyph glyph-name="ampersand" unicode="&#x26;" horiz-adv-x="1359" d="M1198 659 Q1175 463 1067 324 L1345 0 L1013 0 L901 134 Q744 -29 520 -29 Q315 -29 193 89 Q72 205 72 375 Q72 557 226 683 Q299 743 380 779 Q253 931 253 1063 Q253 1218 379 1310 Q479 1383 619 1383 Q766 1383 864 1299 Q974 1205 974 1058 Q974 837 737 714 L914 499 Q948 560 963 659 L1198 659 Z M604 874 Q746 960 746 1064 Q746 1118 710 1154 Q674 1190 620 1190 Q566 1190 529.5 1156 Q493 1122 493 1071 Q493 995 604 874 Z M521 602 Q337 509 337 382 Q337 305 393.5 251.5 Q450 198 531 198 Q650 198 757 317 L521 602 Z " />
<glyph glyph-name="quotesingle" unicode="&#x27;" horiz-adv-x="404" d="M272 816 L132 816 L82 1365 L322 1365 L272 816 Z " />
<glyph glyph-name="parenleft" unicode="&#x28;" horiz-adv-x="640" d="M554 1365 Q449 1175 393.5 958.5 Q338 742 338 523 Q338 255 401 18 Q441 -130 495 -238 Q543 -335 550 -351 L324 -351 Q310 -331 242 -204 Q161 -53 116.5 135.5 Q72 324 72 517 Q72 965 327 1365 L554 1365 Z " />
<glyph glyph-name="parenright" unicode="&#x29;" horiz-adv-x="640" d="M86 -351 Q191 -160 246.5 55.5 Q302 271 302 491 Q302 760 238 996 Q198 1147 145 1252 Q97 1349 89 1365 L316 1365 Q330 1344 398 1219 Q479 1067 523.5 878.5 Q568 690 568 497 Q568 49 313 -351 L86 -351 Z " />
<glyph glyph-name="asterisk" unicode="&#x2a;" horiz-adv-x="1147" d="M922 1062 L695 988 L836 800 L710 706 L570 904 L434 706 L306 800 L448 988 L225 1062 L275 1211 L495 1127 L492 1365 L652 1365 L647 1127 L867 1211 L922 1062 Z " />
<glyph glyph-name="plus" unicode="&#x2b;" horiz-adv-x="1147" d="M102 577 L102 760 L482 760 L482 1140 L665 1140 L665 760 L1044 760 L1044 577 L665 577 L665 198 L482 198 L482 577 L102 577 Z " />
<glyph glyph-name="comma" unicode="&#x2c;" horiz-adv-x="569" d="M144 -149 Q209 -140 248.5 -102.5 Q288 -65 294 -8 Q279 -12 269 -12 L261 -12 Q201 -12 156 33.5 Q111 79 111 139 Q111 204 156 250 Q201 296 264 296 Q342 296 391 236 Q440 176 440 81 Q440 -72 353 -171 Q312 -218 268 -241 Q224 -264 144 -280 L144 -149 Z " />
<glyph glyph-name="hyphen" unicode="&#x2d;" horiz-adv-x="519" d="M519 631 L519 388 L0 388 L0 631 L519 631 Z " />
<glyph glyph-name="period" unicode="&#x2e;" horiz-adv-x="569" d="M288 293 Q349 293 393.5 247.5 Q438 202 438 140 Q438 77 393 31.5 Q348 -14 285 -14 Q223 -14 177.5 31.5 Q132 77 132 140 Q132 203 177.5 248 Q223 293 288 293 Z " />
<glyph glyph-name="slash" unicode="&#x2f;" horiz-adv-x="881" d="M815 1365 L182 -351 L-66 -351 L569 1365 L815 1365 Z " />
<glyph glyph-name="zero" unicode="0" horiz-adv-x="1174" d="M593 1385 Q753 1385 874 1292 Q996 1198 1050 1004 Q1091 855 1091 680 Q1091 384 984 205 Q918 95 817.5 37 Q717 -21 591 -21 Q420 -21 299 78 Q83 255 83 680 Q83 986 196 1166 Q262 1272 364.5 1328.5 Q467 1385 593 1385 Z M590 1159 Q466 1159 411.5 1043.5 Q357 928 357 667 Q357 472 397 357 Q449 205 589 205 Q705 205 761 322.5 Q817 440 817 682 Q817 886 777 1007 Q726 1159 590 1159 Z " />
<glyph glyph-name="one" unicode="1" horiz-adv-x="1174" d="M825 1394 L825 0 L545 0 L545 912 L446 912 L347 912 L250 912 L217 912 L217 1114 Q393 1116 501 1194 Q578 1253 605 1394 L825 1394 Z " />
<glyph glyph-name="two" unicode="2" horiz-adv-x="1174" d="M1080 241 L1080 0 L73 0 Q74 232 214 382 Q265 437 337 491.5 Q409 546 610 683 Q711 751 751 809 Q791 867 791 944 Q791 1033 737 1088 Q683 1143 595 1143 Q380 1143 372 843 L104 843 Q103 1079 206 1210 Q273 1294 376.5 1339.5 Q480 1385 606 1385 Q799 1385 930 1278 Q1073 1162 1073 964 Q1073 792 959 668 Q922 628 888 602 Q854 576 719 485 Q574 388 518.5 340.5 Q463 293 424 232 Q551 240 658 240 L1080 241 Z " />
<glyph glyph-name="three" unicode="3" horiz-adv-x="1174" d="M104 928 Q110 1094 190 1205 Q320 1385 580 1385 Q781 1385 904 1287 Q1038 1180 1038 1011 Q1038 910 985.5 836.5 Q933 763 845 739 Q959 711 1023.5 627 Q1088 543 1088 422 Q1088 223 935 96 Q794 -21 577 -21 Q343 -21 206 108 Q69 237 69 458 Q69 463 69 475 L338 475 Q338 351 399 284 Q460 217 573 217 Q683 217 743 281 Q799 340 799 422 Q799 521 728 579 Q670 626 551 626 Q515 626 481 623 L481 820 Q508 818 528 818 Q770 818 770 990 Q770 1066 717.5 1112.5 Q665 1159 579 1159 Q480 1159 426.5 1100 Q373 1041 369 928 L104 928 Z " />
<glyph glyph-name="four" unicode="4" horiz-adv-x="1174" d="M1106 554 L1106 319 L930 319 L930 0 L657 0 L657 319 L74 319 L74 580 L671 1394 L930 1394 L930 554 L1106 554 Z M663 548 L663 816 Q663 997 666 1095 Q597 973 544 896 L429 725 Q408 696 295 546 Q400 548 430 548 L663 548 Z " />
<glyph glyph-name="five" unicode="5" horiz-adv-x="1174" d="M1007 1365 L1007 1125 L443 1125 L414 957 Q401 887 384 820 Q484 924 643 924 Q798 924 912 843 Q1083 723 1083 475 Q1083 232 901 90 Q759 -21 563 -21 Q341 -21 206.5 94 Q72 209 63 406 L338 406 Q347 316 409 261 Q471 206 563 206 Q672 206 738 282 Q801 356 801 466 Q801 582 735.5 652 Q670 722 563 722 Q430 722 355 607 L106 611 L239 1365 L1007 1365 Z " />
<glyph glyph-name="six" unicode="6" horiz-adv-x="1174" d="M1073 1018 L808 1018 Q771 1173 624 1173 Q470 1173 404 991 Q378 916 361 765 Q423 847 495 883 Q567 919 669 919 Q761 919 844 883.5 Q927 848 984 785 Q1098 658 1098 467 Q1098 240 945 103 Q807 -21 614 -21 Q367 -21 229 158.5 Q91 338 91 659 Q91 1003 238 1197 Q381 1385 627 1385 Q860 1385 983 1235 Q1054 1149 1073 1018 Z M607 710 Q501 710 441 630 Q388 558 388 459 Q388 350 450 278 Q512 206 605 206 Q705 206 767 284 Q824 357 824 458 Q824 555 772 625 Q709 710 607 710 Z " />
<glyph glyph-name="seven" unicode="7" horiz-adv-x="1174" d="M1057 1365 L1057 1134 Q1046 1121 989 1057 Q910 970 833 837.5 Q756 705 713 581 Q621 322 603 0 L314 0 Q323 329 513 717 Q647 989 779 1117 Q625 1112 585 1112 L119 1112 L119 1365 L1057 1365 Z " />
<glyph glyph-name="eight" unicode="8" horiz-adv-x="1174" d="M327 732 Q230 764 178 837 Q126 910 126 1015 Q126 1189 276 1294 Q406 1385 588 1385 Q795 1385 926 1276 Q1050 1174 1050 1022 Q1050 916 997.5 841 Q945 766 848 732 Q924 710 972 677 Q1105 584 1105 406 Q1105 203 941 81 Q804 -21 588 -21 Q354 -21 214 91 Q70 207 70 396 Q70 573 199 671 Q256 714 327 732 Z M589 1177 Q481 1177 427 1119 Q380 1069 380 999 Q380 915 437 865 Q494 815 589 815 Q685 815 740.5 864.5 Q796 914 796 1000 Q796 1082 740.5 1129.5 Q685 1177 589 1177 Z M586 630 Q480 630 414 570 Q348 510 348 413 Q348 315 414.5 253.5 Q481 192 587 192 Q708 192 769 260 Q827 325 827 411 Q827 507 760 570 Q696 630 586 630 Z " />
<glyph glyph-name="nine" unicode="9" horiz-adv-x="1174" d="M101 348 L365 348 Q398 191 554 191 Q641 191 696 248 Q751 305 781 427 Q799 503 808 603 Q746 518 678 481 Q610 444 514 444 Q359 444 245 531 Q165 591 121 687.5 Q77 784 77 897 Q77 1124 238 1264 Q377 1385 571 1385 Q820 1385 962 1187 Q1084 1019 1084 716 Q1084 436 977 236 Q838 -21 554 -21 Q366 -21 243.5 78.5 Q121 178 101 348 Z M572 1159 Q476 1159 414 1088 Q351 1017 351 905 Q351 817 396 749 Q458 654 569 654 Q670 654 729 731 Q786 804 786 905 Q786 1009 727 1083 Q666 1159 572 1159 Z " />
<glyph glyph-name="colon" unicode="&#x3a;" horiz-adv-x="603" d="M322 980 Q383 980 427.5 934.5 Q472 889 472 827 Q472 764 427 718.5 Q382 673 319 673 Q257 673 211.5 718.5 Q166 764 166 827 Q166 890 211.5 935 Q257 980 322 980 Z M322 293 Q383 293 427.5 247.5 Q472 202 472 140 Q472 77 427 31.5 Q382 -14 319 -14 Q257 -14 211.5 31.5 Q166 77 166 140 Q166 203 211.5 248 Q257 293 322 293 Z " />
<glyph glyph-name="semicolon" unicode="&#x3b;" horiz-adv-x="603" d="M181 -149 Q246 -140 285.5 -102.5 Q325 -65 331 -8 Q316 -12 306 -12 L298 -12 Q238 -12 193 33.5 Q148 79 148 139 Q148 204 193 250 Q238 296 301 296 Q379 296 428 236 Q477 176 477 81 Q477 -72 390 -171 Q349 -218 305 -241 Q261 -264 181 -280 L181 -149 Z M322 980 Q383 980 427.5 934.5 Q472 889 472 827 Q472 764 427 718.5 Q382 673 319 673 Q256 673 211 718.5 Q166 764 166 827 Q166 890 211.5 935 Q257 980 322 980 Z " />
<glyph glyph-name="less" unicode="&#x3c;" horiz-adv-x="1024" d="M955 1275 L955 983 L379 689 L954 395 L955 105 L68 567 L68 814 L955 1275 Z " />
<glyph glyph-name="equal" unicode="&#x3d;" horiz-adv-x="1147" d="M102 748 L102 927 L1044 927 L1044 748 L102 748 Z M102 411 L102 590 L1044 590 L1044 411 L102 411 Z " />
<glyph glyph-name="greater" unicode="&#x3e;" horiz-adv-x="1024" d="M69 105 L69 397 L645 691 L71 985 L69 1275 L956 813 L956 566 L69 105 Z " />
<glyph glyph-name="question" unicode="&#x3f;" horiz-adv-x="1103" d="M93 928 Q102 1109 181 1219 Q311 1398 577 1398 Q786 1398 910 1285 Q1031 1175 1031 1005 Q1031 892 978.5 816.5 Q926 741 769 631 Q722 597 702 549 Q682 501 680 415 L424 415 Q427 522 431 555.5 Q435 589 451 630 Q469 679 499 712.5 Q529 746 621 820 Q688 875 712.5 914.5 Q737 954 737 1011 Q737 1080 692 1122 Q647 1164 573 1164 Q474 1164 425.5 1107 Q377 1050 372 928 L93 928 Z M552 288 Q613 288 657.5 242.5 Q702 197 702 135 Q702 71 657 26 Q612 -19 549 -19 Q487 -19 441.5 26.5 Q396 72 396 135 Q396 198 441.5 243 Q487 288 552 288 Z " />
<glyph glyph-name="at" unicode="&#x40;" horiz-adv-x="1743" d="M1193 31 L1257 -119 Q1072 -209 866 -209 Q544 -209 310 23 Q187 143 126 300 Q72 440 72 590 Q72 802 178 987 Q286 1176 473 1283 Q658 1389 871 1389 Q1083 1389 1268 1283 Q1457 1175 1564 987 Q1670 802 1670 598 Q1670 445 1604 330 Q1499 145 1259 145 Q1165 145 1111.5 173 Q1058 201 1032 264 Q968 202 911 182 Q830 153 740 153 Q605 153 527.5 218 Q450 283 450 396 Q450 524 540 581 Q586 611 641.5 624.5 Q697 638 848 656 Q947 668 980 687 Q1013 706 1013 750 Q1013 846 872 846 Q794 846 756.5 820.5 Q719 795 711 737 L476 737 Q486 808 505 847 Q524 886 567 922 Q673 1010 884 1010 Q1050 1010 1144 956 Q1245 898 1245 778 L1245 385 Q1245 343 1261 326 Q1277 309 1317 309 Q1392 309 1438.5 392 Q1485 475 1485 610 Q1485 717 1447 817 Q1385 981 1243 1087 Q1077 1210 871 1210 Q753 1210 644 1166 Q482 1100 379 958 Q259 795 259 589 Q259 470 302 361 Q366 196 506 89 Q669 -37 870 -37 Q1029 -37 1193 31 Z M1013 561 Q980 541 963.5 537 Q947 533 832 517 Q752 506 717.5 481 Q683 456 683 409 Q683 315 823 315 Q1013 315 1013 480 L1013 561 Z " />
<glyph glyph-name="A" unicode="A" horiz-adv-x="1345" d="M827 1368 L1346 0 L1033 0 L924 306 L417 306 L306 0 L-1 0 L519 1368 L827 1368 Z M851 524 L764 770 Q703 939 673 1067 Q639 945 576 770 L489 524 L851 524 Z " />
<glyph glyph-name="B" unicode="B" horiz-adv-x="1356" d="M132 1365 L747 1365 Q944 1365 1041 1315 Q1124 1273 1171.5 1194 Q1219 1115 1219 1021 Q1219 927 1171 854.5 Q1123 782 1034 740 Q1110 714 1151 685 Q1283 589 1283 403 Q1283 293 1234 205 Q1185 117 1094 64 Q984 0 802 0 L132 0 L132 1365 Z M430 1130 L430 812 L703 812 Q798 812 843 834 Q926 874 926 972 Q926 1056 873.5 1093 Q821 1130 703 1130 L430 1130 Z M430 609 L430 235 L732 235 Q861 235 913 272 Q983 321 983 422 Q983 542 889 585 Q838 609 717 609 L430 609 Z " />
<glyph glyph-name="C" unicode="C" horiz-adv-x="1398" d="M1343 527 Q1327 315 1201 165 Q1034 -33 730 -33 Q407 -33 226 196 Q72 391 72 684 Q72 990 255 1194 Q438 1398 742 1398 Q1024 1398 1198 1211 Q1320 1079 1333 908 L1039 908 Q1016 1023 936 1086.5 Q856 1150 735 1150 Q540 1150 444 986 Q372 862 372 682 Q372 497 448 373 Q544 215 733 215 Q867 215 946.5 294.5 Q1026 374 1046 527 L1343 527 Z " />
<glyph glyph-name="D" unicode="D" horiz-adv-x="1419" d="M132 1365 L684 1365 Q838 1365 947.5 1329.5 Q1057 1294 1141 1217 Q1346 1029 1346 700 Q1346 350 1153 157 Q1067 72 961.5 36 Q856 0 690 0 L132 0 L132 1365 Z M430 1112 L430 253 L659 253 Q765 253 828 274 Q891 295 938 346 Q1046 463 1046 689 Q1046 898 945.5 1005 Q845 1112 649 1112 L430 1112 Z " />
<glyph glyph-name="E" unicode="E" horiz-adv-x="1250" d="M1156 1365 L1156 1112 L430 1112 L430 822 L1096 822 L1096 587 L430 587 L430 253 L1170 253 L1170 0 L132 0 L132 1365 L1156 1365 Z " />
<glyph glyph-name="F" unicode="F" horiz-adv-x="1133" d="M1093 1365 L1093 1112 L430 1112 L430 796 L1007 796 L1007 561 L430 561 L430 0 L132 0 L132 1365 L1093 1365 Z " />
<glyph glyph-name="G" unicode="G" horiz-adv-x="1458" d="M1344 736 L1344 0 L1153 0 L1124 156 Q971 -33 716 -33 Q403 -33 223 199 Q72 393 72 677 Q72 998 268 1204 Q453 1398 743 1398 Q1011 1398 1181 1224 Q1307 1094 1326 916 L1037 916 Q1015 1026 936.5 1087.5 Q858 1149 739 1149 Q567 1149 469.5 1024 Q372 899 372 679 Q372 476 453 356 Q553 209 749 209 Q889 209 979 294 Q1069 379 1074 518 L771 518 L771 736 L1344 736 Z " />
<glyph glyph-name="H" unicode="H" horiz-adv-x="1420" d="M1286 1365 L1286 0 L988 0 L988 594 L430 594 L430 0 L132 0 L132 1365 L430 1365 L430 847 L988 847 L988 1365 L1286 1365 Z " />
<glyph glyph-name="I" unicode="I" horiz-adv-x="564" d="M430 1365 L430 0 L132 0 L132 1365 L430 1365 Z " />
<glyph glyph-name="J" unicode="J" horiz-adv-x="1032" d="M921 1365 L921 447 Q921 328 902.5 255.5 Q884 183 838 123 Q720 -33 472 -33 Q181 -33 72 164 Q16 266 16 455 Q16 475 17 511 L293 511 Q293 483 293 472 Q293 334 316 288 Q353 209 463 209 Q552 209 587.5 259.5 Q623 310 623 437 L623 1365 L921 1365 Z " />
<glyph glyph-name="K" unicode="K" horiz-adv-x="1366" d="M1343 1365 L807 826 L1393 0 L1017 0 L602 613 L430 441 L430 0 L132 0 L132 1365 L430 1365 L430 958 Q430 923 427 787 Q520 895 542 918 L965 1365 L1343 1365 Z " />
<glyph glyph-name="L" unicode="L" horiz-adv-x="1150" d="M1097 253 L1097 0 L132 0 L132 1365 L430 1365 L430 253 L1097 253 Z " />
<glyph glyph-name="M" unicode="M" horiz-adv-x="1741" d="M1607 1365 L1607 0 L1324 0 L1324 408 Q1324 729 1342 1101 Q1276 837 1203 623 L990 0 L756 0 L536 610 Q463 812 397 1094 Q415 691 415 441 L415 0 L132 0 L132 1365 L556 1365 L761 772 Q827 578 875 340 Q916 549 991 775 L1187 1365 L1607 1365 Z " />
<glyph glyph-name="N" unicode="N" horiz-adv-x="1420" d="M1287 1365 L1287 0 L987 0 L580 659 Q447 880 408 965 Q420 811 420 581 L420 0 L133 0 L133 1365 L437 1365 L834 721 Q956 523 1012 406 Q1000 621 1000 797 L1000 1365 L1287 1365 Z " />
<glyph glyph-name="O" unicode="O" horiz-adv-x="1490" d="M756 1398 Q1029 1398 1213 1219 Q1417 1020 1417 682 Q1417 392 1263 200 Q1075 -33 747 -33 Q413 -33 222 205 Q72 393 72 681 Q72 1020 267 1210 Q459 1398 756 1398 Z M752 1150 Q576 1150 475 1025 Q372 898 372 683 Q372 463 473 339 Q521 281 594 248 Q667 215 749 215 Q913 215 1008 329 Q1117 460 1117 687 Q1117 898 1017 1025 Q918 1150 752 1150 Z " />
<glyph glyph-name="P" unicode="P" horiz-adv-x="1280" d="M132 1365 L683 1365 Q822 1365 902 1348 Q982 1331 1047 1287 Q1225 1167 1225 926 Q1225 712 1078 590 Q1015 537 934.5 514 Q854 491 736 491 L430 491 L430 0 L132 0 L132 1365 Z M430 1112 L430 726 L697 726 Q814 726 866 768 Q931 821 931 922 Q931 1024 856 1075 Q802 1112 680 1112 L430 1112 Z " />
<glyph glyph-name="Q" unicode="Q" horiz-adv-x="1480" d="M1407 19 L1267 -132 L1066 50 Q931 -33 735 -33 Q582 -33 453.5 23.5 Q325 80 238 185 Q72 384 72 683 Q72 1005 267 1203 Q458 1398 749 1398 Q1059 1398 1242 1184 Q1415 983 1415 690 Q1415 530 1367 396.5 Q1319 263 1231 179 L1407 19 Z M1022 371 Q1115 494 1115 686 Q1115 892 1021 1018 Q921 1150 743 1150 Q570 1150 469 1019 Q372 894 372 684 Q372 467 473 342 Q574 215 744 215 Q813 215 871 237 L734 356 L874 505 L1022 371 Z " />
<glyph glyph-name="R" unicode="R" horiz-adv-x="1411" d="M131 1365 L792 1365 Q989 1365 1094 1303 Q1272 1198 1272 979 Q1272 859 1214.5 771 Q1157 683 1054 644 Q1143 623 1196 544 Q1228 494 1239.5 439.5 Q1251 385 1268 192 Q1281 50 1309 16 L1322 0 L1011 0 Q987 42 977 185 Q967 319 954 373.5 Q941 428 910 469 Q858 537 697 537 L429 537 L429 0 L131 0 L131 1365 Z M429 1130 L429 755 L713 755 Q852 755 908 794 Q979 844 979 943 Q979 1040 918.5 1085 Q858 1130 726 1130 L429 1130 Z " />
<glyph glyph-name="S" unicode="S" horiz-adv-x="1256" d="M1137 961 L854 961 Q836 1167 596 1167 Q490 1167 431.5 1125.5 Q373 1084 373 1009 Q373 942 429 912 Q483 882 704 828 Q935 771 1025 711 Q1191 603 1191 410 Q1191 197 1025 75 Q878 -33 628 -33 Q350 -33 196 94 Q42 221 36 456 L333 456 Q339 342 391 287 Q474 199 639 199 Q751 199 816 243 Q890 294 890 380 Q890 467 786 508 Q730 530 518 588 Q385 625 310 657.5 Q235 690 191 730 Q86 824 86 988 Q86 1185 250 1300 Q389 1398 612 1398 Q806 1398 938 1320 Q1127 1209 1137 961 Z " />
<glyph glyph-name="T" unicode="T" horiz-adv-x="1189" d="M1157 1365 L1157 1112 L742 1112 L742 0 L444 0 L444 1112 L32 1112 L32 1365 L1157 1365 Z " />
<glyph glyph-name="U" unicode="U" horiz-adv-x="1393" d="M1278 1365 L1278 558 Q1278 404 1254.5 314.5 Q1231 225 1172 149 Q1089 45 954 1 Q850 -33 697 -33 Q342 -33 199 173 Q150 244 130.5 330 Q111 416 111 562 L111 1365 L409 1365 L409 543 Q409 387 455 319 Q524 215 703 215 Q854 215 917 290 Q980 365 980 543 L980 1365 L1278 1365 Z " />
<glyph glyph-name="V" unicode="V" horiz-adv-x="1239" d="M1239 1365 L785 0 L446 0 L-1 1365 L311 1365 L489 813 Q595 459 619 285 Q646 452 752 812 L929 1365 L1239 1365 Z " />
<glyph glyph-name="W" unicode="W" horiz-adv-x="1807" d="M1804 1365 L1434 0 L1136 0 L988 584 Q940 773 902 1040 Q870 813 816 592 L671 0 L368 0 L4 1365 L304 1365 L438 792 Q502 522 525 293 Q541 468 616 790 L764 1365 L1045 1365 L1190 803 Q1215 709 1242 556.5 Q1269 404 1282 293 Q1310 541 1375 815 L1507 1365 L1804 1365 Z " />
<glyph glyph-name="X" unicode="X" horiz-adv-x="1273" d="M1247 1365 L809 714 L1287 0 L929 0 L725 323 Q673 406 632 495 Q594 417 532 322 L326 0 L-15 0 L467 714 L23 1365 L371 1365 L538 1096 Q604 989 641 904 Q686 996 742 1086 L917 1365 L1247 1365 Z " />
<glyph glyph-name="Y" unicode="Y" horiz-adv-x="1241" d="M1277 1365 L769 526 L769 0 L471 0 L471 530 L-39 1365 L302 1365 L514 1001 Q569 907 623 778 Q688 930 738 1014 L944 1365 L1277 1365 Z " />
<glyph glyph-name="Z" unicode="Z" horiz-adv-x="1248" d="M1176 1365 L1176 1138 L566 409 Q547 385 415 246 Q600 253 688 253 L1201 253 L1201 0 L46 0 L46 240 L675 988 Q706 1024 799 1118 Q648 1112 553 1112 L97 1112 L97 1365 L1176 1365 Z " />
<glyph glyph-name="bracketleft" unicode="&#x5b;" horiz-adv-x="640" d="M578 1365 L578 1168 L333 1168 L333 -154 L578 -154 L578 -351 L82 -351 L82 1365 L578 1365 Z " />
<glyph glyph-name="backslash" unicode="&#x5c;" horiz-adv-x="881" d="M66 1365 L312 1365 L947 -351 L699 -351 L66 1365 Z " />
<glyph glyph-name="bracketright" unicode="&#x5d;" horiz-adv-x="640" d="M61 -351 L61 -154 L305 -154 L305 1168 L61 1168 L61 1365 L556 1365 L556 -351 L61 -351 Z " />
<glyph glyph-name="asciicircum" unicode="&#x5e;" horiz-adv-x="1024" d="M295 722 L34 722 L349 1373 L676 1373 L990 722 L729 722 L512 1174 L295 722 Z " />
<glyph glyph-name="underscore" unicode="&#x5f;" horiz-adv-x="1024" d="M0 -119 L1024 -119 L1024 -295 L0 -295 L0 -119 Z " />
<glyph glyph-name="grave" unicode="&#x60;" horiz-adv-x="1024" d="M201 1416 L487 1416 L659 1140 L477 1140 L201 1416 Z " />
<glyph glyph-name="a" unicode="a" horiz-adv-x="1067" d="M1061 180 L1061 3 Q1007 -20 941 -20 Q850 -20 801.5 10.5 Q753 41 735 109 Q668 39 590 8 Q499 -27 394 -27 Q234 -27 143.5 51.5 Q53 130 53 270 Q53 417 148 488 Q198 525 266.5 545 Q335 565 459 579 Q618 598 662 620 Q712 646 712 708 Q712 834 543 834 Q450 834 407.5 800.5 Q365 767 355 685 L83 685 Q92 767 113 811 Q213 1017 558 1017 Q753 1017 862 954 Q984 882 984 736 L984 259 Q984 209 996.5 194.5 Q1009 180 1053 180 L1061 180 Z M712 484 Q669 451 547 436 Q421 420 373 386.5 Q325 353 325 282 Q325 155 493 155 Q712 155 712 379 L712 484 Z " />
<glyph glyph-name="b" unicode="b" horiz-adv-x="1191" d="M388 1365 L388 868 Q498 1018 701 1018 Q790 1018 871.5 979.5 Q953 941 1010 873 Q1124 737 1124 506 Q1124 292 1022 147 Q899 -27 685 -27 Q474 -27 376 126 L376 0 L118 0 L118 1365 L388 1365 Z M618 806 Q509 806 443 725 Q379 646 379 501 Q379 373 431 293 Q494 194 617 194 Q737 194 798 294 Q851 381 851 502 Q851 648 782 731 Q720 806 618 806 Z " />
<glyph glyph-name="c" unicode="c" horiz-adv-x="1088" d="M1041 380 Q1021 232 940 133 Q807 -27 566 -27 Q317 -27 179 138 Q62 278 62 486 Q62 741 218 888 Q355 1017 570 1017 Q768 1017 893 916.5 Q1018 816 1035 643 L769 643 Q754 724 702.5 768 Q651 812 572 812 Q460 812 397.5 728 Q335 644 335 493 Q335 359 385 278 Q446 178 566 178 Q746 178 777 380 L1041 380 Z " />
<glyph glyph-name="d" unicode="d" horiz-adv-x="1191" d="M1071 1365 L1071 0 L813 0 L813 126 Q717 -27 514 -27 Q308 -27 184 120 Q65 263 65 500 Q65 723 170 859 Q293 1018 499 1018 Q702 1018 801 868 L801 1365 L1071 1365 Z M576 806 Q465 806 403 729 Q338 649 338 501 Q338 358 401 275 Q462 194 574 194 Q686 194 748 274 Q810 354 810 499 Q810 648 744 729 Q680 806 576 806 Z " />
<glyph glyph-name="e" unicode="e" horiz-adv-x="1106" d="M1032 307 Q1011 225 955 150 Q820 -27 569 -27 Q340 -27 203 112 Q62 255 62 490 Q62 706 190 853 Q333 1017 560 1017 Q742 1017 871 908 Q964 830 1006.5 714 Q1049 598 1048 425 L338 425 Q340 351 361 301 Q416 168 570 168 Q713 168 772 307 L1032 307 Z M772 598 Q764 672 738 719 Q712 767 664 794.5 Q616 822 559 822 Q468 822 409 761.5 Q350 701 339 598 L772 598 Z " />
<glyph glyph-name="f" unicode="f" horiz-adv-x="658" d="M638 1365 L638 1166 Q589 1170 543 1170 Q472 1170 448.5 1149.5 Q425 1129 425 1068 L425 990 L621 990 L621 807 L427 807 L427 0 L157 0 L157 807 L-4 807 L-4 990 L157 990 L157 1042 Q157 1137 172 1189.5 Q187 1242 225 1282 Q309 1370 494 1370 Q530 1370 638 1365 Z " />
<glyph glyph-name="g" unicode="g" horiz-adv-x="1171" d="M1050 990 L1050 123 Q1050 7 1035.5 -62 Q1021 -131 984 -188 Q866 -369 561 -369 Q137 -369 98 -59 L369 -59 Q399 -186 566 -186 Q696 -186 747 -114 Q787 -58 788 70 L788 183 Q684 30 486 30 Q296 30 180 160 Q64 291 64 516 Q64 741 180 877 Q301 1017 497 1017 Q598 1017 666.5 980.5 Q735 944 792 859 L792 990 L1050 990 Z M566 805 Q444 805 384 712 Q337 637 337 523 Q337 374 406 298 Q466 231 563 231 Q684 231 744 331 Q791 408 791 522 Q791 665 719 742 Q660 805 566 805 Z " />
<glyph glyph-name="h" unicode="h" horiz-adv-x="1158" d="M388 1365 L388 976 Q388 967 386 855 Q434 919 476 949 Q573 1017 699 1017 Q904 1017 992 877 Q1044 796 1044 629 L1044 0 L774 0 L774 583 Q774 692 743 734 Q698 796 600 796 Q471 796 416 686 Q399 653 393.5 612.5 Q388 572 388 485 L388 0 L118 0 L118 1365 L388 1365 Z " />
<glyph glyph-name="i" unicode="i" horiz-adv-x="509" d="M258 1394 Q319 1394 363.5 1348.5 Q408 1303 408 1241 Q408 1178 363 1132.5 Q318 1087 255 1087 Q193 1087 147.5 1132.5 Q102 1178 102 1241 Q102 1304 147.5 1349 Q193 1394 258 1394 Z M389 990 L389 0 L119 0 L119 990 L389 990 Z " />
<glyph glyph-name="j" unicode="j" horiz-adv-x="511" d="M389 990 L389 -1 L390 -77 Q390 -167 353.5 -232.5 Q317 -298 250 -329 Q182 -360 61 -360 Q18 -360 -48 -355 L-48 -136 Q-16 -138 3 -138 Q53 -138 77 -127 Q101 -116 109 -89 Q119 -59 119 83 L119 990 L389 990 Z M257 1394 Q318 1394 362.5 1348.5 Q407 1303 407 1241 Q407 1178 362 1132.5 Q317 1087 254 1087 Q191 1087 146 1132.5 Q101 1178 101 1241 Q101 1304 146.5 1349 Q192 1394 257 1394 Z " />
<glyph glyph-name="k" unicode="k" horiz-adv-x="1094" d="M1057 990 L685 623 L1100 0 L772 0 L499 440 L388 337 L388 0 L118 0 L118 1365 L388 1365 L388 775 Q388 738 386 620 Q431 678 455 703 L736 990 L1057 990 Z " />
<glyph glyph-name="l" unicode="l" horiz-adv-x="509" d="M389 1365 L389 0 L119 0 L119 1365 L389 1365 Z " />
<glyph glyph-name="m" unicode="m" horiz-adv-x="1741" d="M376 990 L376 855 Q494 1017 690 1017 Q888 1017 968 853 Q1089 1017 1294 1017 Q1453 1017 1540 925.5 Q1627 834 1627 667 L1627 0 L1357 0 L1357 591 Q1357 687 1336 726 Q1298 796 1197 796 Q1076 796 1027 696 Q1006 652 1006 537 L1006 0 L736 0 L736 603 Q736 692 715 731 Q679 796 585 796 Q528 796 481.5 768 Q435 740 411 691 Q388 643 388 537 L388 0 L118 0 L118 990 L376 990 Z " />
<glyph glyph-name="n" unicode="n" horiz-adv-x="1158" d="M377 990 L377 852 Q422 913 465 944 Q566 1018 708 1018 Q834 1018 921 957 Q989 908 1017 833.5 Q1045 759 1045 623 L1045 0 L775 0 L775 569 Q775 665 758 710 Q742 750 701 773.5 Q660 797 604 797 Q542 797 491.5 767.5 Q441 738 416 688 Q389 631 389 512 L389 0 L119 0 L119 990 L377 990 Z " />
<glyph glyph-name="o" unicode="o" horiz-adv-x="1147" d="M584 1017 Q806 1017 947 874 Q1086 732 1086 496 Q1086 253 938 108 Q799 -27 575 -27 Q338 -27 196 123 Q62 267 62 495 Q62 722 193 860 Q340 1017 584 1017 Z M576 816 Q463 816 399 731 Q335 645 335 493 Q335 339 399 258 Q464 174 576 174 Q681 174 744 250 Q813 334 813 496 Q813 646 751 729 Q687 816 576 816 Z " />
<glyph glyph-name="p" unicode="p" horiz-adv-x="1191" d="M376 990 L376 866 Q479 1017 683 1017 Q880 1017 1003 872 Q1124 728 1124 490 Q1124 268 1017 129 Q897 -27 693 -27 Q498 -27 388 122 L388 -351 L118 -351 L118 990 L376 990 Z M618 796 Q504 796 441.5 716.5 Q379 637 379 490 Q379 341 444 263 Q508 185 617 185 Q726 185 787 262 Q851 344 851 487 Q851 635 786 718 Q725 796 618 796 Z " />
<glyph glyph-name="q" unicode="q" horiz-adv-x="1191" d="M1071 990 L1071 -351 L801 -351 L801 124 Q691 -27 495 -27 Q289 -27 170 130 Q65 268 65 490 Q65 731 189 876 Q309 1017 508 1017 Q718 1017 813 868 L813 990 L1071 990 Z M573 796 Q460 796 401 715 Q338 629 338 484 Q338 345 400 263 Q460 185 572 185 Q682 185 744 263 Q809 345 809 494 Q809 641 746 717 Q681 796 573 796 Z " />
<glyph glyph-name="r" unicode="r" horiz-adv-x="757" d="M757 1007 L757 756 Q690 768 651 768 Q500 768 428 645 Q388 576 388 414 L388 0 L118 0 L118 990 L376 990 L376 807 Q481 1011 696 1011 Q720 1011 757 1007 Z " />
<glyph glyph-name="s" unicode="s" horiz-adv-x="1015" d="M916 702 L662 702 Q654 754 633 781 Q591 834 478 834 Q405 834 365.5 808.5 Q326 783 326 737 Q326 687 369 665 Q412 643 569 611 Q766 571 853 514 Q956 445 956 306 Q956 147 828 59 Q704 -27 497 -27 Q277 -27 160 61 Q43 149 32 322 L291 322 Q299 253 327 219 Q379 156 500 156 Q584 156 633.5 189.5 Q683 223 683 279 Q683 330 640.5 355 Q598 380 461 411 Q327 441 272 457.5 Q217 474 173 499 Q117 530 85 587.5 Q53 645 53 715 Q53 870 185 951 Q293 1017 483 1017 Q736 1017 847 892 Q907 825 916 702 Z " />
<glyph glyph-name="t" unicode="t" horiz-adv-x="661" d="M622 990 L622 807 L419 807 L419 340 Q419 253 435 231 Q458 197 539 197 Q573 197 622 203 L622 -4 Q528 -14 454 -14 Q349 -14 287.5 8 Q226 30 191 79 Q165 118 157 169 Q149 220 149 350 L149 807 L-16 807 L-16 990 L149 990 L149 1289 L419 1289 L419 990 L622 990 Z " />
<glyph glyph-name="u" unicode="u" horiz-adv-x="1159" d="M1038 990 L1038 0 L780 0 L780 140 Q664 -27 453 -27 Q271 -27 177 91 Q111 176 111 363 L111 990 L381 990 L381 443 Q381 302 408 261 Q451 194 554 194 Q682 194 740 305 Q768 358 768 499 L768 990 L1038 990 Z " />
<glyph glyph-name="v" unicode="v" horiz-adv-x="963" d="M972 990 L636 0 L332 0 L-10 990 L275 990 L401 594 Q458 413 488 248 Q513 385 576 588 L701 990 L972 990 Z " />
<glyph glyph-name="w" unicode="w" horiz-adv-x="1528" d="M1534 990 L1220 0 L940 0 L825 432 Q793 551 763 733 Q732 550 702 433 L592 0 L310 0 L-5 990 L282 990 L386 614 Q425 475 467 251 Q501 454 544 625 L635 990 L898 990 L1002 582 Q1038 440 1069 252 Q1107 462 1139 577 L1253 990 L1534 990 Z " />
<glyph glyph-name="x" unicode="x" horiz-adv-x="989" d="M971 990 L645 529 L1012 0 L699 0 L557 215 Q536 246 491 337 Q450 256 423 213 L284 0 L-24 0 L335 522 L8 990 L319 990 L425 833 Q442 806 494 712 Q544 799 570 839 L669 990 L971 990 Z " />
<glyph glyph-name="y" unicode="y" horiz-adv-x="1001" d="M1010 990 L647 5 Q592 -145 556 -206 Q520 -267 465 -305 Q420 -335 374 -344.5 Q328 -354 225 -354 Q209 -354 198 -354 L87 -351 L87 -127 L118 -127 L197 -127 Q286 -127 321 -91 Q352 -60 352 -2 Q352 35 343 59 L-10 990 L283 990 L447 505 Q472 430 509 274 Q550 437 576 517 L730 990 L1010 990 Z " />
<glyph glyph-name="z" unicode="z" horiz-adv-x="979" d="M925 990 L925 791 L519 332 Q482 290 392 207 Q485 212 530 212 L959 212 L959 0 L48 0 L48 206 L444 649 Q481 689 583 781 Q526 778 482 778 L88 778 L88 990 L925 990 Z " />
<glyph glyph-name="braceleft" unicode="&#x7b;" horiz-adv-x="859" d="M324 506 Q391 465 416.5 411 Q442 357 442 258 L442 72 Q442 -18 450.5 -56 Q459 -94 484 -120 Q518 -154 614 -154 L641 -154 L641 -351 L630 -351 Q428 -349 377.5 -341.5 Q327 -334 281 -298 Q233 -261 212 -204 Q191 -147 191 -53 L191 211 Q191 298 165 339.5 Q139 381 76 396 L76 630 Q138 645 164.5 684.5 Q191 724 191 802 L191 1081 Q191 1248 282 1314 Q329 1348 379 1355.5 Q429 1363 630 1365 L641 1365 L641 1168 L614 1168 Q510 1168 476 1121.5 Q442 1075 442 932 L442 752 Q442 653 417 600.5 Q392 548 324 506 Z " />
<glyph glyph-name="bar" unicode="&#x7c;" horiz-adv-x="1024" d="M364 1365 L660 1365 L660 -341 L364 -341 L364 1365 Z " />
<glyph glyph-name="braceright" unicode="&#x7d;" horiz-adv-x="859" d="M533 508 Q467 549 441.5 602.5 Q416 656 416 756 L416 942 Q416 1032 407.5 1070 Q399 1108 374 1134 Q340 1168 244 1168 L217 1168 L217 1365 L228 1365 Q430 1363 480.5 1355.5 Q531 1348 577 1312 Q625 1275 646 1218 Q667 1161 667 1067 L667 803 Q667 716 693 674 Q719 632 782 618 L782 384 Q720 369 693.5 329.5 Q667 290 667 212 L667 -67 Q667 -234 576 -300 Q529 -334 479 -341.5 Q429 -349 228 -351 L217 -351 L217 -154 L244 -154 Q348 -154 382 -107.5 Q416 -61 416 82 L416 262 Q416 361 441 413.5 Q466 466 533 508 Z " />
<glyph glyph-name="asciitilde" unicode="&#x7e;" horiz-adv-x="1365" d="M334 1136 L190 1255 Q301 1530 493 1530 Q562 1530 724 1460 Q806 1424 832 1415.5 Q858 1407 884 1407 Q967 1407 1035 1535 L1179 1416 Q1140 1320 1106 1275 Q1011 1145 859 1145 Q818 1145 780 1157.5 Q742 1170 632 1219 Q529 1265 481 1265 Q404 1265 334 1136 Z " />
<glyph glyph-name="nbspace" unicode="&#xa0;" horiz-adv-x="512" d="" />
<glyph glyph-name="exclamdown" unicode="&#xa1;" horiz-adv-x="651" d="M162 -375 L162 -11 L237 575 L374 575 L449 -7 L449 -375 L162 -375 Z M308 985 Q369 985 413.5 939.5 Q458 894 458 832 Q458 769 413 723.5 Q368 678 305 678 Q243 678 197.5 723.5 Q152 769 152 832 Q152 895 197.5 940 Q243 985 308 985 Z " />
<glyph glyph-name="cent" unicode="&#xa2;" horiz-adv-x="1147" d="M1081 578 Q1063 395 949.5 286.5 Q836 178 653 168 L653 -33 L540 -33 L540 168 Q359 180 249 283 Q91 430 91 681 Q91 980 296 1121 Q402 1194 540 1204 L540 1371 L653 1371 L653 1204 Q841 1196 950 1097 Q1063 996 1076 831 L818 831 Q798 983 653 1005 L653 375 Q807 396 823 578 L1081 578 Z M540 1003 Q359 954 359 690 Q359 556 405.5 475 Q452 394 540 375 L540 1003 Z " />
<glyph glyph-name="sterling" unicode="&#xa3;" horiz-adv-x="1147" d="M1091 942 L823 942 Q817 1158 615 1158 Q537 1158 486.5 1114 Q436 1070 436 1001 Q436 943 470 858 Q492 804 506 765 L762 765 L762 607 L559 607 Q580 537 580 499 Q580 422 544 360 Q508 298 417 219 Q509 260 590 260 Q645 260 723 236 Q808 211 847 211 Q950 211 1024 298 L1139 96 Q1086 38 1005 6.5 Q924 -25 831 -25 Q776 -25 738 -18 Q700 -11 598 19 Q493 50 424 50 Q371 50 327.5 34 Q284 18 219 -26 L100 152 Q193 219 235 272 Q312 366 312 468 Q312 529 277 607 L88 607 L88 765 L211 765 Q142 883 142 1013 Q142 1181 270.5 1283 Q399 1385 610 1385 Q838 1385 963 1270 Q1088 1155 1091 942 Z " />
<glyph glyph-name="currency" unicode="&#xa4;" horiz-adv-x="1365" d="M213 454 Q114 601 114 773 Q114 948 214 1093 L88 1219 L231 1364 L358 1238 Q512 1340 683 1340 Q852 1340 1003 1241 L1128 1364 L1271 1219 L1147 1098 Q1251 947 1251 772 Q1251 602 1152 455 L1276 331 L1134 186 L1010 309 Q862 204 681 204 Q502 204 356 308 L231 186 L90 331 L213 454 Z M686 1107 Q543 1107 445 1009 Q347 911 347 771 Q347 634 445 535 Q543 437 681 437 Q820 437 918 535 Q1016 633 1016 772 Q1016 914 918 1009 Q817 1107 686 1107 Z " />
<glyph glyph-name="yen" unicode="&#xa5;" horiz-adv-x="1147" d="M858 820 L1069 820 L1069 665 L782 665 L714 529 L714 491 L1000 491 L1000 336 L714 336 L714 0 L444 0 L444 336 L159 336 L159 491 L444 491 L444 533 L378 665 L90 665 L90 820 L301 820 L47 1365 L344 1365 L493 1026 Q543 913 582 776 Q621 911 678 1040 L821 1365 L1112 1365 L858 820 Z " />
<glyph glyph-name="brokenbar" unicode="&#xa6;" horiz-adv-x="1024" d="M364 1365 L660 1365 L660 648 L364 648 L364 1365 Z M364 314 L660 314 L660 -341 L364 -341 L364 314 Z " />
<glyph glyph-name="section" unicode="&#xa7;" horiz-adv-x="1147" d="M978 1010 L740 1010 Q729 1166 585 1166 Q522 1166 483.5 1134 Q445 1102 445 1050 Q445 1002 479 970.5 Q513 939 628 882 Q881 755 957 698 Q1076 608 1076 471 Q1076 377 1024 303.5 Q972 230 882 197 Q983 107 983 -17 Q983 -171 857 -268 Q750 -351 577 -351 Q382 -351 270.5 -251.5 Q159 -152 159 22 L398 22 Q406 -46 428 -78 Q474 -145 577 -145 Q644 -145 685 -111 Q726 -77 726 -20 Q726 40 669 83.5 Q612 127 405 227 Q186 332 130 408 Q69 490 69 587 Q69 714 158 795 Q206 838 269 859 Q188 943 188 1048 Q188 1173 281 1260 Q393 1365 586 1365 Q813 1365 916 1214 Q977 1125 978 1010 Z M401 736 Q301 706 301 612 Q301 576 321 550.5 Q341 525 397 492 Q465 452 598 384 Q650 358 669 347 Q715 321 742 312 Q786 325 814 359.5 Q842 394 842 434 Q842 475 819.5 501 Q797 527 730 564 Q718 570 660 603 Q605 635 483 696 Q421 728 401 736 Z " />
<glyph glyph-name="dieresis" unicode="&#xa8;" horiz-adv-x="1024" d="M715 1423 Q776 1423 820.5 1377.5 Q865 1332 865 1270 Q865 1207 820 1161.5 Q775 1116 712 1116 Q649 1116 604 1161.5 Q559 1207 559 1270 Q559 1333 604.5 1378 Q650 1423 715 1423 Z M313 1423 Q374 1423 418.5 1377.5 Q463 1332 463 1270 Q463 1207 418 1161.5 Q373 1116 310 1116 Q248 1116 202.5 1161.5 Q157 1207 157 1270 Q157 1333 202.5 1378 Q248 1423 313 1423 Z " />
<glyph glyph-name="copyright" unicode="&#xa9;" horiz-adv-x="1591" d="M967 564 L1137 564 Q1123 447 1044 372 Q947 282 802 282 Q634 282 528 391 Q413 509 413 694 Q413 875 524 986 Q632 1094 797 1094 Q936 1094 1022.5 1024.5 Q1109 955 1137 819 L967 819 Q938 956 799 956 Q703 956 644 889 Q579 815 579 696 Q579 558 663 477 Q723 420 803 420 Q870 420 914.5 459 Q959 498 967 564 Z M795 1397 Q1092 1397 1302 1188 Q1511 979 1511 674 Q1511 481 1406 308 Q1300 136 1121 44 Q968 -34 796 -34 Q595 -34 422 72 Q250 177 159 357 Q81 510 81 682 Q81 885 186 1057 Q289 1226 472 1320 Q623 1397 795 1397 Z M796 1262 Q558 1262 388 1091 Q222 924 222 684 Q222 442 391 272 Q559 101 796 101 Q1034 101 1203 273 Q1283 354 1327 460 Q1371 567 1371 676 Q1371 928 1204 1092 Q1032 1262 796 1262 Z " />
<glyph glyph-name="ordfeminine" unicode="&#xaa;" horiz-adv-x="765" d="M694 587 L71 587 L71 703 L694 703 L694 587 Z M660 819 L493 819 Q485 840 482 864 Q411 804 304 804 Q213 804 163 844 Q105 890 105 972 Q105 1077 205 1117 Q245 1134 351 1147 Q440 1158 460.5 1167.5 Q481 1177 481 1206 Q481 1271 386 1271 Q335 1271 312 1253.5 Q289 1236 282 1191 L128 1191 Q142 1380 391 1380 Q525 1380 591 1328 Q621 1305 631 1276.5 Q641 1248 641 1188 Q641 1174 639 1081 Q638 1003 638 968 Q638 870 660 819 Z M480 1077 Q454 1064 379 1053 Q318 1044 295 1028 Q272 1012 272 978 Q272 911 351 911 Q410 911 445 942 Q480 973 480 1026 L480 1077 Z " />
<glyph glyph-name="guillemotleft" unicode="&#xab;" horiz-adv-x="881" d="M390 875 L390 642 L216 504 L390 371 L390 144 L87 380 L87 633 L390 875 Z M766 872 L766 639 L594 506 L766 372 L766 148 L465 383 L465 635 L766 872 Z " />
<glyph glyph-name="logicalnot" unicode="&#xac;" horiz-adv-x="1024" d="M669 0 L669 335 L68 335 L68 593 L955 593 L955 0 L669 0 Z " />
<glyph glyph-name="uni00AD" unicode="&#xad;" horiz-adv-x="519" d="M519 631 L519 388 L0 388 L0 631 L519 631 Z " />
<glyph glyph-name="registered" unicode="&#xae;" horiz-adv-x="1076" d="M537 1427 Q726 1427 854 1299 Q985 1168 985 973 Q985 780 854 649 Q726 519 537 519 Q347 519 219 649 Q88 781 88 977 Q88 1166 219 1299 Q345 1427 537 1427 Z M538 1314 Q397 1314 306 1221 Q209 1122 209 973 Q209 821 306 724 Q398 632 537 632 Q677 632 768 723 Q864 820 864 976 Q864 1124 768 1222 Q678 1314 538 1314 Z M662 963 Q698 950 712.5 922 Q727 894 731 827 Q734 764 750 743 L615 743 Q604 781 602 823 Q598 908 548 908 L487 908 L487 743 L353 743 L353 1210 L598 1210 Q661 1210 698.5 1173.5 Q736 1137 736 1077 Q736 1000 662 963 Z M487 1097 L487 1017 L558 1017 Q576 1017 589 1029.5 Q602 1042 602 1059 Q602 1097 558 1097 L487 1097 Z " />
<glyph glyph-name="overscore" unicode="&#xaf;" horiz-adv-x="1024" d="M824 1345 L824 1202 L199 1202 L199 1345 L824 1345 Z " />
<glyph glyph-name="degree" unicode="&#xb0;" horiz-adv-x="815" d="M409 1377 Q547 1377 645 1274 Q733 1182 733 1048 Q733 913 635 818 Q540 725 409 725 Q264 725 166 832 Q82 924 82 1050 Q82 1121 112 1187.5 Q142 1254 193 1297 Q288 1377 409 1377 Z M405 1251 Q331 1251 275 1198 Q210 1137 210 1051 Q210 977 258 920 Q316 851 407 851 Q487 851 546 909.5 Q605 968 605 1046 Q605 1131 550 1188 Q489 1251 405 1251 Z " />
<glyph glyph-name="plusminus" unicode="&#xb1;" horiz-adv-x="1147" d="M102 577 L102 760 L482 760 L482 1140 L665 1140 L665 760 L1044 760 L1044 577 L665 577 L665 225 L482 225 L482 577 L102 577 Z M102 -27 L102 156 L1044 156 L1044 -27 L102 -27 Z " />
<glyph glyph-name="twosuperior" unicode="&#xb2;" horiz-adv-x="768" d="M699 699 L699 546 L56 546 Q56 689 146 779 Q179 812 217 838 Q255 864 394 953 Q456 992 480 1023.5 Q504 1055 504 1097 Q504 1146 472.5 1175.5 Q441 1205 388 1205 Q261 1205 256 1032 L76 1032 Q75 1048 75 1055 Q75 1200 166 1280 Q255 1358 395 1358 Q519 1358 603 1295 Q695 1226 695 1109 Q695 1007 622 933 Q588 900 470 827 Q332 742 296 695 Q365 699 429 699 L699 699 Z " />
<glyph glyph-name="threesuperior" unicode="&#xb3;" horiz-adv-x="768" d="M74 1081 Q77 1185 129 1251 Q213 1358 379 1358 Q506 1358 585 1300 Q672 1237 672 1135 Q672 1029 569 979 Q703 931 703 796 Q703 681 611.5 607.5 Q520 534 377 534 Q226 534 139 610.5 Q52 687 52 820 Q52 824 53 834 L234 834 Q232 686 374 686 Q435 686 472 716.5 Q509 747 509 796 Q509 906 358 906 Q338 906 310 904 L310 1033 Q332 1031 347 1031 Q491 1031 491 1124 Q491 1165 460 1190 Q429 1215 378 1215 Q257 1215 254 1081 L74 1081 Z " />
<glyph glyph-name="acute" unicode="&#xb4;" horiz-adv-x="1024" d="M823 1416 L547 1140 L365 1140 L537 1416 L823 1416 Z " />
<glyph glyph-name="mu" unicode="&#xb5;" horiz-adv-x="1024" d="M67 -348 L67 983 L316 983 L316 464 Q316 385 324 346.5 Q332 308 355 274 Q415 187 510 187 Q624 187 672 296 Q707 376 707 474 L707 983 L956 983 L956 0 L707 0 L707 143 Q645 -21 506 -21 Q442 -21 398 8.5 Q354 38 316 106 L316 -348 L67 -348 Z " />
<glyph glyph-name="paragraph" unicode="&#xb6;" horiz-adv-x="1147" d="M464 -351 L464 655 Q444 654 437 654 Q292 654 190 734 Q68 828 68 1005 Q68 1108 112.5 1188.5 Q157 1269 238 1312 Q337 1365 532 1365 L1040 1365 L1040 1239 L953 1239 L953 -351 L789 -351 L789 1239 L628 1239 L628 -351 L464 -351 Z " />
<glyph glyph-name="periodcentered" unicode="&#xb7;" horiz-adv-x="569" d="M288 651 Q349 651 393.5 605.5 Q438 560 438 498 Q438 435 393 389.5 Q348 344 285 344 Q222 344 177 389.5 Q132 435 132 498 Q132 561 177.5 606 Q223 651 288 651 Z " />
<glyph glyph-name="cedilla" unicode="&#xb8;" horiz-adv-x="1024" d="M558 0 L476 -120 Q522 -112 552 -112 Q627 -112 673.5 -149.5 Q720 -187 720 -248 Q720 -329 656.5 -378 Q593 -427 486 -427 Q379 -427 268 -382 L305 -302 Q387 -334 453 -334 Q499 -334 526.5 -314 Q554 -294 554 -262 Q554 -230 528.5 -210.5 Q503 -191 461 -191 Q432 -191 392 -206 L352 -168 L467 0 L558 0 Z " />
<glyph glyph-name="onesuperior" unicode="&#xb9;" horiz-adv-x="768" d="M540 1353 L540 546 L352 546 L352 1065 L297 1065 L235 1065 L174 1065 L147 1065 L147 1194 Q264 1196 318.5 1232 Q373 1268 391 1353 L540 1353 Z " />
<glyph glyph-name="ordmasculine" unicode="&#xba;" horiz-adv-x="765" d="M694 587 L71 587 L71 703 L694 703 L694 587 Z M387 1380 Q514 1380 594 1301 Q674 1223 674 1093 Q674 959 589 879 Q510 804 383 804 Q247 804 167 887 Q90 966 90 1092 Q90 1216 165 1294 Q248 1380 387 1380 Z M383 1261 Q322 1261 288 1216.5 Q254 1172 254 1091 Q254 1012 288 967.5 Q322 923 383 923 Q443 923 476.5 967.5 Q510 1012 510 1093 Q510 1171 476 1216 Q442 1261 383 1261 Z " />
<glyph glyph-name="guillemotright" unicode="&#xbb;" horiz-adv-x="881" d="M490 875 L794 633 L794 380 L490 144 L490 371 L664 504 L490 642 L490 875 Z M115 872 L414 635 L414 383 L115 148 L115 372 L286 506 L115 639 L115 872 Z " />
<glyph glyph-name="onequarter" unicode="&#xbc;" horiz-adv-x="1870" d="M540 1353 L540 546 L352 546 L352 1065 L297 1065 L235 1065 L174 1065 L147 1065 L147 1194 Q264 1196 318.5 1232 Q373 1268 391 1353 L540 1353 Z M1388 1346 L642 0 L482 0 L1232 1346 L1388 1346 Z M1819 329 L1819 182 L1708 182 L1708 0 L1528 0 L1528 182 L1159 182 L1159 339 L1536 807 L1708 807 L1708 329 L1819 329 Z M1533 323 L1533 614 L1311 322 L1533 323 Z " />
<glyph glyph-name="onehalf" unicode="&#xbd;" horiz-adv-x="1869" d="M540 1353 L540 546 L352 546 L352 1065 L297 1065 L235 1065 L174 1065 L147 1065 L147 1194 Q264 1196 318.5 1232 Q373 1268 391 1353 L540 1353 Z M1388 1346 L642 0 L482 0 L1232 1346 L1388 1346 Z M1800 153 L1800 0 L1157 0 Q1158 145 1247 233 Q1295 280 1495 407 Q1557 446 1581 477.5 Q1605 509 1605 551 Q1605 600 1573.5 629.5 Q1542 659 1490 659 Q1424 659 1392 617.5 Q1360 576 1357 486 L1177 486 Q1176 502 1176 509 Q1176 654 1267 734 Q1356 812 1496 812 Q1620 812 1704 749 Q1796 680 1796 563 Q1796 461 1723 387 Q1690 355 1571 281 Q1433 196 1397 149 Q1467 153 1530 153 L1800 153 Z " />
<glyph glyph-name="threequarters" unicode="&#xbe;" horiz-adv-x="1870" d="M74 1081 Q77 1185 129 1251 Q213 1358 379 1358 Q506 1358 585 1300 Q672 1237 672 1135 Q672 1029 569 979 Q703 931 703 796 Q703 681 611.5 607.5 Q520 534 377 534 Q226 534 139 610.5 Q52 687 52 820 Q52 824 53 834 L234 834 Q232 686 374 686 Q435 686 472 716.5 Q509 747 509 796 Q509 906 358 906 Q338 906 310 904 L310 1033 Q332 1031 347 1031 Q491 1031 491 1124 Q491 1165 460 1190 Q429 1215 378 1215 Q257 1215 254 1081 L74 1081 Z M1387 1346 L641 0 L481 0 L1231 1346 L1387 1346 Z M1818 329 L1818 182 L1707 182 L1707 0 L1527 0 L1527 182 L1158 182 L1158 339 L1536 807 L1707 807 L1707 329 L1818 329 Z M1532 323 L1532 614 L1310 322 L1532 323 Z " />
<glyph glyph-name="questiondown" unicode="&#xbf;" horiz-adv-x="1102" d="M1009 61 Q1000 -120 921 -230 Q791 -409 526 -409 Q317 -409 193 -296 Q72 -186 72 -17 Q72 97 125 173 Q178 249 334 359 Q382 392 402 440.5 Q422 489 424 575 L678 575 Q675 467 671 433.5 Q667 400 651 360 Q633 311 603 277 Q573 243 482 169 Q434 130 416 110 Q398 90 385 62 Q366 22 366 -22 Q366 -91 411 -133 Q456 -175 530 -175 Q628 -175 676.5 -118 Q725 -61 730 61 L1009 61 Z M556 985 Q617 985 661.5 939.5 Q706 894 706 832 Q706 769 661 723.5 Q616 678 553 678 Q490 678 445 723.5 Q400 769 400 832 Q400 895 445.5 940 Q491 985 556 985 Z " />
<glyph glyph-name="Agrave" unicode="&#xc0;" horiz-adv-x="1345" d="M827 1368 L1346 0 L1033 0 L924 306 L417 306 L306 0 L-1 0 L519 1368 L827 1368 Z M851 524 L764 770 Q703 939 673 1067 Q639 945 576 770 L489 524 L851 524 Z M355 1729 L668 1729 L840 1480 L640 1480 L355 1729 Z " />
<glyph glyph-name="Aacute" unicode="&#xc1;" horiz-adv-x="1345" d="M827 1368 L1346 0 L1033 0 L924 306 L417 306 L306 0 L-1 0 L519 1368 L827 1368 Z M851 524 L764 770 Q703 939 673 1067 Q639 945 576 770 L489 524 L851 524 Z M990 1729 L705 1480 L505 1480 L677 1729 L990 1729 Z " />
<glyph glyph-name="Acircumflex" unicode="&#xc2;" horiz-adv-x="1345" d="M827 1368 L1346 0 L1033 0 L924 306 L417 306 L306 0 L-1 0 L519 1368 L827 1368 Z M851 524 L764 770 Q703 939 673 1067 Q639 945 576 770 L489 524 L851 524 Z M1023 1485 L780 1485 L668 1618 L554 1485 L322 1485 L545 1741 L801 1741 L1023 1485 Z " />
<glyph glyph-name="Atilde" unicode="&#xc3;" horiz-adv-x="1345" d="M827 1368 L1346 0 L1033 0 L924 306 L417 306 L306 0 L-1 0 L519 1368 L827 1368 Z M851 524 L764 770 Q703 939 673 1067 Q639 945 576 770 L489 524 L851 524 Z M1037 1738 Q994 1493 812 1493 Q782 1493 762.5 1498.5 Q743 1504 676 1530 Q583 1568 547 1568 Q485 1568 467 1488 L335 1488 Q351 1583 396 1639 Q468 1730 554 1730 Q601 1730 692 1694 Q777 1661 817 1661 Q849 1661 869 1678 Q889 1695 905 1738 L1037 1738 Z " />
<glyph glyph-name="Adieresis" unicode="&#xc4;" horiz-adv-x="1345" d="M827 1368 L1346 0 L1033 0 L924 306 L417 306 L306 0 L-1 0 L519 1368 L827 1368 Z M851 524 L764 770 Q703 939 673 1067 Q639 945 576 770 L489 524 L851 524 Z M888 1760 Q949 1760 993.5 1714.5 Q1038 1669 1038 1607 Q1038 1544 993 1498.5 Q948 1453 885 1453 Q822 1453 777 1498.5 Q732 1544 732 1607 Q732 1670 777.5 1715 Q823 1760 888 1760 Z M464 1760 Q525 1760 569.5 1714.5 Q614 1669 614 1607 Q614 1544 569 1498.5 Q524 1453 461 1453 Q399 1453 353.5 1498.5 Q308 1544 308 1607 Q308 1670 353.5 1715 Q399 1760 464 1760 Z " />
<glyph glyph-name="Aring" unicode="&#xc5;" horiz-adv-x="1345" d="M827 1368 L1346 0 L1033 0 L924 306 L417 306 L306 0 L-1 0 L519 1368 L827 1368 Z M851 524 L764 770 Q703 939 673 1067 Q639 945 576 770 L489 524 L851 524 Z M676 1890 Q772 1890 841 1815 Q899 1750 899 1663 Q899 1562 824 1494 Q759 1436 673 1436 Q572 1436 504 1511 Q446 1576 446 1665 Q446 1763 521 1831 Q585 1890 676 1890 Z M674 1771 Q629 1771 597 1740 Q565 1709 565 1664 Q565 1618 596.5 1586.5 Q628 1555 673 1555 Q717 1555 748.5 1586.5 Q780 1618 780 1663 Q780 1707 748.5 1739 Q717 1771 674 1771 Z " />
<glyph glyph-name="AE" unicode="&#xc6;" horiz-adv-x="1890" d="M1793 1365 L1793 1112 L1151 1112 L1151 822 L1754 822 L1754 587 L1151 587 L1151 253 L1810 253 L1810 0 L869 0 L869 296 L434 296 L297 0 L-24 0 L630 1365 L1793 1365 Z M869 514 L869 1124 L804 1124 L528 514 L869 514 Z " />
<glyph glyph-name="Ccedilla" unicode="&#xc7;" horiz-adv-x="1398" d="M1343 527 Q1324 288 1172 136 Q1083 47 985 10.5 Q887 -26 719 -33 L661 -119 Q709 -109 737 -109 Q808 -109 855.5 -148 Q903 -187 903 -246 Q903 -326 838.5 -374.5 Q774 -423 666 -423 Q570 -423 451 -379 L488 -297 Q572 -331 639 -331 Q681 -331 708 -310.5 Q735 -290 735 -258 Q735 -227 709 -207.5 Q683 -188 641 -188 Q611 -188 574 -203 L534 -164 L625 -28 Q403 9 270 145 Q72 349 72 678 Q72 1000 267 1207 Q447 1398 742 1398 Q1028 1398 1200 1207 Q1311 1084 1333 908 L1035 908 Q1019 1007 965 1061 Q879 1150 735 1150 Q542 1150 444 987 Q372 866 372 689 Q372 497 450 374 Q502 294 567.5 255.5 Q633 217 718 217 Q777 217 833.5 231 Q890 245 919 267 Q966 302 1001 374 Q1036 446 1045 527 L1343 527 Z " />
<glyph glyph-name="Egrave" unicode="&#xc8;" horiz-adv-x="1250" d="M1156 1365 L1156 1112 L430 1112 L430 822 L1096 822 L1096 587 L430 587 L430 253 L1170 253 L1170 0 L132 0 L132 1365 L1156 1365 Z M328 1729 L641 1729 L813 1480 L614 1480 L328 1729 Z " />
<glyph glyph-name="Eacute" unicode="&#xc9;" horiz-adv-x="1250" d="M1156 1365 L1156 1112 L430 1112 L430 822 L1096 822 L1096 587 L430 587 L430 253 L1170 253 L1170 0 L132 0 L132 1365 L1156 1365 Z M984 1729 L698 1480 L499 1480 L671 1729 L984 1729 Z " />
<glyph glyph-name="Ecircumflex" unicode="&#xca;" horiz-adv-x="1250" d="M1156 1365 L1156 1112 L430 1112 L430 822 L1096 822 L1096 587 L430 587 L430 253 L1170 253 L1170 0 L132 0 L132 1365 L1156 1365 Z M1010 1485 L767 1485 L655 1618 L541 1485 L309 1485 L532 1741 L788 1741 L1010 1485 Z " />
<glyph glyph-name="Edieresis" unicode="&#xcb;" horiz-adv-x="1250" d="M1156 1365 L1156 1112 L430 1112 L430 822 L1096 822 L1096 587 L430 587 L430 253 L1170 253 L1170 0 L132 0 L132 1365 L1156 1365 Z M869 1760 Q930 1760 974.5 1714.5 Q1019 1669 1019 1607 Q1019 1544 974 1498.5 Q929 1453 866 1453 Q804 1453 758.5 1498.5 Q713 1544 713 1607 Q713 1670 758.5 1715 Q804 1760 869 1760 Z M445 1760 Q506 1760 550.5 1714.5 Q595 1669 595 1607 Q595 1544 550 1498.5 Q505 1453 442 1453 Q380 1453 334.5 1498.5 Q289 1544 289 1607 Q289 1670 334.5 1715 Q380 1760 445 1760 Z " />
<glyph glyph-name="Igrave" unicode="&#xcc;" horiz-adv-x="564" d="M430 1365 L430 0 L132 0 L132 1365 L430 1365 Z M-43 1729 L270 1729 L443 1480 L243 1480 L-43 1729 Z " />
<glyph glyph-name="Iacute" unicode="&#xcd;" horiz-adv-x="564" d="M430 1365 L430 0 L132 0 L132 1365 L430 1365 Z M607 1729 L321 1480 L121 1480 L293 1729 L607 1729 Z " />
<glyph glyph-name="Icircumflex" unicode="&#xce;" horiz-adv-x="564" d="M430 1365 L430 0 L132 0 L132 1365 L430 1365 Z M611 1485 L369 1485 L278 1618 L184 1485 L-48 1485 L154 1741 L410 1741 L611 1485 Z " />
<glyph glyph-name="Idieresis" unicode="&#xcf;" horiz-adv-x="564" d="M430 1365 L430 0 L132 0 L132 1365 L430 1365 Z M451 1760 Q512 1760 556.5 1714.5 Q601 1669 601 1607 Q601 1544 556 1498.5 Q511 1453 448 1453 Q385 1453 340 1498.5 Q295 1544 295 1607 Q295 1670 340.5 1715 Q386 1760 451 1760 Z M119 1760 Q180 1760 224.5 1714.5 Q269 1669 269 1607 Q269 1544 224 1498.5 Q179 1453 116 1453 Q54 1453 8.5 1498.5 Q-37 1544 -37 1607 Q-37 1670 8.5 1715 Q54 1760 119 1760 Z " />
<glyph glyph-name="Eth" unicode="&#xd0;" horiz-adv-x="1419" d="M132 1365 L684 1365 Q837 1365 947 1329.5 Q1057 1294 1141 1218 Q1346 1032 1346 699 Q1346 350 1153 157 Q1067 72 961 36 Q855 0 690 0 L132 0 L132 616 L9 616 L9 807 L132 807 L132 1365 Z M430 1114 L430 807 L730 807 L730 616 L430 616 L430 253 L659 253 Q765 253 828 274 Q891 295 938 345 Q1046 463 1046 688 Q1046 898 945 1006 Q844 1114 649 1114 L430 1114 Z " />
<glyph glyph-name="Ntilde" unicode="&#xd1;" horiz-adv-x="1420" d="M1287 1365 L1287 0 L987 0 L580 659 Q447 880 408 965 Q420 811 420 581 L420 0 L133 0 L133 1365 L437 1365 L834 721 Q956 523 1012 406 Q1000 621 1000 797 L1000 1365 L1287 1365 Z M1082 1738 Q1038 1493 856 1493 Q826 1493 806.5 1498.5 Q787 1504 721 1530 Q627 1568 592 1568 Q530 1568 512 1488 L379 1488 Q395 1583 440 1639 Q512 1730 598 1730 Q645 1730 736 1694 Q821 1661 861 1661 Q893 1661 913 1678 Q933 1695 950 1738 L1082 1738 Z " />
<glyph glyph-name="Ograve" unicode="&#xd2;" horiz-adv-x="1490" d="M756 1398 Q1029 1398 1213 1219 Q1417 1020 1417 682 Q1417 392 1263 200 Q1075 -33 747 -33 Q413 -33 222 205 Q72 393 72 681 Q72 1020 267 1210 Q459 1398 756 1398 Z M752 1150 Q576 1150 475 1025 Q372 898 372 683 Q372 463 473 339 Q521 281 594 248 Q667 215 749 215 Q913 215 1008 329 Q1117 460 1117 687 Q1117 898 1017 1025 Q918 1150 752 1150 Z M420 1729 L733 1729 L905 1480 L705 1480 L420 1729 Z " />
<glyph glyph-name="Oacute" unicode="&#xd3;" horiz-adv-x="1490" d="M756 1398 Q1029 1398 1213 1219 Q1417 1020 1417 682 Q1417 392 1263 200 Q1075 -33 747 -33 Q413 -33 222 205 Q72 393 72 681 Q72 1020 267 1210 Q459 1398 756 1398 Z M752 1150 Q576 1150 475 1025 Q372 898 372 683 Q372 463 473 339 Q521 281 594 248 Q667 215 749 215 Q913 215 1008 329 Q1117 460 1117 687 Q1117 898 1017 1025 Q918 1150 752 1150 Z M1083 1729 L797 1480 L597 1480 L770 1729 L1083 1729 Z " />
<glyph glyph-name="Ocircumflex" unicode="&#xd4;" horiz-adv-x="1490" d="M756 1398 Q1029 1398 1213 1219 Q1417 1020 1417 682 Q1417 392 1263 200 Q1075 -33 747 -33 Q413 -33 222 205 Q72 393 72 681 Q72 1020 267 1210 Q459 1398 756 1398 Z M752 1150 Q576 1150 475 1025 Q372 898 372 683 Q372 463 473 339 Q521 281 594 248 Q667 215 749 215 Q913 215 1008 329 Q1117 460 1117 687 Q1117 898 1017 1025 Q918 1150 752 1150 Z M1095 1485 L852 1485 L740 1618 L626 1485 L394 1485 L617 1741 L873 1741 L1095 1485 Z " />
<glyph glyph-name="Otilde" unicode="&#xd5;" horiz-adv-x="1490" d="M756 1398 Q1029 1398 1213 1219 Q1417 1020 1417 682 Q1417 392 1263 200 Q1075 -33 747 -33 Q413 -33 222 205 Q72 393 72 681 Q72 1020 267 1210 Q459 1398 756 1398 Z M752 1150 Q576 1150 475 1025 Q372 898 372 683 Q372 463 473 339 Q521 281 594 248 Q667 215 749 215 Q913 215 1008 329 Q1117 460 1117 687 Q1117 898 1017 1025 Q918 1150 752 1150 Z M1116 1738 Q1073 1493 891 1493 Q860 1493 841 1498.5 Q822 1504 755 1530 Q662 1568 626 1568 Q564 1568 546 1488 L413 1488 Q430 1583 475 1639 Q547 1730 633 1730 Q680 1730 771 1694 Q856 1661 895 1661 Q928 1661 947.5 1678 Q967 1695 984 1738 L1116 1738 Z " />
<glyph glyph-name="Odieresis" unicode="&#xd6;" horiz-adv-x="1490" d="M756 1398 Q1029 1398 1213 1219 Q1417 1020 1417 682 Q1417 392 1263 200 Q1075 -33 747 -33 Q413 -33 222 205 Q72 393 72 681 Q72 1020 267 1210 Q459 1398 756 1398 Z M752 1150 Q576 1150 475 1025 Q372 898 372 683 Q372 463 473 339 Q521 281 594 248 Q667 215 749 215 Q913 215 1008 329 Q1117 460 1117 687 Q1117 898 1017 1025 Q918 1150 752 1150 Z M960 1760 Q1021 1760 1065.5 1714.5 Q1110 1669 1110 1607 Q1110 1544 1065 1498.5 Q1020 1453 957 1453 Q895 1453 849.5 1498.5 Q804 1544 804 1607 Q804 1670 849.5 1715 Q895 1760 960 1760 Z M536 1760 Q597 1760 641.5 1714.5 Q686 1669 686 1607 Q686 1544 641 1498.5 Q596 1453 533 1453 Q470 1453 425 1498.5 Q380 1544 380 1607 Q380 1670 425.5 1715 Q471 1760 536 1760 Z " />
<glyph glyph-name="multiply" unicode="&#xd7;" horiz-adv-x="1147" d="M276 242 L147 372 L444 669 L147 966 L276 1096 L574 798 L871 1096 L1000 966 L703 669 L1000 372 L871 242 L574 540 L276 242 Z " />
<glyph glyph-name="Oslash" unicode="&#xd8;" horiz-adv-x="1490" d="M1412 1297 L1273 1141 Q1406 954 1406 696 Q1406 532 1365.5 411.5 Q1325 291 1233 178 Q1152 79 1025.5 23 Q899 -33 757 -33 Q625 -33 512.5 0 Q400 33 332 92 L198 -61 L64 61 L201 222 Q144 303 122 353 Q62 485 62 682 Q62 1019 255 1211 Q442 1398 752 1398 Q910 1398 1024 1339 L1147 1271 L1273 1412 L1412 1297 Z M960 1080 Q839 1150 739 1150 Q581 1150 485 1050 Q363 922 363 680 Q363 572 403 439 L960 1080 Z M1063 927 L521 294 Q570 252 621 234 Q672 216 741 216 Q919 216 1023 367 Q1070 433 1089 503.5 Q1108 574 1108 677 Q1108 750 1099.5 796.5 Q1091 843 1063 927 Z " />
<glyph glyph-name="Ugrave" unicode="&#xd9;" horiz-adv-x="1393" d="M1278 1365 L1278 558 Q1278 404 1254.5 314.5 Q1231 225 1172 149 Q1089 45 954 1 Q850 -33 697 -33 Q342 -33 199 173 Q150 244 130.5 330 Q111 416 111 562 L111 1365 L409 1365 L409 543 Q409 387 455 319 Q524 215 703 215 Q854 215 917 290 Q980 365 980 543 L980 1365 L1278 1365 Z M371 1729 L685 1729 L857 1480 L657 1480 L371 1729 Z " />
<glyph glyph-name="Uacute" unicode="&#xda;" horiz-adv-x="1393" d="M1278 1365 L1278 558 Q1278 404 1254.5 314.5 Q1231 225 1172 149 Q1089 45 954 1 Q850 -33 697 -33 Q342 -33 199 173 Q150 244 130.5 330 Q111 416 111 562 L111 1365 L409 1365 L409 543 Q409 387 455 319 Q524 215 703 215 Q854 215 917 290 Q980 365 980 543 L980 1365 L1278 1365 Z M1021 1729 L735 1480 L535 1480 L708 1729 L1021 1729 Z " />
<glyph glyph-name="Ucircumflex" unicode="&#xdb;" horiz-adv-x="1393" d="M1278 1365 L1278 558 Q1278 404 1254.5 314.5 Q1231 225 1172 149 Q1089 45 954 1 Q850 -33 697 -33 Q342 -33 199 173 Q150 244 130.5 330 Q111 416 111 562 L111 1365 L409 1365 L409 543 Q409 387 455 319 Q524 215 703 215 Q854 215 917 290 Q980 365 980 543 L980 1365 L1278 1365 Z M1046 1485 L803 1485 L692 1618 L578 1485 L346 1485 L568 1741 L824 1741 L1046 1485 Z " />
<glyph glyph-name="Udieresis" unicode="&#xdc;" horiz-adv-x="1393" d="M1278 1365 L1278 558 Q1278 404 1254.5 314.5 Q1231 225 1172 149 Q1089 45 954 1 Q850 -33 697 -33 Q342 -33 199 173 Q150 244 130.5 330 Q111 416 111 562 L111 1365 L409 1365 L409 543 Q409 387 455 319 Q524 215 703 215 Q854 215 917 290 Q980 365 980 543 L980 1365 L1278 1365 Z M912 1760 Q973 1760 1017.5 1714.5 Q1062 1669 1062 1607 Q1062 1544 1017 1498.5 Q972 1453 909 1453 Q847 1453 801.5 1498.5 Q756 1544 756 1607 Q756 1670 801.5 1715 Q847 1760 912 1760 Z M488 1760 Q549 1760 593.5 1714.5 Q638 1669 638 1607 Q638 1544 593 1498.5 Q548 1453 485 1453 Q422 1453 377 1498.5 Q332 1544 332 1607 Q332 1670 377.5 1715 Q423 1760 488 1760 Z " />
<glyph glyph-name="Yacute" unicode="&#xdd;" horiz-adv-x="1241" d="M1277 1365 L769 526 L769 0 L471 0 L471 530 L-39 1365 L302 1365 L514 1001 Q569 907 623 778 Q688 930 738 1014 L944 1365 L1277 1365 Z M945 1729 L659 1480 L459 1480 L632 1729 L945 1729 Z " />
<glyph glyph-name="Thorn" unicode="&#xde;" horiz-adv-x="1287" d="M132 1365 L430 1365 L430 1174 L683 1174 Q821 1174 901.5 1157 Q982 1140 1047 1096 Q1225 977 1225 736 Q1225 520 1078 399 Q1015 346 934.5 323 Q854 300 736 300 L430 300 L430 0 L132 0 L132 1365 Z M430 923 L430 535 L697 535 Q814 535 866 577 Q931 630 931 731 Q931 835 856 886 Q802 923 680 923 L430 923 Z " />
<glyph glyph-name="germandbls" unicode="&#xdf;" horiz-adv-x="1137" d="M502 203 Q543 197 572 197 Q677 197 739 261 Q801 325 801 434 Q801 550 734.5 606.5 Q668 663 533 663 Q526 663 502 662 L502 834 Q521 833 536 833 Q628 833 678 868 Q742 914 742 1006 Q742 1086 693 1135 Q644 1184 565 1184 Q458 1184 417 1109 Q388 1057 388 921 L388 0 L118 0 L118 870 Q118 1005 132.5 1077.5 Q147 1150 186 1209 Q242 1293 343.5 1339 Q445 1385 574 1385 Q750 1385 871 1298 Q1003 1203 1003 1029 Q1003 935 955.5 863 Q908 791 826 760 Q896 744 945 708 Q1074 610 1074 417 Q1074 202 911 72 Q803 -14 622 -14 Q572 -14 502 -8 L502 203 Z " />
<glyph glyph-name="agrave" unicode="&#xe0;" horiz-adv-x="1067" d="M236 1416 L522 1416 L694 1140 L512 1140 L236 1416 Z M1061 180 L1061 3 Q1007 -20 941 -20 Q850 -20 801.5 10.5 Q753 41 735 109 Q668 39 590 8 Q499 -27 394 -27 Q234 -27 143.5 51.5 Q53 130 53 270 Q53 417 148 488 Q198 525 266.5 545 Q335 565 459 579 Q618 598 662 620 Q712 646 712 708 Q712 834 543 834 Q450 834 407.5 800.5 Q365 767 355 685 L83 685 Q92 767 113 811 Q213 1017 558 1017 Q753 1017 862 954 Q984 882 984 736 L984 259 Q984 209 996.5 194.5 Q1009 180 1053 180 L1061 180 Z M712 484 Q669 451 547 436 Q421 420 373 386.5 Q325 353 325 282 Q325 155 493 155 Q712 155 712 379 L712 484 Z " />
<glyph glyph-name="aacute" unicode="&#xe1;" horiz-adv-x="1067" d="M858 1416 L582 1140 L400 1140 L572 1416 L858 1416 Z M1061 180 L1061 3 Q1007 -20 941 -20 Q850 -20 801.5 10.5 Q753 41 735 109 Q668 39 590 8 Q499 -27 394 -27 Q234 -27 143.5 51.5 Q53 130 53 270 Q53 417 148 488 Q198 525 266.5 545 Q335 565 459 579 Q618 598 662 620 Q712 646 712 708 Q712 834 543 834 Q450 834 407.5 800.5 Q365 767 355 685 L83 685 Q92 767 113 811 Q213 1017 558 1017 Q753 1017 862 954 Q984 882 984 736 L984 259 Q984 209 996.5 194.5 Q1009 180 1053 180 L1061 180 Z M712 484 Q669 451 547 436 Q421 420 373 386.5 Q325 353 325 282 Q325 155 493 155 Q712 155 712 379 L712 484 Z " />
<glyph glyph-name="acircumflex" unicode="&#xe2;" horiz-adv-x="1067" d="M891 1140 L671 1140 L550 1304 L427 1140 L218 1140 L431 1416 L678 1416 L891 1140 Z M1061 180 L1061 3 Q1007 -20 941 -20 Q850 -20 801.5 10.5 Q753 41 735 109 Q668 39 590 8 Q499 -27 394 -27 Q234 -27 143.5 51.5 Q53 130 53 270 Q53 417 148 488 Q198 525 266.5 545 Q335 565 459 579 Q618 598 662 620 Q712 646 712 708 Q712 834 543 834 Q450 834 407.5 800.5 Q365 767 355 685 L83 685 Q92 767 113 811 Q213 1017 558 1017 Q753 1017 862 954 Q984 882 984 736 L984 259 Q984 209 996.5 194.5 Q1009 180 1053 180 L1061 180 Z M712 484 Q669 451 547 436 Q421 420 373 386.5 Q325 353 325 282 Q325 155 493 155 Q712 155 712 379 L712 484 Z " />
<glyph glyph-name="atilde" unicode="&#xe3;" horiz-adv-x="1067" d="M884 1402 Q844 1166 676 1166 Q637 1166 604 1176.5 Q571 1187 481 1228 Q454 1240 429 1240 Q398 1240 377.5 1219.5 Q357 1199 351 1161 L227 1161 Q242 1253 282 1309 Q346 1398 435 1398 Q481 1398 564 1363 Q645 1328 683 1328 Q734 1328 761 1402 L884 1402 Z M1061 180 L1061 3 Q1007 -20 941 -20 Q850 -20 801.5 10.5 Q753 41 735 109 Q668 39 590 8 Q499 -27 394 -27 Q234 -27 143.5 51.5 Q53 130 53 270 Q53 417 148 488 Q198 525 266.5 545 Q335 565 459 579 Q618 598 662 620 Q712 646 712 708 Q712 834 543 834 Q450 834 407.5 800.5 Q365 767 355 685 L83 685 Q92 767 113 811 Q213 1017 558 1017 Q753 1017 862 954 Q984 882 984 736 L984 259 Q984 209 996.5 194.5 Q1009 180 1053 180 L1061 180 Z M712 484 Q669 451 547 436 Q421 420 373 386.5 Q325 353 325 282 Q325 155 493 155 Q712 155 712 379 L712 484 Z " />
<glyph glyph-name="adieresis" unicode="&#xe4;" horiz-adv-x="1067" d="M757 1423 Q818 1423 862.5 1377.5 Q907 1332 907 1270 Q907 1207 862 1161.5 Q817 1116 754 1116 Q691 1116 646 1161.5 Q601 1207 601 1270 Q601 1333 646.5 1378 Q692 1423 757 1423 Z M355 1423 Q416 1423 460.5 1377.5 Q505 1332 505 1270 Q505 1207 460 1161.5 Q415 1116 352 1116 Q289 1116 244 1161.5 Q199 1207 199 1270 Q199 1333 244.5 1378 Q290 1423 355 1423 Z M1061 180 L1061 3 Q1007 -20 941 -20 Q850 -20 801.5 10.5 Q753 41 735 109 Q668 39 590 8 Q499 -27 394 -27 Q234 -27 143.5 51.5 Q53 130 53 270 Q53 417 148 488 Q198 525 266.5 545 Q335 565 459 579 Q618 598 662 620 Q712 646 712 708 Q712 834 543 834 Q450 834 407.5 800.5 Q365 767 355 685 L83 685 Q92 767 113 811 Q213 1017 558 1017 Q753 1017 862 954 Q984 882 984 736 L984 259 Q984 209 996.5 194.5 Q1009 180 1053 180 L1061 180 Z M712 484 Q669 451 547 436 Q421 420 373 386.5 Q325 353 325 282 Q325 155 493 155 Q712 155 712 379 L712 484 Z " />
<glyph glyph-name="aring" unicode="&#xe5;" horiz-adv-x="1067" d="M552 1511 Q643 1511 707 1440 Q762 1380 762 1298 Q762 1203 691 1140 Q631 1085 549 1085 Q454 1085 391 1156 Q336 1216 336 1300 Q336 1391 407 1456 Q467 1511 552 1511 Z M551 1395 Q509 1395 480.5 1367 Q452 1339 452 1299 Q452 1258 480.5 1229.5 Q509 1201 549 1201 Q589 1201 617.5 1229.5 Q646 1258 646 1298 Q646 1338 618 1366.5 Q590 1395 551 1395 Z M1061 180 L1061 3 Q1007 -20 941 -20 Q850 -20 801.5 10.5 Q753 41 735 109 Q668 39 590 8 Q499 -27 394 -27 Q234 -27 143.5 51.5 Q53 130 53 270 Q53 417 148 488 Q198 525 266.5 545 Q335 565 459 579 Q618 598 662 620 Q712 646 712 708 Q712 834 543 834 Q450 834 407.5 800.5 Q365 767 355 685 L83 685 Q92 767 113 811 Q213 1017 558 1017 Q753 1017 862 954 Q984 882 984 736 L984 259 Q984 209 996.5 194.5 Q1009 180 1053 180 L1061 180 Z M712 484 Q669 451 547 436 Q421 420 373 386.5 Q325 353 325 282 Q325 155 493 155 Q712 155 712 379 L712 484 Z " />
<glyph glyph-name="ae" unicode="&#xe6;" horiz-adv-x="1727" d="M857 107 Q823 74 811 65 Q687 -28 437 -28 Q285 -28 203 12 Q53 86 53 270 Q53 417 148 488 Q198 525 267 545 Q336 565 459 580 Q619 598 662 620 Q712 646 712 708 Q712 834 543 834 Q450 834 407.5 800.5 Q365 767 355 685 L83 685 Q92 767 113 811 Q213 1017 560 1017 Q790 1017 912 919 Q1025 1017 1188 1017 Q1395 1017 1530 874 Q1668 730 1668 475 Q1668 453 1668 431 L963 431 Q964 341 995 280 Q1022 228 1072.5 198 Q1123 168 1186 168 Q1334 168 1396 309 L1654 309 Q1625 193 1540 107 Q1409 -27 1192 -27 Q982 -27 857 107 Z M712 484 Q669 451 547 436 Q421 420 373 387 Q325 354 325 282 Q325 155 493 155 Q712 155 712 379 L712 484 Z M1400 591 Q1393 683 1354 737 Q1292 821 1182 821 Q1068 821 1005 732 Q972 686 962 591 L1400 591 Z " />
<glyph glyph-name="ccedilla" unicode="&#xe7;" horiz-adv-x="1088" d="M1041 380 Q1020 198 893 85 Q828 27 755 2.5 Q682 -22 554 -28 L493 -120 Q538 -112 567 -112 Q642 -112 688.5 -149.5 Q735 -187 735 -248 Q735 -329 671.5 -378 Q608 -427 501 -427 Q395 -427 284 -382 L321 -302 Q403 -334 469 -334 Q515 -334 542.5 -314 Q570 -294 570 -262 Q570 -230 544.5 -210.5 Q519 -191 477 -191 Q447 -191 408 -206 L368 -168 L467 -21 Q342 5 269 56 Q148 141 98 281 Q62 383 62 493 Q62 613 106 718.5 Q150 824 230 896 Q365 1017 575 1017 Q811 1017 943 869 Q1019 784 1038 642 L769 642 Q736 812 573 812 Q447 812 386 708 Q337 624 337 495 Q337 362 387 279 Q448 178 573 178 Q747 178 779 380 L1041 380 Z " />
<glyph glyph-name="egrave" unicode="&#xe8;" horiz-adv-x="1106" d="M1032 307 Q1011 225 955 150 Q820 -27 569 -27 Q340 -27 203 112 Q62 255 62 490 Q62 706 190 853 Q333 1017 560 1017 Q742 1017 871 908 Q964 830 1006.5 714 Q1049 598 1048 425 L338 425 Q340 351 361 301 Q416 168 570 168 Q713 168 772 307 L1032 307 Z M772 598 Q764 672 738 719 Q712 767 664 794.5 Q616 822 559 822 Q468 822 409 761.5 Q350 701 339 598 L772 598 Z M256 1416 L542 1416 L714 1140 L532 1140 L256 1416 Z " />
<glyph glyph-name="eacute" unicode="&#xe9;" horiz-adv-x="1106" d="M1032 307 Q1011 225 955 150 Q820 -27 569 -27 Q340 -27 203 112 Q62 255 62 490 Q62 706 190 853 Q333 1017 560 1017 Q742 1017 871 908 Q964 830 1006.5 714 Q1049 598 1048 425 L338 425 Q340 351 361 301 Q416 168 570 168 Q713 168 772 307 L1032 307 Z M772 598 Q764 672 738 719 Q712 767 664 794.5 Q616 822 559 822 Q468 822 409 761.5 Q350 701 339 598 L772 598 Z M865 1416 L588 1140 L406 1140 L579 1416 L865 1416 Z " />
<glyph glyph-name="ecircumflex" unicode="&#xea;" horiz-adv-x="1106" d="M1032 307 Q1011 225 955 150 Q820 -27 569 -27 Q340 -27 203 112 Q62 255 62 490 Q62 706 190 853 Q333 1017 560 1017 Q742 1017 871 908 Q964 830 1006.5 714 Q1049 598 1048 425 L338 425 Q340 351 361 301 Q416 168 570 168 Q713 168 772 307 L1032 307 Z M772 598 Q764 672 738 719 Q712 767 664 794.5 Q616 822 559 822 Q468 822 409 761.5 Q350 701 339 598 L772 598 Z M904 1140 L684 1140 L563 1304 L440 1140 L231 1140 L444 1416 L691 1416 L904 1140 Z " />
<glyph glyph-name="edieresis" unicode="&#xeb;" horiz-adv-x="1106" d="M1032 307 Q1011 225 955 150 Q820 -27 569 -27 Q340 -27 203 112 Q62 255 62 490 Q62 706 190 853 Q333 1017 560 1017 Q742 1017 871 908 Q964 830 1006.5 714 Q1049 598 1048 425 L338 425 Q340 351 361 301 Q416 168 570 168 Q713 168 772 307 L1032 307 Z M772 598 Q764 672 738 719 Q712 767 664 794.5 Q616 822 559 822 Q468 822 409 761.5 Q350 701 339 598 L772 598 Z M770 1423 Q831 1423 875.5 1377.5 Q920 1332 920 1270 Q920 1207 875 1161.5 Q830 1116 767 1116 Q705 1116 659.5 1161.5 Q614 1207 614 1270 Q614 1333 659.5 1378 Q705 1423 770 1423 Z M368 1423 Q429 1423 473.5 1377.5 Q518 1332 518 1270 Q518 1207 473 1161.5 Q428 1116 365 1116 Q302 1116 257 1161.5 Q212 1207 212 1270 Q212 1333 257.5 1378 Q303 1423 368 1423 Z " />
<glyph glyph-name="igrave" unicode="&#xec;" horiz-adv-x="510" d="M388 990 L388 0 L118 0 L118 990 L388 990 Z M-43 1416 L229 1416 L402 1140 L233 1140 L-43 1416 Z " />
<glyph glyph-name="iacute" unicode="&#xed;" horiz-adv-x="510" d="M389 990 L389 0 L119 0 L119 990 L389 990 Z M553 1416 L276 1140 L108 1140 L280 1416 L553 1416 Z " />
<glyph glyph-name="icircumflex" unicode="&#xee;" horiz-adv-x="510" d="M388 990 L388 0 L118 0 L118 990 L388 990 Z M557 1140 L351 1140 L250 1304 L147 1140 L-48 1140 L131 1416 L379 1416 L557 1140 Z " />
<glyph glyph-name="idieresis" unicode="&#xef;" horiz-adv-x="510" d="M389 990 L389 0 L119 0 L119 990 L389 990 Z M458 1423 Q519 1423 563.5 1377.5 Q608 1332 608 1270 Q608 1207 563 1161.5 Q518 1116 455 1116 Q392 1116 347 1161.5 Q302 1207 302 1270 Q302 1333 347.5 1378 Q393 1423 458 1423 Z M66 1423 Q127 1423 171.5 1377.5 Q216 1332 216 1270 Q216 1207 171 1161.5 Q126 1116 63 1116 Q1 1116 -44.5 1161.5 Q-90 1207 -90 1270 Q-90 1333 -44.5 1378 Q1 1423 66 1423 Z " />
<glyph glyph-name="eth" unicode="&#xf0;" horiz-adv-x="1147" d="M366 1210 L515 1271 L465 1373 L622 1441 L679 1340 L840 1404 L904 1276 L760 1217 L919 962 Q1013 811 1042 736 Q1086 619 1086 497 Q1086 258 940 111 Q801 -28 577 -28 Q320 -28 180 141 Q62 283 62 494 Q62 689 161 826 Q226 915 326.5 966.5 Q427 1018 537 1018 Q574 1018 634 1010 L571 1139 L414 1074 L366 1210 Z M576 816 Q462 816 399 730 Q335 644 335 493 Q335 339 399 257 Q464 173 576 173 Q681 173 744 249 Q813 334 813 495 Q813 646 751 729 Q687 816 576 816 Z " />
<glyph glyph-name="ntilde" unicode="&#xf1;" horiz-adv-x="1158" d="M377 990 L377 852 Q422 913 465 944 Q566 1018 708 1018 Q834 1018 921 957 Q989 908 1017 833.5 Q1045 759 1045 623 L1045 0 L775 0 L775 569 Q775 665 758 710 Q742 750 701 773.5 Q660 797 604 797 Q542 797 491.5 767.5 Q441 738 416 688 Q389 631 389 512 L389 0 L119 0 L119 990 L377 990 Z M917 1402 Q877 1166 709 1166 Q670 1166 637.5 1176.5 Q605 1187 514 1228 Q487 1240 462 1240 Q431 1240 410.5 1219.5 Q390 1199 384 1161 L261 1161 Q275 1253 316 1309 Q379 1398 468 1398 Q515 1398 597 1363 Q678 1328 716 1328 Q767 1328 794 1402 L917 1402 Z " />
<glyph glyph-name="ograve" unicode="&#xf2;" horiz-adv-x="1147" d="M584 1017 Q806 1017 947 874 Q1086 732 1086 496 Q1086 253 938 108 Q799 -27 575 -27 Q338 -27 196 123 Q62 267 62 495 Q62 722 193 860 Q340 1017 584 1017 Z M576 816 Q463 816 399 731 Q335 645 335 493 Q335 339 399 258 Q464 174 576 174 Q681 174 744 250 Q813 334 813 496 Q813 646 751 729 Q687 816 576 816 Z M263 1416 L549 1416 L721 1140 L539 1140 L263 1416 Z " />
<glyph glyph-name="oacute" unicode="&#xf3;" horiz-adv-x="1147" d="M584 1017 Q806 1017 947 874 Q1086 732 1086 496 Q1086 253 938 108 Q799 -27 575 -27 Q338 -27 196 123 Q62 267 62 495 Q62 722 193 860 Q340 1017 584 1017 Z M576 816 Q463 816 399 731 Q335 645 335 493 Q335 339 399 258 Q464 174 576 174 Q681 174 744 250 Q813 334 813 496 Q813 646 751 729 Q687 816 576 816 Z M885 1416 L609 1140 L427 1140 L599 1416 L885 1416 Z " />
<glyph glyph-name="ocircumflex" unicode="&#xf4;" horiz-adv-x="1147" d="M584 1017 Q806 1017 947 874 Q1086 732 1086 496 Q1086 253 938 108 Q799 -27 575 -27 Q338 -27 196 123 Q62 267 62 495 Q62 722 193 860 Q340 1017 584 1017 Z M576 816 Q463 816 399 731 Q335 645 335 493 Q335 339 399 258 Q464 174 576 174 Q681 174 744 250 Q813 334 813 496 Q813 646 751 729 Q687 816 576 816 Z M911 1140 L691 1140 L570 1304 L446 1140 L237 1140 L450 1416 L698 1416 L911 1140 Z " />
<glyph glyph-name="otilde" unicode="&#xf5;" horiz-adv-x="1147" d="M584 1017 Q806 1017 947 874 Q1086 732 1086 496 Q1086 253 938 108 Q799 -27 575 -27 Q338 -27 196 123 Q62 267 62 495 Q62 722 193 860 Q340 1017 584 1017 Z M576 816 Q463 816 399 731 Q335 645 335 493 Q335 339 399 258 Q464 174 576 174 Q681 174 744 250 Q813 334 813 496 Q813 646 751 729 Q687 816 576 816 Z M909 1402 Q869 1166 701 1166 Q662 1166 629.5 1176.5 Q597 1187 507 1228 Q480 1240 455 1240 Q424 1240 403 1219.5 Q382 1199 376 1161 L253 1161 Q267 1253 308 1309 Q371 1398 460 1398 Q507 1398 589 1363 Q670 1328 708 1328 Q759 1328 786 1402 L909 1402 Z " />
<glyph glyph-name="odieresis" unicode="&#xf6;" horiz-adv-x="1147" d="M584 1017 Q806 1017 947 874 Q1086 732 1086 496 Q1086 253 938 108 Q799 -27 575 -27 Q338 -27 196 123 Q62 267 62 495 Q62 722 193 860 Q340 1017 584 1017 Z M576 816 Q463 816 399 731 Q335 645 335 493 Q335 339 399 258 Q464 174 576 174 Q681 174 744 250 Q813 334 813 496 Q813 646 751 729 Q687 816 576 816 Z M777 1423 Q838 1423 882.5 1377.5 Q927 1332 927 1270 Q927 1206 882 1161 Q837 1116 774 1116 Q712 1116 666.5 1161.5 Q621 1207 621 1270 Q621 1333 666.5 1378 Q712 1423 777 1423 Z M375 1423 Q436 1423 480.5 1377.5 Q525 1332 525 1270 Q525 1207 480 1161.5 Q435 1116 372 1116 Q309 1116 264 1161.5 Q219 1207 219 1270 Q219 1333 264.5 1378 Q310 1423 375 1423 Z " />
<glyph glyph-name="divide" unicode="&#xf7;" horiz-adv-x="1147" d="M575 1155 Q631 1155 671 1114 Q711 1073 711 1017 Q711 960 670.5 919.5 Q630 879 573 879 Q515 879 475 919.5 Q435 960 435 1018 Q435 1075 476 1115 Q517 1155 575 1155 Z M575 459 Q631 459 671 418 Q711 377 711 321 Q711 264 670.5 223.5 Q630 183 573 183 Q515 183 475 223.5 Q435 264 435 322 Q435 379 476 419 Q517 459 575 459 Z M102 577 L102 760 L1044 760 L1044 577 L102 577 Z " />
<glyph glyph-name="oslash" unicode="&#xf8;" horiz-adv-x="1147" d="M1080 954 L978 838 Q1087 715 1087 516 Q1087 274 954 128 Q813 -27 584 -27 Q408 -27 279 53 L164 -69 L65 31 L171 149 Q121 234 108 263 Q62 366 62 498 Q62 731 214 879 Q280 944 372 980.5 Q464 1017 560 1017 Q652 1017 736.5 995 Q821 973 874 935 L980 1050 L1080 954 Z M709 771 Q649 816 567 816 Q457 816 392 727.5 Q327 639 327 490 Q327 426 353 344 L709 771 Z M790 647 L437 220 Q479 191 504 182 Q529 173 570 173 Q688 173 753.5 257 Q819 341 819 491 Q819 561 790 647 Z " />
<glyph glyph-name="ugrave" unicode="&#xf9;" horiz-adv-x="1159" d="M1038 990 L1038 0 L780 0 L780 140 Q664 -27 453 -27 Q271 -27 177 91 Q111 176 111 363 L111 990 L381 990 L381 443 Q381 302 408 261 Q451 194 554 194 Q682 194 740 305 Q768 358 768 499 L768 990 L1038 990 Z M268 1416 L554 1416 L726 1140 L544 1140 L268 1416 Z " />
<glyph glyph-name="uacute" unicode="&#xfa;" horiz-adv-x="1159" d="M1038 990 L1038 0 L780 0 L780 140 Q664 -27 453 -27 Q271 -27 177 91 Q111 176 111 363 L111 990 L381 990 L381 443 Q381 302 408 261 Q451 194 554 194 Q682 194 740 305 Q768 358 768 499 L768 990 L1038 990 Z M890 1416 L614 1140 L432 1140 L604 1416 L890 1416 Z " />
<glyph glyph-name="ucircumflex" unicode="&#xfb;" horiz-adv-x="1159" d="M1038 990 L1038 0 L780 0 L780 140 Q664 -27 453 -27 Q271 -27 177 91 Q111 176 111 363 L111 990 L381 990 L381 443 Q381 302 408 261 Q451 194 554 194 Q682 194 740 305 Q768 358 768 499 L768 990 L1038 990 Z M916 1140 L696 1140 L575 1304 L452 1140 L243 1140 L456 1416 L704 1416 L916 1140 Z " />
<glyph glyph-name="udieresis" unicode="&#xfc;" horiz-adv-x="1159" d="M1038 990 L1038 0 L780 0 L780 140 Q664 -27 453 -27 Q271 -27 177 91 Q111 176 111 363 L111 990 L381 990 L381 443 Q381 302 408 261 Q451 194 554 194 Q682 194 740 305 Q768 358 768 499 L768 990 L1038 990 Z M782 1423 Q843 1423 887.5 1377.5 Q932 1332 932 1270 Q932 1207 887 1161.5 Q842 1116 779 1116 Q717 1116 671.5 1161.5 Q626 1207 626 1270 Q626 1333 671.5 1378 Q717 1423 782 1423 Z M380 1423 Q441 1423 485.5 1377.5 Q530 1332 530 1270 Q530 1207 485 1161.5 Q440 1116 377 1116 Q314 1116 269 1161.5 Q224 1207 224 1270 Q224 1333 269.5 1378 Q315 1423 380 1423 Z " />
<glyph glyph-name="yacute" unicode="&#xfd;" horiz-adv-x="1001" d="M1010 990 L647 5 Q592 -145 556 -206 Q520 -267 465 -305 Q420 -335 374 -344.5 Q328 -354 225 -354 Q209 -354 198 -354 L87 -351 L87 -127 L118 -127 L197 -127 Q286 -127 321 -91 Q352 -60 352 -2 Q352 35 343 59 L-10 990 L283 990 L447 505 Q472 430 509 274 Q550 437 576 517 L730 990 L1010 990 Z M811 1416 L535 1140 L353 1140 L525 1416 L811 1416 Z " />
<glyph glyph-name="thorn" unicode="&#xfe;" horiz-adv-x="1191" d="M388 1365 L388 866 Q490 1017 685 1017 Q880 1017 1003 872 Q1124 728 1124 490 Q1124 268 1017 129 Q897 -27 693 -27 Q498 -27 388 122 L388 -351 L118 -351 L118 1365 L388 1365 Z M618 796 Q503 796 440.5 716 Q378 636 378 490 Q378 342 443 263 Q507 185 617 185 Q726 185 787 262 Q851 344 851 487 Q851 635 786 718 Q725 796 618 796 Z " />
<glyph glyph-name="ydieresis" unicode="&#xff;" horiz-adv-x="1001" d="M1010 990 L647 5 Q592 -145 556 -206 Q520 -267 465 -305 Q420 -335 374 -344.5 Q328 -354 225 -354 Q209 -354 198 -354 L87 -351 L87 -127 L118 -127 L197 -127 Q286 -127 321 -91 Q352 -60 352 -2 Q352 35 343 59 L-10 990 L283 990 L447 505 Q472 430 509 274 Q550 437 576 517 L730 990 L1010 990 Z M713 1423 Q774 1423 818.5 1377.5 Q863 1332 863 1270 Q863 1207 818 1161.5 Q773 1116 710 1116 Q647 1116 602 1161.5 Q557 1207 557 1270 Q557 1333 602.5 1378 Q648 1423 713 1423 Z M311 1423 Q372 1423 416.5 1377.5 Q461 1332 461 1270 Q461 1207 416 1161.5 Q371 1116 308 1116 Q245 1116 200 1161.5 Q155 1207 155 1270 Q155 1333 200.5 1378 Q246 1423 311 1423 Z " />
<glyph glyph-name="Amacron" unicode="&#x100;" horiz-adv-x="1345" d="M827 1368 L1346 0 L1033 0 L924 306 L417 306 L306 0 L-1 0 L519 1368 L827 1368 Z M851 524 L764 770 Q703 939 673 1067 Q639 945 576 770 L489 524 L851 524 Z M1006 1690 L1006 1536 L339 1536 L339 1690 L1006 1690 Z " />
<glyph glyph-name="amacron" unicode="&#x101;" horiz-adv-x="1067" d="M861 1345 L861 1202 L236 1202 L236 1345 L861 1345 Z M1061 180 L1061 3 Q1007 -20 941 -20 Q850 -20 801.5 10.5 Q753 41 735 109 Q668 39 590 8 Q499 -27 394 -27 Q234 -27 143.5 51.5 Q53 130 53 270 Q53 417 148 488 Q198 525 266.5 545 Q335 565 459 579 Q618 598 662 620 Q712 646 712 708 Q712 834 543 834 Q450 834 407.5 800.5 Q365 767 355 685 L83 685 Q92 767 113 811 Q213 1017 558 1017 Q753 1017 862 954 Q984 882 984 736 L984 259 Q984 209 996.5 194.5 Q1009 180 1053 180 L1061 180 Z M712 484 Q669 451 547 436 Q421 420 373 386.5 Q325 353 325 282 Q325 155 493 155 Q712 155 712 379 L712 484 Z " />
<glyph glyph-name="Abreve" unicode="&#x102;" horiz-adv-x="1345" d="M827 1368 L1346 0 L1033 0 L924 306 L417 306 L306 0 L-1 0 L519 1368 L827 1368 Z M851 524 L764 770 Q703 939 673 1067 Q639 945 576 770 L489 524 L851 524 Z M340 1745 L480 1745 Q514 1631 670 1631 Q831 1631 865 1745 L1005 1745 Q1000 1647 949 1583 Q863 1475 672 1475 Q482 1475 396 1583 Q345 1647 340 1745 Z " />
<glyph glyph-name="abreve" unicode="&#x103;" horiz-adv-x="1067" d="M252 1413 L384 1413 Q414 1293 554 1293 Q694 1293 724 1413 L856 1413 Q852 1315 806 1251 Q727 1143 554 1143 Q381 1143 302 1251 Q256 1315 252 1413 Z M1061 180 L1061 3 Q1007 -20 941 -20 Q850 -20 801.5 10.5 Q753 41 735 109 Q668 39 590 8 Q499 -27 394 -27 Q234 -27 143.5 51.5 Q53 130 53 270 Q53 417 148 488 Q198 525 266.5 545 Q335 565 459 579 Q618 598 662 620 Q712 646 712 708 Q712 834 543 834 Q450 834 407.5 800.5 Q365 767 355 685 L83 685 Q92 767 113 811 Q213 1017 558 1017 Q753 1017 862 954 Q984 882 984 736 L984 259 Q984 209 996.5 194.5 Q1009 180 1053 180 L1061 180 Z M712 484 Q669 451 547 436 Q421 420 373 386.5 Q325 353 325 282 Q325 155 493 155 Q712 155 712 379 L712 484 Z " />
<glyph glyph-name="Aogonek" unicode="&#x104;" horiz-adv-x="1345" d="M1346 0 Q1234 -85 1234 -165 Q1234 -207 1268 -232.5 Q1302 -258 1359 -258 Q1383 -258 1428 -248 L1428 -362 Q1359 -381 1305 -381 Q1200 -381 1135.5 -331.5 Q1071 -282 1071 -203 Q1071 -102 1207 0 L1033 0 L924 306 L417 306 L306 0 L-1 0 L519 1368 L827 1368 L1346 0 Z M851 524 L764 770 Q703 939 673 1067 Q639 945 576 770 L489 524 L851 524 Z " />
<glyph glyph-name="aogonek" unicode="&#x105;" horiz-adv-x="1067" d="M1061 3 Q907 -62 907 -169 Q907 -208 941.5 -233 Q976 -258 1030 -258 Q1055 -258 1100 -248 L1100 -362 Q1031 -381 978 -381 Q874 -381 809 -332 Q744 -283 744 -205 Q744 -108 872 -14 Q758 8 735 109 Q668 39 590 8 Q499 -27 395 -27 Q234 -27 143.5 51.5 Q53 130 53 270 Q53 418 148 488 Q198 525 266.5 545 Q335 565 459 579 Q618 598 662 620 Q712 646 712 707 Q712 834 543 834 Q450 834 407.5 800.5 Q365 767 355 685 L83 685 Q92 767 113 811 Q213 1017 558 1017 Q753 1017 862 954 Q984 882 984 736 L984 259 Q984 209 996.5 194.5 Q1009 180 1053 180 L1061 180 L1061 3 Z M712 484 Q669 451 547 436 Q421 420 373 386.5 Q325 353 325 282 Q325 155 493 155 Q712 155 712 379 L712 484 Z " />
<glyph glyph-name="Cacute" unicode="&#x106;" horiz-adv-x="1398" d="M1343 527 Q1327 315 1201 165 Q1034 -33 730 -33 Q407 -33 226 196 Q72 391 72 684 Q72 990 255 1194 Q438 1398 742 1398 Q1024 1398 1198 1211 Q1320 1079 1333 908 L1039 908 Q1016 1023 936 1086.5 Q856 1150 735 1150 Q540 1150 444 986 Q372 862 372 682 Q372 497 448 373 Q544 215 733 215 Q867 215 946.5 294.5 Q1026 374 1046 527 L1343 527 Z M1078 1729 L792 1480 L592 1480 L765 1729 L1078 1729 Z " />
<glyph glyph-name="cacute" unicode="&#x107;" horiz-adv-x="1088" d="M1041 380 Q1021 232 940 133 Q807 -27 566 -27 Q317 -27 179 138 Q62 278 62 486 Q62 741 218 888 Q355 1017 570 1017 Q768 1017 893 916.5 Q1018 816 1035 643 L769 643 Q754 724 702.5 768 Q651 812 572 812 Q460 812 397.5 728 Q335 644 335 493 Q335 359 385 278 Q446 178 566 178 Q746 178 777 380 L1041 380 Z M883 1416 L606 1140 L424 1140 L597 1416 L883 1416 Z " />
<glyph glyph-name="Ccircumflex" unicode="&#x108;" horiz-adv-x="1398" d="M1343 527 Q1327 315 1201 165 Q1034 -33 730 -33 Q407 -33 226 196 Q72 391 72 684 Q72 990 255 1194 Q438 1398 742 1398 Q1024 1398 1198 1211 Q1320 1079 1333 908 L1039 908 Q1016 1023 936 1086.5 Q856 1150 735 1150 Q540 1150 444 986 Q372 862 372 682 Q372 497 448 373 Q544 215 733 215 Q867 215 946.5 294.5 Q1026 374 1046 527 L1343 527 Z M1097 1485 L854 1485 L742 1618 L628 1485 L396 1485 L619 1741 L875 1741 L1097 1485 Z " />
<glyph glyph-name="ccircumflex" unicode="&#x109;" horiz-adv-x="1088" d="M1041 379 Q1022 232 940 133 Q807 -27 566 -27 Q318 -27 179 138 Q62 277 62 485 Q62 741 218 888 Q355 1017 570 1017 Q769 1017 893 917 Q1017 817 1035 643 L769 643 Q754 724 702.5 768 Q651 812 572 812 Q460 812 397.5 728 Q335 644 335 493 Q335 358 385 276 Q445 177 566 177 Q746 177 777 379 L1041 379 Z M919 1140 L700 1140 L579 1304 L455 1140 L246 1140 L459 1416 L707 1416 L919 1140 Z " />
<glyph glyph-name="Cdotaccent" unicode="&#x10a;" horiz-adv-x="1398" d="M1343 527 Q1327 315 1201 165 Q1034 -33 730 -33 Q407 -33 226 196 Q72 391 72 684 Q72 990 255 1194 Q438 1398 742 1398 Q1024 1398 1198 1211 Q1320 1079 1333 908 L1039 908 Q1016 1023 936 1086.5 Q856 1150 735 1150 Q540 1150 444 986 Q372 862 372 682 Q372 497 448 373 Q544 215 733 215 Q867 215 946.5 294.5 Q1026 374 1046 527 L1343 527 Z M750 1760 Q811 1760 855.5 1714.5 Q900 1669 900 1607 Q900 1543 855 1498 Q810 1453 747 1453 Q685 1453 639.5 1498.5 Q594 1544 594 1607 Q594 1670 639.5 1715 Q685 1760 750 1760 Z " />
<glyph glyph-name="cdotaccent" unicode="&#x10b;" horiz-adv-x="1088" d="M1041 380 Q1021 232 940 133 Q807 -27 566 -27 Q317 -27 179 138 Q62 278 62 486 Q62 741 218 888 Q355 1017 570 1017 Q768 1017 893 916.5 Q1018 816 1035 643 L769 643 Q754 724 702.5 768 Q651 812 572 812 Q460 812 397.5 728 Q335 644 335 493 Q335 359 385 278 Q446 178 566 178 Q746 178 777 380 L1041 380 Z M575 1423 Q636 1423 680.5 1377.5 Q725 1332 725 1270 Q725 1207 680 1161.5 Q635 1116 572 1116 Q509 1116 464 1161.5 Q419 1207 419 1270 Q419 1333 464.5 1378 Q510 1423 575 1423 Z " />
<glyph glyph-name="Ccaron" unicode="&#x10c;" horiz-adv-x="1398" d="M1343 527 Q1327 315 1201 165 Q1034 -33 730 -33 Q407 -33 226 196 Q72 391 72 684 Q72 990 255 1194 Q438 1398 742 1398 Q1024 1398 1198 1211 Q1320 1079 1333 908 L1039 908 Q1016 1023 936 1086.5 Q856 1150 735 1150 Q540 1150 444 986 Q372 862 372 682 Q372 497 448 373 Q544 215 733 215 Q867 215 946.5 294.5 Q1026 374 1046 527 L1343 527 Z M1097 1741 L875 1485 L619 1485 L396 1741 L628 1741 L742 1608 L854 1741 L1097 1741 Z " />
<glyph glyph-name="ccaron" unicode="&#x10d;" horiz-adv-x="1088" d="M1041 380 Q1021 232 940 133 Q807 -27 566 -27 Q317 -27 179 138 Q62 278 62 486 Q62 741 218 888 Q355 1017 570 1017 Q768 1017 893 916.5 Q1018 816 1035 643 L769 643 Q754 724 702.5 768 Q651 812 572 812 Q460 812 397.5 728 Q335 644 335 493 Q335 359 385 278 Q446 178 566 178 Q746 178 777 380 L1041 380 Z M909 1416 L699 1140 L449 1140 L234 1416 L451 1416 L574 1248 L699 1416 L909 1416 Z " />
<glyph glyph-name="Dcaron" unicode="&#x10e;" horiz-adv-x="1419" d="M132 1365 L684 1365 Q838 1365 947.5 1329.5 Q1057 1294 1141 1217 Q1346 1029 1346 700 Q1346 350 1153 157 Q1067 72 961.5 36 Q856 0 690 0 L132 0 L132 1365 Z M430 1112 L430 253 L659 253 Q765 253 828 274 Q891 295 938 346 Q1046 463 1046 689 Q1046 898 945.5 1005 Q845 1112 649 1112 L430 1112 Z M992 1741 L770 1485 L514 1485 L291 1741 L524 1741 L637 1608 L749 1741 L992 1741 Z " />
<glyph glyph-name="dcaron" unicode="&#x10f;" horiz-adv-x="1451" d="M1071 1365 L1071 0 L813 0 L813 126 Q717 -27 514 -27 Q308 -27 184 120 Q65 263 65 500 Q65 723 170 859 Q293 1018 499 1018 Q702 1018 801 868 L801 1365 L1071 1365 Z M576 806 Q465 806 403 729 Q338 649 338 501 Q338 358 401 275 Q462 194 574 194 Q686 194 748 274 Q810 354 810 499 Q810 648 744 729 Q680 806 576 806 Z M1208 1033 Q1320 1050 1330 1147 Q1315 1144 1310 1144 L1303 1144 Q1254 1144 1217.5 1180 Q1181 1216 1181 1265 Q1181 1317 1217.5 1354 Q1254 1391 1305 1391 Q1369 1391 1409 1343 Q1449 1295 1449 1219 Q1449 1096 1378 1016 Q1345 978 1309.5 959.5 Q1274 941 1208 928 L1208 1033 Z " />
<glyph glyph-name="Dcroat" unicode="&#x110;" horiz-adv-x="1419" d="M132 1365 L684 1365 Q837 1365 947 1329.5 Q1057 1294 1141 1218 Q1346 1032 1346 699 Q1346 350 1153 157 Q1067 72 961 36 Q855 0 690 0 L132 0 L132 616 L9 616 L9 807 L132 807 L132 1365 Z M430 1114 L430 807 L730 807 L730 616 L430 616 L430 253 L659 253 Q765 253 828 274 Q891 295 938 345 Q1046 463 1046 688 Q1046 898 945 1006 Q844 1114 649 1114 L430 1114 Z " />
<glyph glyph-name="dcroat" unicode="&#x111;" horiz-adv-x="1191" d="M1071 1091 L1071 0 L813 0 L813 126 Q717 -27 514 -27 Q308 -27 184 120 Q65 263 65 498 Q65 717 170 849 Q293 1004 500 1004 Q702 1004 801 868 L801 1091 L518 1091 L518 1248 L801 1248 L801 1365 L1071 1365 L1071 1248 L1187 1248 L1187 1091 L1071 1091 Z M576 792 Q465 792 403 718 Q338 642 338 499 Q338 358 401 275 Q462 194 574 194 Q685 194 747.5 274 Q810 354 810 497 Q810 643 744 718 Q679 792 576 792 Z " />
<glyph glyph-name="Emacron" unicode="&#x112;" horiz-adv-x="1250" d="M1156 1365 L1156 1112 L430 1112 L430 822 L1096 822 L1096 587 L430 587 L430 253 L1170 253 L1170 0 L132 0 L132 1365 L1156 1365 Z M984 1690 L984 1536 L318 1536 L318 1690 L984 1690 Z " />
<glyph glyph-name="emacron" unicode="&#x113;" horiz-adv-x="1106" d="M1032 307 Q1011 225 955 150 Q820 -27 569 -27 Q340 -27 203 112 Q62 255 62 490 Q62 706 190 853 Q333 1017 560 1017 Q742 1017 871 908 Q964 830 1006.5 714 Q1049 598 1048 425 L338 425 Q340 351 361 301 Q416 168 570 168 Q713 168 772 307 L1032 307 Z M772 598 Q764 672 738 719 Q712 767 664 794.5 Q616 822 559 822 Q468 822 409 761.5 Q350 701 339 598 L772 598 Z M881 1345 L881 1202 L256 1202 L256 1345 L881 1345 Z " />
<glyph glyph-name="Ebreve" unicode="&#x114;" horiz-adv-x="1250" d="M1156 1365 L1156 1112 L430 1112 L430 822 L1096 822 L1096 587 L430 587 L430 253 L1170 253 L1170 0 L132 0 L132 1365 L1156 1365 Z M321 1745 L460 1745 Q494 1631 651 1631 Q811 1631 845 1745 L985 1745 Q980 1647 929 1583 Q843 1475 653 1475 Q462 1475 376 1583 Q325 1647 321 1745 Z " />
<glyph glyph-name="ebreve" unicode="&#x115;" horiz-adv-x="1106" d="M1032 307 Q1011 225 955 150 Q820 -27 569 -27 Q340 -27 203 112 Q62 255 62 490 Q62 706 190 853 Q333 1017 560 1017 Q742 1017 871 908 Q964 830 1006.5 714 Q1049 598 1048 425 L338 425 Q340 351 361 301 Q416 168 570 168 Q713 168 772 307 L1032 307 Z M772 598 Q764 672 738 719 Q712 767 664 794.5 Q616 822 559 822 Q468 822 409 761.5 Q350 701 339 598 L772 598 Z M251 1413 L384 1413 Q414 1293 553 1293 Q694 1293 723 1413 L856 1413 Q852 1315 805 1251 Q726 1143 553 1143 Q381 1143 302 1251 Q255 1315 251 1413 Z " />
<glyph glyph-name="Edotaccent" unicode="&#x116;" horiz-adv-x="1250" d="M1156 1365 L1156 1112 L430 1112 L430 822 L1096 822 L1096 587 L430 587 L430 253 L1170 253 L1170 0 L132 0 L132 1365 L1156 1365 Z M663 1760 Q724 1760 768.5 1714.5 Q813 1669 813 1607 Q813 1544 768 1498.5 Q723 1453 660 1453 Q597 1453 552 1498.5 Q507 1544 507 1607 Q507 1670 552.5 1715 Q598 1760 663 1760 Z " />
<glyph glyph-name="edotaccent" unicode="&#x117;" horiz-adv-x="1106" d="M1032 307 Q1011 225 955 150 Q820 -27 569 -27 Q340 -27 203 112 Q62 255 62 490 Q62 706 190 853 Q333 1017 560 1017 Q742 1017 871 908 Q964 830 1006.5 714 Q1049 598 1048 425 L338 425 Q340 351 361 301 Q416 168 570 168 Q713 168 772 307 L1032 307 Z M772 598 Q764 672 738 719 Q712 767 664 794.5 Q616 822 559 822 Q468 822 409 761.5 Q350 701 339 598 L772 598 Z M571 1423 Q632 1423 676.5 1377.5 Q721 1332 721 1270 Q721 1207 676 1161.5 Q631 1116 568 1116 Q505 1116 460 1161.5 Q415 1207 415 1270 Q415 1333 460.5 1378 Q506 1423 571 1423 Z " />
<glyph glyph-name="Eogonek" unicode="&#x118;" horiz-adv-x="1250" d="M1156 1365 L1156 1112 L430 1112 L430 822 L1096 822 L1096 587 L430 587 L430 253 L1170 253 L1170 0 Q1058 -84 1058 -165 Q1058 -208 1092 -233 Q1126 -258 1183 -258 Q1207 -258 1252 -248 L1253 -362 Q1183 -381 1128 -381 Q1024 -381 959.5 -331.5 Q895 -282 895 -203 Q895 -102 1031 0 L132 0 L132 1365 L1156 1365 Z " />
<glyph glyph-name="eogonek" unicode="&#x119;" horiz-adv-x="1106" d="M767 -9 Q686 -83 686 -157 Q686 -258 812 -258 Q836 -258 881 -248 L881 -362 Q812 -381 758 -381 Q653 -381 588.5 -331.5 Q524 -282 524 -202 Q524 -151 552 -109.5 Q580 -68 647 -22 Q586 -27 546 -27 Q420 -27 307 34 Q178 104 115 240 Q62 354 62 490 Q62 705 190 853 Q333 1017 560 1017 Q742 1017 871 908 Q964 830 1006.5 714 Q1049 598 1048 425 L338 425 Q341 351 361 301 Q416 167 570 167 Q713 167 772 307 L1032 307 Q1008 212 949 142 Q890 72 767 -9 Z M772 598 Q764 672 738 719 Q712 767 664 794.5 Q616 822 559 822 Q468 822 409 761.5 Q350 701 339 598 L772 598 Z " />
<glyph glyph-name="Ecaron" unicode="&#x11a;" horiz-adv-x="1250" d="M1156 1365 L1156 1112 L430 1112 L430 822 L1096 822 L1096 587 L430 587 L430 253 L1170 253 L1170 0 L132 0 L132 1365 L1156 1365 Z M1010 1741 L788 1485 L532 1485 L309 1741 L541 1741 L655 1608 L767 1741 L1010 1741 Z " />
<glyph glyph-name="ecaron" unicode="&#x11b;" horiz-adv-x="1106" d="M1032 307 Q1011 225 955 150 Q820 -27 569 -27 Q340 -27 203 112 Q62 255 62 490 Q62 706 190 853 Q333 1017 560 1017 Q742 1017 871 908 Q964 830 1006.5 714 Q1049 598 1048 425 L338 425 Q340 351 361 301 Q416 168 570 168 Q713 168 772 307 L1032 307 Z M772 598 Q764 672 738 719 Q712 767 664 794.5 Q616 822 559 822 Q468 822 409 761.5 Q350 701 339 598 L772 598 Z M905 1416 L694 1140 L445 1140 L229 1416 L447 1416 L570 1248 L694 1416 L905 1416 Z " />
<glyph glyph-name="Gcircumflex" unicode="&#x11c;" horiz-adv-x="1458" d="M1344 736 L1344 0 L1153 0 L1124 156 Q971 -33 716 -33 Q403 -33 223 199 Q72 393 72 677 Q72 998 268 1204 Q453 1398 743 1398 Q1011 1398 1181 1224 Q1307 1094 1326 916 L1037 916 Q1015 1026 936.5 1087.5 Q858 1149 739 1149 Q567 1149 469.5 1024 Q372 899 372 679 Q372 476 453 356 Q553 209 749 209 Q889 209 979 294 Q1069 379 1074 518 L771 518 L771 736 L1344 736 Z M1099 1485 L857 1485 L745 1618 L631 1485 L399 1485 L621 1741 L877 1741 L1099 1485 Z " />
<glyph glyph-name="gcircumflex" unicode="&#x11d;" horiz-adv-x="1171" d="M1050 990 L1050 123 Q1050 7 1035.5 -62 Q1021 -131 984 -188 Q866 -369 561 -369 Q137 -369 98 -59 L369 -59 Q399 -186 566 -186 Q696 -186 747 -114 Q787 -58 788 70 L788 183 Q684 30 486 30 Q296 30 180 160 Q64 291 64 516 Q64 741 180 877 Q301 1017 497 1017 Q598 1017 666.5 980.5 Q735 944 792 859 L792 990 L1050 990 Z M566 805 Q444 805 384 712 Q337 637 337 523 Q337 374 406 298 Q466 231 563 231 Q684 231 744 331 Q791 408 791 522 Q791 665 719 742 Q660 805 566 805 Z M922 1140 L703 1140 L581 1304 L458 1140 L249 1140 L462 1416 L710 1416 L922 1140 Z " />
<glyph glyph-name="Gbreve" unicode="&#x11e;" horiz-adv-x="1458" d="M1344 736 L1344 0 L1153 0 L1124 156 Q971 -33 716 -33 Q403 -33 223 199 Q72 393 72 677 Q72 998 268 1204 Q453 1398 743 1398 Q1011 1398 1181 1224 Q1307 1094 1326 916 L1037 916 Q1015 1026 936.5 1087.5 Q858 1149 739 1149 Q567 1149 469.5 1024 Q372 899 372 679 Q372 476 453 356 Q553 209 749 209 Q889 209 979 294 Q1069 379 1074 518 L771 518 L771 736 L1344 736 Z M417 1745 L557 1745 Q591 1631 747 1631 Q908 1631 942 1745 L1081 1745 Q1077 1647 1026 1583 Q939 1475 749 1475 Q559 1475 472 1583 Q422 1647 417 1745 Z " />
<glyph glyph-name="gbreve" unicode="&#x11f;" horiz-adv-x="1171" d="M1050 990 L1050 123 Q1050 7 1035.5 -62 Q1021 -131 984 -188 Q866 -369 561 -369 Q137 -369 98 -59 L369 -59 Q399 -186 566 -186 Q696 -186 747 -114 Q787 -58 788 70 L788 183 Q684 30 486 30 Q296 30 180 160 Q64 291 64 516 Q64 741 180 877 Q301 1017 497 1017 Q598 1017 666.5 980.5 Q735 944 792 859 L792 990 L1050 990 Z M566 805 Q444 805 384 712 Q337 637 337 523 Q337 374 406 298 Q466 231 563 231 Q684 231 744 331 Q791 408 791 522 Q791 665 719 742 Q660 805 566 805 Z M270 1413 L402 1413 Q432 1293 572 1293 Q712 1293 742 1413 L874 1413 Q870 1315 824 1251 Q745 1143 572 1143 Q399 1143 320 1251 Q274 1315 270 1413 Z " />
<glyph glyph-name="Gdotaccent" unicode="&#x120;" horiz-adv-x="1458" d="M1344 736 L1344 0 L1153 0 L1124 156 Q971 -33 716 -33 Q403 -33 223 199 Q72 393 72 677 Q72 998 268 1204 Q453 1398 743 1398 Q1011 1398 1181 1224 Q1307 1094 1326 916 L1037 916 Q1015 1026 936.5 1087.5 Q858 1149 739 1149 Q567 1149 469.5 1024 Q372 899 372 679 Q372 476 453 356 Q553 209 749 209 Q889 209 979 294 Q1069 379 1074 518 L771 518 L771 736 L1344 736 Z M746 1760 Q807 1760 851.5 1714.5 Q896 1669 896 1607 Q896 1544 851 1498.5 Q806 1453 743 1453 Q681 1453 635.5 1498.5 Q590 1544 590 1607 Q590 1670 635.5 1715 Q681 1760 746 1760 Z " />
<glyph glyph-name="gdotaccent" unicode="&#x121;" horiz-adv-x="1171" d="M1050 990 L1050 123 Q1050 7 1035.5 -62 Q1021 -131 984 -188 Q866 -369 561 -369 Q137 -369 98 -59 L369 -59 Q399 -186 566 -186 Q696 -186 747 -114 Q787 -58 788 70 L788 183 Q684 30 486 30 Q296 30 180 160 Q64 291 64 516 Q64 741 180 877 Q301 1017 497 1017 Q598 1017 666.5 980.5 Q735 944 792 859 L792 990 L1050 990 Z M566 805 Q444 805 384 712 Q337 637 337 523 Q337 374 406 298 Q466 231 563 231 Q684 231 744 331 Q791 408 791 522 Q791 665 719 742 Q660 805 566 805 Z M576 1423 Q637 1423 681.5 1377.5 Q726 1332 726 1270 Q726 1207 681 1161.5 Q636 1116 573 1116 Q510 1116 465 1161.5 Q420 1207 420 1270 Q420 1333 465.5 1378 Q511 1423 576 1423 Z " />
<glyph glyph-name="Gcommaaccent" unicode="&#x122;" horiz-adv-x="1458" d="M1344 736 L1344 0 L1153 0 L1124 156 Q971 -33 716 -33 Q403 -33 223 199 Q72 393 72 677 Q72 998 268 1204 Q453 1398 743 1398 Q1011 1398 1181 1224 Q1307 1094 1326 916 L1037 916 Q1015 1026 936.5 1087.5 Q858 1149 739 1149 Q567 1149 469.5 1024 Q372 899 372 679 Q372 476 453 356 Q553 209 749 209 Q889 209 979 294 Q1069 379 1074 518 L771 518 L771 736 L1344 736 Z M616 -455 Q728 -438 738 -341 Q723 -344 718 -344 L711 -344 Q662 -344 625.5 -307.5 Q589 -271 589 -223 Q589 -171 625.5 -134 Q662 -97 713 -97 Q777 -97 817 -145 Q857 -193 857 -269 Q857 -392 786 -472 Q753 -510 717.5 -528.5 Q682 -547 616 -560 L616 -455 Z " />
<glyph glyph-name="gcommaaccent" unicode="&#x123;" horiz-adv-x="1171" d="M1050 990 L1050 123 Q1050 7 1035.5 -62 Q1021 -131 984 -188 Q866 -369 561 -369 Q137 -369 98 -59 L369 -59 Q399 -186 566 -186 Q696 -186 747 -114 Q787 -58 788 70 L788 183 Q684 30 486 30 Q296 30 180 160 Q64 291 64 516 Q64 741 180 877 Q301 1017 497 1017 Q598 1017 666.5 980.5 Q735 944 792 859 L792 990 L1050 990 Z M566 805 Q444 805 384 712 Q337 637 337 523 Q337 374 406 298 Q466 231 563 231 Q684 231 744 331 Q791 408 791 522 Q791 665 719 742 Q660 805 566 805 Z M677 1459 Q565 1442 555 1346 Q570 1349 575 1349 L582 1349 Q631 1349 667.5 1312.5 Q704 1276 704 1227 Q704 1176 667.5 1138.5 Q631 1101 580 1101 Q516 1101 476 1149 Q436 1197 436 1274 Q436 1396 507 1477 Q540 1515 575.5 1533 Q611 1551 677 1565 L677 1459 Z " />
<glyph glyph-name="Hcircumflex" unicode="&#x124;" horiz-adv-x="1420" d="M1286 1365 L1286 0 L988 0 L988 594 L430 594 L430 0 L132 0 L132 1365 L430 1365 L430 847 L988 847 L988 1365 L1286 1365 Z M1060 1485 L817 1485 L705 1618 L592 1485 L359 1485 L582 1741 L838 1741 L1060 1485 Z " />
<glyph glyph-name="hcircumflex" unicode="&#x125;" horiz-adv-x="1158" d="M389 1365 L389 977 L387 855 Q435 919 477 949 Q573 1017 700 1017 Q904 1017 993 877 Q1045 795 1045 629 L1045 0 L774 0 L774 583 Q774 693 743 734 Q698 796 600 796 Q472 796 417 686 Q400 653 394.5 613 Q389 573 389 485 L389 0 L118 0 L118 1365 L389 1365 Z M808 1486 L565 1486 L453 1618 L339 1486 L107 1486 L330 1741 L586 1741 L808 1486 Z " />
<glyph glyph-name="Hbar" unicode="&#x126;" horiz-adv-x="1420" d="M1287 1215 L1409 1215 L1409 1024 L1287 1024 L1287 0 L989 0 L989 594 L431 594 L431 0 L133 0 L133 1024 L10 1024 L10 1215 L133 1215 L133 1365 L431 1365 L431 1215 L989 1215 L989 1365 L1287 1365 L1287 1215 Z M431 1024 L431 847 L989 847 L989 1024 L431 1024 Z " />
<glyph glyph-name="hbar" unicode="&#x127;" horiz-adv-x="1158" d="M388 0 L118 0 L118 1091 L2 1091 L2 1248 L118 1248 L118 1365 L388 1365 L388 1248 L671 1248 L671 1091 L388 1091 L388 976 Q388 967 386 855 Q434 919 476 949 Q573 1017 699 1017 Q904 1017 992 877 Q1044 795 1044 629 L1044 0 L774 0 L774 583 Q774 693 743 734 Q697 796 600 796 Q471 796 416 686 Q399 654 393.5 613 Q388 572 388 485 L388 0 Z " />
<glyph glyph-name="Itilde" unicode="&#x128;" horiz-adv-x="564" d="M431 1365 L431 0 L133 0 L133 1365 L431 1365 Z M633 1738 Q590 1494 408 1494 Q377 1494 358.5 1499 Q340 1504 272 1531 Q179 1567 141 1567 Q81 1567 63 1488 L-70 1488 Q-54 1583 -9 1639 Q64 1730 149 1730 Q195 1730 287 1695 Q372 1662 414 1662 Q471 1662 501 1738 L633 1738 Z " />
<glyph glyph-name="itilde" unicode="&#x129;" horiz-adv-x="510" d="M388 990 L388 0 L118 0 L118 990 L388 990 Z M581 1402 Q541 1167 374 1167 Q335 1167 302 1177.5 Q269 1188 179 1228 Q152 1240 127 1240 Q96 1240 75.5 1219 Q55 1198 49 1161 L-75 1161 Q-58 1270 -2 1334 Q54 1398 132 1398 Q179 1398 262 1363 Q344 1329 383 1329 Q433 1329 458 1402 L581 1402 Z " />
<glyph glyph-name="Imacron" unicode="&#x12a;" horiz-adv-x="564" d="M431 1365 L431 0 L133 0 L133 1365 L431 1365 Z M560 1690 L560 1536 L3 1536 L3 1690 L560 1690 Z " />
<glyph glyph-name="imacron" unicode="&#x12b;" horiz-adv-x="510" d="M389 990 L389 0 L119 0 L119 990 L389 990 Z M513 1345 L513 1202 L-3 1202 L-3 1345 L513 1345 Z " />
<glyph glyph-name="Ibreve" unicode="&#x12c;" horiz-adv-x="564" d="M430 1365 L430 0 L132 0 L132 1365 L430 1365 Z M-23 1745 L117 1745 Q146 1631 282 1631 Q418 1631 447 1745 L587 1745 Q582 1647 536 1583 Q456 1475 282 1475 Q108 1475 28 1583 Q-19 1647 -23 1745 Z " />
<glyph glyph-name="ibreve" unicode="&#x12d;" horiz-adv-x="510" d="M388 990 L388 0 L118 0 L118 990 L388 990 Z M-34 1413 L98 1413 Q110 1366 137 1340 Q184 1293 254 1293 Q315 1293 356 1324.5 Q397 1356 411 1413 L543 1413 Q539 1315 493 1251 Q414 1143 254 1143 Q96 1143 16 1251 Q-30 1315 -34 1413 Z " />
<glyph glyph-name="Iogonek" unicode="&#x12e;" horiz-adv-x="564" d="M132 1365 L430 1365 L430 0 Q386 -23 352 -74 Q318 -125 318 -168 Q318 -206 346.5 -231 Q375 -256 419 -256 Q440 -256 472 -248 L472 -362 Q401 -382 359 -382 Q275 -382 213 -326 Q157 -275 157 -207 Q157 -76 299 0 L132 0 L132 1365 Z " />
<glyph glyph-name="iogonek" unicode="&#x12f;" horiz-adv-x="509" d="M119 0 L119 990 L389 990 L389 0 Q349 -29 321 -77.5 Q293 -126 293 -168 Q293 -208 320 -232.5 Q347 -257 392 -257 Q415 -257 452 -248 L453 -362 Q382 -381 335 -381 Q248 -381 189 -330 Q130 -279 130 -203 Q130 -148 161.5 -101 Q193 -54 266 0 L119 0 Z M258 1394 Q319 1394 363.5 1348.5 Q408 1303 408 1241 Q408 1178 363 1132.5 Q318 1087 255 1087 Q193 1087 147.5 1132.5 Q102 1178 102 1241 Q102 1304 147.5 1349 Q193 1394 258 1394 Z " />
<glyph glyph-name="Idot" unicode="&#x130;" horiz-adv-x="564" d="M431 1365 L431 0 L133 0 L133 1365 L431 1365 Z M286 1760 Q347 1760 391.5 1714.5 Q436 1669 436 1607 Q436 1544 391 1498.5 Q346 1453 283 1453 Q221 1453 175.5 1498.5 Q130 1544 130 1607 Q130 1670 175.5 1715 Q221 1760 286 1760 Z " />
<glyph glyph-name="dotlessi" unicode="&#x131;" horiz-adv-x="510" d="M388 990 L388 0 L118 0 L118 990 L388 990 Z " />
<glyph glyph-name="IJ" unicode="&#x132;" horiz-adv-x="1596" d="M430 1365 L430 0 L132 0 L132 1365 L430 1365 Z M1484 1365 L1484 447 Q1484 327 1465.5 255 Q1447 183 1401 123 Q1283 -33 1035 -33 Q744 -33 635 164 Q579 266 579 455 Q579 475 580 511 L856 511 Q856 483 856 472 Q856 334 879 288 Q916 209 1026 209 Q1115 209 1150.5 259.5 Q1186 310 1186 437 L1186 1365 L1484 1365 Z " />
<glyph glyph-name="ij" unicode="&#x133;" horiz-adv-x="1021" d="M258 1394 Q319 1394 363.5 1348.5 Q408 1303 408 1241 Q408 1178 363 1132.5 Q318 1087 255 1087 Q193 1087 147.5 1132.5 Q102 1178 102 1241 Q102 1304 147.5 1349 Q193 1394 258 1394 Z M389 990 L389 0 L119 0 L119 990 L389 990 Z M899 990 L899 -1 L900 -77 Q900 -167 863.5 -232.5 Q827 -298 760 -329 Q692 -360 571 -360 Q528 -360 462 -355 L462 -136 Q494 -138 513 -138 Q563 -138 587 -127 Q611 -116 619 -89 Q629 -59 629 83 L629 990 L899 990 Z M767 1394 Q828 1394 872.5 1348.5 Q917 1303 917 1241 Q917 1178 872 1132.5 Q827 1087 764 1087 Q701 1087 656 1132.5 Q611 1178 611 1241 Q611 1304 656.5 1349 Q702 1394 767 1394 Z " />
<glyph glyph-name="Jcircumflex" unicode="&#x134;" horiz-adv-x="1032" d="M921 1365 L921 447 Q921 328 902.5 255.5 Q884 183 838 123 Q721 -33 472 -33 Q181 -33 72 164 Q16 266 16 451 Q16 466 17 511 L293 511 Q293 484 293 476 Q293 334 316 288 Q353 209 463 209 Q552 209 587.5 259.5 Q623 310 623 437 L623 1365 L921 1365 Z M1116 1486 L874 1486 L762 1618 L648 1486 L416 1486 L638 1741 L894 1741 L1116 1486 Z " />
<glyph glyph-name="jcircumflex" unicode="&#x135;" horiz-adv-x="511" d="M388 990 L388 -1 L390 -82 Q390 -169 353 -234.5 Q316 -300 250 -330 Q181 -361 61 -361 Q13 -361 -49 -355 L-49 -136 Q-18 -139 3 -139 Q93 -139 108 -90 Q118 -60 118 82 L118 990 L388 990 Z M586 1140 L367 1140 L246 1304 L122 1140 L-87 1140 L126 1416 L374 1416 L586 1140 Z " />
<glyph glyph-name="Kcommaaccent" unicode="&#x136;" horiz-adv-x="1366" d="M1343 1365 L807 826 L1393 0 L1017 0 L602 613 L430 441 L430 0 L132 0 L132 1365 L430 1365 L430 958 Q430 923 427 787 Q520 895 542 918 L965 1365 L1343 1365 Z M597 -455 Q709 -438 719 -341 Q704 -344 699 -344 L692 -344 Q643 -344 606.5 -307.5 Q570 -271 570 -223 Q570 -171 606.5 -134 Q643 -97 694 -97 Q758 -97 798 -145 Q838 -193 838 -269 Q838 -392 767 -472 Q734 -510 698.5 -528.5 Q663 -547 597 -560 L597 -455 Z " />
<glyph glyph-name="kcommaaccent" unicode="&#x137;" horiz-adv-x="1094" d="M1057 990 L685 623 L1100 0 L772 0 L499 440 L388 337 L388 0 L118 0 L118 1365 L388 1365 L388 775 Q388 738 386 620 Q431 678 455 703 L736 990 L1057 990 Z M482 -455 Q594 -438 604 -341 Q589 -344 584 -344 L577 -344 Q528 -344 491.5 -307.5 Q455 -271 455 -223 Q455 -171 491.5 -134 Q528 -97 579 -97 Q643 -97 683 -145 Q723 -193 723 -269 Q723 -392 652 -472 Q619 -510 583.5 -528.5 Q548 -547 482 -560 L482 -455 Z " />
<glyph glyph-name="kgreenlandic" unicode="&#x138;" horiz-adv-x="1094" d="M1057 990 L685 623 L1100 0 L772 0 L499 440 L388 337 L388 0 L118 0 L118 990 L388 990 L388 775 Q388 738 386 620 Q431 678 455 703 L736 990 L1057 990 Z " />
<glyph glyph-name="Lacute" unicode="&#x139;" horiz-adv-x="1150" d="M1098 253 L1098 0 L132 0 L132 1365 L430 1365 L430 253 L1098 253 Z M607 1729 L321 1480 L121 1480 L293 1729 L607 1729 Z " />
<glyph glyph-name="lacute" unicode="&#x13a;" horiz-adv-x="509" d="M388 1365 L388 0 L118 0 L118 1365 L388 1365 Z M593 1729 L307 1480 L107 1480 L279 1729 L593 1729 Z " />
<glyph glyph-name="Lcommaaccent" unicode="&#x13b;" horiz-adv-x="1150" d="M1097 253 L1097 0 L132 0 L132 1365 L430 1365 L430 253 L1097 253 Z M509 -455 Q621 -438 631 -341 Q616 -344 611 -344 L604 -344 Q555 -344 518.5 -307.5 Q482 -271 482 -223 Q482 -171 518.5 -134 Q555 -97 606 -97 Q670 -97 710 -145 Q750 -193 750 -269 Q750 -392 679 -472 Q646 -510 610.5 -528.5 Q575 -547 509 -560 L509 -455 Z " />
<glyph glyph-name="lcommaaccent" unicode="&#x13c;" horiz-adv-x="509" d="M389 1365 L389 0 L119 0 L119 1365 L389 1365 Z M147 -455 Q259 -438 269 -341 Q254 -344 249 -344 L242 -344 Q193 -344 156.5 -307.5 Q120 -271 120 -223 Q120 -171 156.5 -134 Q193 -97 244 -97 Q308 -97 348 -145 Q388 -193 388 -269 Q388 -392 317 -472 Q284 -510 248.5 -528.5 Q213 -547 147 -560 L147 -455 Z " />
<glyph glyph-name="Lcaron" unicode="&#x13d;" horiz-adv-x="1150" d="M1097 253 L1097 0 L132 0 L132 1365 L430 1365 L430 253 L1097 253 Z M669 1033 Q781 1050 791 1147 Q776 1144 771 1144 L764 1144 Q715 1144 678.5 1180.5 Q642 1217 642 1265 Q642 1317 678.5 1354 Q715 1391 766 1391 Q830 1391 870 1343 Q910 1295 910 1219 Q910 1096 839 1016 Q806 978 770.5 959.5 Q735 941 669 928 L669 1033 Z " />
<glyph glyph-name="lcaron" unicode="&#x13e;" horiz-adv-x="769" d="M389 1365 L389 0 L119 0 L119 1365 L389 1365 Z M526 1033 Q638 1050 648 1147 Q633 1144 628 1144 L621 1144 Q572 1144 535.5 1180.5 Q499 1217 499 1265 Q499 1317 535.5 1354 Q572 1391 623 1391 Q687 1391 727 1343 Q767 1295 767 1219 Q767 1096 696 1016 Q663 978 627.5 959.5 Q592 941 526 928 L526 1033 Z " />
<glyph glyph-name="Ldot" unicode="&#x13f;" horiz-adv-x="1150" d="M1097 253 L1097 0 L132 0 L132 1365 L430 1365 L430 253 L1097 253 Z M859 906 Q920 906 964.5 860.5 Q1009 815 1009 753 Q1009 690 964 644.5 Q919 599 856 599 Q794 599 748.5 644.5 Q703 690 703 753 Q703 816 748.5 861 Q794 906 859 906 Z " />
<glyph glyph-name="ldot" unicode="&#x140;" horiz-adv-x="851" d="M389 1365 L389 0 L119 0 L119 1365 L389 1365 Z M683 865 Q744 865 788.5 819.5 Q833 774 833 712 Q833 648 788 603 Q743 558 680 558 Q618 558 572.5 603.5 Q527 649 527 712 Q527 775 572.5 820 Q618 865 683 865 Z " />
<glyph glyph-name="Lslash" unicode="&#x141;" horiz-adv-x="1149" d="M132 726 L132 1365 L430 1365 L430 867 L709 1061 L709 830 L430 636 L430 253 L1097 253 L1097 0 L132 0 L132 495 L9 402 L9 633 L132 726 Z " />
<glyph glyph-name="lslash" unicode="&#x142;" horiz-adv-x="509" d="M119 739 L119 1365 L389 1365 L389 870 L512 956 L512 764 L389 678 L389 0 L119 0 L119 547 L-4 458 L-4 650 L119 739 Z " />
<glyph glyph-name="Nacute" unicode="&#x143;" horiz-adv-x="1420" d="M1287 1365 L1287 0 L987 0 L580 659 Q447 880 408 965 Q420 811 420 581 L420 0 L133 0 L133 1365 L437 1365 L834 721 Q956 523 1012 406 Q1000 621 1000 797 L1000 1365 L1287 1365 Z M1035 1729 L749 1480 L549 1480 L721 1729 L1035 1729 Z " />
<glyph glyph-name="nacute" unicode="&#x144;" horiz-adv-x="1158" d="M377 990 L377 852 Q422 913 465 944 Q566 1018 708 1018 Q834 1018 921 957 Q989 908 1017 833.5 Q1045 759 1045 623 L1045 0 L775 0 L775 569 Q775 665 758 710 Q742 750 701 773.5 Q660 797 604 797 Q542 797 491.5 767.5 Q441 738 416 688 Q389 631 389 512 L389 0 L119 0 L119 990 L377 990 Z M890 1416 L614 1140 L432 1140 L604 1416 L890 1416 Z " />
<glyph glyph-name="Ncommaaccent" unicode="&#x145;" horiz-adv-x="1420" d="M1287 1365 L1287 0 L987 0 L580 659 Q447 880 408 965 Q420 811 420 581 L420 0 L133 0 L133 1365 L437 1365 L834 721 Q956 523 1012 406 Q1000 621 1000 797 L1000 1365 L1287 1365 Z M590 -455 Q702 -438 712 -341 Q697 -344 692 -344 L685 -344 Q636 -344 599.5 -307.5 Q563 -271 563 -223 Q563 -171 599.5 -134 Q636 -97 687 -97 Q751 -97 791 -145 Q831 -193 831 -269 Q831 -392 760 -472 Q727 -510 691.5 -528.5 Q656 -547 590 -560 L590 -455 Z " />
<glyph glyph-name="ncommaaccent" unicode="&#x146;" horiz-adv-x="1158" d="M377 990 L377 852 Q422 913 465 944 Q566 1018 708 1018 Q834 1018 921 957 Q989 908 1017 833.5 Q1045 759 1045 623 L1045 0 L775 0 L775 569 Q775 665 758 710 Q742 750 701 773.5 Q660 797 604 797 Q542 797 491.5 767.5 Q441 738 416 688 Q389 631 389 512 L389 0 L119 0 L119 990 L377 990 Z M475 -455 Q587 -438 597 -341 Q582 -344 577 -344 L570 -344 Q521 -344 484.5 -307.5 Q448 -271 448 -223 Q448 -171 484.5 -134 Q521 -97 572 -97 Q636 -97 676 -145 Q716 -193 716 -269 Q716 -392 645 -472 Q612 -510 576.5 -528.5 Q541 -547 475 -560 L475 -455 Z " />
<glyph glyph-name="Ncaron" unicode="&#x147;" horiz-adv-x="1420" d="M1287 1365 L1287 0 L987 0 L580 659 Q447 880 408 965 Q420 811 420 581 L420 0 L133 0 L133 1365 L437 1365 L834 721 Q956 523 1012 406 Q1000 621 1000 797 L1000 1365 L1287 1365 Z M1060 1741 L838 1485 L582 1485 L360 1741 L592 1741 L706 1608 L817 1741 L1060 1741 Z " />
<glyph glyph-name="ncaron" unicode="&#x148;" horiz-adv-x="1158" d="M377 990 L377 852 Q422 913 465 944 Q566 1018 708 1018 Q834 1018 921 957 Q989 908 1017 833.5 Q1045 759 1045 623 L1045 0 L775 0 L775 569 Q775 665 758 710 Q742 750 701 773.5 Q660 797 604 797 Q542 797 491.5 767.5 Q441 738 416 688 Q389 631 389 512 L389 0 L119 0 L119 990 L377 990 Z M917 1416 L706 1140 L457 1140 L241 1416 L459 1416 L582 1248 L706 1416 L917 1416 Z " />
<glyph glyph-name="napostrophe" unicode="&#x149;" horiz-adv-x="1548" d="M93 917 Q158 927 197.5 964 Q237 1001 243 1058 Q228 1054 218 1054 L210 1054 Q150 1054 105 1099.5 Q60 1145 60 1206 Q60 1270 105 1316 Q150 1362 213 1362 Q291 1362 340 1302 Q389 1242 389 1147 Q389 995 302 895 Q261 848 217 825.5 Q173 803 93 786 L93 917 Z M767 990 L767 852 Q812 913 855 944 Q956 1018 1098 1018 Q1224 1018 1311 957 Q1379 908 1407 833.5 Q1435 759 1435 623 L1435 0 L1165 0 L1165 569 Q1165 665 1148 710 Q1132 750 1091 773.5 Q1050 797 994 797 Q932 797 881.5 767.5 Q831 738 806 688 Q779 631 779 512 L779 0 L509 0 L509 990 L767 990 Z " />
<glyph glyph-name="Eng" unicode="&#x14a;" horiz-adv-x="1420" d="M430 1365 L430 1193 Q490 1268 546 1306 Q680 1398 862 1398 Q1023 1398 1131 1322 Q1217 1262 1251.5 1169 Q1286 1076 1286 907 L1286 -1 Q1286 -134 1261 -200 Q1202 -360 930 -360 Q883 -360 821 -355 L821 -136 Q851 -138 872 -138 Q922 -138 946 -127 Q970 -116 978 -89 Q988 -59 988 83 L988 840 Q988 972 963 1031 Q939 1085 883 1115 Q818 1149 738 1149 Q606 1149 522 1072 Q471 1026 450.5 959 Q430 892 430 770 L430 0 L132 0 L132 1365 L430 1365 Z " />
<glyph glyph-name="eng" unicode="&#x14b;" horiz-adv-x="1158" d="M377 990 L377 852 Q422 913 465 944 Q566 1018 708 1018 Q834 1018 921 957 Q989 908 1017 833.5 Q1045 759 1045 623 L1045 -1 L1046 -77 Q1046 -167 1009.5 -232.5 Q973 -298 906 -329 Q838 -360 717 -360 Q674 -360 608 -355 L608 -136 Q638 -138 659 -138 Q709 -138 733 -127 Q757 -116 765 -89 Q775 -60 775 83 L775 569 Q775 665 758 710 Q742 750 701 773.5 Q660 797 604 797 Q542 797 491.5 767.5 Q441 738 416 688 Q389 631 389 512 L389 0 L119 0 L119 990 L377 990 Z " />
<glyph glyph-name="Omacron" unicode="&#x14c;" horiz-adv-x="1490" d="M756 1398 Q1029 1398 1213 1219 Q1417 1020 1417 682 Q1417 392 1263 200 Q1075 -33 747 -33 Q413 -33 222 205 Q72 393 72 681 Q72 1020 267 1210 Q459 1398 756 1398 Z M752 1150 Q576 1150 475 1025 Q372 898 372 683 Q372 463 473 339 Q521 281 594 248 Q667 215 749 215 Q913 215 1008 329 Q1117 460 1117 687 Q1117 898 1017 1025 Q918 1150 752 1150 Z M1078 1690 L1078 1536 L411 1536 L411 1690 L1078 1690 Z " />
<glyph glyph-name="omacron" unicode="&#x14d;" horiz-adv-x="1147" d="M584 1017 Q806 1017 947 874 Q1086 732 1086 496 Q1086 253 938 108 Q799 -27 575 -27 Q338 -27 196 123 Q62 267 62 495 Q62 722 193 860 Q340 1017 584 1017 Z M576 816 Q463 816 399 731 Q335 645 335 493 Q335 339 399 258 Q464 174 576 174 Q681 174 744 250 Q813 334 813 496 Q813 646 751 729 Q687 816 576 816 Z M887 1345 L887 1202 L261 1202 L261 1345 L887 1345 Z " />
<glyph glyph-name="Obreve" unicode="&#x14e;" horiz-adv-x="1490" d="M756 1398 Q1029 1398 1213 1219 Q1417 1020 1417 682 Q1417 392 1263 200 Q1075 -33 747 -33 Q413 -33 222 205 Q72 393 72 681 Q72 1020 267 1210 Q459 1398 756 1398 Z M752 1150 Q576 1150 475 1025 Q372 898 372 683 Q372 463 473 339 Q521 281 594 248 Q667 215 749 215 Q913 215 1008 329 Q1117 460 1117 687 Q1117 898 1017 1025 Q918 1150 752 1150 Z M412 1745 L552 1745 Q586 1631 743 1631 Q903 1631 937 1745 L1077 1745 Q1072 1647 1021 1583 Q935 1475 744 1475 Q554 1475 468 1583 Q417 1647 412 1745 Z " />
<glyph glyph-name="obreve" unicode="&#x14f;" horiz-adv-x="1147" d="M584 1017 Q806 1017 947 874 Q1086 732 1086 496 Q1086 253 938 108 Q799 -27 575 -27 Q338 -27 196 123 Q62 267 62 495 Q62 722 193 860 Q340 1017 584 1017 Z M576 816 Q463 816 399 731 Q335 645 335 493 Q335 339 399 258 Q464 174 576 174 Q681 174 744 250 Q813 334 813 496 Q813 646 751 729 Q687 816 576 816 Z M272 1413 L404 1413 Q434 1293 574 1293 Q714 1293 744 1413 L876 1413 Q872 1315 826 1251 Q747 1143 574 1143 Q401 1143 322 1251 Q276 1315 272 1413 Z " />
<glyph glyph-name="Ohungarumlaut" unicode="&#x150;" horiz-adv-x="1490" d="M756 1398 Q1029 1398 1213 1219 Q1417 1020 1417 682 Q1417 392 1263 200 Q1075 -33 747 -33 Q413 -33 222 205 Q72 393 72 681 Q72 1020 267 1210 Q459 1398 756 1398 Z M752 1150 Q576 1150 475 1025 Q372 898 372 683 Q372 463 473 339 Q521 281 594 248 Q667 215 749 215 Q913 215 1008 329 Q1117 460 1117 687 Q1117 898 1017 1025 Q918 1150 752 1150 Z M1206 1729 L1000 1481 L829 1481 L933 1729 L1206 1729 Z M865 1729 L659 1481 L487 1481 L591 1729 L865 1729 Z " />
<glyph glyph-name="ohungarumlaut" unicode="&#x151;" horiz-adv-x="1147" d="M584 1017 Q806 1017 947 874 Q1086 732 1086 496 Q1086 253 938 108 Q799 -27 575 -27 Q338 -27 196 123 Q62 267 62 495 Q62 722 193 860 Q340 1017 584 1017 Z M576 816 Q463 816 399 731 Q335 645 335 493 Q335 339 399 258 Q464 174 576 174 Q681 174 744 250 Q813 334 813 496 Q813 646 751 729 Q687 816 576 816 Z M723 1417 L481 1137 L344 1137 L478 1417 L723 1417 Z M1078 1417 L835 1137 L698 1137 L832 1417 L1078 1417 Z " />
<glyph glyph-name="OE" unicode="&#x152;" horiz-adv-x="2093" d="M2000 1365 L2000 1112 L1317 1112 L1317 822 L1941 822 L1941 587 L1317 587 L1317 253 L2014 253 L2014 0 L1038 0 L1039 104 Q915 -30 696 -30 Q409 -30 228 193 Q72 385 72 673 Q72 990 254 1192 Q437 1395 710 1395 Q944 1395 1039 1266 L1039 1365 L2000 1365 Z M1033 539 L1033 832 Q1033 908 1020.5 952.5 Q1008 997 976 1038 Q891 1145 740 1145 Q560 1145 458 999 Q372 878 372 682 Q372 469 476 340 Q572 219 730 219 Q890 219 978 337 Q1033 412 1033 539 Z " />
<glyph glyph-name="oe" unicode="&#x153;" horiz-adv-x="1775" d="M1708 313 Q1671 187 1589 107 Q1453 -27 1242 -27 Q1117 -27 1031.5 12.5 Q946 52 887 138 Q845 77 802 47 Q696 -27 544 -27 Q312 -27 178 133 Q62 271 62 494 Q62 732 209 882 Q341 1017 560 1017 Q790 1017 898 862 Q1021 1017 1238 1017 Q1395 1017 1513 936 Q1719 794 1717 433 L1005 433 Q1007 350 1038 289 Q1100 168 1244 168 Q1317 168 1364.5 201.5 Q1412 235 1448 313 L1708 313 Z M1447 593 Q1441 680 1406 731 Q1344 822 1228 822 Q1133 822 1074 762.5 Q1015 703 1003 593 L1447 593 Z M562 817 Q455 817 395 732 Q335 647 335 496 Q335 351 388 264 Q443 174 555 174 Q670 174 722 268 Q771 358 771 506 Q771 645 723 726 Q668 817 562 817 Z " />
<glyph glyph-name="Racute" unicode="&#x154;" horiz-adv-x="1411" d="M131 1365 L792 1365 Q989 1365 1094 1303 Q1272 1198 1272 979 Q1272 859 1214.5 771 Q1157 683 1054 644 Q1143 623 1196 544 Q1228 494 1239.5 439.5 Q1251 385 1268 192 Q1281 50 1309 16 L1322 0 L1011 0 Q987 42 977 185 Q967 319 954 373.5 Q941 428 910 469 Q858 537 697 537 L429 537 L429 0 L131 0 L131 1365 Z M429 1130 L429 755 L713 755 Q852 755 908 794 Q979 844 979 943 Q979 1040 918.5 1085 Q858 1130 726 1130 L429 1130 Z M989 1729 L704 1480 L504 1480 L676 1729 L989 1729 Z " />
<glyph glyph-name="racute" unicode="&#x155;" horiz-adv-x="757" d="M757 1007 L757 756 Q690 768 651 768 Q500 768 428 645 Q388 576 388 414 L388 0 L118 0 L118 990 L376 990 L376 807 Q481 1011 696 1011 Q720 1011 757 1007 Z M758 1416 L481 1140 L299 1140 L472 1416 L758 1416 Z " />
<glyph glyph-name="Rcommaaccent" unicode="&#x156;" horiz-adv-x="1411" d="M131 1365 L792 1365 Q989 1365 1094 1303 Q1272 1198 1272 979 Q1272 859 1214.5 771 Q1157 683 1054 644 Q1143 623 1196 544 Q1228 494 1239.5 439.5 Q1251 385 1268 192 Q1281 50 1309 16 L1322 0 L1011 0 Q987 42 977 185 Q967 319 954 373.5 Q941 428 910 469 Q858 537 697 537 L429 537 L429 0 L131 0 L131 1365 Z M429 1130 L429 755 L713 755 Q852 755 908 794 Q979 844 979 943 Q979 1040 918.5 1085 Q858 1130 726 1130 L429 1130 Z M586 -455 Q698 -438 708 -341 Q693 -344 688 -344 L681 -344 Q632 -344 595.5 -307.5 Q559 -271 559 -223 Q559 -171 595.5 -134 Q632 -97 683 -97 Q747 -97 787 -145 Q827 -193 827 -269 Q827 -392 756 -472 Q723 -510 687.5 -528.5 Q652 -547 586 -560 L586 -455 Z " />
<glyph glyph-name="rcommaaccent" unicode="&#x157;" horiz-adv-x="757" d="M757 1007 L757 756 Q690 768 651 768 Q500 768 428 645 Q388 576 388 414 L388 0 L118 0 L118 990 L376 990 L376 807 Q481 1011 696 1011 Q720 1011 757 1007 Z M146 -455 Q258 -438 268 -341 Q253 -344 248 -344 L241 -344 Q192 -344 155.5 -307.5 Q119 -271 119 -223 Q119 -171 155.5 -134 Q192 -97 243 -97 Q307 -97 347 -145 Q387 -193 387 -269 Q387 -392 316 -472 Q283 -510 247.5 -528.5 Q212 -547 146 -560 L146 -455 Z " />
<glyph glyph-name="Rcaron" unicode="&#x158;" horiz-adv-x="1411" d="M131 1365 L792 1365 Q989 1365 1094 1303 Q1272 1198 1272 979 Q1272 859 1214.5 771 Q1157 683 1054 644 Q1143 623 1196 544 Q1228 494 1239.5 439.5 Q1251 385 1268 192 Q1281 50 1309 16 L1322 0 L1011 0 Q987 42 977 185 Q967 319 954 373.5 Q941 428 910 469 Q858 537 697 537 L429 537 L429 0 L131 0 L131 1365 Z M429 1130 L429 755 L713 755 Q852 755 908 794 Q979 844 979 943 Q979 1040 918.5 1085 Q858 1130 726 1130 L429 1130 Z M1015 1741 L793 1485 L537 1485 L315 1741 L547 1741 L661 1608 L772 1741 L1015 1741 Z " />
<glyph glyph-name="rcaron" unicode="&#x159;" horiz-adv-x="757" d="M757 1007 L757 756 Q690 768 651 768 Q500 768 428 645 Q388 576 388 414 L388 0 L118 0 L118 990 L376 990 L376 807 Q481 1011 696 1011 Q720 1011 757 1007 Z M778 1416 L567 1140 L317 1140 L102 1416 L319 1416 L442 1248 L567 1416 L778 1416 Z " />
<glyph glyph-name="Sacute" unicode="&#x15a;" horiz-adv-x="1256" d="M953 1729 L667 1480 L467 1480 L640 1729 L953 1729 Z M1137 961 L854 961 Q836 1167 596 1167 Q490 1167 431.5 1125.5 Q373 1084 373 1009 Q373 942 429 912 Q483 882 704 828 Q935 771 1025 711 Q1191 603 1191 410 Q1191 197 1025 75 Q878 -33 628 -33 Q350 -33 196 94 Q42 221 36 456 L333 456 Q339 342 391 287 Q474 199 639 199 Q751 199 816 243 Q890 294 890 380 Q890 467 786 508 Q730 530 518 588 Q385 625 310 657.5 Q235 690 191 730 Q86 824 86 988 Q86 1185 250 1300 Q389 1398 612 1398 Q806 1398 938 1320 Q1127 1209 1137 961 Z " />
<glyph glyph-name="sacute" unicode="&#x15b;" horiz-adv-x="1015" d="M916 702 L662 702 Q654 754 633 781 Q591 834 478 834 Q405 834 365.5 808.5 Q326 783 326 737 Q326 687 369 665 Q412 643 569 611 Q766 571 853 514 Q956 445 956 306 Q956 147 828 59 Q704 -27 497 -27 Q277 -27 160 61 Q43 149 32 322 L291 322 Q299 253 327 219 Q379 156 500 156 Q584 156 633.5 189.5 Q683 223 683 279 Q683 330 640.5 355 Q598 380 461 411 Q327 441 272 457.5 Q217 474 173 499 Q117 530 85 587.5 Q53 645 53 715 Q53 870 185 951 Q293 1017 483 1017 Q736 1017 847 892 Q907 825 916 702 Z M812 1416 L536 1140 L354 1140 L526 1416 L812 1416 Z " />
<glyph glyph-name="Scircumflex" unicode="&#x15c;" horiz-adv-x="1256" d="M1137 961 L854 961 Q836 1167 596 1167 Q490 1167 431.5 1125.5 Q373 1084 373 1009 Q373 942 429 912 Q483 882 704 828 Q935 771 1025 711 Q1191 603 1191 410 Q1191 197 1025 75 Q878 -33 628 -33 Q350 -33 195 95 Q40 223 36 456 L333 456 Q339 343 391 287 Q474 199 639 199 Q751 199 816 243 Q890 294 890 380 Q890 467 786 508 Q730 530 518 588 Q385 625 310 657.5 Q235 690 191 730 Q86 824 86 988 Q86 1185 250 1300 Q389 1398 612 1398 Q921 1398 1058 1215 Q1132 1117 1137 961 Z M978 1485 L736 1485 L624 1618 L510 1485 L278 1485 L500 1741 L756 1741 L978 1485 Z " />
<glyph glyph-name="scircumflex" unicode="&#x15d;" horiz-adv-x="1015" d="M916 702 L662 702 Q654 754 633 781 Q591 834 478 834 Q405 834 365.5 808.5 Q326 783 326 737 Q326 687 369 665 Q412 643 569 611 Q766 571 853 514 Q956 445 956 306 Q956 147 828 59 Q704 -27 497 -27 Q277 -27 160 61 Q43 149 32 322 L291 322 Q299 253 327 219 Q379 156 500 156 Q584 156 633.5 189.5 Q683 223 683 279 Q683 330 640.5 355 Q598 380 461 411 Q327 441 272 457.5 Q217 474 173 499 Q117 530 85 587.5 Q53 645 53 715 Q53 870 185 951 Q293 1017 483 1017 Q736 1017 847 892 Q907 825 916 702 Z M844 1140 L625 1140 L504 1304 L380 1140 L171 1140 L384 1416 L632 1416 L844 1140 Z " />
<glyph glyph-name="Scedilla" unicode="&#x15e;" horiz-adv-x="1256" d="M609 -33 L553 -118 Q597 -108 627 -108 Q702 -108 749 -147 Q796 -186 796 -248 Q796 -325 730 -373.5 Q664 -422 559 -422 Q459 -422 343 -377 L381 -298 Q470 -331 533 -331 Q576 -331 602 -311.5 Q628 -292 628 -259 Q628 -228 603.5 -207.5 Q579 -187 540 -187 Q512 -187 467 -202 L428 -163 L519 -27 Q309 -3 187 103 Q42 228 36 456 L333 456 Q339 342 391 287 Q474 199 639 199 Q751 199 816 243 Q890 294 890 380 Q890 467 786 508 Q730 530 518 588 Q385 625 310 657.5 Q235 690 191 730 Q86 824 86 988 Q86 1185 250 1300 Q389 1398 612 1398 Q806 1398 938 1320 Q1127 1209 1137 961 L854 961 Q836 1167 596 1167 Q490 1167 431.5 1125.5 Q373 1084 373 1009 Q373 942 429 912 Q483 882 704 828 Q935 771 1025 711 Q1191 603 1191 410 Q1191 197 1025 75 Q878 -33 629 -33 Q626 -33 609 -33 Z " />
<glyph glyph-name="scedilla" unicode="&#x15f;" horiz-adv-x="1015" d="M500 -30 L438 -120 Q485 -112 513 -112 Q588 -112 634.5 -149.5 Q681 -187 681 -248 Q681 -329 617.5 -378 Q554 -427 447 -427 Q340 -427 229 -382 L266 -302 Q348 -334 414 -334 Q460 -334 487.5 -314 Q515 -294 515 -262 Q515 -230 489.5 -210.5 Q464 -191 423 -191 Q392 -191 353 -206 L313 -168 L414 -23 Q52 8 32 322 L291 322 Q299 253 327 218 Q379 155 500 155 Q584 155 633.5 188.5 Q683 222 683 278 Q683 329 640.5 354.5 Q598 380 461 410 Q327 440 272 457 Q217 474 173 498 Q117 530 85 587 Q53 644 53 715 Q53 870 185 951 Q293 1017 483 1017 Q736 1017 847 892 Q907 825 916 702 L662 702 Q654 754 633 781 Q591 834 478 834 Q405 834 365.5 808.5 Q326 783 326 737 Q326 687 369 665 Q412 643 569 611 Q766 571 853 514 Q956 445 956 306 Q956 182 872 95 Q785 6 625 -18 Q583 -24 500 -30 Z " />
<glyph glyph-name="Scaron" unicode="&#x160;" horiz-adv-x="1256" d="M972 1741 L750 1485 L494 1485 L271 1741 L503 1741 L617 1608 L729 1741 L972 1741 Z M1137 961 L854 961 Q836 1167 596 1167 Q490 1167 431.5 1125.5 Q373 1084 373 1009 Q373 942 429 912 Q483 882 704 828 Q935 771 1025 711 Q1191 603 1191 410 Q1191 197 1025 75 Q878 -33 628 -33 Q350 -33 196 94 Q42 221 36 456 L333 456 Q339 342 391 287 Q474 199 639 199 Q751 199 816 243 Q890 294 890 380 Q890 467 786 508 Q730 530 518 588 Q385 625 310 657.5 Q235 690 191 730 Q86 824 86 988 Q86 1185 250 1300 Q389 1398 612 1398 Q806 1398 938 1320 Q1127 1209 1137 961 Z " />
<glyph glyph-name="scaron" unicode="&#x161;" horiz-adv-x="1015" d="M916 702 L662 702 Q654 754 633 781 Q591 834 478 834 Q405 834 365.5 808.5 Q326 783 326 737 Q326 687 369 665 Q412 643 569 611 Q766 571 853 514 Q956 445 956 306 Q956 147 828 59 Q704 -27 497 -27 Q277 -27 160 61 Q43 149 32 322 L291 322 Q299 253 327 219 Q379 156 500 156 Q584 156 633.5 189.5 Q683 223 683 279 Q683 330 640.5 355 Q598 380 461 411 Q327 441 272 457.5 Q217 474 173 499 Q117 530 85 587.5 Q53 645 53 715 Q53 870 185 951 Q293 1017 483 1017 Q736 1017 847 892 Q907 825 916 702 Z M836 1416 L625 1140 L376 1140 L160 1416 L378 1416 L501 1248 L625 1416 L836 1416 Z " />
<glyph glyph-name="Tcommaaccent" unicode="&#x162;" horiz-adv-x="1189" d="M1157 1365 L1157 1112 L742 1112 L742 0 L444 0 L444 1112 L32 1112 L32 1365 L1157 1365 Z M489 -455 Q601 -438 611 -341 Q596 -344 591 -344 L584 -344 Q535 -344 498.5 -307.5 Q462 -271 462 -223 Q462 -171 498.5 -134 Q535 -97 586 -97 Q650 -97 690 -145 Q730 -193 730 -269 Q730 -392 659 -472 Q626 -510 590.5 -528.5 Q555 -547 489 -560 L489 -455 Z " />
<glyph glyph-name="tcommaaccent" unicode="&#x163;" horiz-adv-x="661" d="M622 990 L622 807 L419 807 L419 340 Q419 253 435 231 Q458 197 539 197 Q573 197 622 203 L622 -4 Q528 -14 454 -14 Q349 -14 287.5 8 Q226 30 191 79 Q165 118 157 169 Q149 220 149 350 L149 807 L-16 807 L-16 990 L149 990 L149 1289 L419 1289 L419 990 L622 990 Z M264 -455 Q376 -438 386 -341 Q371 -344 366 -344 L359 -344 Q310 -344 273.5 -307.5 Q237 -271 237 -223 Q237 -171 273.5 -134 Q310 -97 361 -97 Q425 -97 465 -145 Q505 -193 505 -269 Q505 -392 434 -472 Q401 -510 365.5 -528.5 Q330 -547 264 -560 L264 -455 Z " />
<glyph glyph-name="Tcaron" unicode="&#x164;" horiz-adv-x="1189" d="M1157 1365 L1157 1112 L742 1112 L742 0 L444 0 L444 1112 L32 1112 L32 1365 L1157 1365 Z M945 1741 L723 1485 L467 1485 L244 1741 L477 1741 L590 1608 L702 1741 L945 1741 Z " />
<glyph glyph-name="tcaron" unicode="&#x165;" horiz-adv-x="799" d="M622 990 L622 807 L419 807 L419 340 Q419 253 435 231 Q458 197 539 197 Q573 197 622 203 L622 -4 Q528 -14 454 -14 Q349 -14 287.5 8 Q226 30 191 79 Q165 118 157 169 Q149 220 149 350 L149 807 L-16 807 L-16 990 L149 990 L149 1289 L419 1289 L419 990 L622 990 Z M557 1145 Q669 1162 679 1259 Q664 1256 659 1256 L652 1256 Q603 1256 566.5 1292.5 Q530 1329 530 1377 Q530 1429 566.5 1466 Q603 1503 654 1503 Q718 1503 758 1455 Q798 1407 798 1331 Q798 1208 727 1128 Q694 1090 658.5 1071.5 Q623 1053 557 1040 L557 1145 Z " />
<glyph glyph-name="Tbar" unicode="&#x166;" horiz-adv-x="1189" d="M1157 1365 L1157 1112 L742 1112 L742 847 L1056 847 L1056 656 L742 656 L742 0 L444 0 L444 656 L130 656 L130 847 L444 847 L444 1112 L32 1112 L32 1365 L1157 1365 Z " />
<glyph glyph-name="tbar" unicode="&#x167;" horiz-adv-x="661" d="M622 990 L622 807 L419 807 L419 638 L601 638 L601 481 L419 481 L419 339 Q419 253 435 230 Q458 197 539 197 Q570 197 622 203 L622 -4 Q528 -14 454 -14 Q349 -14 287.5 8 Q226 30 191 79 Q165 118 157 169 Q149 220 149 350 L149 481 L4 481 L4 638 L149 638 L149 807 L-16 807 L-16 990 L149 990 L149 1289 L419 1289 L419 990 L622 990 Z " />
<glyph glyph-name="Utilde" unicode="&#x168;" horiz-adv-x="1393" d="M1278 1365 L1278 558 Q1278 405 1254.5 314.5 Q1231 224 1172 149 Q1028 -33 697 -33 Q342 -33 199 173 Q150 243 130.5 329.5 Q111 416 111 562 L111 1365 L409 1365 L409 543 Q409 386 454 319 Q524 215 703 215 Q853 215 916.5 290 Q980 365 980 543 L980 1365 L1278 1365 Z M1046 1738 Q1001 1494 821 1494 Q791 1494 772 1499 Q753 1504 685 1531 Q592 1567 554 1567 Q494 1567 476 1488 L343 1488 Q359 1582 405 1639 Q477 1730 562 1730 Q608 1730 701 1695 Q786 1662 827 1662 Q885 1662 914 1738 L1046 1738 Z " />
<glyph glyph-name="utilde" unicode="&#x169;" horiz-adv-x="1159" d="M1038 990 L1038 0 L780 0 L780 140 Q664 -27 453 -27 Q271 -27 177 91 Q111 176 111 363 L111 990 L381 990 L381 443 Q381 302 408 261 Q451 194 554 194 Q682 194 740 305 Q768 358 768 499 L768 990 L1038 990 Z M903 1402 Q863 1166 695 1166 Q656 1166 623 1176.5 Q590 1187 500 1228 Q473 1240 448 1240 Q417 1240 396.5 1219.5 Q376 1199 370 1161 L246 1161 Q261 1253 301 1309 Q365 1398 454 1398 Q501 1398 583 1363 Q664 1328 702 1328 Q753 1328 780 1402 L903 1402 Z " />
<glyph glyph-name="Umacron" unicode="&#x16a;" horiz-adv-x="1393" d="M1278 1365 L1278 558 Q1278 404 1254.5 314.5 Q1231 225 1172 149 Q1089 45 954 1 Q850 -33 697 -33 Q342 -33 199 173 Q150 244 130.5 330 Q111 416 111 562 L111 1365 L409 1365 L409 543 Q409 387 455 319 Q524 215 703 215 Q854 215 917 290 Q980 365 980 543 L980 1365 L1278 1365 Z M1028 1690 L1028 1536 L362 1536 L362 1690 L1028 1690 Z " />
<glyph glyph-name="umacron" unicode="&#x16b;" horiz-adv-x="1159" d="M1038 990 L1038 0 L780 0 L780 140 Q664 -27 453 -27 Q271 -27 177 91 Q111 176 111 363 L111 990 L381 990 L381 443 Q381 302 408 261 Q451 194 554 194 Q682 194 740 305 Q768 358 768 499 L768 990 L1038 990 Z M887 1345 L887 1202 L262 1202 L262 1345 L887 1345 Z " />
<glyph glyph-name="Ubreve" unicode="&#x16c;" horiz-adv-x="1393" d="M1278 1365 L1278 558 Q1278 404 1254.5 314.5 Q1231 225 1172 149 Q1089 45 954 1 Q850 -33 697 -33 Q342 -33 199 173 Q150 244 130.5 330 Q111 416 111 562 L111 1365 L409 1365 L409 543 Q409 387 455 319 Q524 215 703 215 Q854 215 917 290 Q980 365 980 543 L980 1365 L1278 1365 Z M364 1745 L504 1745 Q538 1631 694 1631 Q855 1631 889 1745 L1028 1745 Q1024 1647 973 1583 Q886 1475 696 1475 Q506 1475 419 1583 Q369 1647 364 1745 Z " />
<glyph glyph-name="ubreve" unicode="&#x16d;" horiz-adv-x="1159" d="M1038 990 L1038 0 L780 0 L780 140 Q664 -27 453 -27 Q271 -27 177 91 Q111 176 111 363 L111 990 L381 990 L381 443 Q381 302 408 261 Q451 194 554 194 Q682 194 740 305 Q768 358 768 499 L768 990 L1038 990 Z M277 1413 L409 1413 Q440 1293 579 1293 Q720 1293 749 1413 L881 1413 Q877 1315 831 1251 Q752 1143 579 1143 Q406 1143 327 1251 Q281 1315 277 1413 Z " />
<glyph glyph-name="Uring" unicode="&#x16e;" horiz-adv-x="1393" d="M1278 1365 L1278 558 Q1278 404 1254.5 314.5 Q1231 225 1172 149 Q1089 45 954 1 Q850 -33 697 -33 Q342 -33 199 173 Q150 244 130.5 330 Q111 416 111 562 L111 1365 L409 1365 L409 543 Q409 387 455 319 Q524 215 703 215 Q854 215 917 290 Q980 365 980 543 L980 1365 L1278 1365 Z M700 1890 Q796 1890 865 1815 Q923 1750 923 1663 Q923 1562 848 1494 Q783 1436 696 1436 Q595 1436 527 1511 Q469 1576 469 1665 Q469 1763 544 1831 Q608 1890 700 1890 Z M698 1771 Q652 1771 620 1740 Q588 1709 588 1664 Q588 1618 619.5 1586.5 Q651 1555 696 1555 Q741 1555 772.5 1586.5 Q804 1618 804 1663 Q804 1707 772.5 1739 Q741 1771 698 1771 Z " />
<glyph glyph-name="uring" unicode="&#x16f;" horiz-adv-x="1159" d="M1038 990 L1038 0 L780 0 L780 140 Q664 -27 453 -27 Q271 -27 177 91 Q111 176 111 363 L111 990 L381 990 L381 443 Q381 302 408 261 Q451 194 554 194 Q682 194 740 305 Q768 358 768 499 L768 990 L1038 990 Z M578 1511 Q669 1511 733 1440 Q788 1380 788 1298 Q788 1203 717 1140 Q657 1085 575 1085 Q480 1085 417 1156 Q362 1216 362 1300 Q362 1391 433 1456 Q493 1511 578 1511 Z M576 1395 Q535 1395 506.5 1367 Q478 1339 478 1299 Q478 1258 506 1229.5 Q534 1201 575 1201 Q615 1201 643.5 1229.5 Q672 1258 672 1298 Q672 1338 644 1366.5 Q616 1395 576 1395 Z " />
<glyph glyph-name="Uhungarumlaut" unicode="&#x170;" horiz-adv-x="1393" d="M1278 1365 L1278 558 Q1278 404 1254.5 314.5 Q1231 225 1172 149 Q1089 45 954 1 Q850 -33 697 -33 Q342 -33 199 173 Q150 244 130.5 330 Q111 416 111 562 L111 1365 L409 1365 L409 543 Q409 387 455 319 Q524 215 703 215 Q854 215 917 290 Q980 365 980 543 L980 1365 L1278 1365 Z M1151 1729 L945 1481 L773 1481 L877 1729 L1151 1729 Z M810 1729 L603 1481 L432 1481 L536 1729 L810 1729 Z " />
<glyph glyph-name="uhungarumlaut" unicode="&#x171;" horiz-adv-x="1159" d="M1038 990 L1038 0 L780 0 L780 140 Q664 -27 453 -27 Q271 -27 177 91 Q111 176 111 363 L111 990 L381 990 L381 443 Q381 302 408 261 Q451 194 554 194 Q682 194 740 305 Q768 358 768 499 L768 990 L1038 990 Z M708 1417 L466 1137 L328 1137 L463 1417 L708 1417 Z M1062 1417 L820 1137 L683 1137 L817 1417 L1062 1417 Z " />
<glyph glyph-name="Uogonek" unicode="&#x172;" horiz-adv-x="1393" d="M980 1365 L1278 1365 L1278 558 Q1278 434 1264.5 359.5 Q1251 285 1218 221 Q1187 162 1147 121.5 Q1107 81 1019 18 Q957 -25 935 -60 Q905 -106 905 -152 Q905 -194 938.5 -219.5 Q972 -245 1029 -245 Q1055 -245 1098 -234 L1098 -348 Q1030 -368 975 -368 Q870 -368 806 -318 Q742 -268 742 -187 Q742 -136 770.5 -99.5 Q799 -63 873 -19 Q785 -33 707 -33 Q460 -33 323 54 Q207 128 159 243 Q111 358 111 562 L111 1365 L409 1365 L409 543 Q409 387 455 319 Q524 215 703 215 Q854 215 917 290 Q980 365 980 543 L980 1365 Z " />
<glyph glyph-name="uogonek" unicode="&#x173;" horiz-adv-x="1159" d="M768 990 L1038 990 L1038 0 Q917 -79 917 -162 Q917 -207 950.5 -232.5 Q984 -258 1042 -258 Q1067 -258 1112 -248 L1112 -362 Q1042 -381 988 -381 Q884 -381 819.5 -332 Q755 -283 755 -204 Q755 -142 794.5 -88.5 Q834 -35 905 0 L780 0 L780 140 Q664 -27 453 -27 Q270 -27 177 92 Q111 176 111 363 L111 990 L381 990 L381 443 Q381 302 408 261 Q451 194 554 194 Q682 194 740 305 Q768 358 768 499 L768 990 Z " />
<glyph glyph-name="Wcircumflex" unicode="&#x174;" horiz-adv-x="1807" d="M1804 1365 L1434 0 L1136 0 L988 584 Q940 773 902 1040 Q870 813 816 592 L671 0 L368 0 L4 1365 L304 1365 L438 792 Q502 522 525 293 Q541 468 616 790 L764 1365 L1045 1365 L1190 803 Q1215 709 1242 556.5 Q1269 404 1282 293 Q1310 541 1375 815 L1507 1365 L1804 1365 Z M1254 1485 L1011 1485 L900 1618 L786 1485 L554 1485 L776 1741 L1032 1741 L1254 1485 Z " />
<glyph glyph-name="wcircumflex" unicode="&#x175;" horiz-adv-x="1528" d="M1534 990 L1220 0 L940 0 L825 432 Q793 554 764 733 Q732 549 702 433 L592 0 L310 0 L-5 990 L282 990 L386 614 Q425 472 467 251 Q501 454 544 625 L635 990 L898 990 L1002 582 Q1038 440 1069 252 Q1107 459 1139 577 L1253 990 L1534 990 Z M1101 1140 L882 1140 L761 1304 L637 1140 L428 1140 L641 1416 L889 1416 L1101 1140 Z " />
<glyph glyph-name="Ycircumflex" unicode="&#x176;" horiz-adv-x="1241" d="M1277 1365 L769 526 L769 0 L471 0 L471 530 L-39 1365 L302 1365 L514 1001 Q569 907 623 778 Q688 930 738 1014 L944 1365 L1277 1365 Z M977 1485 L734 1485 L623 1618 L509 1485 L277 1485 L499 1741 L755 1741 L977 1485 Z " />
<glyph glyph-name="ycircumflex" unicode="&#x177;" horiz-adv-x="1001" d="M1010 990 L647 5 Q592 -145 556 -206 Q520 -267 465 -305 Q420 -335 374 -344.5 Q328 -354 225 -354 Q209 -354 198 -354 L87 -351 L87 -127 L118 -127 L197 -127 Q286 -127 321 -91 Q352 -60 352 -2 Q352 35 343 59 L-10 990 L283 990 L447 505 Q472 430 509 274 Q550 437 576 517 L730 990 L1010 990 Z M847 1140 L627 1140 L506 1304 L383 1140 L174 1140 L387 1416 L635 1416 L847 1140 Z " />
<glyph glyph-name="Ydieresis" unicode="&#x178;" horiz-adv-x="1241" d="M1277 1365 L769 526 L769 0 L471 0 L471 530 L-39 1365 L302 1365 L514 1001 Q569 907 623 778 Q688 930 738 1014 L944 1365 L1277 1365 Z M842 1760 Q903 1760 948 1714.5 Q993 1669 993 1607 Q993 1544 947.5 1498.5 Q902 1453 840 1453 Q777 1453 732 1498.5 Q687 1544 687 1607 Q687 1670 732.5 1715 Q778 1760 842 1760 Z M418 1760 Q479 1760 524 1714.5 Q569 1669 569 1607 Q569 1544 523.5 1498.5 Q478 1453 416 1453 Q353 1453 308 1498.5 Q263 1544 263 1607 Q263 1670 308.5 1715 Q354 1760 418 1760 Z " />
<glyph glyph-name="Zacute" unicode="&#x179;" horiz-adv-x="1248" d="M1176 1365 L1176 1138 L566 409 Q547 385 415 246 Q600 253 688 253 L1201 253 L1201 0 L46 0 L46 240 L675 988 Q706 1024 799 1118 Q648 1112 553 1112 L97 1112 L97 1365 L1176 1365 Z M976 1729 L690 1480 L490 1480 L663 1729 L976 1729 Z " />
<glyph glyph-name="zacute" unicode="&#x17a;" horiz-adv-x="979" d="M925 990 L925 791 L519 332 Q482 290 392 207 Q485 212 530 212 L959 212 L959 0 L48 0 L48 206 L444 649 Q481 689 583 781 Q526 778 482 778 L88 778 L88 990 L925 990 Z M821 1416 L545 1140 L363 1140 L535 1416 L821 1416 Z " />
<glyph glyph-name="Zdotaccent" unicode="&#x17b;" horiz-adv-x="1248" d="M1176 1365 L1176 1138 L566 409 Q547 385 415 246 Q600 253 688 253 L1201 253 L1201 0 L46 0 L46 240 L675 988 Q706 1024 799 1118 Q648 1112 553 1112 L97 1112 L97 1365 L1176 1365 Z M655 1760 Q716 1760 760.5 1714.5 Q805 1669 805 1607 Q805 1544 760 1498.5 Q715 1453 652 1453 Q589 1453 544 1498.5 Q499 1544 499 1607 Q499 1670 544.5 1715 Q590 1760 655 1760 Z " />
<glyph glyph-name="zdotaccent" unicode="&#x17c;" horiz-adv-x="979" d="M925 990 L925 791 L519 332 Q482 290 392 207 Q485 212 530 212 L959 212 L959 0 L48 0 L48 206 L444 649 Q481 689 583 781 Q526 778 482 778 L88 778 L88 990 L925 990 Z M521 1423 Q582 1423 626.5 1377.5 Q671 1332 671 1270 Q671 1207 626 1161.5 Q581 1116 518 1116 Q455 1116 410 1161.5 Q365 1207 365 1270 Q365 1333 410.5 1378 Q456 1423 521 1423 Z " />
<glyph glyph-name="Zcaron" unicode="&#x17d;" horiz-adv-x="1248" d="M1176 1365 L1176 1138 L566 409 Q547 385 415 246 Q600 253 688 253 L1201 253 L1201 0 L46 0 L46 240 L675 988 Q706 1024 799 1118 Q648 1112 553 1112 L97 1112 L97 1365 L1176 1365 Z M1001 1741 L780 1485 L524 1485 L301 1741 L533 1741 L647 1608 L759 1741 L1001 1741 Z " />
<glyph glyph-name="zcaron" unicode="&#x17e;" horiz-adv-x="979" d="M925 990 L925 791 L519 332 Q482 290 392 207 Q485 212 530 212 L959 212 L959 0 L48 0 L48 206 L444 649 Q481 689 583 781 Q526 778 482 778 L88 778 L88 990 L925 990 Z M855 1416 L644 1140 L395 1140 L179 1416 L397 1416 L519 1248 L644 1416 L855 1416 Z " />
<glyph glyph-name="longs" unicode="&#x17f;" horiz-adv-x="658" d="M638 1365 L638 1166 Q592 1170 554 1170 Q472 1170 450 1152 Q428 1134 428 1068 L428 0 L158 0 L158 807 L-4 807 L-4 990 L158 990 L158 1042 Q158 1137 173 1189.5 Q188 1242 226 1282 Q310 1371 494 1371 Q540 1371 638 1365 Z " />
<glyph glyph-name="uni018F" unicode="&#x18f;" horiz-adv-x="1489" d="M217 1130 Q243 1169 278 1205 Q466 1398 749 1398 Q1030 1398 1213 1219 Q1417 1019 1417 682 Q1417 392 1263 200 Q1075 -33 747 -33 Q413 -33 222 205 Q72 394 72 679 Q72 730 78 786 L1119 786 Q1097 913 1051 988 Q947 1159 744 1159 Q550 1159 442 1015 L217 1130 Z M374 565 Q395 453 434 384 Q481 301 565 253.5 Q649 206 749 206 Q896 206 989 297.5 Q1082 389 1115 565 L374 565 Z " />
<glyph glyph-name="florin" unicode="&#x192;" horiz-adv-x="1147" d="M956 916 L928 758 L739 758 L610 28 Q589 -93 566 -152.5 Q543 -212 501 -257 Q452 -308 383 -329.5 Q314 -351 199 -351 Q153 -351 77 -346 L113 -143 Q142 -146 167 -146 Q225 -146 253 -136 Q281 -126 296 -100 Q321 -56 343 68 L464 758 L304 758 L332 916 L492 916 L533 1147 Q562 1310 631 1386 Q681 1440 751.5 1464.5 Q822 1489 930 1489 Q990 1489 1066 1484 L1030 1281 Q978 1282 960 1282 Q885 1282 852.5 1249.5 Q820 1217 804 1126 L767 916 L956 916 Z " />
<glyph glyph-name="uni01C4" unicode="&#x1c4;" horiz-adv-x="2527" d="M2141 1741 L1919 1485 L1663 1485 L1441 1741 L1673 1741 L1787 1608 L1898 1741 L2141 1741 Z M132 1365 L684 1365 Q838 1365 947.5 1329.5 Q1057 1294 1141 1217 Q1346 1029 1346 700 Q1346 350 1153 157 Q1067 72 961.5 36 Q856 0 690 0 L132 0 L132 1365 Z M430 1112 L430 253 L659 253 Q765 253 828 274 Q891 295 938 346 Q1046 463 1046 689 Q1046 898 945.5 1005 Q845 1112 649 1112 L430 1112 Z M2455 1365 L2455 1138 L1845 409 Q1826 386 1693 246 Q1878 253 1966 253 L2480 253 L2480 0 L1325 0 L1325 240 L1954 988 Q1983 1023 2077 1118 Q1927 1112 1831 1112 L1375 1112 L1375 1365 L2455 1365 Z " />
<glyph glyph-name="uni01C5" unicode="&#x1c5;" horiz-adv-x="2375" d="M132 1365 L684 1365 Q838 1365 947.5 1329.5 Q1057 1294 1141 1217 Q1346 1029 1346 700 Q1346 350 1153 157 Q1067 72 961.5 36 Q856 0 690 0 L132 0 L132 1365 Z M430 1112 L430 253 L659 253 Q765 253 828 274 Q891 295 938 346 Q1046 463 1046 689 Q1046 898 945.5 1005 Q845 1112 649 1112 L430 1112 Z M2275 990 L2275 791 L1869 332 Q1832 290 1742 207 Q1835 212 1880 212 L2310 212 L2310 0 L1399 0 L1399 206 L1794 649 Q1830 689 1933 781 Q1876 778 1832 778 L1438 778 L1438 990 L2275 990 Z M2201 1416 L1990 1140 L1741 1140 L1525 1416 L1743 1416 L1866 1248 L1990 1416 L2201 1416 Z " />
<glyph glyph-name="uni01C6" unicode="&#x1c6;" horiz-adv-x="2388" d="M2047 1416 L1837 1140 L1587 1140 L1372 1416 L1589 1416 L1712 1248 L1836 1416 L2047 1416 Z M2122 990 L2122 791 L1716 332 Q1679 290 1589 207 Q1682 212 1727 212 L2156 212 L2156 0 L1245 0 L1245 206 L1641 649 Q1678 689 1780 781 Q1723 778 1679 778 L1285 778 L1285 990 L2122 990 Z M1127 1365 L1127 0 L869 0 L869 126 Q773 -27 570 -27 Q364 -27 240 120 Q121 263 121 500 Q121 723 226 859 Q349 1018 555 1018 Q758 1018 857 868 L857 1365 L1127 1365 Z M632 806 Q521 806 459 729 Q394 649 394 501 Q394 358 457 275 Q518 194 630 194 Q742 194 804 274 Q866 354 866 499 Q866 648 800 729 Q736 806 632 806 Z " />
<glyph glyph-name="uni01C7" unicode="&#x1c7;" horiz-adv-x="2203" d="M1097 253 L1097 0 L132 0 L132 1365 L430 1365 L430 253 L1097 253 Z M2091 1365 L2091 447 Q2091 327 2072.5 255 Q2054 183 2008 123 Q1890 -33 1642 -33 Q1351 -33 1242 164 Q1186 266 1186 455 Q1186 475 1187 511 L1463 511 Q1463 483 1463 472 Q1463 334 1486 288 Q1523 209 1633 209 Q1722 209 1757.5 259.5 Q1793 310 1793 437 L1793 1365 L2091 1365 Z " />
<glyph glyph-name="uni01C8" unicode="&#x1c8;" horiz-adv-x="1623" d="M1089 253 L1089 0 L124 0 L124 1365 L422 1365 L422 253 L1089 253 Z M1500 990 L1500 -1 L1501 -77 Q1501 -265 1361 -329 Q1293 -360 1172 -360 Q1130 -360 1063 -355 L1063 -136 Q1095 -138 1114 -138 Q1164 -138 1188 -127 Q1212 -116 1220 -89 Q1230 -59 1230 83 L1230 990 L1500 990 Z M1368 1394 Q1429 1394 1473.5 1348.5 Q1518 1303 1518 1241 Q1518 1178 1473 1132.5 Q1428 1087 1365 1087 Q1302 1087 1257 1132.5 Q1212 1178 1212 1241 Q1212 1304 1257.5 1349 Q1303 1394 1368 1394 Z " />
<glyph glyph-name="uni01C9" unicode="&#x1c9;" horiz-adv-x="952" d="M389 1365 L389 0 L119 0 L119 1365 L389 1365 Z M830 990 L830 -1 L831 -77 Q831 -167 794.5 -232.5 Q758 -298 691 -329 Q623 -360 502 -360 Q459 -360 393 -355 L393 -136 Q425 -138 444 -138 Q494 -138 518 -127 Q542 -116 550 -89 Q560 -59 560 83 L560 990 L830 990 Z M698 1394 Q759 1394 803.5 1348.5 Q848 1303 848 1241 Q848 1178 803 1132.5 Q758 1087 695 1087 Q632 1087 587 1132.5 Q542 1178 542 1241 Q542 1304 587.5 1349 Q633 1394 698 1394 Z " />
<glyph glyph-name="uni01CA" unicode="&#x1ca;" horiz-adv-x="2412" d="M1287 1365 L1287 0 L987 0 L580 659 Q447 880 408 965 Q420 811 420 581 L420 0 L133 0 L133 1365 L437 1365 L834 721 Q956 523 1012 406 Q1000 621 1000 797 L1000 1365 L1287 1365 Z M2300 1365 L2300 447 Q2300 328 2281.5 255.5 Q2263 183 2217 123 Q2099 -33 1851 -33 Q1560 -33 1451 164 Q1395 266 1395 455 Q1395 475 1396 511 L1672 511 Q1672 483 1672 472 Q1672 334 1694 288 Q1732 209 1842 209 Q1931 209 1966.5 259.5 Q2002 310 2002 437 L2002 1365 L2300 1365 Z " />
<glyph glyph-name="uni01CB" unicode="&#x1cb;" horiz-adv-x="1833" d="M1287 1365 L1287 0 L987 0 L580 659 Q447 880 408 965 Q420 811 420 581 L420 0 L133 0 L133 1365 L437 1365 L834 721 Q956 523 1012 406 Q1000 621 1000 797 L1000 1365 L1287 1365 Z M1711 990 L1711 -1 L1712 -77 Q1712 -167 1675.5 -232.5 Q1639 -298 1572 -329 Q1504 -360 1383 -360 Q1340 -360 1274 -355 L1274 -136 Q1306 -138 1325 -138 Q1375 -138 1399 -127 Q1423 -116 1431 -89 Q1441 -59 1441 83 L1441 990 L1711 990 Z M1579 1394 Q1640 1394 1684.5 1348.5 Q1729 1303 1729 1241 Q1729 1177 1684 1132 Q1639 1087 1576 1087 Q1513 1087 1468 1132.5 Q1423 1178 1423 1241 Q1423 1304 1468.5 1349 Q1514 1394 1579 1394 Z " />
<glyph glyph-name="uni01CC" unicode="&#x1cc;" horiz-adv-x="1566" d="M1444 990 L1444 -1 L1445 -77 Q1445 -167 1408.5 -232.5 Q1372 -298 1305 -329 Q1237 -360 1116 -360 Q1073 -360 1007 -355 L1007 -136 Q1039 -138 1058 -138 Q1108 -138 1132 -127 Q1156 -116 1164 -89 Q1174 -59 1174 83 L1174 990 L1444 990 Z M1312 1394 Q1373 1394 1417.5 1348.5 Q1462 1303 1462 1241 Q1462 1178 1417 1132.5 Q1372 1087 1309 1087 Q1247 1087 1201.5 1132.5 Q1156 1178 1156 1241 Q1156 1304 1201.5 1349 Q1247 1394 1312 1394 Z M377 990 L377 852 Q422 913 465 944 Q566 1018 707 1018 Q833 1018 920 957 Q988 908 1016 833.5 Q1044 759 1044 623 L1044 0 L774 0 L774 569 Q774 665 757 710 Q741 750 700 773.5 Q659 797 603 797 Q541 797 491 767.5 Q441 738 416 688 Q389 631 389 512 L389 0 L119 0 L119 990 L377 990 Z " />
<glyph glyph-name="uni01CD" unicode="&#x1cd;" horiz-adv-x="1345" d="M827 1368 L1346 0 L1033 0 L924 306 L417 306 L306 0 L-1 0 L519 1368 L827 1368 Z M851 524 L764 770 Q703 939 673 1067 Q639 945 576 770 L489 524 L851 524 Z M1023 1741 L801 1485 L545 1485 L322 1741 L554 1741 L668 1608 L780 1741 L1023 1741 Z " />
<glyph glyph-name="uni01CE" unicode="&#x1ce;" horiz-adv-x="1067" d="M885 1416 L674 1140 L425 1140 L209 1416 L427 1416 L550 1248 L674 1416 L885 1416 Z M1061 180 L1061 3 Q1007 -20 941 -20 Q850 -20 801.5 10.5 Q753 41 735 109 Q668 39 590 8 Q499 -27 394 -27 Q234 -27 143.5 51.5 Q53 130 53 270 Q53 417 148 488 Q198 525 266.5 545 Q335 565 459 579 Q618 598 662 620 Q712 646 712 708 Q712 834 543 834 Q450 834 407.5 800.5 Q365 767 355 685 L83 685 Q92 767 113 811 Q213 1017 558 1017 Q753 1017 862 954 Q984 882 984 736 L984 259 Q984 209 996.5 194.5 Q1009 180 1053 180 L1061 180 Z M712 484 Q669 451 547 436 Q421 420 373 386.5 Q325 353 325 282 Q325 155 493 155 Q712 155 712 379 L712 484 Z " />
<glyph glyph-name="uni01D1" unicode="&#x1d1;" horiz-adv-x="1490" d="M756 1398 Q1029 1398 1213 1219 Q1417 1020 1417 682 Q1417 392 1263 200 Q1075 -33 747 -33 Q413 -33 222 205 Q72 393 72 681 Q72 1020 267 1210 Q459 1398 756 1398 Z M752 1150 Q576 1150 475 1025 Q372 898 372 683 Q372 463 473 339 Q521 281 594 248 Q667 215 749 215 Q913 215 1008 329 Q1117 460 1117 687 Q1117 898 1017 1025 Q918 1150 752 1150 Z M1122 1741 L900 1485 L644 1485 L422 1741 L654 1741 L768 1608 L879 1741 L1122 1741 Z " />
<glyph glyph-name="uni01D2" unicode="&#x1d2;" horiz-adv-x="1148" d="M585 1017 Q806 1017 947 874 Q1087 732 1087 496 Q1087 253 938 108 Q799 -27 576 -27 Q337 -27 196 123 Q62 267 62 495 Q62 722 193 861 Q340 1017 585 1017 Z M569 816 Q463 816 399 730 Q335 646 335 495 Q335 340 399 258 Q464 174 576 174 Q681 174 744 250 Q813 335 813 495 Q813 646 751 729 Q687 816 569 816 Z M912 1416 L701 1140 L452 1140 L236 1416 L454 1416 L577 1248 L701 1416 L912 1416 Z " />
<glyph glyph-name="uni01D3" unicode="&#x1d3;" horiz-adv-x="1393" d="M1278 1365 L1278 558 Q1278 404 1254.5 314.5 Q1231 225 1172 149 Q1089 45 954 1 Q850 -33 697 -33 Q342 -33 199 173 Q150 244 130.5 330 Q111 416 111 562 L111 1365 L409 1365 L409 543 Q409 387 455 319 Q524 215 703 215 Q854 215 917 290 Q980 365 980 543 L980 1365 L1278 1365 Z M1046 1741 L824 1485 L568 1485 L346 1741 L578 1741 L692 1608 L803 1741 L1046 1741 Z " />
<glyph glyph-name="uni01D4" unicode="&#x1d4;" horiz-adv-x="1159" d="M1038 990 L1038 0 L780 0 L780 140 Q664 -27 453 -27 Q271 -27 177 91 Q111 176 111 363 L111 990 L381 990 L381 443 Q381 302 408 261 Q451 194 554 194 Q682 194 740 305 Q768 358 768 499 L768 990 L1038 990 Z M917 1416 L707 1140 L457 1140 L241 1416 L459 1416 L582 1248 L706 1416 L917 1416 Z " />
<glyph glyph-name="uni01DD" unicode="&#x1dd;" horiz-adv-x="1119" d="M81 683 Q102 765 158 840 Q293 1017 545 1017 Q773 1017 910 878 Q1051 735 1051 500 Q1051 284 923 137 Q780 -27 554 -27 Q319 -27 183 142 Q65 289 65 524 Q65 552 65 565 L775 565 Q773 639 752 689 Q698 822 543 822 Q400 822 341 683 L81 683 Z M341 392 Q349 318 375 271 Q402 223 450 195.5 Q498 168 554 168 Q645 168 704 228.5 Q763 289 774 392 L341 392 Z " />
<glyph glyph-name="Gcaron" unicode="&#x1e6;" horiz-adv-x="1458" d="M1344 736 L1344 0 L1153 0 L1124 156 Q971 -33 716 -33 Q403 -33 223 199 Q72 393 72 677 Q72 998 268 1204 Q453 1398 743 1398 Q1011 1398 1181 1224 Q1307 1094 1326 916 L1037 916 Q1015 1026 936.5 1087.5 Q858 1149 739 1149 Q567 1149 469.5 1024 Q372 899 372 679 Q372 476 453 356 Q553 209 749 209 Q889 209 979 294 Q1069 379 1074 518 L771 518 L771 736 L1344 736 Z M1099 1741 L877 1485 L621 1485 L399 1741 L631 1741 L745 1608 L857 1741 L1099 1741 Z " />
<glyph glyph-name="gcaron" unicode="&#x1e7;" horiz-adv-x="1171" d="M1050 990 L1050 123 Q1050 7 1035.5 -62 Q1021 -131 984 -188 Q866 -369 561 -369 Q137 -369 98 -59 L369 -59 Q399 -186 566 -186 Q696 -186 747 -114 Q787 -58 788 70 L788 183 Q684 30 486 30 Q296 30 180 160 Q64 291 64 516 Q64 741 180 877 Q301 1017 497 1017 Q598 1017 666.5 980.5 Q735 944 792 859 L792 990 L1050 990 Z M566 805 Q444 805 384 712 Q337 637 337 523 Q337 374 406 298 Q466 231 563 231 Q684 231 744 331 Q791 408 791 522 Q791 665 719 742 Q660 805 566 805 Z M910 1416 L699 1140 L449 1140 L234 1416 L451 1416 L574 1248 L699 1416 L910 1416 Z " />
<glyph glyph-name="uni01F4" unicode="&#x1f4;" horiz-adv-x="1458" d="M1344 736 L1344 0 L1153 0 L1124 156 Q971 -33 716 -33 Q403 -33 223 199 Q72 393 72 677 Q72 998 268 1204 Q453 1398 743 1398 Q1011 1398 1181 1224 Q1307 1094 1326 916 L1037 916 Q1015 1026 936.5 1087.5 Q858 1149 739 1149 Q567 1149 469.5 1024 Q372 899 372 679 Q372 476 453 356 Q553 209 749 209 Q889 209 979 294 Q1069 379 1074 518 L771 518 L771 736 L1344 736 Z M1067 1729 L781 1480 L581 1480 L754 1729 L1067 1729 Z " />
<glyph glyph-name="uni01F5" unicode="&#x1f5;" horiz-adv-x="1171" d="M1050 990 L1050 123 Q1050 7 1035.5 -62 Q1021 -131 984 -188 Q866 -369 561 -369 Q137 -369 97 -59 L369 -59 Q398 -186 567 -186 Q696 -186 747 -114 Q787 -57 788 70 L788 183 Q684 30 486 30 Q296 30 180 160 Q64 291 64 516 Q64 741 180 876 Q301 1017 497 1017 Q598 1017 666 980.5 Q734 944 792 859 L792 990 L1050 990 Z M557 806 Q444 806 385 712 Q338 637 338 522 Q338 374 406 298 Q467 231 562 231 Q683 231 743 331 Q790 408 790 526 Q790 666 718 743 Q659 806 557 806 Z M843 1416 L567 1140 L384 1140 L557 1416 L843 1416 Z " />
<glyph glyph-name="Aringacute" unicode="&#x1fa;" horiz-adv-x="1345" d="M827 1368 L1346 0 L1033 0 L924 306 L417 306 L306 0 L-1 0 L519 1368 L827 1368 Z M851 525 L764 770 Q703 941 673 1067 Q640 947 577 771 L489 525 L851 525 Z M674 1845 Q770 1845 838 1770 Q897 1705 897 1618 Q897 1518 822 1449 Q757 1391 670 1391 Q569 1391 501 1466 Q443 1531 443 1620 Q443 1718 518 1786 Q582 1845 674 1845 Z M668 1726 Q625 1726 593.5 1694 Q562 1662 562 1618 Q562 1573 593.5 1541.5 Q625 1510 670 1510 Q715 1510 746.5 1541.5 Q778 1573 778 1619 Q778 1664 746 1695 Q714 1726 668 1726 Z M800 2061 L514 1813 L314 1813 L486 2061 L800 2061 Z " />
<glyph glyph-name="aringacute" unicode="&#x1fb;" horiz-adv-x="1067" d="M552 1512 Q643 1512 706 1441 Q761 1380 761 1299 Q761 1204 691 1140 Q630 1085 548 1085 Q454 1085 390 1156 Q336 1216 336 1300 Q336 1393 406 1457 Q466 1512 552 1512 Z M547 1396 Q508 1396 480 1367 Q452 1338 452 1298 Q452 1258 480.5 1229.5 Q509 1201 548 1201 Q589 1201 617 1229.5 Q645 1258 645 1299 Q645 1340 616.5 1368 Q588 1396 547 1396 Z M702 1769 L426 1492 L244 1492 L416 1769 L702 1769 Z M1061 180 L1061 3 Q1007 -20 941 -20 Q850 -20 801.5 10.5 Q753 41 735 109 Q668 39 590 8 Q499 -27 394 -27 Q234 -27 143.5 51.5 Q53 130 53 270 Q53 417 148 488 Q198 525 266.5 545 Q335 565 459 579 Q618 598 662 620 Q712 646 712 708 Q712 834 543 834 Q450 834 407.5 800.5 Q365 767 355 685 L83 685 Q92 767 113 811 Q213 1017 558 1017 Q753 1017 862 954 Q984 882 984 736 L984 259 Q984 209 996.5 194.5 Q1009 180 1053 180 L1061 180 Z M712 484 Q669 451 547 436 Q421 420 373 386.5 Q325 353 325 282 Q325 155 493 155 Q712 155 712 379 L712 484 Z " />
<glyph glyph-name="AEacute" unicode="&#x1fc;" horiz-adv-x="1891" d="M1794 1365 L1794 1113 L1152 1113 L1152 822 L1755 822 L1755 588 L1152 588 L1152 252 L1811 252 L1811 0 L869 0 L869 296 L434 296 L297 0 L-24 0 L630 1365 L1794 1365 Z M869 515 L869 1125 L804 1125 L529 515 L869 515 Z M1463 1729 L1177 1480 L977 1480 L1150 1729 L1463 1729 Z " />
<glyph glyph-name="aeacute" unicode="&#x1fd;" horiz-adv-x="1727" d="M1205 1416 L929 1140 L747 1140 L919 1416 L1205 1416 Z M857 107 Q823 74 811 65 Q687 -28 437 -28 Q285 -28 203 12 Q53 86 53 270 Q53 417 148 488 Q198 525 267 545 Q336 565 459 580 Q619 598 662 620 Q712 646 712 708 Q712 834 543 834 Q450 834 407.5 800.5 Q365 767 355 685 L83 685 Q92 767 113 811 Q213 1017 560 1017 Q790 1017 912 919 Q1025 1017 1188 1017 Q1395 1017 1530 874 Q1668 730 1668 475 Q1668 453 1668 431 L963 431 Q964 341 995 280 Q1022 228 1072.5 198 Q1123 168 1186 168 Q1334 168 1396 309 L1654 309 Q1625 193 1540 107 Q1409 -27 1192 -27 Q982 -27 857 107 Z M712 484 Q669 451 547 436 Q421 420 373 387 Q325 354 325 282 Q325 155 493 155 Q712 155 712 379 L712 484 Z M1400 591 Q1393 683 1354 737 Q1292 821 1182 821 Q1068 821 1005 732 Q972 686 962 591 L1400 591 Z " />
<glyph glyph-name="Oslashacute" unicode="&#x1fe;" horiz-adv-x="1490" d="M1412 1298 L1273 1141 Q1406 954 1406 697 Q1406 532 1366 412 Q1326 292 1233 178 Q1153 80 1026 23.5 Q899 -33 757 -33 Q625 -33 512 0 Q399 33 332 92 L198 -61 L64 61 L201 222 Q145 303 122 353 Q62 485 62 682 Q62 1019 255 1211 Q442 1398 753 1398 Q910 1398 1024 1339 L1147 1271 L1273 1412 L1412 1298 Z M960 1080 Q839 1150 739 1150 Q581 1150 485 1050 Q363 922 363 680 Q363 572 403 439 L960 1080 Z M1064 927 L522 294 Q570 252 621 233.5 Q672 215 742 215 Q920 215 1024 366 Q1071 433 1090 503 Q1109 573 1109 677 Q1109 750 1100.5 796 Q1092 842 1064 927 Z M1081 1729 L796 1480 L596 1480 L768 1729 L1081 1729 Z " />
<glyph glyph-name="oslashacute" unicode="&#x1ff;" horiz-adv-x="1148" d="M1080 955 L978 838 Q1087 714 1087 515 Q1087 274 954 128 Q813 -27 584 -27 Q408 -27 279 53 L164 -69 L65 31 L171 149 Q121 234 108 263 Q62 366 62 498 Q62 732 214 879 Q279 943 371.5 980 Q464 1017 556 1017 Q650 1017 735.5 995 Q821 973 874 935 L981 1050 L1080 955 Z M710 771 Q648 816 567 816 Q458 816 392.5 727.5 Q327 639 327 491 Q327 427 353 344 L710 771 Z M790 647 L437 220 Q480 191 505 182.5 Q530 174 569 174 Q688 174 753.5 257.5 Q819 341 819 491 Q819 561 790 647 Z M896 1416 L620 1140 L438 1140 L611 1416 L896 1416 Z " />
<glyph glyph-name="uni0200" unicode="&#x200;" horiz-adv-x="1345" d="M827 1368 L1346 0 L1033 0 L924 306 L417 306 L306 0 L-1 0 L519 1368 L827 1368 Z M851 524 L764 770 Q703 939 673 1067 Q639 945 576 770 L489 524 L851 524 Z M220 1729 L493 1729 L597 1481 L426 1481 L220 1729 Z M561 1729 L835 1729 L939 1481 L768 1481 L561 1729 Z " />
<glyph glyph-name="uni0201" unicode="&#x201;" horiz-adv-x="1067" d="M104 1447 L378 1447 L482 1199 L311 1199 L104 1447 Z M446 1447 L719 1447 L823 1199 L652 1199 L446 1447 Z M1061 180 L1061 3 Q1007 -20 941 -20 Q850 -20 801.5 10.5 Q753 41 735 109 Q668 39 590 8 Q499 -27 394 -27 Q234 -27 143.5 51.5 Q53 130 53 270 Q53 417 148 488 Q198 525 266.5 545 Q335 565 459 579 Q618 598 662 620 Q712 646 712 708 Q712 834 543 834 Q450 834 407.5 800.5 Q365 767 355 685 L83 685 Q92 767 113 811 Q213 1017 558 1017 Q753 1017 862 954 Q984 882 984 736 L984 259 Q984 209 996.5 194.5 Q1009 180 1053 180 L1061 180 Z M712 484 Q669 451 547 436 Q421 420 373 386.5 Q325 353 325 282 Q325 155 493 155 Q712 155 712 379 L712 484 Z " />
<glyph glyph-name="Scommaaccent" unicode="&#x218;" horiz-adv-x="1256" d="M509 -455 Q621 -438 631 -341 Q616 -344 611 -344 L604 -344 Q555 -344 518.5 -307.5 Q482 -271 482 -223 Q482 -171 518.5 -134 Q555 -97 606 -97 Q670 -97 710 -145 Q750 -193 750 -269 Q750 -392 679 -472 Q646 -510 610.5 -528.5 Q575 -547 509 -560 L509 -455 Z M1137 961 L854 961 Q836 1167 596 1167 Q490 1167 431.5 1125.5 Q373 1084 373 1009 Q373 942 429 912 Q483 882 704 828 Q935 771 1025 711 Q1191 603 1191 410 Q1191 197 1025 75 Q878 -33 628 -33 Q350 -33 196 94 Q42 221 36 456 L333 456 Q339 342 391 287 Q474 199 639 199 Q751 199 816 243 Q890 294 890 380 Q890 467 786 508 Q730 530 518 588 Q385 625 310 657.5 Q235 690 191 730 Q86 824 86 988 Q86 1185 250 1300 Q389 1398 612 1398 Q806 1398 938 1320 Q1127 1209 1137 961 Z " />
<glyph glyph-name="scommaaccent" unicode="&#x219;" horiz-adv-x="1015" d="M916 702 L662 702 Q654 754 633 781 Q591 834 478 834 Q405 834 365.5 808.5 Q326 783 326 737 Q326 687 369 665 Q412 643 569 611 Q766 571 853 514 Q956 445 956 306 Q956 147 828 59 Q704 -27 497 -27 Q277 -27 160 61 Q43 149 32 322 L291 322 Q299 253 327 219 Q379 156 500 156 Q584 156 633.5 189.5 Q683 223 683 279 Q683 330 640.5 355 Q598 380 461 411 Q327 441 272 457.5 Q217 474 173 499 Q117 530 85 587.5 Q53 645 53 715 Q53 870 185 951 Q293 1017 483 1017 Q736 1017 847 892 Q907 825 916 702 Z M387 -455 Q499 -438 509 -341 Q494 -344 489 -344 L482 -344 Q433 -344 396.5 -307.5 Q360 -271 360 -223 Q360 -171 396.5 -134 Q433 -97 484 -97 Q548 -97 588 -145 Q628 -193 628 -269 Q628 -392 557 -472 Q524 -510 488.5 -528.5 Q453 -547 387 -560 L387 -455 Z " />
<glyph glyph-name="uni021A" unicode="&#x21a;" horiz-adv-x="1189" d="M1157 1365 L1157 1112 L742 1112 L742 0 L444 0 L444 1112 L32 1112 L32 1365 L1157 1365 Z M489 -455 Q601 -438 611 -341 Q596 -344 591 -344 L584 -344 Q535 -344 498.5 -307.5 Q462 -271 462 -223 Q462 -171 498.5 -134 Q535 -97 586 -97 Q650 -97 690 -145 Q730 -193 730 -269 Q730 -392 659 -472 Q626 -510 590.5 -528.5 Q555 -547 489 -560 L489 -455 Z " />
<glyph glyph-name="uni021B" unicode="&#x21b;" horiz-adv-x="661" d="M622 990 L622 807 L419 807 L419 340 Q419 253 435 231 Q458 197 539 197 Q573 197 622 203 L622 -4 Q528 -14 454 -14 Q349 -14 287.5 8 Q226 30 191 79 Q165 118 157 169 Q149 220 149 350 L149 807 L-16 807 L-16 990 L149 990 L149 1289 L419 1289 L419 990 L622 990 Z M264 -455 Q376 -438 386 -341 Q371 -344 366 -344 L359 -344 Q310 -344 273.5 -307.5 Q237 -271 237 -223 Q237 -171 273.5 -134 Q310 -97 361 -97 Q425 -97 465 -145 Q505 -193 505 -269 Q505 -392 434 -472 Q401 -510 365.5 -528.5 Q330 -547 264 -560 L264 -455 Z " />
<glyph glyph-name="uni0226" unicode="&#x226;" horiz-adv-x="1345" d="M827 1368 L1346 0 L1033 0 L924 306 L417 306 L306 0 L-1 0 L519 1368 L827 1368 Z M851 524 L764 770 Q703 939 673 1067 Q639 945 576 770 L489 524 L851 524 Z M676 1760 Q737 1760 781.5 1714.5 Q826 1669 826 1607 Q826 1544 781 1498.5 Q736 1453 673 1453 Q611 1453 565.5 1498.5 Q520 1544 520 1607 Q520 1670 565.5 1715 Q611 1760 676 1760 Z " />
<glyph glyph-name="uni0227" unicode="&#x227;" horiz-adv-x="1067" d="M554 1423 Q615 1423 659.5 1377.5 Q704 1332 704 1270 Q704 1207 659 1161.5 Q614 1116 551 1116 Q488 1116 443 1161.5 Q398 1207 398 1270 Q398 1333 443.5 1378 Q489 1423 554 1423 Z M1061 180 L1061 3 Q1007 -20 941 -20 Q850 -20 801.5 10.5 Q753 41 735 109 Q668 39 590 8 Q499 -27 394 -27 Q234 -27 143.5 51.5 Q53 130 53 270 Q53 417 148 488 Q198 525 266.5 545 Q335 565 459 579 Q618 598 662 620 Q712 646 712 708 Q712 834 543 834 Q450 834 407.5 800.5 Q365 767 355 685 L83 685 Q92 767 113 811 Q213 1017 558 1017 Q753 1017 862 954 Q984 882 984 736 L984 259 Q984 209 996.5 194.5 Q1009 180 1053 180 L1061 180 Z M712 484 Q669 451 547 436 Q421 420 373 386.5 Q325 353 325 282 Q325 155 493 155 Q712 155 712 379 L712 484 Z " />
<glyph glyph-name="uni0237" unicode="&#x237;" horiz-adv-x="511" d="M389 990 L389 -1 L390 -77 Q390 -167 353.5 -232.5 Q317 -298 250 -329 Q182 -360 61 -360 Q18 -360 -48 -355 L-48 -136 Q-16 -138 3 -138 Q53 -138 77 -127 Q101 -116 109 -89 Q119 -59 119 83 L119 990 L389 990 Z " />
<glyph glyph-name="afii57929" unicode="&#x2bc;" horiz-adv-x="564" d="M141 924 Q206 934 245.5 971 Q285 1008 291 1066 Q276 1062 266 1062 L258 1062 Q198 1062 153 1107 Q108 1152 108 1213 Q108 1278 153 1324 Q198 1370 261 1370 Q339 1370 388 1310 Q437 1250 437 1155 Q437 1002 350 902 Q310 856 265.5 833 Q221 810 141 793 L141 924 Z " />
<glyph glyph-name="circumflex" unicode="&#x2c6;" horiz-adv-x="1024" d="M848 1140 L629 1140 L507 1304 L384 1140 L175 1140 L388 1416 L636 1416 L848 1140 Z " />
<glyph glyph-name="caron" unicode="&#x2c7;" horiz-adv-x="1024" d="M850 1416 L639 1140 L389 1140 L174 1416 L391 1416 L514 1248 L639 1416 L850 1416 Z " />
<glyph glyph-name="uni02C9" unicode="&#x2c9;" horiz-adv-x="1024" d="M824 1345 L824 1202 L199 1202 L199 1345 L824 1345 Z " />
<glyph glyph-name="breve" unicode="&#x2d8;" horiz-adv-x="1024" d="M210 1413 L342 1413 Q372 1293 512 1293 Q653 1293 682 1413 L814 1413 Q810 1315 764 1251 Q685 1143 512 1143 Q339 1143 260 1251 Q214 1315 210 1413 Z " />
<glyph glyph-name="dotaccent" unicode="&#x2d9;" horiz-adv-x="1024" d="M516 1423 Q577 1423 621.5 1377.5 Q666 1332 666 1270 Q666 1207 621 1161.5 Q576 1116 513 1116 Q451 1116 405.5 1161.5 Q360 1207 360 1270 Q360 1333 405.5 1378 Q451 1423 516 1423 Z " />
<glyph glyph-name="ring" unicode="&#x2da;" horiz-adv-x="1024" d="M515 1511 Q606 1511 670 1440 Q725 1380 725 1298 Q725 1203 654 1140 Q594 1085 512 1085 Q417 1085 354 1156 Q299 1216 299 1300 Q299 1391 370 1456 Q430 1511 515 1511 Z M513 1395 Q472 1395 443.5 1367 Q415 1339 415 1299 Q415 1258 443.5 1229.5 Q472 1201 512 1201 Q552 1201 580.5 1229.5 Q609 1258 609 1298 Q609 1337 580.5 1366 Q552 1395 513 1395 Z " />
<glyph glyph-name="ogonek" unicode="&#x2db;" horiz-adv-x="1024" d="M550 0 L689 0 Q577 -84 577 -165 Q577 -207 611 -232.5 Q645 -258 702 -258 Q726 -258 771 -248 L771 -362 Q702 -381 647 -381 Q543 -381 478.5 -331.5 Q414 -282 414 -203 Q414 -102 550 0 Z " />
<glyph glyph-name="tilde" unicode="&#x2dc;" horiz-adv-x="1024" d="M840 1402 Q800 1166 633 1166 Q593 1166 560.5 1176.5 Q528 1187 438 1228 Q411 1240 386 1240 Q355 1240 334.5 1219.5 Q314 1199 308 1161 L184 1161 Q199 1253 239 1309 Q302 1398 392 1398 Q438 1398 521 1363 Q602 1328 640 1328 Q691 1328 717 1402 L840 1402 Z " />
<glyph glyph-name="hungarumlaut" unicode="&#x2dd;" horiz-adv-x="1024" d="M921 1416 L724 1140 L568 1140 L672 1416 L921 1416 Z M593 1416 L396 1140 L240 1140 L344 1416 L593 1416 Z " />
<glyph glyph-name="pi" unicode="&#x3c0;" horiz-adv-x="1268" d="M196 0 L196 783 L47 783 L47 990 L1221 990 L1221 783 L1073 783 L1073 0 L812 0 L812 783 L457 783 L457 0 L196 0 Z " />
<glyph glyph-name="uni1E1E" unicode="&#x1e1e;" horiz-adv-x="1133" d="M1093 1365 L1093 1112 L430 1112 L430 796 L1007 796 L1007 561 L430 561 L430 0 L132 0 L132 1365 L1093 1365 Z M625 1760 Q686 1760 730.5 1714.5 Q775 1669 775 1607 Q775 1543 730 1498 Q685 1453 622 1453 Q560 1453 514.5 1498.5 Q469 1544 469 1607 Q469 1670 514.5 1715 Q560 1760 625 1760 Z " />
<glyph glyph-name="Wgrave" unicode="&#x1e80;" horiz-adv-x="1807" d="M1804 1365 L1435 0 L1136 0 L988 584 Q942 768 902 1040 Q870 813 816 592 L671 0 L368 0 L4 1365 L304 1365 L439 792 Q501 526 525 293 Q541 469 616 790 L764 1365 L1046 1365 L1191 803 Q1215 708 1242.5 556 Q1270 404 1282 293 Q1310 544 1375 815 L1507 1365 L1804 1365 Z M582 1729 L896 1729 L1068 1480 L868 1480 L582 1729 Z " />
<glyph glyph-name="wgrave" unicode="&#x1e81;" horiz-adv-x="1528" d="M1534 990 L1220 0 L940 0 L825 432 Q793 554 764 733 Q732 549 702 433 L592 0 L310 0 L-5 990 L282 990 L386 614 Q425 472 467 251 Q501 454 544 625 L635 990 L898 990 L1002 582 Q1038 440 1069 252 Q1107 459 1139 577 L1253 990 L1534 990 Z M434 1416 L720 1416 L892 1140 L710 1140 L434 1416 Z " />
<glyph glyph-name="Wacute" unicode="&#x1e82;" horiz-adv-x="1807" d="M1223 1729 L937 1480 L737 1480 L910 1729 L1223 1729 Z M1804 1365 L1434 0 L1136 0 L988 584 Q940 773 902 1040 Q870 813 816 592 L671 0 L368 0 L4 1365 L304 1365 L438 792 Q502 522 525 293 Q541 468 616 790 L764 1365 L1045 1365 L1190 803 Q1215 709 1242 556.5 Q1269 404 1282 293 Q1310 541 1375 815 L1507 1365 L1804 1365 Z " />
<glyph glyph-name="wacute" unicode="&#x1e83;" horiz-adv-x="1528" d="M1534 990 L1220 0 L940 0 L825 432 Q793 554 764 733 Q732 549 702 433 L592 0 L310 0 L-5 990 L282 990 L386 614 Q425 472 467 251 Q501 454 544 625 L635 990 L898 990 L1002 582 Q1038 440 1069 252 Q1107 459 1139 577 L1253 990 L1534 990 Z M1087 1416 L811 1140 L629 1140 L801 1416 L1087 1416 Z " />
<glyph glyph-name="Wdieresis" unicode="&#x1e84;" horiz-adv-x="1807" d="M1804 1365 L1434 0 L1136 0 L988 584 Q940 773 902 1040 Q870 813 816 592 L671 0 L368 0 L4 1365 L304 1365 L438 792 Q502 522 525 293 Q541 468 616 790 L764 1365 L1045 1365 L1190 803 Q1215 709 1242 556.5 Q1269 404 1282 293 Q1310 541 1375 815 L1507 1365 L1804 1365 Z M1120 1760 Q1181 1760 1225.5 1714.5 Q1270 1669 1270 1607 Q1270 1543 1225 1498 Q1180 1453 1117 1453 Q1055 1453 1009.5 1498.5 Q964 1544 964 1607 Q964 1670 1009.5 1715 Q1055 1760 1120 1760 Z M696 1760 Q757 1760 801.5 1714.5 Q846 1669 846 1607 Q846 1544 801 1498.5 Q756 1453 693 1453 Q631 1453 585.5 1498.5 Q540 1544 540 1607 Q540 1670 585.5 1715 Q631 1760 696 1760 Z " />
<glyph glyph-name="wdieresis" unicode="&#x1e85;" horiz-adv-x="1528" d="M1534 990 L1220 0 L940 0 L825 432 Q793 554 764 733 Q732 549 702 433 L592 0 L310 0 L-5 990 L282 990 L386 614 Q425 472 467 251 Q501 454 544 625 L635 990 L898 990 L1002 582 Q1038 440 1069 252 Q1107 459 1139 577 L1253 990 L1534 990 Z M969 1424 Q1030 1424 1074.5 1378.5 Q1119 1333 1119 1271 Q1119 1208 1074 1162.5 Q1029 1117 966 1117 Q904 1117 858.5 1162.5 Q813 1208 813 1271 Q813 1334 858.5 1379 Q904 1424 969 1424 Z M566 1424 Q627 1424 671.5 1378.5 Q716 1333 716 1271 Q716 1208 671 1162.5 Q626 1117 563 1117 Q500 1117 455 1162.5 Q410 1208 410 1271 Q410 1334 455.5 1379 Q501 1424 566 1424 Z " />
<glyph glyph-name="Ygrave" unicode="&#x1ef2;" horiz-adv-x="1241" d="M1278 1365 L769 526 L769 0 L471 0 L471 530 L-39 1365 L302 1365 L514 1001 Q570 907 623 778 Q689 932 738 1015 L945 1365 L1278 1365 Z M260 1729 L573 1729 L746 1480 L546 1480 L260 1729 Z " />
<glyph glyph-name="ygrave" unicode="&#x1ef3;" horiz-adv-x="1001" d="M1011 990 L647 5 Q593 -144 556.5 -206 Q520 -268 465 -305 Q418 -336 373.5 -345 Q329 -354 219 -354 Q203 -354 198 -354 L87 -351 L87 -127 L118 -127 L197 -127 Q286 -127 321 -91 Q351 -60 351 -4 Q351 38 343 59 L-10 990 L283 990 L447 504 Q471 433 509 274 Q550 438 576 517 L730 990 L1011 990 Z M175 1416 L461 1416 L633 1140 L451 1140 L175 1416 Z " />
<glyph glyph-name="uni2011" unicode="&#x2011;" horiz-adv-x="519" d="M519 631 L519 388 L0 388 L0 631 L519 631 Z " />
<glyph glyph-name="figuredash" unicode="&#x2012;" horiz-adv-x="1147" d="M1037 631 L1037 388 L109 388 L109 631 L1037 631 Z " />
<glyph glyph-name="endash" unicode="&#x2013;" horiz-adv-x="1147" d="M1037 631 L1037 388 L109 388 L109 631 L1037 631 Z " />
<glyph glyph-name="emdash" unicode="&#x2014;" horiz-adv-x="1516" d="M1516 631 L1516 388 L0 388 L0 631 L1516 631 Z " />
<glyph glyph-name="afii00208" unicode="&#x2015;" horiz-adv-x="1516" d="M1516 631 L1516 388 L0 388 L0 631 L1516 631 Z " />
<glyph glyph-name="underscoredbl" unicode="&#x2017;" horiz-adv-x="1024" d="M0 -107 L1024 -107 L1024 -230 L0 -230 L0 -107 Z M0 -347 L1024 -347 L1024 -470 L0 -470 L0 -347 Z " />
<glyph glyph-name="quoteleft" unicode="&#x2018;" horiz-adv-x="564" d="M404 1239 Q339 1229 299.5 1192 Q260 1155 254 1097 Q269 1101 279 1101 L287 1101 Q347 1101 392 1055.5 Q437 1010 437 950 Q437 885 392 839 Q347 793 284 793 Q206 793 157 853 Q108 913 108 1008 Q108 1161 195 1260 Q236 1307 280 1330 Q324 1353 404 1370 L404 1239 Z " />
<glyph glyph-name="quoteright" unicode="&#x2019;" horiz-adv-x="564" d="M141 917 Q206 927 245.5 964 Q285 1001 291 1058 Q276 1054 266 1054 L258 1054 Q198 1054 153 1099.5 Q108 1145 108 1206 Q108 1270 153 1316 Q198 1362 261 1362 Q339 1362 388 1302 Q437 1242 437 1147 Q437 995 350 895 Q309 848 265 825.5 Q221 803 141 786 L141 917 Z " />
<glyph glyph-name="quotesinglbase" unicode="&#x201a;" horiz-adv-x="564" d="M141 -149 Q206 -139 245.5 -102 Q285 -65 291 -8 Q276 -12 266 -12 L258 -12 Q198 -12 153 33.5 Q108 79 108 140 Q108 204 153 250 Q198 296 261 296 Q339 296 388 236 Q437 176 437 81 Q437 -71 350 -171 Q309 -218 265 -240.5 Q221 -263 141 -280 L141 -149 Z " />
<glyph glyph-name="quotereversed" unicode="&#x201b;" horiz-adv-x="521" d="M401 979 L401 848 Q321 864 277 887 Q233 910 192 957 Q105 1057 105 1209 Q105 1304 153 1362 Q204 1424 281 1424 Q344 1424 389 1378 Q434 1332 434 1268 Q434 1207 389 1161.5 Q344 1116 284 1116 L276 1116 Q266 1116 251 1120 Q257 1063 296.5 1026 Q336 989 401 979 Z " />
<glyph glyph-name="quotedblleft" unicode="&#x201c;" horiz-adv-x="935" d="M389 1244 Q324 1235 284.5 1197.5 Q245 1160 239 1103 Q254 1107 264 1107 L272 1107 Q332 1107 377 1061.5 Q422 1016 422 955 Q422 891 377 845 Q332 799 269 799 Q191 799 142 859 Q93 919 93 1014 Q93 1166 180 1266 Q221 1313 265 1336 Q309 1359 389 1375 L389 1244 Z M797 1244 Q732 1235 692.5 1197.5 Q653 1160 647 1103 Q662 1107 672 1107 L680 1107 Q740 1107 785 1061.5 Q830 1016 830 955 Q830 891 785 845 Q740 799 677 799 Q599 799 550 859 Q501 919 501 1014 Q501 1166 588 1266 Q629 1313 673 1336 Q717 1359 797 1375 L797 1244 Z " />
<glyph glyph-name="quotedblright" unicode="&#x201d;" horiz-adv-x="935" d="M126 930 Q191 940 230.5 977 Q270 1014 276 1071 Q261 1067 251 1067 L243 1067 Q183 1067 138 1112.5 Q93 1158 93 1219 Q93 1283 138 1329 Q183 1375 246 1375 Q324 1375 373 1315 Q422 1255 422 1160 Q422 1008 335 908 Q295 861 251 838.5 Q207 816 126 799 L126 930 Z M534 930 Q599 940 638.5 977 Q678 1014 684 1071 Q669 1067 659 1067 L651 1067 Q591 1067 546 1112.5 Q501 1158 501 1219 Q501 1283 546 1329 Q591 1375 654 1375 Q732 1375 781 1315 Q830 1255 830 1160 Q830 1008 743 908 Q702 861 658.5 838.5 Q615 816 534 799 L534 930 Z " />
<glyph glyph-name="quotedblbase" unicode="&#x201e;" horiz-adv-x="935" d="M126 -144 Q191 -134 230.5 -97 Q270 -60 276 -2 Q261 -6 251 -6 L243 -6 Q183 -6 138 39.5 Q93 85 93 145 Q93 210 138 256 Q183 302 246 302 Q324 302 373 242 Q422 182 422 87 Q422 -66 335 -165 Q294 -212 250.5 -235 Q207 -258 126 -275 L126 -144 Z M534 -144 Q599 -134 638.5 -97 Q678 -60 684 -2 Q669 -6 659 -6 L651 -6 Q591 -6 546 39.5 Q501 85 501 145 Q501 210 546 256 Q591 302 654 302 Q732 302 781 242 Q830 182 830 87 Q830 -66 743 -165 Q702 -212 658 -235 Q614 -258 534 -275 L534 -144 Z " />
<glyph glyph-name="dagger" unicode="&#x2020;" horiz-adv-x="1147" d="M1061 991 L1061 758 L704 758 L704 -351 L440 -351 L440 758 L86 758 L86 991 L440 991 L440 1365 L704 1365 L704 991 L1061 991 Z " />
<glyph glyph-name="daggerdbl" unicode="&#x2021;" horiz-adv-x="1147" d="M1061 986 L1061 758 L704 758 L704 261 L1061 261 L1061 33 L704 33 L704 -351 L440 -351 L440 33 L86 33 L86 261 L440 261 L440 758 L86 758 L86 986 L440 986 L440 1365 L704 1365 L704 986 L1061 986 Z " />
<glyph glyph-name="bullet" unicode="&#x2022;" horiz-adv-x="1365" d="M687 982 Q799 982 881 899 Q964 815 964 696 Q964 578 882 494 Q799 410 683 410 Q567 410 485 493 Q401 577 401 696 Q401 817 485 899 Q569 982 687 982 Z " />
<glyph glyph-name="ellipsis" unicode="&#x2026;" horiz-adv-x="1708" d="M288 293 Q349 293 393.5 247.5 Q438 202 438 140 Q438 77 393 31.5 Q348 -14 285 -14 Q223 -14 177.5 31.5 Q132 77 132 140 Q132 203 177.5 248 Q223 293 288 293 Z M857 293 Q918 293 962.5 247.5 Q1007 202 1007 140 Q1007 77 962 31.5 Q917 -14 854 -14 Q791 -14 746 31.5 Q701 77 701 140 Q701 203 746.5 248 Q792 293 857 293 Z M1427 293 Q1488 293 1532.5 247.5 Q1577 202 1577 140 Q1577 76 1532 31 Q1487 -14 1424 -14 Q1361 -14 1316 31.5 Q1271 77 1271 140 Q1271 203 1316.5 248 Q1362 293 1427 293 Z " />
<glyph glyph-name="perthousand" unicode="&#x2030;" horiz-adv-x="2418" d="M386 1368 Q703 1368 703 982 Q703 790 600 697 Q515 621 378 621 Q227 621 145 712 Q63 802 63 982 Q63 1190 174 1292 Q258 1368 386 1368 Z M386 1224 Q319 1224 289 1166 Q259 1108 259 978 Q259 862 285 816 Q315 765 382 765 Q508 765 508 985 Q508 1224 386 1224 Z M536 -43 L346 -43 L1141 1383 L1326 1383 L536 -43 Z M1301 720 Q1449 720 1529 629 Q1613 534 1613 347 Q1613 148 1505 49 Q1423 -27 1287 -27 Q1139 -27 1058 65 Q972 161 972 344 Q972 545 1079 644 Q1162 720 1301 720 Z M1296 576 Q1168 576 1168 354 Q1168 225 1196 171 Q1224 117 1291 117 Q1359 117 1386 170 Q1417 232 1417 340 Q1417 462 1387.5 519 Q1358 576 1296 576 Z M2043 720 Q2191 720 2271 629 Q2355 534 2355 347 Q2355 147 2247 49 Q2164 -27 2029 -27 Q1881 -27 1800 65 Q1714 161 1714 344 Q1714 545 1821 644 Q1904 720 2043 720 Z M2038 576 Q1910 576 1910 354 Q1910 225 1938 171 Q1966 117 2033 117 Q2101 117 2128 170 Q2159 232 2159 340 Q2159 462 2130 519 Q2101 576 2038 576 Z " />
<glyph glyph-name="guilsinglleft" unicode="&#x2039;" horiz-adv-x="502" d="M387 873 L387 641 L216 506 L387 372 L387 146 L87 379 L87 635 L387 873 Z " />
<glyph glyph-name="guilsinglright" unicode="&#x203a;" horiz-adv-x="502" d="M115 873 L415 635 L415 379 L115 146 L115 372 L286 506 L115 641 L115 873 Z " />
<glyph glyph-name="uni203E" unicode="&#x203e;" horiz-adv-x="1024" d="M0 1790 L1024 1790 L1024 1616 L0 1616 L0 1790 Z " />
<glyph glyph-name="fraction" unicode="&#x2044;" horiz-adv-x="333" d="M619 1346 L-127 0 L-287 0 L463 1346 L619 1346 Z " />
<glyph glyph-name="zerosuperior" unicode="&#x2070;" horiz-adv-x="768" d="M386 1358 Q466 1358 533.5 1322.5 Q601 1287 638 1226 Q704 1115 704 945 Q704 772 636 667 Q550 534 385 534 Q233 534 147 642.5 Q61 751 61 944 Q61 1123 133 1229 Q220 1358 386 1358 Z M384 1213 Q299 1213 269 1130 Q245 1063 245 938 Q245 679 384 679 Q520 679 520 946 Q520 1213 384 1213 Z " />
<glyph glyph-name="foursuperior" unicode="&#x2074;" horiz-adv-x="769" d="M717 875 L717 728 L607 728 L607 546 L427 546 L427 728 L58 728 L58 885 L436 1353 L607 1353 L607 875 L717 875 Z M432 869 L432 1159 L210 868 L432 869 Z " />
<glyph glyph-name="fivesuperior" unicode="&#x2075;" horiz-adv-x="768" d="M653 1346 L653 1193 L300 1193 L282 1103 Q277 1073 270 1046 Q335 1092 419 1092 Q517 1092 590 1045 Q699 974 699 826 Q699 683 583 599 Q493 534 368 534 Q224 534 139.5 603 Q55 672 49 793 L234 793 Q239 740 275 708.5 Q311 677 368 677 Q430 677 469.5 717 Q509 757 509 820 Q509 884 470.5 922.5 Q432 961 368 961 Q288 961 242 896 L75 898 L161 1346 L653 1346 Z " />
<glyph glyph-name="sixsuperior" unicode="&#x2076;" horiz-adv-x="769" d="M696 1133 L517 1133 Q494 1223 408 1223 Q274 1223 252 1015 Q324 1090 436 1090 Q556 1090 633 1015 Q710 940 710 822 Q710 689 612 607 Q525 534 401 534 Q243 534 155 639.5 Q67 745 67 933 Q67 1133 161 1247 Q252 1358 409 1358 Q531 1358 605.5 1299.5 Q680 1241 696 1133 Z M397 956 Q339 956 302.5 917.5 Q266 879 266 818 Q266 758 303 718.5 Q340 679 396 679 Q452 679 489.5 718.5 Q527 758 527 817 Q527 877 490 916.5 Q453 956 397 956 Z " />
<glyph glyph-name="sevensuperior" unicode="&#x2077;" horiz-adv-x="768" d="M684 1346 L684 1203 Q676 1194 639 1157 Q531 1045 471.5 893.5 Q412 742 400 546 L207 546 Q210 741 332 969 Q411 1118 485 1188 Q401 1186 383 1186 L85 1186 L85 1346 L684 1346 Z " />
<glyph glyph-name="eightsuperior" unicode="&#x2078;" horiz-adv-x="769" d="M199 976 Q90 1024 90 1138 Q90 1241 187 1305 Q269 1358 386 1358 Q515 1358 598.5 1297 Q682 1236 682 1142 Q682 1029 572 976 Q716 925 716 787 Q716 673 625 603.5 Q534 534 385 534 Q237 534 148 600 Q55 669 55 782 Q55 922 199 976 Z M386 1224 Q330 1224 296 1198 Q262 1172 262 1129 Q262 1084 296 1057 Q330 1030 386 1030 Q444 1030 477 1056.5 Q510 1083 510 1129 Q510 1173 477 1198.5 Q444 1224 386 1224 Z M385 910 Q321 910 282 877.5 Q243 845 243 791 Q243 738 282.5 704.5 Q322 671 386 671 Q450 671 489 704 Q528 737 528 791 Q528 843 488 876.5 Q448 910 385 910 Z " />
<glyph glyph-name="ninesuperior" unicode="&#x2079;" horiz-adv-x="768" d="M73 760 L251 760 Q270 670 363 670 Q490 670 513 878 Q446 801 338 801 Q240 801 167 852 Q59 928 59 1069 Q59 1204 162 1287 Q251 1358 374 1358 Q528 1358 614.5 1254 Q701 1150 701 965 Q701 767 609.5 650 Q518 533 364 533 Q240 533 162.5 593.5 Q85 654 73 760 Z M374 1213 Q316 1213 279 1174 Q242 1135 242 1074 Q242 1014 279 975 Q316 936 372 936 Q429 936 465.5 975 Q502 1014 502 1073 Q502 1132 465 1172.5 Q428 1213 374 1213 Z " />
<glyph glyph-name="zeroinferior" unicode="&#x2080;" horiz-adv-x="768" d="M386 812 Q466 812 533.5 776.5 Q601 741 638 680 Q704 569 704 399 Q704 226 636 121 Q550 -12 385 -12 Q233 -12 147 96.5 Q61 205 61 398 Q61 577 133 683 Q220 812 386 812 Z M384 667 Q299 667 269 584 Q245 517 245 392 Q245 133 384 133 Q520 133 520 400 Q520 667 384 667 Z " />
<glyph glyph-name="oneinferior" unicode="&#x2081;" horiz-adv-x="768" d="M540 807 L540 0 L352 0 L352 519 L297 519 L235 519 L174 519 L147 519 L147 648 Q264 650 318.5 686 Q373 722 391 807 L540 807 Z " />
<glyph glyph-name="twoinferior" unicode="&#x2082;" horiz-adv-x="768" d="M699 153 L699 0 L56 0 Q56 143 146 233 Q194 280 394 407 Q456 446 480 477.5 Q504 509 504 551 Q504 600 472.5 629.5 Q441 659 388 659 Q261 659 256 486 L76 486 Q75 502 75 509 Q75 654 166 734 Q255 812 395 812 Q519 812 603 749 Q695 680 695 563 Q695 461 622 387 Q589 354 470 281 Q332 196 296 149 Q365 153 429 153 L699 153 Z " />
<glyph glyph-name="threeinferior" unicode="&#x2083;" horiz-adv-x="768" d="M74 535 Q77 639 129 705 Q213 812 379 812 Q507 812 585 754 Q672 691 672 589 Q672 483 569 434 Q703 386 703 250 Q703 135 611.5 61.5 Q520 -12 377 -12 Q226 -12 139 64.5 Q52 141 52 274 Q52 278 53 288 L234 288 Q232 140 374 140 Q434 140 471.5 170.5 Q509 201 509 250 Q509 361 360 361 Q334 361 310 359 L310 487 Q332 485 347 485 Q491 485 491 578 Q491 619 460 644 Q429 669 378 669 Q257 669 254 535 L74 535 Z " />
<glyph glyph-name="fourinferior" unicode="&#x2084;" horiz-adv-x="769" d="M717 329 L717 182 L607 182 L607 0 L427 0 L427 182 L58 182 L58 339 L436 807 L607 807 L607 329 L717 329 Z M432 323 L432 614 L210 322 L432 323 Z " />
<glyph glyph-name="fiveinferior" unicode="&#x2085;" horiz-adv-x="768" d="M653 800 L653 647 L300 647 L282 556 Q276 526 270 500 Q335 544 419 544 Q517 544 590 497 Q699 426 699 279 Q699 136 583 53 Q493 -12 368 -12 Q224 -12 139.5 57 Q55 126 49 247 L234 247 Q239 194 275 163.5 Q311 133 368 133 Q430 133 469.5 172.5 Q509 212 509 275 Q509 339 470.5 377 Q432 415 368 415 Q288 415 242 349 L75 352 L161 800 L653 800 Z " />
<glyph glyph-name="sixinferior" unicode="&#x2086;" horiz-adv-x="769" d="M696 587 L517 587 Q494 675 408 675 Q273 675 252 469 Q323 543 436 543 Q556 543 633 468 Q710 393 710 276 Q710 142 612 60 Q525 -12 401 -12 Q243 -12 155 93.5 Q67 199 67 387 Q67 588 161 701 Q252 812 409 812 Q531 812 605.5 753.5 Q680 695 696 587 Z M397 409 Q339 409 302.5 370.5 Q266 332 266 272 Q266 212 303 172.5 Q340 133 396 133 Q452 133 489.5 172 Q527 211 527 271 Q527 330 490 369.5 Q453 409 397 409 Z " />
<glyph glyph-name="seveninferior" unicode="&#x2087;" horiz-adv-x="768" d="M684 800 L684 657 Q676 648 639 611 Q531 499 471.5 347.5 Q412 196 400 0 L207 0 Q210 195 332 423 Q412 572 485 642 Q401 640 383 640 L85 640 L85 800 L684 800 Z " />
<glyph glyph-name="eightinferior" unicode="&#x2088;" horiz-adv-x="769" d="M199 430 Q90 478 90 592 Q90 695 187 759 Q269 812 386 812 Q515 812 598.5 751 Q682 690 682 595 Q682 483 572 430 Q716 379 716 241 Q716 127 625 57.5 Q534 -12 385 -12 Q237 -12 148 54 Q55 123 55 236 Q55 376 199 430 Z M386 678 Q330 678 296 652 Q262 626 262 582 Q262 537 296 510 Q330 483 386 483 Q444 483 477 509.5 Q510 536 510 583 Q510 627 477 652.5 Q444 678 386 678 Z M385 363 Q321 363 282 330.5 Q243 298 243 245 Q243 191 282.5 158 Q322 125 386 125 Q450 125 489 157.5 Q528 190 528 244 Q528 297 488 330 Q448 363 385 363 Z " />
<glyph glyph-name="nineinferior" unicode="&#x2089;" horiz-adv-x="768" d="M73 214 L251 214 Q270 124 363 124 Q490 124 513 332 Q446 255 339 255 Q240 255 167 306 Q59 382 59 523 Q59 658 162 741 Q251 812 374 812 Q528 812 614.5 708 Q701 604 701 419 Q701 221 609.5 104.5 Q518 -12 364 -12 Q240 -12 162.5 48 Q85 108 73 214 Z M374 667 Q316 667 279 628 Q242 589 242 528 Q242 468 279 429 Q316 390 372 390 Q429 390 465.5 429 Q502 468 502 527 Q502 586 465 626.5 Q428 667 374 667 Z " />
<glyph glyph-name="franc" unicode="&#x20a3;" horiz-adv-x="1320" d="M1006 1365 L1006 1130 L397 1130 L397 810 L731 810 L731 604 L397 604 L397 0 L131 0 L131 1365 L1006 1365 Z M1337 831 L1337 611 Q1278 626 1242 626 Q1112 626 1049 516 Q1014 455 1014 311 L1014 0 L783 0 L783 816 L1003 816 L1003 656 Q1095 834 1283 834 Q1306 834 1337 831 Z " />
<glyph glyph-name="lira" unicode="&#x20a4;" horiz-adv-x="1147" d="M452 918 L769 918 L769 756 L516 756 Q547 669 568 594 L769 594 L769 432 L577 432 Q547 324 421 219 Q514 260 595 260 Q650 260 730 239 Q816 216 854 216 Q960 216 1034 298 L1150 96 Q1098 39 1015 6.5 Q932 -26 839 -26 Q784 -26 744 -18.5 Q704 -11 603 18 Q497 49 427 49 Q331 49 220 -27 L101 152 Q287 279 310 432 L88 432 L88 594 L284 594 Q252 678 216 756 L88 756 L88 918 L153 918 Q142 973 142 1014 Q142 1162 248 1262 Q380 1385 615 1385 Q845 1385 971.5 1269.5 Q1098 1154 1102 941 L831 941 Q828 1039 785 1088 Q728 1153 621 1153 Q542 1153 491 1109.5 Q440 1066 440 998 Q440 963 452 918 Z " />
<glyph glyph-name="peseta" unicode="&#x20a7;" horiz-adv-x="1928" d="M132 1365 L542 1365 Q673 1365 748 1348.5 Q823 1332 884 1289 Q1052 1172 1052 936 Q1052 727 914 608 Q803 512 595 512 L398 512 L398 0 L132 0 L132 1365 Z M398 1133 L398 726 L555 726 Q673 726 725 770 Q790 826 790 932 Q790 1040 715 1094 Q661 1133 539 1133 L398 1133 Z M1313 512 L1313 394 L1201 394 L1201 174 Q1201 134 1209.5 124.5 Q1218 115 1255 115 Q1278 115 1313 120 L1313 -8 Q1247 -15 1206 -15 Q1092 -15 1053 36 Q1037 58 1032 85 Q1027 112 1027 179 L1027 394 L936 394 L936 512 L1027 512 L1027 661 L1201 661 L1201 512 L1313 512 Z M1870 342 L1706 342 Q1701 381 1682 395 Q1663 409 1616 409 Q1545 409 1545 373 Q1545 354 1565 346 Q1585 338 1668 322 Q1778 301 1828 272 Q1891 234 1891 157 Q1891 74 1819.5 26 Q1748 -22 1626 -22 Q1366 -22 1356 178 L1524 178 Q1528 132 1551 113.5 Q1574 95 1627 95 Q1715 95 1715 143 Q1715 163 1695 172.5 Q1675 182 1603 197 Q1482 222 1442 242 Q1369 278 1369 361 Q1369 438 1434.5 481 Q1500 524 1618 524 Q1742 524 1803 479.5 Q1864 435 1870 342 Z " />
<glyph glyph-name="Euro" unicode="&#x20ac;" horiz-adv-x="1147" d="M179 870 Q217 1038 312 1168 Q471 1385 758 1385 Q866 1385 939.5 1359.5 Q1013 1334 1126 1258 L1037 1025 Q941 1096 874.5 1124 Q808 1152 738 1152 Q548 1152 469 870 L979 870 L925 718 L442 718 Q440 698 440 675 Q440 644 442 626 L889 626 L831 474 L473 474 Q557 214 739 214 Q800 214 859.5 234 Q919 254 1034 313 L1034 43 Q819 -21 724 -21 Q554 -21 406 91 Q255 205 185 474 L8 474 L63 626 L161 626 Q159 655 159 687 Q159 701 159 718 L8 718 L63 870 L179 870 Z " />
<glyph glyph-name="uni2101" unicode="&#x2101;" horiz-adv-x="2096" d="M1452 1365 L887 0 L737 0 L1302 1365 L1452 1365 Z M579 1367 L916 546 L701 546 L631 727 L316 727 L245 546 L34 546 L372 1367 L579 1367 Z M587 870 L475 1171 L361 870 L587 870 Z M1954 567 L1760 567 Q1749 689 1601 689 Q1465 689 1465 603 Q1465 567 1499.5 550.5 Q1534 534 1672 502 Q1821 469 1880 433 Q1989 367 1989 250 Q1989 125 1890.5 53 Q1792 -19 1621 -19 Q1438 -19 1338 59 Q1238 137 1235 283 L1439 283 Q1442 213 1475 181 Q1525 131 1629 131 Q1700 131 1741.5 158 Q1783 185 1783 231 Q1783 278 1721 300 Q1686 313 1550 348 Q1392 388 1338 433 Q1268 490 1268 590 Q1268 703 1362 771.5 Q1456 840 1611 840 Q1773 840 1861.5 769.5 Q1950 699 1954 567 Z " />
<glyph glyph-name="afii61248" unicode="&#x2105;" horiz-adv-x="1821" d="M1211 1365 L646 0 L495 0 L1061 1365 L1211 1365 Z M720 910 Q701 776 613.5 700.5 Q526 625 387 625 Q213 625 116 741 Q34 839 34 984 Q34 1163 143 1266 Q239 1356 390 1356 Q528 1356 615.5 1286 Q703 1216 715 1095 L529 1095 Q506 1213 391 1213 Q312 1213 268.5 1154 Q225 1095 225 989 Q225 884 267.5 826 Q310 768 387 768 Q513 768 535 910 L720 910 Z M1363 736 Q1519 736 1618 636 Q1715 536 1715 371 Q1715 200 1611 99 Q1514 4 1358 4 Q1191 4 1092 109 Q998 210 998 369 Q998 529 1089 626 Q1193 736 1363 736 Z M1358 595 Q1278 595 1234 535 Q1189 474 1189 368 Q1189 260 1234 203 Q1279 144 1358 144 Q1437 144 1480.5 203.5 Q1524 263 1524 371 Q1524 476 1481 534 Q1435 595 1358 595 Z " />
<glyph glyph-name="afii61289" unicode="&#x2113;" horiz-adv-x="1024" d="M522 530 Q474 246 474 159 Q474 108 503 108 Q521 108 537 127 Q553 146 581 202 Q603 245 631 245 Q670 245 670 199 Q670 135 616 59 Q543 -45 445 -45 Q336 -45 292 60 Q268 117 268 246 Q268 293 270 342 Q205 264 181 264 Q168 264 156.5 283.5 Q145 303 145 325 Q145 346 155 360.5 Q165 375 225 443 Q246 466 286 519 Q351 886 446 1113 Q555 1371 721 1371 Q808 1371 853 1306 Q890 1251 890 1173 Q890 1090 850 984 Q810 878 741 777 Q701 719 522 530 Z M542 679 Q642 790 704 926 Q771 1074 771 1161 Q771 1191 758.5 1210 Q746 1229 726 1229 Q676 1229 645 1143 Q594 1001 542 679 Z " />
<glyph glyph-name="afii61352" unicode="&#x2116;" horiz-adv-x="2133" d="M1287 1365 L1287 0 L987 0 L580 659 Q447 880 408 965 Q420 811 420 581 L420 0 L133 0 L133 1365 L437 1365 L834 721 Q956 523 1012 406 Q1000 621 1000 797 L1000 1365 L1287 1365 Z M2064 275 L2064 86 L1409 86 L1409 275 L2064 275 Z M1743 1022 Q1885 1022 1975 930 Q2064 840 2064 689 Q2064 533 1969 441 Q1880 354 1737 354 Q1585 354 1495 450 Q1409 542 1409 687 Q1409 833 1492 922 Q1587 1022 1743 1022 Z M1738 842 Q1683 842 1652.5 801.5 Q1622 761 1622 687 Q1622 615 1652.5 574.5 Q1683 534 1737 534 Q1791 534 1821 575 Q1851 616 1851 689 Q1851 760 1820.5 801 Q1790 842 1738 842 Z " />
<glyph glyph-name="uni2120" unicode="&#x2120;" horiz-adv-x="1960" d="M791 1119 L596 1119 Q589 1182 553.5 1210 Q518 1238 445 1238 Q320 1238 320 1158 Q320 1125 350 1108 Q380 1091 475 1069 Q676 1022 732 985 Q820 927 820 818 Q820 683 700 614 Q605 560 467 560 Q264 560 165 667 Q129 707 114 747 Q99 787 96 853 L291 853 Q296 783 333 751 Q380 709 470 709 Q541 709 583 732.5 Q625 756 625 795 Q625 830 581 856 Q558 870 538 876 Q518 882 433 900 Q264 937 194.5 991.5 Q125 1046 125 1140 Q125 1270 244 1337 Q331 1387 452 1387 Q638 1387 729 1289 Q761 1254 774 1218 Q787 1182 791 1119 Z M1183 1368 L1381 849 L1578 1368 L1837 1368 L1837 579 L1653 579 L1653 1138 L1649 1138 L1447 579 L1314 579 L1111 1138 L1107 1138 L1107 579 L924 579 L924 1368 L1183 1368 Z " />
<glyph glyph-name="trademark" unicode="&#x2122;" horiz-adv-x="1813" d="M673 1368 L673 1215 L449 1215 L449 578 L253 578 L253 1215 L29 1215 L29 1368 L673 1368 Z M1034 1368 L1233 848 L1430 1368 L1689 1368 L1689 578 L1504 578 L1504 1138 L1500 1138 L1298 578 L1165 578 L962 1138 L959 1138 L959 578 L774 578 L774 1368 L1034 1368 Z " />
<glyph glyph-name="Omega" unicode="&#x2126;" horiz-adv-x="1365" d="M56 0 L56 242 L352 242 Q230 317 161 405 Q50 549 50 755 Q50 1038 256 1232 Q434 1399 682 1399 Q931 1399 1109 1232 Q1314 1038 1314 754 Q1314 585 1241 461.5 Q1168 338 1012 242 L1308 242 L1308 0 L759 0 L759 224 Q867 280 930 372 Q1031 519 1031 703 Q1031 903 919 1036 Q820 1154 683 1154 Q545 1154 445 1036 Q333 903 333 706 Q333 367 605 224 L605 0 L56 0 Z " />
<glyph glyph-name="estimated" unicode="&#x212e;" horiz-adv-x="1148" d="M300 495 L300 149 Q418 36 578 36 Q699 36 783.5 89 Q868 142 946 266 L1013 226 Q923 85 824 26 Q725 -33 580 -33 Q358 -33 218 121 Q84 268 84 495 Q84 725 218 871 Q359 1024 578 1024 Q796 1024 933.5 877.5 Q1071 731 1072 495 L300 495 Z M856 564 L856 842 Q731 957 575 957 Q421 957 300 842 L300 564 L856 564 Z " />
<glyph glyph-name="onethird" unicode="&#x2153;" horiz-adv-x="1869" d="M540 1353 L540 546 L352 546 L352 1065 L297 1065 L235 1065 L174 1065 L147 1065 L147 1194 Q264 1196 318.5 1232 Q373 1268 391 1353 L540 1353 Z M1388 1346 L642 0 L482 0 L1232 1346 L1388 1346 Z M1176 535 Q1179 639 1231 705 Q1315 812 1481 812 Q1609 812 1687 754 Q1774 690 1774 589 Q1774 483 1671 434 Q1805 387 1805 250 Q1805 135 1713.5 61.5 Q1622 -12 1479 -12 Q1328 -12 1241 64.5 Q1154 141 1154 274 Q1154 278 1155 288 L1336 288 Q1334 140 1476 140 Q1536 140 1573.5 170.5 Q1611 201 1611 250 Q1611 361 1462 361 Q1436 361 1412 359 L1412 487 Q1434 485 1449 485 Q1593 485 1593 578 Q1593 619 1562 644 Q1531 669 1480 669 Q1359 669 1356 535 L1176 535 Z " />
<glyph glyph-name="twothirds" unicode="&#x2154;" horiz-adv-x="1869" d="M699 699 L699 546 L56 546 Q56 689 146 779 Q179 812 217 838 Q255 864 394 953 Q456 992 480 1023.5 Q504 1055 504 1097 Q504 1146 472.5 1175.5 Q441 1205 388 1205 Q261 1205 256 1032 L76 1032 Q75 1048 75 1055 Q75 1200 166 1280 Q255 1358 395 1358 Q519 1358 603 1295 Q695 1226 695 1109 Q695 1007 622 933 Q588 900 470 827 Q332 742 296 695 Q365 699 429 699 L699 699 Z M1388 1346 L641 0 L482 0 L1232 1346 L1388 1346 Z M1176 535 Q1179 639 1231 705 Q1315 812 1481 812 Q1609 812 1687 754 Q1774 691 1774 589 Q1774 483 1671 434 Q1805 386 1805 250 Q1805 135 1713.5 61.5 Q1622 -12 1479 -12 Q1328 -12 1241 64.5 Q1154 141 1154 274 Q1154 278 1155 288 L1336 288 Q1334 140 1476 140 Q1536 140 1573.5 170.5 Q1611 201 1611 250 Q1611 361 1462 361 Q1436 361 1412 359 L1412 487 Q1434 485 1449 485 Q1593 485 1593 578 Q1593 619 1562 644 Q1531 669 1480 669 Q1359 669 1356 535 L1176 535 Z " />
<glyph glyph-name="uni2155" unicode="&#x2155;" horiz-adv-x="1868" d="M540 1353 L540 546 L352 546 L352 1065 L297 1065 L235 1065 L174 1065 L147 1065 L147 1194 Q264 1196 318.5 1232 Q373 1268 391 1353 L540 1353 Z M1388 1346 L642 0 L482 0 L1232 1346 L1388 1346 Z M1755 800 L1755 647 L1401 647 L1384 556 Q1378 526 1372 500 Q1437 544 1521 544 Q1618 544 1692 497 Q1801 426 1801 279 Q1801 136 1685 53 Q1595 -12 1470 -12 Q1326 -12 1241 57 Q1156 126 1151 247 L1336 247 Q1341 194 1377 163.5 Q1413 133 1470 133 Q1532 133 1571.5 172.5 Q1611 212 1611 275 Q1611 339 1572.5 377 Q1534 415 1469 415 Q1390 415 1344 349 L1177 352 L1262 800 L1755 800 Z " />
<glyph glyph-name="uni2156" unicode="&#x2156;" horiz-adv-x="1868" d="M699 699 L699 546 L56 546 Q56 689 146 779 Q179 812 217 838 Q255 864 394 953 Q456 992 480 1023.5 Q504 1055 504 1097 Q504 1146 472.5 1175.5 Q441 1205 388 1205 Q261 1205 256 1032 L76 1032 Q75 1048 75 1055 Q75 1200 166 1280 Q255 1358 395 1358 Q519 1358 603 1295 Q695 1226 695 1109 Q695 1007 622 933 Q588 900 470 827 Q332 742 296 695 Q365 699 429 699 L699 699 Z M1388 1346 L641 0 L482 0 L1232 1346 L1388 1346 Z M1755 800 L1755 647 L1402 647 L1384 556 Q1378 526 1372 500 Q1437 544 1521 544 Q1618 544 1692 497 Q1801 426 1801 279 Q1801 136 1685 53 Q1595 -12 1470 -12 Q1326 -12 1241.5 57 Q1157 126 1151 247 L1336 247 Q1341 194 1377 163.5 Q1413 133 1470 133 Q1532 133 1571.5 172.5 Q1611 212 1611 275 Q1611 339 1572.5 377 Q1534 415 1470 415 Q1390 415 1344 349 L1177 352 L1263 800 L1755 800 Z " />
<glyph glyph-name="uni2157" unicode="&#x2157;" horiz-adv-x="1869" d="M74 1081 Q77 1185 129 1251 Q213 1358 379 1358 Q506 1358 585 1300 Q672 1237 672 1135 Q672 1029 569 979 Q703 931 703 796 Q703 681 611.5 607.5 Q520 534 377 534 Q226 534 139 610.5 Q52 687 52 820 Q52 824 53 834 L234 834 Q232 686 374 686 Q435 686 472 716.5 Q509 747 509 796 Q509 906 358 906 Q338 906 310 904 L310 1033 Q332 1031 347 1031 Q491 1031 491 1124 Q491 1165 460 1190 Q429 1215 378 1215 Q257 1215 254 1081 L74 1081 Z M1387 1346 L641 0 L481 0 L1231 1346 L1387 1346 Z M1754 800 L1754 647 L1401 647 L1383 556 Q1377 526 1371 500 Q1436 544 1520 544 Q1618 544 1691 497 Q1800 426 1800 279 Q1800 136 1684 53 Q1594 -12 1469 -12 Q1325 -12 1240.5 57 Q1156 126 1150 247 L1335 247 Q1340 194 1376 163.5 Q1412 133 1469 133 Q1531 133 1570.5 172.5 Q1610 212 1610 275 Q1610 339 1571.5 377 Q1533 415 1469 415 Q1389 415 1343 349 L1176 352 L1262 800 L1754 800 Z " />
<glyph glyph-name="uni2158" unicode="&#x2158;" horiz-adv-x="1869" d="M717 875 L717 728 L607 728 L607 546 L427 546 L427 728 L58 728 L58 885 L436 1353 L607 1353 L607 875 L717 875 Z M432 869 L432 1159 L210 868 L432 869 Z M1389 1346 L642 0 L482 0 L1232 1346 L1389 1346 Z M1755 800 L1755 647 L1401 647 L1384 556 Q1378 526 1372 500 Q1437 544 1521 544 Q1618 544 1692 497 Q1801 426 1801 279 Q1801 136 1685 53 Q1595 -12 1470 -12 Q1326 -12 1241 57 Q1156 126 1151 247 L1336 247 Q1341 194 1377 163.5 Q1413 133 1470 133 Q1532 133 1571.5 172.5 Q1611 212 1611 275 Q1611 339 1572.5 377 Q1534 415 1469 415 Q1390 415 1344 349 L1177 352 L1262 800 L1755 800 Z " />
<glyph glyph-name="uni2159" unicode="&#x2159;" horiz-adv-x="1870" d="M540 1353 L540 546 L352 546 L352 1065 L297 1065 L235 1065 L174 1065 L147 1065 L147 1194 Q264 1196 318.5 1232 Q373 1268 391 1353 L540 1353 Z M1388 1346 L642 0 L482 0 L1232 1346 L1388 1346 Z M1798 587 L1618 587 Q1596 675 1509 675 Q1375 675 1354 469 Q1425 543 1537 543 Q1658 543 1735 468 Q1812 393 1812 276 Q1812 142 1713 60 Q1626 -12 1502 -12 Q1344 -12 1256 93.5 Q1168 199 1168 387 Q1168 588 1262 701 Q1354 812 1511 812 Q1632 812 1706.5 753.5 Q1781 695 1798 587 Z M1499 409 Q1441 409 1404 370.5 Q1367 332 1367 272 Q1367 212 1404 172.5 Q1441 133 1498 133 Q1554 133 1591.5 172 Q1629 211 1629 271 Q1629 330 1591.5 369.5 Q1554 409 1499 409 Z " />
<glyph glyph-name="uni215A" unicode="&#x215a;" horiz-adv-x="1869" d="M653 1346 L653 1193 L300 1193 L282 1103 Q277 1073 270 1046 Q335 1092 419 1092 Q517 1092 590 1045 Q699 974 699 826 Q699 683 583 599 Q493 534 368 534 Q224 534 139.5 603 Q55 672 49 793 L234 793 Q239 740 275 708.5 Q311 677 368 677 Q430 677 469.5 717 Q509 757 509 820 Q509 884 470.5 922.5 Q432 961 368 961 Q288 961 242 896 L75 898 L161 1346 L653 1346 Z M1387 1346 L640 0 L480 0 L1230 1346 L1387 1346 Z M1796 587 L1617 587 Q1594 675 1508 675 Q1373 675 1352 469 Q1423 543 1536 543 Q1656 543 1733 468 Q1810 393 1810 276 Q1810 142 1712 60 Q1625 -12 1501 -12 Q1343 -12 1255 93.5 Q1167 199 1167 387 Q1167 588 1261 701 Q1352 812 1509 812 Q1631 812 1705.5 753.5 Q1780 695 1796 587 Z M1497 409 Q1439 409 1402.5 370.5 Q1366 332 1366 272 Q1366 212 1403 172.5 Q1440 133 1496 133 Q1552 133 1589.5 172.5 Q1627 212 1627 271 Q1627 330 1590 369.5 Q1553 409 1497 409 Z " />
<glyph glyph-name="oneeighth" unicode="&#x215b;" horiz-adv-x="1869" d="M540 1353 L540 546 L352 546 L352 1065 L297 1065 L235 1065 L174 1065 L147 1065 L147 1194 Q264 1196 318.5 1232 Q373 1268 391 1353 L540 1353 Z M1388 1346 L642 0 L482 0 L1232 1346 L1388 1346 Z M1301 430 Q1192 478 1192 592 Q1192 696 1289 759 Q1371 812 1488 812 Q1616 812 1699.5 751 Q1783 690 1783 595 Q1783 482 1673 430 Q1817 379 1817 241 Q1817 127 1726 57.5 Q1635 -12 1487 -12 Q1339 -12 1250 54 Q1157 123 1157 236 Q1157 376 1301 430 Z M1488 678 Q1431 678 1397.5 652 Q1364 626 1364 582 Q1364 537 1397.5 510 Q1431 483 1488 483 Q1545 483 1578 509.5 Q1611 536 1611 583 Q1611 627 1578 652.5 Q1545 678 1488 678 Z M1486 363 Q1423 363 1384 330.5 Q1345 298 1345 245 Q1345 191 1384.5 158 Q1424 125 1487 125 Q1551 125 1590 157.5 Q1629 190 1629 244 Q1629 297 1589 330 Q1549 363 1486 363 Z " />
<glyph glyph-name="threeeighths" unicode="&#x215c;" horiz-adv-x="1870" d="M74 1081 Q77 1185 129 1251 Q213 1358 379 1358 Q506 1358 585 1300 Q672 1237 672 1135 Q672 1029 569 979 Q703 931 703 796 Q703 681 611.5 607.5 Q520 534 377 534 Q226 534 139 610.5 Q52 687 52 820 Q52 824 53 834 L234 834 Q232 686 374 686 Q435 686 472 716.5 Q509 747 509 796 Q509 906 358 906 Q338 906 310 904 L310 1033 Q332 1031 347 1031 Q491 1031 491 1124 Q491 1165 460 1190 Q429 1215 378 1215 Q257 1215 254 1081 L74 1081 Z M1387 1346 L641 0 L481 0 L1231 1346 L1387 1346 Z M1300 430 Q1191 478 1191 592 Q1191 696 1288 759 Q1370 812 1487 812 Q1615 812 1698.5 750.5 Q1782 689 1782 595 Q1782 482 1672 430 Q1817 379 1817 241 Q1817 127 1726 57.5 Q1635 -12 1486 -12 Q1338 -12 1249 54 Q1156 123 1156 236 Q1156 376 1300 430 Z M1487 678 Q1430 678 1396.5 652 Q1363 626 1363 582 Q1363 537 1396.5 510 Q1430 483 1487 483 Q1544 483 1577 509.5 Q1610 536 1610 583 Q1610 627 1577 652.5 Q1544 678 1487 678 Z M1486 363 Q1422 363 1383 330.5 Q1344 298 1344 245 Q1344 191 1383.5 158 Q1423 125 1487 125 Q1551 125 1590 157.5 Q1629 190 1629 244 Q1629 297 1589 330 Q1549 363 1486 363 Z " />
<glyph glyph-name="fiveeighths" unicode="&#x215d;" horiz-adv-x="1869" d="M653 1346 L653 1193 L300 1193 L282 1103 Q277 1073 270 1046 Q335 1092 419 1092 Q517 1092 590 1045 Q699 974 699 826 Q699 683 583 599 Q493 534 368 534 Q224 534 139.5 603 Q55 672 49 793 L234 793 Q239 740 275 708.5 Q311 677 368 677 Q430 677 469.5 717 Q509 757 509 820 Q509 884 470.5 922.5 Q432 961 368 961 Q288 961 242 896 L75 898 L161 1346 L653 1346 Z M1387 1346 L640 0 L480 0 L1230 1346 L1387 1346 Z M1299 430 Q1191 478 1191 592 Q1191 696 1288 759 Q1370 812 1487 812 Q1615 812 1698.5 750.5 Q1782 689 1782 595 Q1782 483 1672 430 Q1816 379 1816 241 Q1816 127 1725 57.5 Q1634 -12 1485 -12 Q1337 -12 1248 54 Q1155 123 1155 236 Q1155 376 1299 430 Z M1487 678 Q1430 678 1396.5 652 Q1363 626 1363 582 Q1363 537 1396.5 510 Q1430 483 1487 483 Q1544 483 1577 509.5 Q1610 536 1610 583 Q1610 627 1577 652.5 Q1544 678 1487 678 Z M1485 363 Q1421 363 1382 330.5 Q1343 298 1343 245 Q1343 191 1382.5 158 Q1422 125 1486 125 Q1550 125 1589 157.5 Q1628 190 1628 244 Q1628 297 1588 330 Q1548 363 1485 363 Z " />
<glyph glyph-name="seveneighths" unicode="&#x215e;" horiz-adv-x="1869" d="M684 1346 L684 1203 Q676 1194 639 1157 Q531 1045 471.5 893.5 Q412 742 400 546 L207 546 Q210 741 332 969 Q411 1118 485 1188 Q401 1186 383 1186 L85 1186 L85 1346 L684 1346 Z M1388 1346 L641 0 L481 0 L1231 1346 L1388 1346 Z M1300 430 Q1191 478 1191 592 Q1191 696 1288 759 Q1370 812 1487 812 Q1616 812 1699.5 750.5 Q1783 689 1783 595 Q1783 482 1673 430 Q1817 379 1817 241 Q1817 127 1726 57.5 Q1635 -12 1486 -12 Q1338 -12 1249 54 Q1156 123 1156 236 Q1156 376 1300 430 Z M1487 678 Q1431 678 1397 652 Q1363 626 1363 582 Q1363 537 1397 510 Q1431 483 1487 483 Q1545 483 1578 509.5 Q1611 536 1611 583 Q1611 627 1578 652.5 Q1545 678 1487 678 Z M1486 363 Q1422 363 1383 330.5 Q1344 298 1344 245 Q1344 191 1383.5 158 Q1423 125 1487 125 Q1551 125 1590 157.5 Q1629 190 1629 244 Q1629 297 1589 330 Q1549 363 1486 363 Z " />
<glyph glyph-name="partialdiff" unicode="&#x2202;" horiz-adv-x="1024" d="M129 1146 L161 1362 Q354 1340 496 1285 Q677 1216 804 1064 Q981 851 981 528 Q981 316 892 183 Q759 -18 507 -18 Q360 -18 246 56 Q168 106 117 185 Q41 302 41 446 Q41 634 161 761 Q279 885 454 885 Q537 885 591 864 Q645 843 711 785 Q694 815 686 830 Q604 995 451 1060 Q361 1100 297 1117 Q233 1134 129 1146 Z M517 679 Q434 679 369 625 Q288 557 288 439 Q288 337 358 267 Q423 202 508 202 Q588 202 652 259 Q729 327 729 443 Q729 557 657 622 Q595 679 517 679 Z " />
<glyph glyph-name="emptyset" unicode="&#x2205;" horiz-adv-x="1266" d="M899 1365 L997 1314 L899 1133 Q1130 972 1130 717 Q1130 576 1055 455 Q990 350 885 288 Q766 219 622 219 Q528 219 460 252 L332 1 L232 52 L358 301 Q137 463 137 715 Q137 943 308 1091 Q448 1212 636 1212 Q718 1212 802 1183 L899 1365 Z M514 353 Q580 335 633 335 Q801 335 916 458 Q1016 566 1016 715 Q1016 812 971.5 896 Q927 980 852 1027 L514 353 Z M749 1079 Q692 1096 639 1096 Q455 1096 340 958 Q251 851 251 716 Q251 533 410 406 L749 1079 Z " />
<glyph glyph-name="increment" unicode="&#x2206;" horiz-adv-x="1322" d="M16 0 L514 1365 L803 1365 L1305 0 L16 0 Z M372 242 L943 242 L661 1071 L372 242 Z " />
<glyph glyph-name="product" unicode="&#x220f;" horiz-adv-x="1365" d="M41 1536 L1325 1536 L1325 1312 L1178 1312 L1178 -288 L1325 -288 L1325 -512 L792 -512 L792 -288 L928 -288 L928 1312 L439 1312 L439 -288 L572 -288 L572 -512 L41 -512 L41 -288 L191 -288 L191 1312 L41 1312 L41 1536 Z " />
<glyph glyph-name="summation" unicode="&#x2211;" horiz-adv-x="1365" d="M1266 1536 L1266 1020 L1015 1020 L985 1279 L381 1279 L878 545 L383 -256 L1003 -256 L1020 12 L1285 12 L1285 -512 L69 -512 L69 -217 L549 544 L69 1241 L69 1536 L1266 1536 Z " />
<glyph glyph-name="minus" unicode="&#x2212;" horiz-adv-x="1147" d="M102 577 L102 760 L1044 760 L1044 577 L102 577 Z " />
<glyph glyph-name="fraction001" unicode="&#x2215;" horiz-adv-x="333" d="M619 1346 L-127 0 L-287 0 L463 1346 L619 1346 Z " />
<glyph glyph-name="uni2218" unicode="&#x2218;" horiz-adv-x="1024" d="M516 983 Q628 983 710 900 Q793 816 793 696 Q793 578 711 494 Q628 410 512 410 Q396 410 314 493 Q230 578 230 696 Q230 818 314 900 Q398 983 516 983 Z M514 886 Q435 886 381 831 Q326 776 326 696 Q326 618 381 562 Q436 507 512 507 Q589 507 643 562.5 Q697 618 697 696 Q697 777 642 831 Q587 886 514 886 Z " />
<glyph glyph-name="middot" unicode="&#x2219;" horiz-adv-x="569" d="M288 651 Q349 651 393.5 605.5 Q438 560 438 498 Q438 435 393 389.5 Q348 344 285 344 Q222 344 177 389.5 Q132 435 132 498 Q132 561 177.5 606 Q223 651 288 651 Z " />
<glyph glyph-name="radical" unicode="&#x221a;" horiz-adv-x="1365" d="M1365 1693 L1365 1462 L1014 1462 L631 0 L309 0 L179 533 L0 533 L0 764 L338 764 L399 537 Q414 480 445 248 L461 248 Q486 412 516 550 Q546 688 604 908 L810 1693 L1365 1693 Z " />
<glyph glyph-name="infinity" unicode="&#x221e;" horiz-adv-x="1365" d="M687 568 Q542 375 356 375 Q199 375 108 484 Q36 570 36 698 Q36 846 135 934 Q228 1017 357 1017 Q540 1017 678 824 Q815 1017 1010 1017 Q1174 1017 1265 899 Q1329 816 1329 695 Q1329 543 1228 453 Q1138 374 1012 374 Q824 374 687 568 Z M779 696 Q877 548 984 548 Q1046 548 1087.5 590.5 Q1129 633 1129 696 Q1129 770 1075 812 Q1034 843 982 843 Q879 843 779 696 Z M586 695 Q488 843 381 843 Q319 843 277.5 800.5 Q236 758 236 695 Q236 632 278 590 Q320 548 383 548 Q486 548 586 695 Z " />
<glyph glyph-name="integral" unicode="&#x222b;" horiz-adv-x="1024" d="M107 -491 L154 -228 Q203 -249 240 -249 Q327 -249 352 -178 Q362 -153 362 38 L362 935 Q363 1151 365.5 1196.5 Q368 1242 383 1297 Q414 1411 520 1479 Q609 1536 746 1536 Q815 1536 917 1515 L869 1252 Q820 1272 780 1272 Q698 1272 671 1202 Q661 1174 661 1076 L661 96 Q661 -119 658 -166 Q655 -213 639 -273 Q607 -387 507.5 -447.5 Q408 -508 252 -508 Q162 -508 107 -491 Z " />
<glyph glyph-name="similar" unicode="&#x223c;" horiz-adv-x="1024" d="M161 486 L17 606 Q128 880 320 880 Q389 880 551 810 Q634 774 659.5 765.5 Q685 757 711 757 Q794 757 862 886 L1006 766 Q967 673 933 624.5 Q899 576 849 542 Q776 493 693 493 Q653 493 610.5 506.5 Q568 520 459 569 Q356 615 308 615 Q231 615 161 486 Z " />
<glyph glyph-name="uni2243" unicode="&#x2243;" horiz-adv-x="1024" d="M162 713 L18 814 Q129 1089 321 1089 Q392 1089 552 1018 Q634 982 660 973.5 Q686 965 713 965 Q758 965 788 987 Q818 1009 864 1076 L1007 975 Q968 879 935 833 Q839 703 687 703 Q646 703 607.5 715.5 Q569 728 460 778 Q358 824 305 824 Q267 824 235.5 799.5 Q204 775 162 713 Z M69 545 L957 545 L957 287 L69 287 L69 545 Z " />
<glyph glyph-name="approxequal" unicode="&#x2248;" horiz-adv-x="1024" d="M161 713 L17 814 Q128 1089 320 1089 Q390 1089 551 1019 Q634 983 659.5 974.5 Q685 966 712 966 Q757 966 787 987.5 Q817 1009 862 1075 L1006 975 Q967 879 933 834 Q838 704 686 704 Q645 704 605 717 Q565 730 459 778 Q357 824 307 824 Q266 824 234.5 800 Q203 776 161 713 Z M161 278 L17 379 Q128 654 320 654 Q389 654 551 584 Q634 548 659.5 539.5 Q685 531 711 531 Q757 531 786.5 552.5 Q816 574 862 641 L1006 540 Q967 444 933 399 Q839 269 686 269 Q645 269 605.5 282 Q566 295 459 343 Q357 389 306 389 Q266 389 234.5 365 Q203 341 161 278 Z " />
<glyph glyph-name="notequal" unicode="&#x2260;" horiz-adv-x="1024" d="M531 971 L670 1235 L854 1138 L764 971 L956 971 L956 726 L664 726 L579 563 L955 563 L955 318 L488 318 L365 84 L181 181 L255 318 L68 318 L68 563 L345 563 L431 726 L69 726 L69 971 L531 971 Z " />
<glyph glyph-name="lessequal" unicode="&#x2264;" horiz-adv-x="1024" d="M955 1310 L955 1035 L388 848 L954 662 L955 387 L68 726 L68 972 L955 1310 Z M955 332 L955 74 L68 74 L68 332 L955 332 Z " />
<glyph glyph-name="greaterequal" unicode="&#x2265;" horiz-adv-x="1024" d="M68 387 L70 662 L635 848 L68 1035 L68 1310 L955 972 L955 726 L68 387 Z M68 74 L68 332 L955 332 L955 74 L68 74 Z " />
<glyph glyph-name="lozenge" unicode="&#x25ca;" horiz-adv-x="1365" d="M683 1419 L1214 683 L683 -53 L151 683 L683 1419 Z M683 1238 L279 683 L683 129 L1086 683 L683 1238 Z " />
<glyph glyph-name="uniE001" unicode="&#xe001;" horiz-adv-x="758" d="M338 1340 L338 1420 L416 1420 L416 1337 Q552 1321 619 1259 Q686 1197 692 1082 L506 1082 Q499 1171 416 1191 L416 1029 Q578 993 635 955 Q719 900 719 798 Q719 688 642.5 626 Q566 564 416 551 L416 459 L338 459 L338 551 Q187 566 111 635 Q35 704 29 830 L215 830 Q217 717 338 695 L338 877 Q325 881 307 885 Q296 888 288 890 Q166 921 111 972 Q56 1023 56 1106 Q56 1205 129 1265.5 Q202 1326 338 1340 Z M338 1049 L338 1196 Q242 1187 242 1119 Q242 1092 260.5 1078.5 Q279 1065 338 1049 Z M416 861 L416 693 Q533 709 533 775 Q533 835 416 861 Z " />
<glyph glyph-name="uniE002" unicode="&#xe002;" horiz-adv-x="1152" d="M54 380 L253 380 L303 630 L140 630 L140 803 L337 803 L374 990 L563 990 L525 803 L747 803 L786 990 L974 990 L936 803 L1096 803 L1096 630 L901 630 L852 380 L1012 380 L1012 206 L817 206 L774 0 L587 0 L628 206 L406 206 L365 0 L176 0 L219 206 L54 206 L54 380 Z M441 380 L663 380 L714 630 L491 630 L441 380 Z " />
<glyph glyph-name="uniE003" unicode="&#xe003;" horiz-adv-x="1240" d="M300 1399 Q405 1399 461.5 1332.5 Q518 1266 518 1141 Q518 1013 447 949 Q388 896 295 896 Q193 896 135 959 Q79 1021 79 1140 Q79 1260 138.5 1329.5 Q198 1399 300 1399 Z M299 1258 Q251 1258 251 1140 Q251 1081 261 1059 Q271 1037 297 1037 Q346 1037 346 1141 Q346 1258 299 1258 Z M457 498 L281 498 L787 1408 L961 1408 L457 498 Z M947 1011 Q1050 1011 1106 947 Q1163 882 1163 759 Q1163 628 1089 561 Q1032 508 940 508 Q839 508 782 572 Q724 638 724 758 Q724 891 797 958 Q854 1011 947 1011 Z M945 870 Q896 870 896 764 Q896 699 906 674 Q916 649 942 649 Q991 649 991 756 Q991 870 945 870 Z " />
<glyph glyph-name="ff" unicode="&#xfb00;" horiz-adv-x="1278" d="M638 1365 L638 1166 Q589 1170 544 1170 Q472 1170 448.5 1149.5 Q425 1129 425 1068 L425 990 L777 990 L777 1042 Q777 1137 792 1189.5 Q807 1242 845 1282 Q929 1370 1114 1370 Q1150 1370 1258 1365 L1258 1166 Q1209 1170 1163 1170 Q1092 1170 1068.5 1149.5 Q1045 1129 1045 1068 L1045 990 L1241 990 L1241 807 L1047 807 L1047 0 L777 0 L777 807 L427 807 L427 0 L157 0 L157 807 L-4 807 L-4 990 L157 990 L157 1042 Q157 1137 172 1189.5 Q187 1242 225 1282 Q309 1370 495 1370 Q531 1370 638 1365 Z " />
<glyph glyph-name="fi" unicode="&#xfb01;" horiz-adv-x="1167" d="M638 1365 L638 1166 Q589 1170 543 1170 Q472 1170 448.5 1149.5 Q425 1129 425 1068 L425 990 L621 990 L621 807 L427 807 L427 0 L157 0 L157 807 L-4 807 L-4 990 L157 990 L157 1042 Q157 1137 172 1189.5 Q187 1242 225 1282 Q309 1370 494 1370 Q530 1370 638 1365 Z M916 1394 Q977 1394 1021.5 1348.5 Q1066 1303 1066 1241 Q1066 1178 1021 1132.5 Q976 1087 913 1087 Q850 1087 805 1132.5 Q760 1178 760 1241 Q760 1304 805.5 1349 Q851 1394 916 1394 Z M1047 990 L1047 0 L777 0 L777 990 L1047 990 Z " />
<glyph glyph-name="fl" unicode="&#xfb02;" horiz-adv-x="1167" d="M638 1365 L638 1166 Q589 1170 543 1170 Q472 1170 448.5 1149.5 Q425 1129 425 1068 L425 990 L621 990 L621 807 L427 807 L427 0 L157 0 L157 807 L-4 807 L-4 990 L157 990 L157 1042 Q157 1137 172 1189.5 Q187 1242 225 1282 Q309 1370 494 1370 Q530 1370 638 1365 Z M1047 1365 L1047 0 L777 0 L777 1365 L1047 1365 Z " />
</font>
</svg>
