<?xml version="1.0" encoding="UTF-8"?>
<svg width="20px" height="20px" viewBox="0 0 20 20" version="1.1" xmlns="http://www.w3.org/2000/svg" xmlns:xlink="http://www.w3.org/1999/xlink">
    <!-- Generator: Sketch 57.1 (83088) - https://sketch.com -->
    <title>cross-mark-on-a-black-circle-background_icon-icons.com_73605</title>
    <desc>Created with Sketch.</desc>
    <g id="ACO" stroke="none" stroke-width="1" fill="none" fill-rule="evenodd">
        <g id="ACO-Overview-1280-E&amp;I-Copy" transform="translate(-687.000000, -785.000000)" fill="#E91B18" fill-rule="nonzero">
            <g id="Group-3" transform="translate(618.000000, 628.000000)">
                <g id="Group-4" transform="translate(69.000000, 157.000000)">
                    <g id="cross-mark-on-a-black-circle-background_icon-icons.com_73605">
                        <path d="M18.6592085,4.9803664 C17.7649522,3.44835292 16.5519506,2.23535689 15.0198845,1.34115029 C13.4875448,0.446989287 11.814782,0 10.0003192,0 C8.18603888,0 6.51277444,0.446989287 4.98070836,1.34115029 C3.44855107,2.23522007 2.23554952,3.4482161 1.34129322,4.9803664 C0.446991326,6.51260792 0,8.18586472 0,10 C0,11.8142265 0.447128146,13.4872097 1.3411564,15.0195424 C2.23536709,16.5515559 3.44836865,17.7645519 4.98052594,18.6588497 C6.51277444,19.5529651 8.18590206,20 10.0001368,20 C11.8143716,20 13.4876816,19.5529651 15.0198389,18.6588497 C16.551905,17.7648711 17.7648609,16.5515559 18.659026,15.0195424 C19.5530543,13.4873465 20,11.8141353 20,10 C20,8.1856823 19.5530543,6.51237988 18.6592085,4.9803664 Z M14.7136811,12.356579 C14.8786406,12.5213552 14.9612343,12.7170983 14.9612343,12.9428049 C14.9612343,13.176903 14.8786406,13.3767051 14.7136811,13.5414814 L13.541908,14.713614 C13.3770854,14.8783903 13.177328,14.9608012 12.9428639,14.9608012 C12.7172019,14.9608012 12.5216404,14.8783903 12.3569546,14.713614 L10.0001824,12.356579 L7.64331907,14.713614 C7.47840522,14.8783903 7.28311731,14.9608012 7.05740972,14.9608012 C6.82299125,14.9608012 6.6233707,14.8783903 6.45841124,14.713614 L5.28645572,13.5414814 C5.12154187,13.3767051 5.03908495,13.176903 5.03908495,12.9428049 C5.03908495,12.7171439 5.12158748,12.5214008 5.28645572,12.356579 L7.64331907,9.99995439 L5.28645572,7.64310179 C5.12154187,7.47837112 5.03908495,7.28290167 5.03908495,7.05719511 C5.03908495,6.82277771 5.12158748,6.62315807 5.28645572,6.45819936 L6.45841124,5.28643161 C6.6233707,5.12151851 6.82299125,5.03906197 7.05740972,5.03906197 C7.28311731,5.03906197 7.47840522,5.12156412 7.64331907,5.28643161 L10.0001824,7.64310179 L12.3569546,5.28643161 C12.5215948,5.12151851 12.7171563,5.03906197 12.9428639,5.03906197 C13.177328,5.03906197 13.3770854,5.12156412 13.541908,5.28643161 L14.7136811,6.45819936 C14.8786406,6.62315807 14.9612343,6.82277771 14.9612343,7.05719511 C14.9612343,7.28285606 14.8786406,7.47837112 14.7136811,7.64310179 L12.3569546,9.99995439 L14.7136811,12.356579 Z" id="Shape"></path>
                    </g>
                </g>
            </g>
        </g>
    </g>
</svg>